<svg xmlns="http://www.w3.org/2000/svg" viewBox="0 0 150.95 199.56"><linearGradient id="a" gradientUnits="userSpaceOnUse" x1="150.947" y1="98.361" x2="14.09" y2="98.361"><stop offset=".108" stop-color="#009af6"/><stop offset=".777" stop-color="#01bbf4"/></linearGradient><path d="M150.95 102.38c0-9.48-3.82-18.07-10.01-24.31l-.09-.09-.06-.06-67.14-66.64-48.81 48.81 23.28 23.28-34.03 34.03 68.04 68.04 57.95-57.91-.01-.01c6.69-6.29 10.88-15.22 10.88-25.14z" fill="url(#a)"/><linearGradient id="b" gradientUnits="userSpaceOnUse" x1="72.538" y1="58.942" x2="24.476" y2="10.879"><stop offset=".108" stop-color="#005bea"/><stop offset=".977" stop-color="#038ff1"/></linearGradient><path d="M82.66 34.54C82.66 15.46 67.2 0 48.12 0S13.59 15.46 13.59 34.54c0 9.68 3.99 18.41 10.4 24.68l24.14 24.14 24.14-24.14c6.4-6.27 10.39-15.01 10.39-24.68z" fill="url(#b)"/><linearGradient id="c" gradientUnits="userSpaceOnUse" x1="0" y1="141.486" x2="96.246" y2="141.486"><stop offset=".108" stop-color="#00ebff"/><stop offset=".977" stop-color="#01d6fe"/></linearGradient><path d="M81.38 116.67L48.12 83.41l-33.25 33.25C5.71 125.43 0 137.76 0 151.43c0 26.58 21.54 48.12 48.12 48.12S96.24 178 96.24 151.43c.01-13.67-5.71-26-14.86-34.76z" fill="url(#c)"/></svg>