<?xml version="1.0" standalone="no"?>
<!DOCTYPE svg PUBLIC "-//W3C//DTD SVG 20010904//EN"
 "http://www.w3.org/TR/2001/REC-SVG-20010904/DTD/svg10.dtd">
<svg version="1.0" xmlns="http://www.w3.org/2000/svg"
 width="1249.000000pt" height="264.000000pt" viewBox="0 0 1249.000000 264.000000"
 preserveAspectRatio="xMidYMid meet">

<g transform="translate(0.000000,264.000000) scale(0.100000,-0.100000)"
fill="#000000" stroke="none">
<path d="M2192 2564 c-115 -25 -236 -80 -347 -159 -90 -64 -234 -213 -241
-250 -3 -16 -6 -161 -7 -322 -2 -235 0 -289 11 -281 9 8 11 7 6 -6 -3 -9 -11
-16 -18 -16 -6 0 -4 -4 4 -10 11 -7 17 -2 26 18 7 17 7 29 1 33 -5 4 -5 9 2
13 6 4 11 4 11 -1 0 -4 21 30 46 77 133 244 361 465 548 530 100 36 214 20
251 -34 19 -26 19 -107 0 -171 -27 -91 -118 -258 -241 -442 -67 -100 -127
-198 -134 -217 -25 -78 34 -156 119 -156 38 0 61 8 116 41 147 89 163 94 325
94 192 0 288 -28 379 -110 148 -134 107 -457 -85 -663 -78 -85 -164 -139 -284
-178 -330 -107 -616 79 -855 556 -67 134 -136 303 -190 463 -18 54 -35 101
-38 104 -10 9 -57 -164 -79 -289 -30 -167 -32 -478 -5 -578 22 -78 64 -158 86
-164 9 -3 45 -1 81 3 62 8 65 7 84 -18 44 -58 185 -196 246 -241 149 -110 299
-161 469 -160 181 0 319 33 476 110 270 133 458 376 515 663 23 117 10 355
-22 394 -6 7 -8 13 -4 13 4 0 0 10 -9 23 -8 13 -12 27 -8 32 5 4 2 5 -5 1 -8
-5 -13 -3 -11 5 3 26 -1 39 -12 39 -6 0 -8 -8 -5 -17 4 -13 1 -12 -13 5 -11
12 -24 22 -31 22 -14 0 -41 26 -34 33 3 3 -4 8 -15 12 -12 3 -21 11 -21 16 0
5 -7 9 -16 9 -17 0 -93 75 -95 93 -1 7 -1 19 0 27 2 13 0 13 -8 1 -8 -12 -14
-13 -36 -3 -16 7 -23 17 -19 24 4 6 3 8 -4 4 -6 -3 -13 -2 -17 3 -3 5 -13 10
-23 10 -19 0 -49 6 -104 19 -20 6 -90 10 -155 11 -64 1 -118 3 -119 4 -2 2 99
173 113 192 5 6 9 17 11 25 2 8 8 18 14 21 5 3 9 9 8 13 -3 13 12 66 19 66 4
0 7 8 8 18 0 9 6 44 13 77 7 35 10 95 7 143 -4 70 -11 96 -40 156 -109 219
-373 330 -645 270z m-568 -430 c3 -8 2 -12 -4 -9 -6 3 -10 10 -10 16 0 14 7
11 14 -7z m3 -526 c-3 -8 -6 -5 -6 6 -1 11 2 17 5 13 3 -3 4 -12 1 -19z"/>
<path d="M1068 2453 c7 -3 16 -2 19 1 4 3 -2 6 -13 5 -11 0 -14 -3 -6 -6z"/>
<path d="M1165 2450 c4 -6 11 -8 16 -5 14 9 11 15 -7 15 -8 0 -12 -5 -9 -10z"/>
<path d="M1189 2433 c-11 -15 -11 -16 0 -6 17 15 41 6 34 -13 -3 -9 2 -14 16
-14 13 0 21 6 21 17 0 9 -3 14 -6 10 -4 -3 -13 0 -21 8 -19 19 -28 19 -44 -2z"/>
<path d="M1272 2410 c2 -8 13 -22 26 -31 13 -9 23 -20 23 -25 -1 -5 3 -9 9 -9
5 0 16 -9 25 -20 l16 -20 -10 20 c-21 40 -95 110 -89 85z"/>
<path d="M914 2358 l-29 -33 33 29 c30 28 37 36 29 36 -2 0 -16 -15 -33 -32z"/>
<path d="M1262 2195 c-34 -15 -137 -107 -153 -137 -7 -13 0 -56 25 -151 39
-146 104 -369 109 -374 2 -1 18 36 37 85 36 96 113 255 158 325 l28 45 -22 89
c-13 48 -23 99 -24 113 0 15 -3 20 -8 13 -5 -8 -13 -9 -22 -3 -22 14 -90 11
-128 -5z"/>
<path d="M4262 1343 c-295 -720 -352 -866 -352 -906 l0 -47 162 2 163 3 79
193 80 192 400 0 401 0 80 -195 79 -195 187 0 186 0 -371 903 -371 902 -185 3
-185 2 -353 -857z m682 100 c80 -205 146 -375 146 -378 0 -3 -133 -5 -295 -5
-162 0 -295 2 -295 6 0 4 227 591 275 712 10 24 19 42 20 40 2 -2 69 -171 149
-375z"/>
<path d="M5827 2193 c-4 -3 -7 -411 -7 -905 l0 -898 155 0 155 0 0 43 c0 23 3
52 6 65 6 22 8 21 51 -19 54 -50 165 -103 251 -119 86 -17 249 -8 333 19 140
44 274 158 343 291 62 118 78 181 83 330 8 211 -34 361 -138 497 -198 256
-622 285 -866 60 l-43 -40 0 342 0 341 -158 0 c-87 0 -162 -3 -165 -7z m791
-773 c98 -25 188 -117 222 -227 28 -89 28 -237 0 -324 -53 -167 -184 -257
-359 -247 -62 4 -88 11 -139 38 -119 63 -182 170 -190 324 -10 199 58 340 199
412 83 42 168 49 267 24z"/>
<path d="M10837 2193 c-4 -3 -7 -411 -7 -905 l0 -898 155 0 155 0 0 43 c0 23
3 52 6 65 6 22 8 21 51 -19 54 -50 165 -103 251 -119 86 -17 249 -8 333 19
140 44 274 158 343 291 62 118 78 181 83 330 8 211 -34 361 -138 497 -198 256
-622 285 -866 60 l-43 -40 0 342 0 341 -158 0 c-87 0 -162 -3 -165 -7z m791
-773 c98 -25 188 -117 222 -227 28 -89 28 -237 0 -324 -53 -167 -184 -257
-359 -247 -62 4 -88 11 -139 38 -119 63 -182 170 -190 324 -10 199 58 340 199
412 83 42 168 49 267 24z"/>
<path d="M9865 1694 c-229 -47 -413 -224 -477 -461 -28 -104 -31 -307 -5 -403
49 -186 161 -331 314 -408 120 -59 204 -75 371 -70 121 4 147 8 225 35 111 39
184 83 265 158 l64 60 -90 83 c-50 45 -93 82 -97 82 -4 0 -27 -18 -52 -40 -98
-86 -218 -125 -363 -118 -73 3 -94 9 -148 38 -35 18 -79 52 -98 74 -36 42 -74
130 -74 171 l0 25 476 0 477 0 -6 133 c-3 73 -13 161 -23 197 -61 235 -215
393 -435 445 -79 18 -231 18 -324 -1z m293 -263 c91 -46 153 -131 168 -228 l7
-43 -317 0 -316 0 6 28 c26 114 120 227 212 257 65 21 185 14 240 -14z"/>
<path d="M7240 1666 c0 -2 97 -288 215 -637 118 -348 215 -634 215 -636 0 -2
74 -3 164 -3 l163 0 26 73 c26 72 250 720 258 746 3 7 51 -123 108 -290 57
-167 122 -355 144 -417 l39 -112 165 2 165 3 214 635 c118 349 214 636 214
638 0 1 -74 2 -164 2 l-164 0 -16 -47 c-8 -27 -63 -199 -121 -383 -58 -184
-113 -357 -122 -384 l-16 -49 -151 429 -151 429 -136 3 -137 3 -26 -73 c-14
-40 -82 -235 -150 -433 l-124 -359 -26 84 c-14 47 -75 240 -135 430 l-109 345
-171 3 c-94 1 -171 1 -171 -2z"/>
</g>
</svg>
