<svg xmlns="http://www.w3.org/2000/svg" viewBox="0 0 400.105 547.394">
  <path fill="#fff" d="M204.269 67.823V54.03a55.535 55.535 0 0 0-4.122-20.69c-1.374-2.759-2.748-5.517-4.809-7.586-4.809-4.828-6.869-11.034-4.809-17.931A12.368 12.368 0 0 1 193.965 3c2.061-.69 4.809-2.069 7.556-2.759 5.5-1.379 9.617 3.448 9.617 9.655a107.458 107.458 0 0 1-2.748 14.483 7.643 7.643 0 0 0 0 5.517c.687 3.448 2.061 6.9 2.748 11.035v43.444a2.961 2.961 0 0 0 2.748 2.758c1.374.69 2.748-.69 3.435-2.069 2.748-3.448 4.809-6.207 7.556-9.655a96.524 96.524 0 0 1 22.669-17.931c4.809-2.759 6.869-6.9 7.556-11.724.687-3.448 1.374-6.9 4.809-8.966 4.122-2.758 8.243-2.758 13.052-2.069.687 0 1.374.69 2.061 1.379 4.122 5.517 6.182 11.034 3.435 17.241-.687 2.759-4.809 4.828-7.556 4.138-5.5-2.069-10.3-.69-15.8 1.379a83.356 83.356 0 0 0-30.225 25.517c-2.061 2.759-3.435 6.207-4.809 9.655-.687 1.379 0 3.448 0 4.828s0 2.069-1.374 2.759a33.411 33.411 0 0 1-4.809 2.069 10.949 10.949 0 0 0-5.5 6.9c-3.435 12.414-6.183 24.138-9.617 36.552a45.535 45.535 0 0 1-7.556 16.552c-1.374 2.069-2.061 4.828-3.435 6.9-.687.69-.687 2.069-1.374 2.759-1.374 2.069-3.435 3.448-4.809 5.517-1.374 2.759-2.061 4.828-3.435 7.586a16.526 16.526 0 0 0-1.374 6.207c-.687 8.276-2.061 17.241-2.748 25.517 0 2.069-.687 4.138 0 6.207a3.251 3.251 0 0 0 3.435 3.448c2.061 0 2.748-1.379 3.435-2.759 4.809-8.965 10.3-16.552 19.234-22.069a109.555 109.555 0 0 0 22.669-17.241 45.308 45.308 0 0 0 8.243-11.724 63 63 0 0 1 5.5-8.965 14.905 14.905 0 0 0 3.435-11.724c-.687-4.827 2.061-8.965 6.869-11.034 6.869-2.759 15.113 2.758 15.113 9.655a33.706 33.706 0 0 1-.687 8.276c-.687 3.448-3.435 5.517-6.869 4.828-5.5-.69-9.617 1.379-13.052 5.517-1.374 2.069-3.435 4.138-4.122 6.207a69.1 69.1 0 0 1-19.234 20.69 237.487 237.487 0 0 1-21.3 15.172c-4.809 3.448-8.243 8.276-10.991 13.793a63.4 63.4 0 0 0-6.182 15.862 5.278 5.278 0 0 1-1.374 3.448c-1.374 2.069-1.374 4.828-.687 7.586 2.061 8.276 6.869 15.862 9.617 24.138 2.748 7.586 4.809 15.172 7.556 22.069 1.374 4.138 4.122 8.966 5.5 13.1A64.7 64.7 0 0 1 202.9 343a195.587 195.587 0 0 0-1.374 20c0 2.069.687 3.448 2.748 4.138a2.506 2.506 0 0 0 3.435-1.379c4.809-6.9 12.365-10.345 19.234-13.793a101.652 101.652 0 0 1 28.165-8.276 12.7 12.7 0 0 0 4.809-1.379c2.061-.69 3.435-2.759 3.435-5.517 0-5.517-.687-10.345-.687-15.862a121.611 121.611 0 0 1 6.869-46.9c2.061-5.517 2.061-11.034-2.748-15.172a7.413 7.413 0 0 1-1.374-4.138c0-5.517.687-11.034 4.122-15.172 1.374-2.069 3.435-2.759 6.182-3.448a24.744 24.744 0 0 1 14.426 2.759 14.8 14.8 0 0 1 6.869 11.035v4.828c-.687 5.517-3.435 8.276-10.991 9.655-6.182.69-9.617 4.138-10.991 9.655-.687 2.069-.687 4.138-1.374 6.207-4.122 8.965-6.182 15.172-7.556 22.069-1.374 6.207-2.061 13.1-.687 19.31.687 2.759 0 5.517.687 8.276a12.824 12.824 0 0 0 1.374 4.828c1.374 2.069 2.748 2.759 4.809.69l4.122-4.138c4.809-4.827 9.617-8.965 13.739-13.793 4.122-5.517 8.243-10.345 14.426-14.483 2.748-2.069 4.809-5.517 7.556-8.276 3.435-4.138 7.556-8.965 10.991-13.1 4.809-6.207 8.243-13.1 8.93-20.69a60.585 60.585 0 0 0 1.374-11.034 12.755 12.755 0 0 0-3.435-11.035 14.46 14.46 0 0 1-2.748-11.724c0-1.379.687-2.759.687-4.138.687-2.069 1.374-3.448 4.122-3.448a58.868 58.868 0 0 1 10.991.69c7.556 1.379 8.243 4.828 8.243 11.034a10.4 10.4 0 0 1-6.182 9.655c-4.122 2.069-5.5 4.827-5.5 8.965-.687 6.9-2.061 14.483-2.748 21.379v5.517c0 2.069 1.374 2.759 3.435 2.069 3.435-1.379 6.869-3.448 10.3-4.138 2.748-.69 6.182-.69 8.93-1.379 4.809-.69 8.93-.69 13.739-2.069 4.122-.69 8.243-1.379 11.678.69a11.448 11.448 0 0 0 8.243.69c2.748-.69 4.122 0 5.5 2.069 3.435 6.9.687 15.862-8.243 17.931-4.122 1.379-6.869-.69-10.3-2.069-.687 0-.687-1.379-1.374-2.069-.687-2.069-.687-4.138-1.374-6.207-1.374-3.448-3.435-4.828-6.87-4.828-6.182.69-12.365.69-17.86 2.069-8.243 2.069-15.8 4.828-21.982 11.035l-3.435 3.448c-1.374 2.069-1.374 4.138 1.374 5.517a33.407 33.407 0 0 0 7.556 2.759c2.748 1.379 6.182 2.069 8.93 2.759a6.655 6.655 0 0 0 6.182-.69c6.183-4.138 13.739-.69 14.426 6.9.687 4.828-.687 8.966-2.748 13.1-2.061 3.448-6.182 4.828-10.3 3.448-4.809-2.069-8.243-4.828-8.243-10.345-.687-8.276-6.869-10.345-13.052-11.034-2.748-.69-6.182 0-8.93-.69-2.061 0-4.122-1.379-5.5-2.069-2.748-1.379-4.122-1.379-6.182.69a75.34 75.34 0 0 0-7.556 6.9 137.754 137.754 0 0 0-13.052 15.173c-2.061 2.759-1.374 4.138 1.374 5.517A175.346 175.346 0 0 0 308 339.547c1.374.69 3.435 1.379 4.809 2.759 2.061 1.379 4.809.69 6.869-.69 2.748-2.069 5.5-2.759 8.243-.69a4.117 4.117 0 0 0 2.748.69c4.122 0 5.5 1.379 6.182 4.828a16.876 16.876 0 0 1 0 8.276c-.687 4.138-4.809 6.207-9.617 5.517a13.894 13.894 0 0 1-9.617-5.517c-4.122-6.207-10.991-9.655-17.86-12.414-3.435-1.379-7.556-2.759-10.991-4.138l-4.122-2.069c-2.061-1.379-4.122-1.379-5.5.69-2.061 1.379-3.435 3.448-5.5 4.828a8.294 8.294 0 0 0-3.435 3.448c-1.374 2.759-4.122 3.448-6.869 4.138A170.6 170.6 0 0 0 222.13 363c-7.556 3.448-12.365 8.966-16.487 15.862-2.061 3.448-4.122 6.207-5.5 9.655a7.525 7.525 0 0 0-.687 3.448c.687 2.759-.687 5.517-1.374 8.276a147.671 147.671 0 0 0-6.869 28.965c0 2.069-.687 3.448-.687 5.517v2.069c0 4.138 1.374 5.517 5.5 3.448 2.061-.69 3.435-2.069 4.809-2.759 4.809-4.138 10.3-6.9 16.487-9.655A91.515 91.515 0 0 0 229.686 423a5.176 5.176 0 0 0 2.748-.69c2.748 0 4.809-2.069 4.809-5.517v-5.517c0-4.827 3.435-7.586 7.556-9.655 3.435-2.069 7.556-.69 10.3 1.379 3.435 2.069 4.809 5.517 4.809 9.655-.687 4.828-2.748 8.276-7.556 10.345-3.435 1.379-6.183 1.379-9.617 2.069-2.748 0-5.5 1.379-8.93 2.069-6.869 2.069-13.052 4.828-19.921 6.9-.687 0-1.374.69-2.061.69-5.5 4.138-10.991 8.276-16.487 13.1-4.122 3.448-6.183 8.276-5.5 14.483.687 4.138-.687 8.276 0 12.414a93.817 93.817 0 0 0 1.374 13.793v35.173a6.272 6.272 0 0 0 2.061 4.828c2.748 2.759 2.748 6.207 3.435 9.655 2.061 13.1-12.365 10.345-13.739 3.448-2.061-8.276-2.748-17.242-3.435-26.207a26.527 26.527 0 0 0-7.556-15.862 30.619 30.619 0 0 1-5.5-7.586l-6.183-12.414a15.293 15.293 0 0 0-14.426-8.966c-4.122 0-8.243-1.379-12.365-2.069a200.644 200.644 0 0 0-19.921-3.448c-6.182-.69-11.678-.69-17.86-1.379-4.122-.69-7.556-1.379-11.678-2.069q-4.122-1.034-6.182 2.069c-3.435 4.828-7.556 6.207-13.052 6.9-3.435.69-5.5-.69-7.556-3.448-4.122-4.828-5.5-10.345-3.435-15.862a11 11 0 0 1 4.809-6.207 29.032 29.032 0 0 1 9.617-4.138c2.748-1.379 4.809 0 6.869 2.069 2.061 2.759 4.809 4.828 5.5 8.276 1.374 3.448 4.122 4.827 6.869 5.517 6.869 1.379 14.426 2.759 21.982 2.069 6.182-.69 12.365-.69 18.547-1.379a15.071 15.071 0 0 0 5.5-.69c2.748-.69 4.122-2.759 2.061-4.828a75.26 75.26 0 0 0-8.93-11.724 59.414 59.414 0 0 0-9.617-8.965 18.272 18.272 0 0 1-3.435-4.138l-4.122-6.207c-2.748-4.138-5.5-8.966-8.243-13.1-4.809-6.9-9.617-13.793-14.426-20-3.435-4.828-5.5-11.034-6.869-17.241-.687-3.448-1.374-7.586-2.061-11.034S74.437 354.03 71 353.34s-5.5-2.069-8.243-4.138c-1.374-1.379-3.435-2.069-5.5-2.759-5.5-2.759-11.678-4.828-17.174-6.9a9.736 9.736 0 0 0-4.122-1.379 10 10 0 0 1-6.182-4.138l-1.374-1.379c-4.809-2.759-6.183-2.759-9.617.69-2.061 2.759-5.5 3.448-8.243 3.448-2.748.69-5.5 1.379-7.556-1.379C.248 332.651-.439 329.2.248 325.064a42.282 42.282 0 0 1 3.435-8.276q1.03-2.069 4.122-2.069h6.182c3.435 0 6.182 1.379 7.556 4.138l4.122 6.207c1.374 1.379 2.061 2.759 4.122 3.448 3.435.69 6.182 2.759 8.93 4.828 1.374.69 2.748 2.069 4.122 2.069 8.93 2.759 16.487 7.586 24.73 11.724.687.69 1.374.69 2.748 1.379 2.748 1.379 4.809 0 4.809-2.759a40.512 40.512 0 0 0-1.374-8.965c-.687-5.517-2.061-11.035-2.748-16.552a48.459 48.459 0 0 0-8.243-19.31 18.542 18.542 0 0 0-5.5-4.828 25.7 25.7 0 0 1-10.3-8.966c-2.061-4.138-2.061-8.276.687-11.724 1.374-2.069 3.435-3.448 4.809-5.517a7.236 7.236 0 0 1 3.435-1.379c4.809 0 11.678 2.759 13.739 8.965 1.369 4.139 1.369 8.277-1.376 12.415s-2.061 8.966 0 13.1 4.122 7.586 5.5 11.724c.687 1.379.687 3.448.687 5.517 0 4.138 1.374 8.276 2.061 13.1a88.991 88.991 0 0 1 2.748 13.1c.687 2.069 2.061 4.138 4.122 4.828 1.374.69 1.374 2.069 1.374 3.448-1.374 2.759-1.374 5.517-1.374 8.965 0 11.034 4.809 20 10.991 28.276.687.69 1.374 2.069 2.061 2.759a5.2 5.2 0 0 0 2.748 1.379c.687-.69 2.061-1.379 2.061-2.759.687-1.379 0-2.759 0-4.138 0-6.9 2.748-13.1 5.5-19.31 3.435-6.9 6.182-13.793 10.991-19.31 5.5-6.207 9.617-13.793 14.426-20.69.687-.69 1.374-2.069 2.748-2.759 4.122-2.759 5.5-6.9 6.182-11.724 0-7.586 6.182-11.724 13.052-9.655 4.122 1.379 8.243 3.448 8.93 8.276a15.22 15.22 0 0 1-1.374 9.655c-.687 2.069-2.748 2.759-4.809 2.759-3.435.69-7.556.69-10.991 1.379a7.551 7.551 0 0 0-6.869 4.138c-4.809 6.207-8.93 12.414-13.739 17.931l-6.183 8.276c-2.748 3.448-5.5 6.9-6.182 11.724-.687 2.069-1.374 3.448-2.061 5.517a37.509 37.509 0 0 0-4.122 17.241c0 10.345 2.061 20.69 8.93 29.655a59.466 59.466 0 0 0 8.93 9.655l10.3 10.345c2.748 3.448 6.182 6.9 8.93 10.345s6.869 6.207 10.991 8.276l8.243 6.207.687 1.379c1.374 2.069 2.061 4.828 3.435 6.9s3.435 3.448 4.809 5.517a39.606 39.606 0 0 0 2.748 4.828c.687 1.379.687 2.069 2.061 3.448a5.2 5.2 0 0 0 2.748 1.379c.687-.69 2.061-1.379 2.061-2.759v-6.207c-.687-11.034-.687-22.758-1.374-33.793a150.593 150.593 0 0 1 .687-17.931c0-3.448 1.374-7.586 2.061-11.035 1.374-4.828 2.748-8.965 4.122-13.793 1.374-4.138 3.435-8.965 4.809-13.1 2.748-6.9 3.435-14.483 4.122-21.379.687-8.966 2.061-17.241 2.748-26.207a54.077 54.077 0 0 0-4.122-25.517c-4.809-11.034-8.243-22.759-12.365-33.793-.687-2.069-1.374-4.828-2.748-6.9a66.445 66.445 0 0 1-7.556-19.31c-.687-1.379-.687-2.759-1.374-4.138-1.374-2.758-1.374-4.827-1.374-7.586 0-8.276 0-17.241 1.374-25.517.687-4.138 2.061-8.276 2.748-13.1a112.176 112.176 0 0 0 .687-15.172c0-3.448-2.061-6.207-5.5-7.586a25.022 25.022 0 0 1-10.991-9.655c-3.435-6.207-8.93-10.345-15.113-13.1a36.1 36.1 0 0 1-15.8-13.1c-3.435-4.828-7.556-8.965-10.991-13.1-2.061-2.069-4.122-2.069-6.869-2.759a11.648 11.648 0 0 1-4.809-.69c-3.435-.69-5.5-3.448-6.183-6.9-.687-5.517.687-10.345 4.809-13.793 3.435-2.759 7.556-4.138 12.365-2.069s6.869 5.517 7.556 10.345a33.608 33.608 0 0 1 0 11.724c-.687 4.138.687 7.586 4.122 11.034s6.182 6.9 9.617 10.345c4.122 4.138 8.243 6.9 13.739 8.276a15.009 15.009 0 0 1 3.435 2.069c2.748 3.448 5.5 6.9 8.243 11.035a21.491 21.491 0 0 0 7.556 6.207c1.374.69 3.435-.69 4.122-2.759v-4.138c-.687-6.9-1.374-13.793-1.374-20.69a67.566 67.566 0 0 0-4.122-15.862 12.1 12.1 0 0 0-2.748-3.448c-5.5-4.828-7.556-11.724-4.122-18.621q4.122-8.276 12.365-4.138c8.243 3.448 10.991 13.793 6.869 21.379l-2.061 2.069c-2.748 1.379-3.435 3.448-2.748 6.9 1.374 6.9 2.748 13.1 2.061 20 0 2.759 0 5.517 1.374 8.276.687 1.379 1.374 2.759 2.748 2.759s2.061-.69 2.748-2.069c4.122-8.965 8.93-17.241 10.991-26.9 2.061-8.965 4.809-18.621 6.869-27.586 1.374-5.517 1.374-11.034 2.061-15.862-.687-12.414 0-22.758 0-33.1Zm-54.955 397.931-6.183-4.138a4.464 4.464 0 0 0-6.182 1.384c3.435 4.828 4.809 4.828 12.365 2.759M388.37 287.133c2.748 0 4.809-2.069 4.809-4.138a2.961 2.961 0 0 0-2.748-2.759c-2.748 0-3.435 2.069-4.122 4.828 0 1.379 0 2.069 2.061 2.069M268.842 253.34c.687 2.069 1.374 3.448 2.748 3.448a2.961 2.961 0 0 0 2.748-2.759 5.278 5.278 0 0 0-1.374-3.448H270.9c-.687.69-1.374 2.069-2.061 2.759M60.012 289.2a2.069 2.069 0 1 0-2.061-2.069 1.825 1.825 0 0 0 2.061 2.069" data-name="Path 33" opacity=".15"/>
</svg>
