<svg xmlns="http://www.w3.org/2000/svg" viewBox="0 0 347.423 75.738"><g fill="#fff" data-name="Capa 2"><path d="M54.499 63.925h1.836l5.8 9.3v-9.3h1.477v11.477h-1.746l-5.886-9.289v9.289h-1.481Zm25.445 6.777-1.742-5.07-1.852 5.07Zm-2.555-6.773h1.758l4.164 11.473h-1.7l-1.167-3.437h-4.539l-1.242 3.437h-1.594Zm21.548 0v1.367H95.07v10.106h-1.578V65.293h-3.867v-1.367Zm11.109 0v7.094a4.173 4.173 0 0 0 .469 2.079 2.463 2.463 0 0 0 2.344 1.25A2.753 2.753 0 0 0 115.547 73a4.3 4.3 0 0 0 .383-1.977v-7.094h1.578v6.445a7.457 7.457 0 0 1-.57 3.258q-1.048 2.07-3.958 2.07t-3.941-2.073a7.457 7.457 0 0 1-.57-3.258v-6.445Zm23.2 5.258a3.013 3.013 0 0 0 1.73-.437 1.781 1.781 0 0 0 .637-1.578 1.693 1.693 0 0 0-.891-1.672 2.911 2.911 0 0 0-1.273-.234h-3.8v3.922Zm-5.148-5.258h5.313a5.3 5.3 0 0 1 2.164.383 2.71 2.71 0 0 1 1.617 2.711 3.049 3.049 0 0 1-.423 1.679 3.077 3.077 0 0 1-1.189 1.059 2.348 2.348 0 0 1 1.012.719 2.581 2.581 0 0 1 .379 1.445l.055 1.539a4.731 4.731 0 0 0 .109.977.96.96 0 0 0 .5.7v.261h-1.909a1.434 1.434 0 0 1-.125-.383 7.348 7.348 0 0 1-.078-.906l-.094-1.911a1.608 1.608 0 0 0-.836-1.508 3.458 3.458 0 0 0-1.4-.211h-3.537v4.919h-1.555Zm19.516 0h8.366v1.406h-6.847v3.484h6.336v1.328h-6.336v3.891h6.969v1.364h-8.485Zm36.3 5.258a3.013 3.013 0 0 0 1.73-.437 1.781 1.781 0 0 0 .637-1.578 1.693 1.693 0 0 0-.891-1.672 2.91 2.91 0 0 0-1.273-.234h-3.8v3.922Zm-5.148-5.258h5.313a5.3 5.3 0 0 1 2.164.383 2.71 2.71 0 0 1 1.617 2.711 3.048 3.048 0 0 1-.426 1.688 3.077 3.077 0 0 1-1.191 1.055 2.348 2.348 0 0 1 1.012.719 2.581 2.581 0 0 1 .379 1.445l.055 1.539a4.731 4.731 0 0 0 .109.977.96.96 0 0 0 .5.7v.256h-1.906a1.434 1.434 0 0 1-.125-.383 7.347 7.347 0 0 1-.078-.906l-.088-1.911a1.608 1.608 0 0 0-.836-1.508 3.458 3.458 0 0 0-1.4-.211h-3.539v4.919h-1.555Zm19.516 0h8.367v1.406h-6.852v3.484h6.336v1.328h-6.336v3.891h6.969v1.364h-8.484Zm19.546 7.773a3.136 3.136 0 0 0 .461 1.586 3.055 3.055 0 0 0 2.727 1.141 4.826 4.826 0 0 0 1.594-.25 1.771 1.771 0 0 0 1.391-1.734 1.5 1.5 0 0 0-.586-1.336 5.916 5.916 0 0 0-1.859-.68l-1.555-.352a7.04 7.04 0 0 1-2.156-.758 2.4 2.4 0 0 1-1.094-2.148 3.308 3.308 0 0 1 1.07-2.539 4.294 4.294 0 0 1 3.031-.992 5.265 5.265 0 0 1 3.066.871 3.144 3.144 0 0 1 1.262 2.782h-1.461a2.876 2.876 0 0 0-.5-1.414 2.9 2.9 0 0 0-2.414-.9 2.793 2.793 0 0 0-1.977.578 1.809 1.809 0 0 0-.6 1.344 1.312 1.312 0 0 0 .7 1.234 10.318 10.318 0 0 0 2.086.625l1.609.367a4.931 4.931 0 0 1 1.8.727 2.721 2.721 0 0 1 1.094 2.336 2.916 2.916 0 0 1-1.387 2.727 6.21 6.21 0 0 1-3.223.82 4.819 4.819 0 0 1-3.352-1.094 3.69 3.69 0 0 1-1.188-2.941Zm17.8-7.773h8.367v1.406h-6.852v3.484h6.337v1.328h-6.336v3.891h6.969v1.364h-8.484Zm23.859 5.258a3.013 3.013 0 0 0 1.73-.437 1.781 1.781 0 0 0 .637-1.578 1.693 1.693 0 0 0-.891-1.672 2.91 2.91 0 0 0-1.273-.234h-3.8v3.922Zm-5.148-5.258h5.313a5.3 5.3 0 0 1 2.164.383 2.71 2.71 0 0 1 1.617 2.711 3.048 3.048 0 0 1-.426 1.688 3.077 3.077 0 0 1-1.191 1.055 2.348 2.348 0 0 1 1.012.719 2.581 2.581 0 0 1 .379 1.445l.055 1.539a4.731 4.731 0 0 0 .109.977.96.96 0 0 0 .5.7v.256h-1.906a1.434 1.434 0 0 1-.125-.383 7.347 7.347 0 0 1-.078-.906l-.09-1.911a1.608 1.608 0 0 0-.836-1.508 3.458 3.458 0 0 0-1.4-.211h-3.539v4.919h-1.555Zm19.992 0 3.3 9.773 3.258-9.773h1.742l-4.186 11.473h-1.648l-4.18-11.477Zm17.914 0h8.367v1.406h-6.852v3.484h6.336v1.328h-6.336v3.891h6.969v1.364h-8.479Z" data-name="Path 3384"/><path d="M68.03 25.492a24.71 24.71 0 0 1 2.73-3.54 20 20 0 0 1 5.54-4.26 13 13 0 0 0 2.51-1.56.77.77 0 0 0 .21-.23.87.87 0 0 0 0-.48 5.87 5.87 0 0 1 0-2.13 8.79 8.79 0 0 1 2.14-3.46 3.015 3.015 0 0 1 2-1.28.66.66 0 0 0 .37-.05c.12-.06.16-.25.05-.31a5.62 5.62 0 0 0 1.23.08.43.43 0 0 0 .25-.07.15.15 0 0 0 0-.23 1.26 1.26 0 0 1 .5.12.79.79 0 0 0 .5.06.31.31 0 0 0 .23-.39 6.76 6.76 0 0 0 1.23.39.39.39 0 0 0 .26 0c.08-.05.11-.18 0-.22l.94.66a.47.47 0 0 0 .35.14c.12 0 .22-.19.13-.28a7.13 7.13 0 0 1 .83 1.07c.37.47.87.77 1.27 1.19a7.571 7.571 0 0 1 .57.7c.08.11.51.64.47.77-.22.71-.87 1.24-1 2a1.92 1.92 0 0 0 .17 1.13 4 4 0 0 0 .66.94 1.24 1.24 0 0 0 .36.29.84.84 0 0 1 .19.09.57.57 0 0 1 .16.33 10.359 10.359 0 0 1 .31 1.49 4 4 0 0 1-.46 1.65 1.55 1.55 0 0 1-.34.72 4 4 0 0 1-1 .49l-.31.12a5.64 5.64 0 0 0-1.29.61 2.22 2.22 0 0 0-.86 1.12c-.23.76.22 1.37.59 2 1 1.69.46 3.6.12 5.4a25.58 25.58 0 0 0-.5 8.89 25 25 0 0 0 3.17 8.13 9.16 9.16 0 0 0 1.63 2.49 13.52 13.52 0 0 0 7.51-4.15 16.52 16.52 0 0 0 3.81-10.73 12.12 12.12 0 0 0-5.9-10.3c-1.22-.65-1.44-.79 0-1.65 2.66-1.66 4.82-5.91 4.82-9a12 12 0 0 0-4.53-9.79c-3.39-2.52-7-3.31-12.6-3.31h-11l-7.89-.13c-.86 0-.94.21-.86 1.29.09.69.68 16.82.73 23.19Z" data-name="Path 3373"/><path d="M197.42 49.402c-.36-.87-9.36-24-10.44-26.79-3.17-8.07-7.85-19.95-8.35-21.17s-.65-1.44-1.22-1.3a18.47 18.47 0 0 1-3.46.36 23.72 23.72 0 0 1-3.46-.28c-1.15-.15-1 .14-1.37 1.29s-7.27 17.86-9.28 23.19c-1.88 5-8.07 22-8.64 23.54s-.72 2.09.21 2.09 2.59-.07 4-.07c1.08 0 2.95.07 4 .07h.73v-.36c.43-6.28 4.54-13 7.25-16.9.86-1.25 1.79-2.45 2.75-3.63a42.511 42.511 0 0 1 6.02-6.23c.85-.68 4.33-3.25 4.69-.71a2.78 2.78 0 0 1-.13 1.18 50.67 50.67 0 0 1-2.17 5 17.3 17.3 0 0 0-1.25 5.62c-.16 4.31 1.59 8.69 4 12.21a15.3 15.3 0 0 0 2.64 3.08 11.208 11.208 0 0 0 1 .71h3.92c.65 0 2.88-.21 4-.21.93 0 2.73.21 3.88.21.61.03 1.04-.04.68-.9Z" data-name="Path 3374"/><path d="M347.04 48.962c-1.37-3-7-15.48-7.78-17-.36-.79-.22-1.15.43-1.58 3.6-2.31 6.92-5.4 6.92-14.19 0-10.3-7.57-15.41-17.72-15.41-1.51 0-7.05.15-9.57.15-3.68 0-8.28.21-9.08.14s-.93.22-.86 1.3c.21 1.8.79 18 .79 23.69v1.18c2-.93 4-1.73 5.95-2.77 3.4-1.82 4.21-5.85 4.77-9.33s3.53-6.84 7.38-6.9a6.25 6.25 0 0 1 3.37.79 7.36 7.36 0 0 1 2.24 2.56 6 6 0 0 1 4.38 2.85 2.51 2.51 0 0 0-1.12-.16 5.13 5.13 0 0 0-3.12.85 6.15 6.15 0 0 0-2.37 5.17 45.563 45.563 0 0 0 .34 4.8 22.191 22.191 0 0 1-1.44 9.11 2.561 2.561 0 0 1 .21.44c.72 1.8 6 13.9 6.41 14.84.29.72.44.86 1.23.86.43 0 3.17-.21 4.39-.21s3.6.21 4.1.21c.72-.02.65-.23.15-1.39Z" data-name="Path 3375"/><path d="M44.64 48.102c.14 1.15-.14 1.37-.86 1.3a22.08 22.08 0 0 1-5.12-2.45 29.23 29.23 0 0 1-15.33 4.39C9.93 51.342 0 40.212 0 25.782 0 10.372 10.22.002 23.33.002a22.54 22.54 0 0 1 18.43 9.5c.58.72.51 1.23.29 1.52a23.41 23.41 0 0 1-2.38 2.66c-.57.58-1.8 2.16-2.23 2.59a1.1 1.1 0 0 1-1.66-.36c-2.73-4-6.91-7.63-12.09-7.63-8 0-14.76 7.27-14.76 17.5 0 9.36 6.4 17.5 14.83 17.5a18.78 18.78 0 0 0 11.81-3.53c-.15-2.16-.51-6.34-.58-7.49-.14-1.66-.43-5.33-.43-5.83s.5-.65 1.3-.58c.64 0 2.44.14 3.45.14s3.6-.14 4.11-.14.72.14.72 1.15c-.07 1.23-.22 5.62-.15 9.43.08 3.1.29 9.08.65 11.67Z" data-name="Path 3376"/><path d="M59.9 49.212c.07.87-.07 1.15-1 1.08-.5 0-3.09-.21-3.89-.21s-3.45.21-3.88.21c-.8 0-.94-.21-.87-1.22.07-.72.72-18.15.72-23.76s-.65-22.33-.72-23c-.07-1.08.07-1.36 1.08-1.29.58.07 3.1.21 3.82.21s3.38-.21 3.81-.21c.87 0 .94.21.87 1.15-.07.72-.51 19.08-.51 23.19-.01 3.37.5 23.17.57 23.85Z" data-name="Path 3377"/><path d="M234.65 43.062c-.08.43-.22 1.94-.29 3.38s-.15 2.81-.22 3.24c-.14.87-.5 1.16-1.73 1-1.94-.14-11.37-.57-15.12-.57-2 0-14 .21-14.69.21s-.93-.21-.86-1.22c.07-.72.5-17.21.5-22.83s-.64-23.18-.72-23.9c-.07-1.08 0-1.3.87-1.3.5.07 3.17.22 3.89.22s3.6-.15 4-.22c.79 0 .86.22.79 1.08-.07.65-.51 17-.51 22s-.14 10.88 0 17.57c0 1 .08 1.37.58 1.37 2.38 0 7.63-.07 11.16-.14a102.147 102.147 0 0 0 11.67-.94c.6-.1.75.26.68 1.05Z" data-name="Path 3378"/><path d="M262.8 7.632c.07.65-.07.94-.65.94s-8.64-.29-12.46-.43c-.07 2.66-.29 14.25-.29 17.21 0 3.38.51 23.18.58 23.9s-.07 1.15-1 1.08c-.5 0-3-.21-3.89-.21s-3.38.21-3.88.21c-.72 0-.94-.21-.87-1.22.07-.72.65-18.15.65-23.76 0-4.47-.14-10.66-.36-17.21-3.38.21-12.74.57-13.32.57-.36-.07-.5-.21-.29-.79.07-.29.43-1.8.65-3.24s.36-3 .5-3.38.22-.51 1-.44 12.1.72 16.42.72 15.19-.72 16.06-.86.86 0 1 .65a28.821 28.821 0 0 1-.07 3.38c0 .79.22 2.23.22 2.88Z" data-name="Path 3379"/><path d="M147.39 48.922c-1.36-2.95-7-15.48-7.77-17-.36-.79-.22-1.15.43-1.58 3.6-2.3 6.91-5.4 6.91-14.18 0-10.3-7.56-15.41-17.71-15.41-1.51 0-7.06.14-9.58.14-3.67 0-8.28.22-9.07.14s-.94.22-.87 1.3c.22 1.8.8 18 .8 23.69 0 5.4-.65 22.32-.72 23-.08 1 .07 1.23.86 1.23.43 0 2.23-.22 3.67-.22a36.8 36.8 0 0 1 4 .29v-9.72c-.09-.17-.19-.33-.29-.49a50.489 50.489 0 0 1-3.59-5.7 15.29 15.29 0 0 1-1.47-5.59v-1.58a4.74 4.74 0 0 1 .54-2.74 10.48 10.48 0 0 0 .82 3c.18.62.24 1.27.46 1.87.47 1.28 1.59 2.2 2.21 3.41.83 1.61.73 3.6 1.41 5.23.16-6 .84-12.15 4-17.19l.06-.11a.72.72 0 0 0-.72-.28 2 2 0 0 0-.76.33l-1 .59a1.7 1.7 0 0 1-.65.27.83.83 0 0 1-.78-.42.82.82 0 0 1 .09-.89 2.72 2.72 0 0 1-.87-.43 1 1 0 0 1-.39-.85 1.24 1.24 0 0 1-2.11-.92 2.06 2.06 0 0 0 0-.35 3.12 3.12 0 0 0-.35-.85c-.12-.29-.06-.72.24-.79a1.15 1.15 0 0 1-.43-1.19 1.18 1.18 0 0 1 .93-.87.53.53 0 0 1 .09-.75 1.51 1.51 0 0 1 .15-1.39 2.45 2.45 0 0 1 .36-.6.81.81 0 0 1 .61-.28 1.33 1.33 0 0 1 .74-.73 1.3 1.3 0 0 1 1 0 1.06 1.06 0 0 1 1.14-.5.16.16 0 0 1 0-.06.78.78 0 0 1 .76-.55 1 1 0 0 1 .9-.93 2.21 2.21 0 0 1 1.33.35.53.53 0 0 1 .69-.28 1.06 1.06 0 0 1 1.09-.32 2 2 0 0 1 1 .65 1.31 1.31 0 0 1 1.38-.33c.3.11.54.33.83.46.7.32.86-.45 1.51-.06a2.4 2.4 0 0 1 1.41 1.14c.23-.63 1.25-.59 1.62 0a1.82 1.82 0 0 1-.09 1.89 1.8 1.8 0 0 1 2.65.29c.13.2.1.59-.14.55a1.7 1.7 0 0 1 1.06.95 4.31 4.31 0 0 0 .39 1 2.88 2.88 0 0 0 .91.62 1 1 0 0 1 .56.88c-.08.42-.57.6-1 .71a3.69 3.69 0 0 1 .42 3.53 1.9 1.9 0 0 1-.65.88 1 1 0 0 1-1 .06.62.62 0 0 1 .23.68.59.59 0 0 1-.6.38 1.49 1.49 0 0 1 .1 2.15 1.87 1.87 0 0 1-2.24.24.75.75 0 0 1-.7 1.1.88.88 0 0 1-1.61.53c-.19.47-.87.45-1.33.22a2.723 2.723 0 0 0-1.39-.53c-.5.05-.88.45-1.33.34a.91.91 0 0 1-.62-.8 2.441 2.441 0 0 1 0-.54c-.6.27-1-.21-1.2-.74-.27-.85.2-1.7-.33-2.48-.06-.09-.25-.24-.39-.4a29.61 29.61 0 0 0-4.09 11.77c10.08-.4 10.58.11 11.15 1.46.72 1.8 6 13.9 6.41 14.83.29.72.43.87 1.22.87.43 0 3.17-.22 4.39-.22s3.6.22 4.11.22c.78-.03.71-.25.2-1.4Z" data-name="Path 3380"/><path d="M305.35 49.292c-.36-.86-9.36-24-10.44-26.79-3.17-8.06-7.85-19.94-8.35-21.17s-.65-1.44-1.23-1.29a19.24 19.24 0 0 1-3.45.36 23.6 23.6 0 0 1-3.46-.29c-1.15-.14-1 .14-1.37 1.3s-7.27 17.85-9.29 23.18c-1.87 5-8.06 22-8.64 23.55s-.72 2.09.22 2.09 2.59-.08 4-.08c1.08 0 2.95.08 4 .08h2.33v-23.8h4.46v1.27h7.03v-5.35s-.93-.14-1.34-.23-.22.49-.22.49-.95.5-1.12.23a1 1 0 0 1 0-.72c0-.1 1-1.13 1.49-1.16s1.19-1 1.19-1v-.53h.36v8.23h4.62l4.45 3.64v5l2.16 1.76v.86l.82.67v-.86l1 .85v10.63h2.15c.65 0 2.88-.22 4-.22.94 0 2.74.22 3.89.22.67 0 1.1-.06.74-.92Z" data-name="Path 3381"/></g></svg>