<svg id="Layer_1" data-name="Layer 1" xmlns="http://www.w3.org/2000/svg" viewBox="0 0 152.3 101.54"><defs><style>.cls-1{fill:#e2ac58;}.cls-2{fill:#101010;}</style></defs><rect id="Prostokąt_6-2" data-name="Prostokąt 6-2" class="cls-1" width="152.3" height="101.54"/><path id="Kształt_29" data-name="Kształt 29" class="cls-2" d="M52.45,77,52,66.37l-3.16-4.86,1-2.5-1.1-.94-1.36-.6-.45-.64L45,55.8l-1.11.11-2.08-1.53-2-3.67-.24-.09,1.63,3.62-.38-.06-3.49-6,.94-5.8-2.36-5.8L33,35.37,31.7,36.92l-.58.21-2.87,1L28,38l2.76-1.33.3-.51-.55-.11-.6-2,1.89-3.91,1.1-.16.32-1.57,3.94-.31,3.53,2,2.94.81,3.31,2.19L49.3,33l1.35-3.65,2.27.56-1.3,1.44.12,1.76.45.56.47-.73-.5-.62L52.43,31l1.36-.88.35.14,2.26.86.05.91,1.15,1.91,0,.62.53,1.14-.78.94L57,36.28l-.15.25.38.37-.9,1.24-1.38-.8-.18-.5-1.12-.23.3-.79.7.21,1.13-1.33-.29-.25-.56.72h-.25l-.28-.56.39-.37-.08-.16-.35.15-.16-.17.14-.47L54,33.45l-.17.78-.29.15,0,.52-.85.6-.4-.17-.17.16.91,1.32-.27.23-.42.08-.32.47-1.35-.83-2,2,.16,1.1,1.89,1.26.47,1.41.38-.16-.06-1.56L52.93,39l-.47-1.25.22-.5.53,0,2.1,1.1.07,1.1h.29l.5-.67h.36l1.6,3.19L58.81,45l-2.1-.28-.19-.82-1,.25.67,1.51L52,47.89l-2.37,2.82.06,1.66-.75.11L48,50.88,44.57,52,44.29,54l1.06.43,1.18-1.11.86.75.14,1.42,1.14,1.6,6,.16,4.73,3.61,3.16,1.25.31,1.57-1.42,3.76-2.06,1.13-4.5,7L55,78.45h1l.16.94-1.9.32Zm69.16,2,0-.78,2.72-2.2.32.55L122,79.1Zm-65.09-.92.08-.53.75-.07.17.42-.21.28Zm36-.89.12-.48.65.3-.3.48Zm23.23-1,0-1.1.55.31H117l-.32.94-.51.2Zm8.92-.12.2-.39-.24-.43.59-.4L125,73l.28-.11.75,1.84.47,0,.08.27L125,76.44Zm-9-1.8-1-.9-.08-.43-.51-.12-.79-1.41-.59-.27-4.3,1.17-.71-.55.2-1.21,0-3.17,2.16-.94.48-.75,1.65-1,.67.12,1-1,1.58.43-.2.86.87.7.55-1.84.43-.12,1.38,2.7L120,69l-2,4.82-1.18.67ZM78.84,71.2l-2.22-6,.83-1.79-1.55-3,.26-1.18-1.6-.67-3.66.72-2.53-3.18.87-3.38,2.48-3.34,4.7-.56.26,1.07,2.37,1,.42-.77,3.81.56.47-1.33-2.27-.26-.78-1.38-.56.15.36.77-.1.36.88.57-.26.2-.67-.36-1.14-1-.34-1.13L77,45.81l-.1.36,1.57,1.23.33.35-.1.16-.39-.33.16.66L78,48.6l0,.28-.8-.33,0-.18.93-.08-.2-.61-.93-.52-1-1-.62.62-.72-.18-.39.71-.64.54-.13.64L72.9,49l-1,0-.13.15-.21,0L71,48.65l-.1-.44L71,47.5l.15-1,1.89,0-.24-1.23-.7-.54V44.5l.73-.15.9-.39,1.12-1.22.89-.32-.09-.88.37-.37.15.23-.09.54-.09.29.35.11.72-.09,1.17-.31.86.23.17-.14-.46-.55.35-.68.34.06.15-.2-.32-.23.06-.31L80.66,40l.11-.45-1.57.11-.38-.29,0-1,.8-1.25-.63-.2-.4.94-.66.91.11.8.4.28,0,.55-.37.14-.06.6,0,.25-.8.43-.51-.2-.38-1.31-.77.57-.63-.34L74.64,39l1.86-1.65.86-2.08,2.18-1.2,1.18.34,2.78,1.42-.57.75-1-.06.11.83.8.51.15-.26-.32-.34.15-.17.57.06L84,36.3l.4-.4-.14-.77.29-.11.17.74,1.52-1,1.26-.2.49-.2-.78-.43.35-.2,1.14.11,1.2.66.23-.17-.86-.57L89,32.9l.12-1.71.34.06.18.34.48.12,1.2,2.76-.25.94.37.14.31-1.4.52,0,.29.34,0-.17L92.4,34l-.86,0L90.74,32l.43-.8,1.49,1.06.15-.32-1.49-1,1.34-.68-.25-.77,1.37-1.69.83-.37-.2-.82L94.9,26l1.15.69,1.89.39-.2,2.23.26-.12.4-.6,1.66.06,1.09,0,.11-.45,1.61.23,1,1.33.37-.11-.08-.54,1.52-.54-.49-.83,2.61-.42,1.17.62.6,0,1.18-.37.66.66,1.86-.54.89.25.17-.28-.49-.49,1.61-.42,4.59.48.6,2-1.52.29-.13,1.2,1,1.47L118.9,34v.41l-.83-.09-.44.59.59,2.15-.18.41.18.65-.24.55.09,1.39-.56,1-.41-.47.17-.42-1.53-3.76.47-2-1.42-.29-.12,1.06.24.59-.83.35-.77-.24-1.77.84-.18,2.23,1.3.36,1.13,3-1.24,3-1.13,1.29.53,1.94-.76.29L110,47.1l-1.42.06v.23l1.19.24-.54.94,1.07,2-1,2.35-1.89,1-.3.76-.59-.17.06-.42-.36-.23-.35.76,1.3,2-1.3,1.18-1.6-1.12.06,1.06,1.06,1.53V60l-1.24-1.24-.24-.65-.41-.23-.18-1.71-.47-.58-.71-.12-.24-.71-.83-1.11-3,2.29.47,2.64-.47.3L97.75,58l-.53.06L95.5,55l.06-.71-.65-.11-1.3-1.36-2.9-.23-.3-.65-.77.24L88.22,51l-.23.29,1.53,1.53.6-.47.41.53,1.24.7L89.88,55.5,87,56.56l-.66-1.07L84.1,51.81l-.62.21,3.15,5.08L89,57l.16,1L85.8,62.54v2.67L84.05,67l-.16,1.23-2.79,3Zm8-25.37,1.23,1.66-.23.85,1.25.22-.44-1.13-.2-.63-.73-1,.55-.61-.24-.2Zm-5.54,1,.86.38h3l.14-.46L84.15,46,84,45.36l-.4.06.1.46-.44.2-.71-.6-.42-.12Zm5.09,21.12v-1.1l.3-.5,0-.89L88.25,64l.67.6-1.37,3.71Zm37.52-.3.06-.17.5.56-.08.19Zm1.21-1.29.09-.06,0,.13-.1,0Zm2.38-.09.33-.25.16.12-.21.32Zm-2.85-.62.13-.07.27.46-.09.09Zm3.34.26-.06-.25h.58l-.08.27Zm-4.94-2.18.12-.06.12.13-.06,0Zm-12.86.09v-.16h.39v.16Zm8.75-.12-1-.82-.39.47-.83,0,0-.16-.91-.2.16-.63-1-.54-.63-.08-.44-1,.83.08.16.5.43.21.59-.4,1.7.48,1.07.9,1.14,1-.2.28Zm-7.61-.16.51-.31.4-.08.15.16-.27.12-.67.31Zm11.31,0,.09-.07.14.12-.13,0Zm.13-.16.07-.12.34.27-.07.07Zm-12.9.17-3.59-.86.12-.27.43,0,.63-.12,1.3.47,2.33.23v.32l-.47.2Zm12.36-.4,0-.12.27.21-.15,0Zm-.73-.56.09-.07.27.23,0,.07Zm-6.94-.25.24-.12,0,.47Zm6.41.09.09-.24.3.24-.06.12Zm-1.75,0-.08-.24.51,0,.75-.39.16.23-.63.55Zm-8.52-.51-.16.31-.39,0-.24-.74.43-1,1.42-.32.12.28-1.26.23v.28l.59-.2.16.23-.47.35.43.67-.12.27Zm-5.13.27-1.53-1.6-1.3-1.61h.67l2.25,1.84.63.86-.08.55Zm7.69-.59h-.4l-.08-.2.52,0,.39.24,0,.23Zm-5,0-.39,0-1-1.33.31-.39.67-.12,1.54-1.29.59.43-.2.59v.86l-.47.86-.08.47-.47.12Zm3.9.12-.07-.2h.47l.12.2Zm7.56-.38.13,0,.32.24-.16.11Zm-8.11-.21v-.15h.44l-.08.19Zm.91-.74.08-.51.24.23v.63Zm-1-2.24-.59.08,0-.47,1-.23.35,1.06-.39.2Zm-2-.46L110,57l.2.2-.4.55Zm1.15-.83-.56-1.17,0-1,.64-.12.07,1.17,1,.95.12.54-.91.32Zm-61.13-2,0-.32.53,0,.43.57-.43.1Zm2.36.25L49.71,54l-1.61-.22-.42-.46,1-.25L51.1,54l1.53.46,1.07.18.18.57Zm57.94-2.32.31-.55.28.08-.08,1.06-.28.16Zm2.28-3.41.89-1.23,1.26-.78V45.67l-.24-.63.23-.87L114,42.4l-1-2.89.18-.23,1.3,2.82.24,1.76.78.19.25.72-.43.33-.48.06.53,1.47V48.1L113,49.31l0,.66-.23.19ZM75.86,48.17l-.12-.66.31-.19.11.91Zm-.15-1.28.32-.15,0,.36-.27.15Zm-4-3,.3-.23.12-.87.37-.24-.24-.34-.13-.51-.45-.31.07-.43.55-.64.62.69,0,.55L74,43.07l-.37.68-.81.13-1,.32Zm44.14-.17.33-.51.21.21-.21.21L116,44Zm-45.17-.42.07-.83.83-.68.45.28-.22.44v.74l-1,.36Zm-9.77-4.51-.71-3.75.36-5.17-1.86-.35-.35-1.92,2-1.06.07-.5,2.7-1.48,1.07.14.43.35.36-.56L68.08,24,69.72,25l-.64.43.36.5,1.28-.07.57.49-1.86,2.9v2.27l-1.06,1.84v.92l-2.93,1.77-.92.71-1.28.42-1.15,2.48Zm-34.31-.1.76-.36,0,.25-.84.33Zm40.72-1.11.22-1.06.57-.28.21.42,1.43-.14.35.78-1.28,1Zm17.6-2.88,0-.31.29,0,0,.28ZM85.63,33l-.06-2.46.86-1.05.52-.2.57-.57.52.46-1.52,2.13-.23,1.43.92.77-.35.28Zm-39.09-.43a10.09,10.09,0,0,1-1.16-.91c0-.19.09-.37.15-.56l.92-.14-.24-.33-1.06,0,.09-.5L47.34,29l.73.53h.5l.83-.5.47.5-.71.88a8.33,8.33,0,0,0-.2,1.11,6,6,0,0,0,.38.71l-.5.59Zm30-2.32-1-1.91,1.21-.75,1.57,1.81-.43.42-.43-.7-.28.5-.15.7Zm-22.19-.38-1.24-.53.24-1.23s-.45-.21-.48-.33.24-.55.24-.55l.74.41,1.75-.33.32-.79,1-.26-.16-.75.31-.37L58.36,25l-1.24-.14-.44-.5-.09-.77,1-.38.21.18.12-.24L58.6,23l.15.14.17-.29.86-.12.24.2.3-.17,2.07.79,0,.53-1,.79-2.63,1.5-.21.39-.38.23-.15.59-.35,0-.62.53.06.56-.86.2-1-.32-1.06-.15,0,.3,1.51.23.41.47-.38.65ZM44.5,29.4l1.09-1.18.15-.41.94.15.5.85L45,30Zm8-.41.24-.47.2.09-.11.64Zm-.92-.56-.09-1.12,1-.09.21.77-.24.82ZM77,27.53l.48-.23,1.27.32-.64.8Zm-28.41.69-.5-.8,1.45-.79.26,1.06.5-.06.06-1,.53.06-.08.53.38.32-.15.77Zm55.88-1.44-.25-.47.15-.06.31.3.48,0,.54.5-.85.27Zm-50.77.4V27l.48.06-.12.23Zm-6.18-.29.5-.18-.35.44Zm34.52-.26.36-.32.51-.2.24.39-.63.44Zm-28.43.14.15-.91.44.18-.23.82Zm1.16-.29-.12-.56.24-.24a2.34,2.34,0,0,1-.09-.38c.12-.31.26-.61.41-.91l.89-.7.2.41,0,.53.56.41-.27.35,0,.62-.84.22-.46.49Zm-7.72-.33,1.86-.61-.32.7-1.27.44Zm4.55.5-.06-.43.33,0,0,.42ZM83.44,26l.51-.39.52.08.75-.35.31.31-1.22,1Zm-30.87.38,0-.42-.47-.23.11-.21.45,0,.18-.5.56,0,.12.56-.36,1Zm41-.45,0-.87.2-.11.67.5-.31.55-.32.47Zm8.81-.2.26-.78,1.86,0,.22.52-.08.44-.5.11-.39.38ZM50,25.91l.08-.43a3.48,3.48,0,0,1,.86.2l-.35.47Zm42.08-.43-1.3-.7.2-1,2,1.09.27,1Zm-41.55-.24V25l.86,0-.24.48Zm54.84-.08-.43-.19,0-.19.74-.13.47.35,0,.33-.51.06Z"/></svg>