<svg width="47" height="47" viewBox="0 0 47 47" fill="none" xmlns="http://www.w3.org/2000/svg">
  <g clip-path="url(#clip0_4012_5539)">
    <path
      d="M26.3815 36.5328C26.4168 36.5377 26.4529 36.5399 26.4898 36.539C26.8588 36.5307 27.1511 36.2247 27.1427 35.8557C27.0011 29.614 24.2356 25.6832 24.1179 25.5189C23.903 25.2187 23.4855 25.1498 23.1855 25.3647C22.8857 25.5794 22.8165 25.9963 23.0307 26.2963C23.0583 26.3353 25.6746 30.0791 25.8064 35.886C25.8139 36.2183 26.0626 36.4884 26.3815 36.5328Z"
      fill="url(#paint0_linear_4012_5539)"
    />
    <path
      d="M0.837193 2.23066C8.28568 1.98719 31.0227 3.2478 25.754 28.3424C25.5033 29.5366 24.1969 30.6744 22.9006 30.8292C19.0973 31.2834 11.4832 31.0374 5.65184 23.4737C-1.83932 13.7574 5.63995 7.29303 0.143989 3.29885C-0.253944 3.00967 0.236883 2.25029 0.837193 2.23066Z"
      fill="url(#paint1_linear_4012_5539)"
    />
    <path
      d="M6.31849 24.2939C6.09418 24.0295 5.87134 23.7584 5.65182 23.4737C-1.83933 13.7574 5.63994 7.29303 0.143976 3.29886C-0.253957 3.00967 0.236962 2.2503 0.83718 2.23067C6.56814 2.04341 21.348 2.74896 25.46 14.5142L23.5751 25.9081L6.31849 24.2939Z"
      fill="url(#paint2_linear_4012_5539)"
    />
    <path
      d="M19.9433 19.4824L2.68234 17.8678C0.695996 11.1951 4.50585 6.46889 0.143976 3.29888C-0.253957 3.00969 0.236962 2.25032 0.83718 2.23069C5.39093 2.08185 15.6585 2.49647 21.7478 8.57486L19.9433 19.4824Z"
      fill="url(#paint3_linear_4012_5539)"
    />
    <path
      d="M2.10419 11.9498L14.6064 13.1208L15.9929 4.73952C14.0253 3.87785 11.9597 3.29699 9.96544 2.91389C6.3493 2.21387 2.96733 2.16115 0.838044 2.23055C0.23801 2.24935 -0.253093 3.00973 0.14272 3.29864C1.80689 4.50876 2.28352 5.94253 2.34232 7.62688C2.39116 8.91809 2.1933 10.3566 2.10419 11.9498Z"
      fill="url(#paint4_linear_4012_5539)"
    />
    <path
      d="M2.34232 7.62698L9.08277 8.25622L9.96544 2.91389C6.3493 2.21387 2.96733 2.16115 0.838044 2.23055C0.23801 2.24935 -0.253093 3.00973 0.14272 3.29864C1.8068 4.50885 2.28352 5.94253 2.34232 7.62698Z"
      fill="url(#paint5_linear_4012_5539)"
    />
    <path
      d="M5.65173 23.4737C-1.83933 13.7573 5.63994 7.29297 0.143977 3.2988C-0.0549893 3.15421 -0.0317658 2.89202 0.11633 2.66356L0.205722 2.54865C0.205722 2.54865 18.7548 11.2848 25.0901 29.6041C24.532 30.247 23.7145 30.732 22.9005 30.8291C19.0972 31.2833 11.4831 31.0374 5.65173 23.4737Z"
      fill="url(#paint6_linear_4012_5539)"
    />
    <path
      d="M0.837193 2.23066C8.28568 1.98719 31.0227 3.2478 25.754 28.3424C25.5033 29.5366 24.1969 30.6744 22.9006 30.8292C19.0973 31.2834 11.4832 31.0374 5.65184 23.4737C-1.83932 13.7574 5.63995 7.29303 0.143989 3.29885C-0.253944 3.00967 0.236883 2.25029 0.837193 2.23066Z"
      fill="url(#paint7_linear_4012_5539)"
    />
    <path
      d="M10.7974 44.7922C10.7555 44.7922 10.713 44.7888 10.6702 44.7819C10.2415 44.7122 9.9504 44.3081 10.0201 43.8794C11.199 36.6267 15.061 32.4939 15.2249 32.3216C15.5242 32.0067 16.022 31.9941 16.3369 32.2933C16.6515 32.5923 16.6644 33.0895 16.366 33.4044C16.3274 33.4454 12.6697 37.3842 11.5728 44.1317C11.51 44.5177 11.1762 44.7922 10.7974 44.7922Z"
      fill="url(#paint8_linear_4012_5539)"
    />
    <path
      d="M46.145 8.95735C37.5023 7.46367 10.7942 5.23992 12.8595 35.3471C12.9579 36.7798 14.2958 38.3183 15.7817 38.7094C20.1412 39.8565 29.0565 40.8065 37.0824 32.9371C47.3926 22.8281 39.7245 14.078 46.7796 10.315C47.2904 10.0425 46.8416 9.07771 46.145 8.95735Z"
      fill="url(#paint9_linear_4012_5539)"
    />
    <path
      d="M36.1711 33.7849C36.4755 33.5131 36.7793 33.2334 37.0815 32.9371C47.3916 22.8281 39.7235 14.078 46.7787 10.315C47.2895 10.0426 46.8406 9.07771 46.1441 8.95735C39.4942 7.80815 22.1515 6.22997 15.4473 19.2761L15.7937 32.8635L36.1711 33.7849Z"
      fill="url(#paint10_linear_4012_5539)"
    />
    <path
      d="M21.0719 25.9633L41.4544 26.8849C44.8536 19.4296 41.1804 13.3016 46.7797 10.315C47.2905 10.0426 46.8416 9.07771 46.1451 8.95736C40.8612 8.04418 28.8256 6.85968 20.7402 12.9559L21.0719 25.9633Z"
      fill="url(#paint11_linear_4012_5539)"
    />
    <path
      d="M43.0903 20.0806L28.327 19.4149L28.0723 9.42006C30.5058 8.73524 33.0078 8.39371 35.3946 8.27104C39.7235 8.0425 43.6742 8.53037 46.145 8.95706C46.8413 9.0765 47.2903 10.0426 46.782 10.315C44.6456 11.4552 43.8571 13.0491 43.5149 15.0029C43.2482 16.5001 43.2452 18.209 43.0903 20.0806Z"
      fill="url(#paint12_linear_4012_5539)"
    />
    <path
      d="M43.5148 15.003L35.5556 14.6417L35.3945 8.27104C39.7234 8.0425 43.6742 8.53037 46.1449 8.95706C46.8412 9.0765 47.2902 10.0426 46.7819 10.315C44.6455 11.4553 43.857 13.0492 43.5148 15.003Z"
      fill="url(#paint13_linear_4012_5539)"
    />
    <path
      d="M37.0817 32.9371C47.3919 22.8281 39.7238 14.0781 46.7789 10.315C47.0344 10.1788 47.0498 9.86945 46.9144 9.57907L46.8288 9.4306C46.8288 9.4306 23.7881 16.601 13.4277 36.9257C13.9739 37.7658 14.8481 38.4639 15.7811 38.7094C20.1405 39.8566 29.0558 40.8065 37.0817 32.9371Z"
      fill="url(#paint14_linear_4012_5539)"
    />
  </g>
  <defs>
    <linearGradient id="paint0_linear_4012_5539" x1="23.9928" y1="25.1275" x2="26.45" y2="36.548" gradientUnits="userSpaceOnUse">
      <stop stop-color="#8BC727" />
      <stop offset="1" stop-color="#02905D" />
    </linearGradient>
    <linearGradient id="paint1_linear_4012_5539" x1="15.0907" y1="8.91012" x2="16.748" y2="36.7267" gradientUnits="userSpaceOnUse">
      <stop stop-color="#8BC727" />
      <stop offset="1" stop-color="#02905D" />
    </linearGradient>
    <linearGradient id="paint2_linear_4012_5539" x1="14.7296" y1="18.7956" x2="23.0182" y2="52.236" gradientUnits="userSpaceOnUse">
      <stop stop-color="#026841" stop-opacity="0" />
      <stop offset="1" stop-color="#3E5959" />
    </linearGradient>
    <linearGradient id="paint3_linear_4012_5539" x1="11.2803" y1="10.1345" x2="23.3157" y2="48.9535" gradientUnits="userSpaceOnUse">
      <stop stop-color="#026841" stop-opacity="0" />
      <stop offset="1" stop-color="#3E5959" />
    </linearGradient>
    <linearGradient id="paint4_linear_4012_5539" x1="8.26" y1="6.27394" x2="19.9372" y2="36.0499" gradientUnits="userSpaceOnUse">
      <stop stop-color="#026841" stop-opacity="0" />
      <stop offset="1" stop-color="#3E5959" />
    </linearGradient>
    <linearGradient id="paint5_linear_4012_5539" x1="5.44938" y1="5.03959" x2="11.2343" y2="31.9258" gradientUnits="userSpaceOnUse">
      <stop stop-color="#026841" stop-opacity="0" />
      <stop offset="1" stop-color="#3E5959" />
    </linearGradient>
    <linearGradient id="paint6_linear_4012_5539" x1="11.5032" y1="19.7324" x2="17.4455" y2="0.327411" gradientUnits="userSpaceOnUse">
      <stop stop-color="#026841" stop-opacity="0" />
      <stop offset="1" stop-color="#3E5959" />
    </linearGradient>
    <linearGradient id="paint7_linear_4012_5539" x1="10.3437" y1="12.8458" x2="18.2436" y2="20.6549" gradientUnits="userSpaceOnUse">
      <stop stop-color="#026841" stop-opacity="0" />
      <stop offset="1" stop-color="#3E5959" />
    </linearGradient>
    <linearGradient id="paint8_linear_4012_5539" x1="15.4502" y1="31.8998" x2="10.7284" y2="44.8182" gradientUnits="userSpaceOnUse">
      <stop stop-color="#8BC727" />
      <stop offset="1" stop-color="#02905D" />
    </linearGradient>
    <linearGradient id="paint9_linear_4012_5539" x1="28.4086" y1="14.4206" x2="21.9609" y2="46.5683" gradientUnits="userSpaceOnUse">
      <stop stop-color="#8BC727" />
      <stop offset="1" stop-color="#02905D" />
    </linearGradient>
    <linearGradient id="paint10_linear_4012_5539" x1="27.2811" y1="26.0217" x2="12.1797" y2="63.6705" gradientUnits="userSpaceOnUse">
      <stop stop-color="#026841" stop-opacity="0" />
      <stop offset="1" stop-color="#3E5959" />
    </linearGradient>
    <linearGradient id="paint11_linear_4012_5539" x1="32.7123" y1="16.4823" x2="12.3673" y2="59.7942" gradientUnits="userSpaceOnUse">
      <stop stop-color="#026841" stop-opacity="0" />
      <stop offset="1" stop-color="#3E5959" />
    </linearGradient>
    <linearGradient id="paint12_linear_4012_5539" x1="36.8627" y1="12.4714" x2="18.4054" y2="45.2961" gradientUnits="userSpaceOnUse">
      <stop stop-color="#026841" stop-opacity="0" />
      <stop offset="1" stop-color="#3E5959" />
    </linearGradient>
    <linearGradient id="paint13_linear_4012_5539" x1="40.3409" y1="11.4889" x2="29.2245" y2="41.9016" gradientUnits="userSpaceOnUse">
      <stop stop-color="#026841" stop-opacity="0" />
      <stop offset="1" stop-color="#3E5959" />
    </linearGradient>
    <linearGradient id="paint14_linear_4012_5539" x1="30.8916" y1="27.6388" x2="27.1163" y2="4.04385" gradientUnits="userSpaceOnUse">
      <stop stop-color="#026841" stop-opacity="0" />
      <stop offset="1" stop-color="#3E5959" />
    </linearGradient>
    <clipPath id="clip0_4012_5539">
      <rect width="47" height="47" fill="white" />
    </clipPath>
  </defs>
</svg>
