<?xml version="1.0" encoding="UTF-8"?>
<svg width="1920px" height="816px" viewBox="0 0 1920 816" version="1.1" xmlns="http://www.w3.org/2000/svg" xmlns:xlink="http://www.w3.org/1999/xlink">
    <title>clouds-hero</title>
    <defs>
        <rect id="path-1" x="0" y="0" width="1920" height="816"></rect>
        <polygon id="path-3" points="0.419773164 0.106023587 1952.44712 0.106023587 1952.44712 784.482353 0.419773164 784.482353"></polygon>
        <polygon id="path-5" points="0 0.516372764 1235.3719 0.516372764 1235.3719 673.153101 0 673.153101"></polygon>
    </defs>
    <g id="Desktop" stroke="none" stroke-width="1" fill="none" fill-rule="evenodd">
        <g id="Portfolio---Kalamaki" transform="translate(0.000000, -410.000000)">
            <g id="clouds-hero" transform="translate(0.000000, 410.000000)">
                <mask id="mask-2" fill="white">
                    <use xlink:href="#path-1"></use>
                </mask>
                <g id="bg"></g>
                <rect id="bg-copy" fill="#FFFFFF" mask="url(#mask-2)" x="0" y="759" width="1920" height="57"></rect>
                <g id="clouds" mask="url(#mask-2)">
                    <g transform="translate(1165.549439, 489.247011) rotate(-10.000000) translate(-1165.549439, -489.247011) translate(-67.450561, 88.247011)">
                        <path d="M1800.4045,519.576807 L1800.41363,219.225905 C1800.41363,219.225905 1499.28666,157.722834 1367.92456,295.080681 C1236.55332,432.447646 1397.91837,557.498497 1397.91837,557.498497 L1592.38293,529.82542" id="Fill-5" fill="#FFFFFF"></path>
                        <path d="M898.824438,244.895536 C898.824438,244.895536 819.764627,256.805767 774.806143,323.99122 C774.806143,323.99122 734.115739,365.081631 717.834561,442.635883 L477.549826,583.93526 L477.549826,133.93526 C477.549826,133.93526 526.381959,145.959334 540.068544,167.206949 L549.375331,180.264715 C549.375331,180.264715 578.054918,155.431052 611.390179,163.11544 C644.71632,170.792997 661.850202,193.160825 668.138325,204.882077 C674.426448,216.612437 679.850467,268.572556 679.850467,268.572556 C679.850467,268.572556 711.537318,227.072311 778.032283,254.492482 C778.032283,254.492482 779.838009,201.894843 824.413461,180.387666 C868.979793,158.891873 898.049253,176.555718 911.222848,185.38764 C924.403283,194.219563 919.754449,201.129819 919.754449,201.129819 C919.754449,201.129819 896.881914,233.761713 898.824438,244.895536" id="Fill-38" fill="#FFFFFF"></path>
                        <path d="M844.287811,211.887981 C844.287811,211.887981 829.585256,121.30178 887.612678,102.879551 C945.630998,84.4573226 967.294569,103.653403 967.294569,103.653403 C967.294569,103.653403 965.747171,41.469846 1015.25935,38.3949224 C1064.77154,35.326827 1074.06048,102.879551 1074.06048,102.879551 C1074.06048,102.879551 1100.36169,49.9071084 1157.60859,66.0350938 C1214.86231,82.153975 1224.91585,129.745871 1224.91585,129.745871 C1224.91585,129.745871 1288.35689,100.576204 1327.80643,139.730837 C1367.26508,178.876366 1340.18789,241.824672 1340.18789,241.824672 C1340.18789,241.824672 1436.11746,252.57211 1397.43251,350.059249 C1358.75666,447.555492 1254.31186,378.466444 1218.72853,364.650911 C1183.13838,350.823997 844.287811,211.887981 844.287811,211.887981" id="Fill-39" fill="#FFFFFF"></path>
                        <g id="Group-44" stroke-width="1" fill="none" transform="translate(469.840023, 16.345399)">
                            <mask id="mask-4" fill="white">
                                <use xlink:href="#path-3"></use>
                            </mask>
                            <g id="Clip-41"></g>
                            <path d="M398.01112,144.545275 C372.284044,144.714674 346.333393,154.062881 326.727249,170.777312 C306.452661,188.062591 301.837438,211.538147 299.743134,236.897501 C304.492959,234.604975 309.242784,232.312449 313.992608,230.019923 C275.368914,216.954353 225.151268,212.921882 199.96716,251.908521 C193.729878,261.56042 210.404454,265.099678 215.161123,257.733454 C235.239512,226.649636 273.345334,232.312449 303.760637,242.615115 C308.770539,244.309392 317.485395,242.044267 318.012393,235.737537 C319.730269,215.018036 322.127995,194.163815 338.836792,179.60719 C354.799579,165.683064 375.562381,158.513213 396.612636,158.360226 C407.145749,158.28944 410.193667,144.45665 398.01112,144.545275" id="Fill-40" fill="#F06414" mask="url(#mask-4)"></path>
                            <path d="M1331.15546,1166.5852 L0.668443137,1166.5852 L0.419773164,352.592417 C0.419773164,352.592417 40.6632439,281.092557 110.772206,258.633111 C142.825538,248.36698 164.338912,247.476457 164.338912,247.476457 C164.338912,247.476457 180.059874,152.875517 256.066193,155.95353 C332.074794,159.029259 338.284699,233.481546 338.284699,233.481546 C338.284699,233.481546 412.732838,168.279281 491.850954,159.54759 C570.959945,150.825031 634.560142,152.359471 681.097929,179.063743 C727.633434,205.758881 788.64427,253.504612 788.64427,253.504612 L845.525815,329.998251 C845.525815,329.998251 927.164851,349.247247 961.351269,385.192407 C995.52628,421.137568 1032.48229,512.546324 1032.48229,512.546324 C1032.48229,512.546324 1101.47566,454.246755 1181.61811,450.652695 C1261.76057,447.06777 1331.15546,476.81352 1331.15546,476.81352" id="Fill-42" fill="#FFFFFF" mask="url(#mask-4)"></path>
                            <path d="M1171.40667,195.885493 C1171.40667,195.885493 1151.23931,122.362547 1207.80146,120.791574 C1264.36362,119.21375 1286.57965,157.325849 1286.57965,157.325849 C1286.57965,157.325849 1239.9278,38.5278025 1344.37147,6.69503174 C1448.82426,-25.1308888 1456.06079,68.6754298 1456.06079,68.6754298 C1456.06079,68.6754298 1479.84641,33.3993036 1517.06934,47.7686908 C1554.30368,62.1472115 1551.20101,96.9872098 1551.20101,96.9872098 C1551.20101,96.9872098 1628.76094,42.6401919 1713.56197,62.1472115 C1798.35614,81.6542311 1834.55702,146.918147 1805.59267,203.101012 C1805.59267,203.101012 1844.90306,160.760071 1898.67509,191.551615 C1952.44712,222.331742 1952.44712,341.040736 1952.44712,341.040736 L1952.44712,1166.5852 L1230.62435,1166.5852" id="Fill-43" fill="#FFFFFF" mask="url(#mask-4)"></path>
                        </g>
                        <path d="M1979.95567,133.940507 C1967.47874,114.841902 1951.37427,102.242756 1933.45892,102.242756 C1941.53688,86.0593244 1937.7192,51.3748529 1916.1416,29.1620712 C1890.69986,2.95775171 1851.4977,-3.17463938 1816.63385,1.8496259 C1807.83639,3.1176874 1812.53035,12.1586231 1819.9121,11.0961932 C1851.25832,6.58143736 1887.45809,12.4990577 1908.53643,38.2281397 C1925.37676,58.7821599 1929.94305,88.1897626 1915.89083,111.323317 C1912.15208,117.473986 1925.07356,117.99035 1928.09192,115.385683 C1942.47471,102.935833 1963.9976,131.102791 1970.01835,141.320397 C1977.04446,153.217327 1991.88776,191.247748 1968.3154,194.898851 C1959.53617,196.253735 1964.21189,205.285531 1971.58452,204.143134 C2006.76981,198.700751 1992.84068,153.665147 1979.95567,133.940507 Z" id="Fill-46" fill="#F06414"></path>
                        <g id="Group-50" stroke-width="1" fill="none" transform="translate(28.575305, 127.636133)">
                            <mask id="mask-6" fill="white">
                                <use xlink:href="#path-5"></use>
                            </mask>
                            <g id="Clip-48"></g>
                            <path d="M1003.91712,135.0292 C1017.60466,123.304926 1046.17533,128.884063 1061.60997,133.585324 C1064.81877,134.56331 1070.49009,133.298474 1070.78513,129.170913 C1072.32975,107.549349 1088.59166,92.9238462 1106.82821,83.2075222 C1122.15679,75.0255573 1153.47923,62.090352 1160.24201,87.4101644 C1161.60536,92.5253364 1171.78328,90.4192024 1171.91055,85.5003976 C1172.71661,55.864358 1232.3301,61.1046659 1222.51472,87.1406409 C1220.11969,93.4879205 1231.72845,93.8171243 1233.65682,88.7115781 C1248.66143,48.8933239 1166.3547,52.3755336 1164.92762,72.1960185 C1157.63889,60.1807379 1130.51047,62.2559165 1110.86621,71.3407853 C1086.21977,82.7339308 1062.42865,96.5769844 1060.01507,123.393958 C1033.01676,117.769584 1013.15271,118.730084 1000.42293,126.27546 C983.239259,136.457675 981.455521,157.85977 981.483775,175.742658 C981.499873,181.991754 993.26676,180.503599 993.251333,174.997618 C993.228193,162.002732 993.085494,144.30081 1003.91712,135.0292 Z" id="Fill-47" fill="#F06414" mask="url(#mask-6)"></path>
                            <path d="M517.992932,81.5730176 L447.779692,4.50673352 C447.779692,4.50673352 411.455654,-15.3799412 336.979736,33.6373462 C262.494691,82.6432242 336.979736,143.184058 336.979736,143.184058 C336.979736,143.184058 268.708434,73.4084138 197.335965,134.976098 C125.961214,196.541501 150.78652,257.760056 150.78652,257.760056 C150.78652,257.760056 113.545139,233.48987 87.6861108,240.673261 C61.8270828,247.849806 57.6899122,262.029473 45.2738364,272.895835 C45.2738364,272.895835 53.5550235,171.913058 -14.7162788,167.812501 C-82.9875811,163.705098 -64.3668903,889.202483 -64.3668903,889.202483 L-117.127796,1071.07599 L469.376042,1082.80719" id="Fill-49" fill="#FFFFFF" mask="url(#mask-6)"></path>
                        </g>
                        <path d="M721.131354,167.634304 C678.597398,171.475449 644.594451,206.910242 638.722814,247.931118 C585.236085,253.731612 536.508352,285.87041 510.467528,331.891162 C510.467528,331.891162 522.434701,335.410691 530.824059,322.783269 C555.998988,284.916967 598.123986,258.916246 644.950862,256.25436 C647.573679,256.092411 653.411046,254.10569 653.70577,250.84391 C656.748968,216.736639 681.87135,179.376712 719.150533,176.650959 C755.981918,173.950296 790.252173,208.433926 787.780146,244.482299 C787.332348,251.049197 802.941306,248.188867 803.315994,242.700865 C806.324923,198.935988 764.02172,163.758944 721.131354,167.634304" id="Fill-51" fill="#F06414"></path>
                        <path d="M319.439025,469.349538 C315.222645,447.002566 307.725593,422.578186 293.104861,404.662256 C276.972425,384.883508 249.473867,380.094966 224.859603,379.105575 C197.858152,378.02023 184.413825,384.025952 185.070359,384.043901 C175.706372,346.347599 162.107933,326.921549 125.512848,313.909215 C84.3280091,299.266915 39.1590098,312.509819 3.90715565,335.409244 C-4.98549109,341.18946 7.83895312,347.118062 14.4276166,342.837689 C45.0032044,322.97904 84.9336015,311.715381 120.160412,326.090586 C150.895366,338.637216 173.19756,370.204682 169.543515,403.655513 C168.65334,411.796212 182.741332,409.291908 185.070359,404.082409 C191.394929,389.985713 222.20046,390.108988 234.480782,391.207046 C255.96793,393.131502 273.85112,402.29949 285.038643,420.715368 C294.01325,435.490074 299.340642,452.638961 302.86947,469.447701 C304.374344,476.590788 305.653829,483.875412 306.072735,491.17145 C306.213888,493.561611 305.993052,495.986014 306.152418,498.367043 C306.293571,500.686435 304.328811,503.34369 306.694264,501.542509 C298.227353,507.989322 310.846898,513.812912 317.205618,508.970954 C327.211554,501.364446 321.296782,479.211517 319.439025,469.349538 Z" id="Fill-52" fill="#F06414"></path>
                    </g>
                </g>
            </g>
        </g>
    </g>
</svg>