<?xml version="1.0" encoding="UTF-8"?>
<svg width="1921px" height="426px" viewBox="0 0 1921 426" version="1.1" xmlns="http://www.w3.org/2000/svg" xmlns:xlink="http://www.w3.org/1999/xlink">
    <title>clouds-top</title>
    <defs>
        <rect id="path-1" x="0" y="0" width="1920" height="425"></rect>
        <polygon id="path-3" points="0.36239772 0.954086536 1685.5827 0.954086536 1685.5827 677.578802 0.36239772 677.578802"></polygon>
    </defs>
    <g id="Desktop" stroke="none" stroke-width="1" fill="none" fill-rule="evenodd">
        <g id="Portfolio---Kalamaki" transform="translate(1.000000, -3749.000000)">
            <g id="Editor" transform="translate(-0.362736, 3661.799895)">
                <g id="clouds-top" transform="translate(0.000000, 87.400012)">
                    <mask id="mask-2" fill="white">
                        <use xlink:href="#path-1"></use>
                    </mask>
                    <g id="Rectangle"></g>
                    <g id="clouds" mask="url(#mask-2)">
                        <g transform="translate(-85.000000, -626.000000)">
                            <path d="M998.120398,780.132531 L998.114707,521.095265 C998.114707,521.095265 738.210866,468.038399 624.839146,586.496564 C511.459547,704.962593 650.738495,812.819843 650.738495,812.819843 L818.578566,788.962027" id="Fill-5" fill="#FFFFFF" transform="translate(789.252932, 661.034524) rotate(-170.000000) translate(-789.252932, -661.034524) "></path>
                            <path d="M1689.72382,710.844668 C1689.72382,710.844668 1621.35125,721.136831 1582.47295,779.212954 C1582.47295,779.212954 1547.28463,814.731531 1533.20773,881.772217 L1325.40925,1003.90694 L1325.38887,614.906468 C1325.38887,614.906468 1367.62079,625.302837 1379.45829,643.670863 L1387.50765,654.959011 C1387.50765,654.959011 1412.30942,633.492963 1441.13903,640.137208 C1469.96074,646.775547 1484.77961,666.112092 1490.21828,676.244761 C1495.65696,686.385302 1500.35015,731.302238 1500.35015,731.302238 C1500.35015,731.302238 1527.75194,695.428975 1585.25986,719.135231 C1585.25986,719.135231 1586.81912,673.667521 1625.36823,655.077759 C1663.90945,636.497837 1689.05032,651.768586 1700.44361,659.403898 C1711.84281,667.039211 1707.82269,673.01254 1707.82269,673.01254 C1707.82269,673.01254 1688.04336,701.219997 1689.72382,710.844668" id="Fill-38" fill="#FFFFFF" transform="translate(1516.949638, 809.406702) rotate(-170.000000) translate(-1516.949638, -809.406702) "></path>
                            <path d="M891.642822,857.516563 C891.642822,857.516563 878.944049,779.164897 929.045994,763.233528 C979.14008,747.302158 997.845987,763.906463 997.845987,763.906463 C997.845987,763.906463 996.507096,710.121778 1039.2574,707.464415 C1082.0077,704.812957 1090.03114,763.241963 1090.03114,763.241963 C1090.03114,763.241963 1112.73807,717.425535 1162.16765,731.377753 C1211.60312,745.322097 1220.28583,786.486356 1220.28583,786.486356 C1220.28583,786.486356 1275.06158,761.259417 1309.12539,795.127339 C1343.19705,828.987387 1319.82057,883.432233 1319.82057,883.432233 C1319.82057,883.432233 1402.64979,892.732387 1369.25236,977.050488 C1335.86278,1061.37646 1245.67858,1001.61433 1214.95414,989.663213 C1184.22381,977.702248 891.642822,857.516563 891.642822,857.516563" id="Fill-39" fill="#FFFFFF" transform="translate(1133.696602, 864.369192) rotate(-170.000000) translate(-1133.696602, -864.369192) "></path>
                            <g id="Group-44" stroke-width="1" fill="none" transform="translate(888.992527, 655.780338) rotate(-170.000000) translate(-888.992527, -655.780338) translate(46.023917, 316.988967)">
                                <mask id="mask-4" fill="white">
                                    <use xlink:href="#path-3"></use>
                                </mask>
                                <g id="Clip-41"></g>
                                <path d="M343.610156,125.551379 C321.399508,125.697508 298.995845,133.76153 282.069508,148.179861 C264.566092,163.09062 260.581687,183.341284 258.773637,205.216964 C262.874246,203.239367 266.974855,201.261771 271.075464,199.284175 C237.730935,188.013453 194.377138,184.534932 172.635244,218.165885 C167.250487,226.49188 181.645949,229.544942 185.752466,223.190634 C203.086501,196.376872 235.983941,201.261771 262.24202,210.149136 C266.567158,211.610666 274.09085,209.656706 274.545816,204.216347 C276.02889,186.343133 278.09889,168.353705 292.523894,155.796757 C306.304856,143.785421 324.229756,137.600509 342.40282,137.468538 C351.496245,137.407477 354.127568,125.47493 343.610156,125.551379" id="Fill-40" fill="#838383" mask="url(#mask-4)"></path>
                                <path d="M1149.21044,1007.19129 L0.577078978,1007.19129 L0.36239772,305.018598 C0.36239772,305.018598 35.1053096,243.340841 95.6316375,223.966702 C123.303855,215.110853 141.876738,214.342664 141.876738,214.342664 C141.876738,214.342664 155.448926,132.737277 221.066548,135.392456 C286.68614,138.045665 292.047263,202.270267 292.047263,202.270267 C292.047263,202.270267 356.31968,146.02499 424.623772,138.492791 C492.919986,130.968471 547.82718,132.292121 588.004088,155.327965 C628.179026,178.355929 680.850778,219.542717 680.850778,219.542717 L729.957638,285.528246 C729.957638,285.528246 800.438086,302.132962 829.951835,333.140252 C859.455737,364.147541 891.360523,442.999263 891.360523,442.999263 C891.360523,442.999263 950.923739,392.708441 1020.11216,389.608106 C1089.30058,386.51565 1149.21044,412.175157 1149.21044,412.175157" id="Fill-42" fill="#FFFFFF" mask="url(#mask-4)"></path>
                                <path d="M1011.29644,169.838872 C1011.29644,169.838872 993.885595,106.415945 1042.71672,105.06078 C1091.54784,103.699705 1110.72735,136.576256 1110.72735,136.576256 C1110.72735,136.576256 1070.45196,34.0977757 1160.62006,6.6379472 C1250.79604,-20.8159721 1257.04346,60.1039528 1257.04346,60.1039528 C1257.04346,60.1039528 1277.57801,29.6737907 1309.71324,42.0692215 C1341.85831,54.4725311 1339.17972,84.5264772 1339.17972,84.5264772 C1339.17972,84.5264772 1406.13861,37.6452365 1479.34885,54.4725311 C1552.55319,71.2998258 1583.80606,127.598285 1558.80062,176.063178 C1558.80062,176.063178 1592.73798,139.538711 1639.16034,166.100348 C1685.5827,192.652137 1685.5827,295.053799 1685.5827,295.053799 L1685.5827,1007.19129 L1062.42012,1007.19129" id="Fill-43" fill="#FFFFFF" mask="url(#mask-4)"></path>
                            </g>
                            <path d="M520.99738,874.200828 C510.237543,857.666066 496.349955,846.757905 480.901395,846.757096 C487.866354,832.747009 484.572759,802.719517 465.965199,783.488314 C444.025381,760.801351 410.220742,755.490596 380.157578,759.838668 C372.571509,760.936067 376.619557,768.763271 382.984856,767.843829 C410.014773,763.936695 441.230408,769.06138 459.407611,791.33672 C473.930107,809.131673 477.868992,834.590866 465.752684,854.617598 C462.529007,859.942236 473.671337,860.38985 476.273974,858.135053 C488.675812,847.357518 507.236462,871.743417 512.428675,880.589357 C518.487893,890.88918 531.289117,923.813853 510.962632,926.97365 C503.392293,928.146214 507.424614,935.965505 513.782047,934.976832 C544.122374,930.266799 532.109128,891.277584 520.99738,874.200828 Z" id="Fill-46" fill="#838383" transform="translate(454.511341, 846.755789) rotate(-170.000000) translate(-454.511341, -846.755789) "></path>
                            <g id="Group-50" stroke-width="1" fill="none" transform="translate(1657.173454, 561.889240) rotate(-170.000000) translate(-1657.173454, -561.889240) translate(1072.692139, 94.391778)">
                                <path d="M931.367313,128.80717 C945.346914,116.820805 974.527215,122.524662 990.291194,127.331017 C993.568464,128.330865 999.3608,127.037754 999.662136,122.817924 C1001.23972,100.71302 1017.84862,85.7605713 1036.4743,75.8270436 C1052.12995,67.4621748 1084.12075,54.2378093 1091.02783,80.1236338 C1092.42028,85.353153 1102.81536,83.1999373 1102.94535,78.171175 C1103.76861,47.8726362 1164.65412,53.2300886 1154.62931,79.8480852 C1152.18317,86.3372552 1164.03964,86.6738181 1166.00915,81.45414 C1181.33393,40.7457679 1097.27095,44.3058207 1095.81343,64.569383 C1088.36917,52.2855066 1060.66188,54.4070748 1040.59846,63.6950315 C1015.42612,75.3428653 991.127345,89.4953736 988.662264,116.911828 C961.087869,111.161723 940.799966,112.143696 927.798556,119.857745 C910.248228,130.267578 908.426429,152.148106 908.455286,170.430757 C908.471728,176.819549 920.489694,175.298127 920.473938,169.669062 C920.450304,156.383682 920.30456,138.286043 931.367313,128.80717 Z" id="Fill-47" fill="#838383"></path>
                                <path d="M548.620089,70.3593717 L488.020152,3.88720373 C488.020152,3.88720373 456.669449,-13.2656978 392.390462,29.0133014 C328.103598,71.2824596 392.390462,123.500891 392.390462,123.500891 C392.390462,123.500891 333.466581,63.3171363 271.866131,116.42126 C210.263713,169.523415 231.690041,222.326403 231.690041,222.326403 C231.690041,222.326403 199.547594,201.392581 177.229076,207.588489 C154.910558,213.778492 151.339831,226.008914 140.623712,235.381503 C140.623712,235.381503 147.771074,148.280585 88.8471924,144.743721 C29.9233109,141.200953 45.9945347,766.965963 45.9945347,766.965963 L0.457431132,923.83776 L506.659621,933.956299" id="Fill-49" fill="#FFFFFF"></path>
                            </g>
                            <path d="M1591.94942,837.750419 C1555.26299,841.05373 1525.9362,871.543167 1520.87361,906.840594 C1474.74023,911.829393 1432.71279,939.482023 1410.25401,979.080838 C1410.25401,979.080838 1420.57615,982.109868 1427.81161,971.244587 C1449.52391,938.662484 1485.8566,916.291256 1526.24583,914.002869 C1528.50807,913.863634 1533.54286,912.154362 1533.79692,909.347675 C1536.42022,879.999146 1558.08721,847.852766 1590.24132,845.508992 C1622.00919,843.186787 1651.56969,872.860852 1649.43913,903.879687 C1649.05319,909.530359 1662.51618,907.069804 1662.83911,902.347499 C1665.43241,864.68878 1628.94326,834.417683 1591.94942,837.750419" id="Fill-51" fill="#838383" transform="translate(1536.611810, 908.484107) rotate(-170.000000) translate(-1536.611810, -908.484107) "></path>
                        </g>
                    </g>
                </g>
            </g>
        </g>
    </g>
</svg>