<?xml version="1.0" encoding="UTF-8"?>
<svg width="1921px" height="498px" viewBox="0 0 1921 498" version="1.1" xmlns="http://www.w3.org/2000/svg" xmlns:xlink="http://www.w3.org/1999/xlink">
    <title>clouds-bottom</title>
    <defs>
        <rect id="path-1" x="0" y="0" width="1920" height="497"></rect>
        <polygon id="path-3" points="0.34435514 0.906799556 1601.66313 0.906799556 1601.66313 643.996256 0.34435514 643.996256"></polygon>
        <polygon id="path-5" points="0 0.423433886 1012.97137 0.423433886 1012.97137 551.996258 0 551.996258"></polygon>
    </defs>
    <g id="Desktop" stroke="none" stroke-width="1" fill="none" fill-rule="evenodd">
        <g id="Portfolio---Kalamaki" transform="translate(1.000000, -4911.000000)">
            <g id="Editor" transform="translate(-0.362736, 3661.799895)">
                <g id="clouds-bottom" transform="translate(0.000000, 1249.400012)">
                    <mask id="mask-2" fill="white">
                        <use xlink:href="#path-1"></use>
                    </mask>
                    <g id="Rectangle"></g>
                    <g id="clouds" mask="url(#mask-2)">
                        <g transform="translate(966.473227, 319.839613) scale(-1, 1) translate(-966.473227, -319.839613) translate(-15.026773, -8.660387)">
                            <path d="M1452.603,426.325911 L1452.61049,179.730994 C1452.61049,179.730994 1205.61172,129.235575 1097.86222,242.009489 C990.105238,354.79089 1122.46458,457.46048 1122.46458,457.46048 L1281.97374,434.740255" id="Fill-5" fill="#FFFFFF"></path>
                            <path d="M713.759383,200.447907 C713.759383,200.447907 648.798274,210.214296 611.857217,265.306367 C611.857217,265.306367 578.423115,299.000504 565.045353,362.594991 L367.610492,478.46048 L367.610492,109.46048 C367.610492,109.46048 407.734411,119.32022 418.980274,136.743265 L426.627385,147.450634 C426.627385,147.450634 450.192554,127.08703 477.583152,133.388228 C504.966256,139.683824 519.04466,158.025444 524.211425,167.63687 C529.37819,177.255765 533.834946,219.863063 533.834946,219.863063 C533.834946,219.863063 559.871095,185.832862 614.508041,208.317402 C614.508041,208.317402 615.991753,165.187338 652.618083,147.551453 C689.23692,129.924903 713.122436,144.409256 723.94679,151.651432 C734.776763,158.893609 730.956954,164.560019 730.956954,164.560019 C730.956954,164.560019 712.163269,191.318171 713.759383,200.447907" id="Fill-38" fill="#FFFFFF"></path>
                            <path d="M667.975685,173.970558 C667.975685,173.970558 655.906034,99.6050268 703.542021,84.4815441 C751.170535,69.3580615 768.954637,85.1168276 768.954637,85.1168276 C768.954637,85.1168276 767.684344,34.068067 808.329984,31.5437496 C848.975623,29.0250376 856.601117,84.4815441 856.601117,84.4815441 C856.601117,84.4815441 878.192362,40.9945248 925.187598,54.2345789 C972.188438,67.4671591 980.441607,106.53709 980.441607,106.53709 C980.441607,106.53709 1032.52175,82.5906417 1064.90675,114.734115 C1097.29922,146.870114 1075.07096,198.546684 1075.07096,198.546684 C1075.07096,198.546684 1153.82165,207.36965 1122.06433,287.400414 C1090.31448,367.438653 1004.57344,310.720922 975.362303,299.379244 C946.145564,288.028224 667.975685,173.970558 667.975685,173.970558" id="Fill-39" fill="#FFFFFF"></path>
                            <g id="Group-44" stroke-width="1" fill="none" transform="translate(360.610492, 12.460480)">
                                <mask id="mask-4" fill="white">
                                    <use xlink:href="#path-3"></use>
                                </mask>
                                <g id="Clip-41"></g>
                                <path d="M326.502946,119.32873 C305.398093,119.467616 284.109834,127.131965 268.026203,140.835686 C251.394224,155.00743 247.608189,174.254419 245.890157,195.045884 C249.78661,193.166302 253.683063,191.286721 257.579516,189.40714 C225.8951,178.695023 184.699745,175.388907 164.040308,207.353023 C158.92364,215.26636 172.6024,218.168105 176.504467,212.128733 C192.975498,186.64393 224.235084,191.286721 249.18586,199.733605 C253.295664,201.122698 260.444776,199.265581 260.877091,194.09486 C262.286327,177.107488 264.253269,160.009663 277.9601,148.07507 C291.054953,136.659047 308.087432,130.780674 325.35572,130.655244 C333.996414,130.597209 336.496731,119.25607 326.502946,119.32873" id="Fill-40" fill="#838383" mask="url(#mask-4)"></path>
                                <path d="M1091.99507,957.272302 L0.548348131,957.272302 L0.34435514,289.901093 C0.34435514,289.901093 33.3575327,231.280244 90.8704556,212.866337 C117.164965,204.449407 134.813166,203.719291 134.813166,203.719291 C134.813166,203.719291 147.70964,126.158477 210.060379,128.682058 C272.412988,131.203767 277.507199,192.245233 277.507199,192.245233 C277.507199,192.245233 338.579706,138.787616 403.483164,131.628733 C468.379136,124.477337 520.552682,125.735384 558.729315,147.629512 C596.904077,169.516151 646.953477,208.661616 646.953477,208.661616 L693.61547,271.376733 C693.61547,271.376733 760.58693,287.158477 788.631287,316.628965 C816.666287,346.099453 846.98264,421.043081 846.98264,421.043081 C846.98264,421.043081 903.580402,373.244802 969.324161,370.298128 C1035.06792,367.358942 1091.99507,391.746698 1091.99507,391.746698" id="Fill-42" fill="#FFFFFF" mask="url(#mask-4)"></path>
                                <path d="M960.947348,161.421221 C960.947348,161.421221 944.403329,101.141698 990.803313,99.8536977 C1037.2033,98.5600814 1055.42792,129.807186 1055.42792,129.807186 C1055.42792,129.807186 1017.15771,32.4078023 1102.83664,6.30895349 C1188.52305,-19.7842791 1194.45943,57.1250465 1194.45943,57.1250465 C1194.45943,57.1250465 1213.97164,28.2030814 1244.50696,39.9841628 C1275.05164,51.7727326 1272.5064,80.3371279 1272.5064,80.3371279 C1272.5064,80.3371279 1336.13163,35.7794419 1405.69698,51.7727326 C1475.25672,67.7660233 1504.95361,121.274186 1481.19311,167.337035 C1481.19311,167.337035 1513.44084,132.622814 1557.55199,157.867988 C1601.66313,183.103802 1601.66313,280.430174 1601.66313,280.430174 L1601.66313,957.272302 L1009.52575,957.272302" id="Fill-43" fill="#FFFFFF" mask="url(#mask-4)"></path>
                            </g>
                            <path d="M1819.38343,165.739257 C1777.44533,169.542721 1744.22339,201.101201 1740.57172,242.142226 C1674.86228,245.913806 1623.45116,291.711178 1605.72544,355.141626 C1604.16311,360.708036 1619.01832,358.678772 1620.48721,353.434943 C1636.3273,296.759957 1687.70479,253.770314 1747.01166,250.362575 C1749.51587,250.216288 1755.05504,248.320183 1755.34097,245.205018 C1758.23203,212.63364 1782.09494,176.956474 1817.50714,174.347688 C1852.4895,171.776412 1885.06296,204.700379 1882.70452,239.124727 C1882.27469,245.403819 1897.11496,242.671251 1897.46629,237.425547 C1900.32745,195.630581 1860.13296,162.04082 1819.38343,165.739257 Z" id="Fill-45" fill="#838383"></path>
                            <path d="M1599.23093,109.909129 C1589.01629,94.2744862 1575.83187,83.9604798 1561.16491,83.9604798 C1567.77818,70.712278 1564.65271,42.3186176 1546.98753,24.1346247 C1526.15886,2.68304944 1494.06478,-2.33709424 1465.5224,1.77590724 C1458.32009,2.81397719 1462.16294,10.2151354 1468.20624,9.34540109 C1493.86881,5.64949799 1523.50488,10.4938244 1540.76133,31.5563572 C1554.54819,48.3824424 1558.28653,72.4563133 1546.78223,91.3940759 C1543.72139,96.4291827 1554.29997,96.8518923 1556.77104,94.7196405 C1568.54596,84.527851 1586.16635,107.586097 1591.09543,115.950509 C1596.84757,125.689663 1608.9995,156.822409 1589.70125,159.811302 C1582.51386,160.920447 1586.34178,168.314124 1592.37762,167.378926 C1621.18316,162.923642 1609.77964,126.05626 1599.23093,109.909129 Z" id="Fill-46" fill="#838383"></path>
                            <g id="Group-50" stroke-width="1" fill="none" transform="translate(0.610492, 105.460480)">
                                <mask id="mask-6" fill="white">
                                    <use xlink:href="#path-5"></use>
                                </mask>
                                <g id="Clip-48"></g>
                                <path d="M788.368977,122.457925 C801.650292,111.0624 829.373026,116.485098 844.349589,121.054536 C847.463157,122.005098 852.966165,120.775729 853.252448,116.763905 C854.751227,95.7486102 870.530507,81.5332068 888.225829,72.0893288 C903.09948,64.1367864 933.492323,51.5642847 940.054393,76.1741288 C941.377285,81.1458712 951.253135,79.0987932 951.37663,74.3179119 C952.158764,45.5128678 1010.00303,50.6062373 1000.47895,75.9121627 C998.155,82.0814644 1009.41923,82.4014373 1011.29037,77.4390508 C1025.84967,38.7373017 945.98567,42.1218701 944.600945,61.386588 C937.52853,49.7082162 911.205236,51.7252068 892.143986,60.5553356 C868.229012,71.6290169 845.143974,85.0839108 842.802024,111.148936 C816.60498,105.682269 797.330466,106.615837 784.978481,113.949641 C768.304799,123.846346 766.573999,144.648325 766.601414,162.029776 C766.617035,168.103647 778.0347,166.65722 778.019731,161.305627 C777.997277,148.675119 777.858813,131.469559 788.368977,122.457925 Z" id="Fill-47" fill="#838383" mask="url(#mask-6)"></path>
                                <path d="M424.74012,66.8911729 L367.167173,3.69559322 C367.167173,3.69559322 337.382449,-12.6117966 276.314222,27.5831593 C215.23851,67.7687593 276.314222,117.413207 276.314222,117.413207 C276.314222,117.413207 220.33361,60.1960678 161.810126,110.682549 C103.284771,161.167159 123.640847,211.367349 123.640847,211.367349 C123.640847,211.367349 93.1039265,191.46541 71.9002267,197.355905 C50.6965269,203.240786 47.3041595,214.868339 37.1233149,223.778929 C37.1233149,223.778929 43.9136632,140.971444 -12.0669485,137.608922 C-68.0475601,134.240786 -52.7791,729.16019 -52.7791,729.16019 L-96.0416082,878.299363 L384.875593,887.919132" id="Fill-49" fill="#FFFFFF" mask="url(#mask-6)"></path>
                            </g>
                            <path d="M567.167892,137.699603 C532.327792,140.842358 504.475548,169.834462 499.666016,203.396997 C455.854361,208.142856 415.94086,234.438236 394.610492,272.091578 C394.610492,272.091578 404.412954,274.971193 411.284783,264.639666 C431.905886,233.658146 466.411003,212.384829 504.767489,210.206922 C506.915871,210.074418 511.697332,208.44892 511.938744,205.780191 C514.431467,177.874241 535.009527,147.307028 565.545376,145.076866 C595.714429,142.867233 623.785628,171.081113 621.760759,200.575236 C621.393962,205.948153 634.179457,203.607882 634.486369,199.117699 C636.95102,163.310072 602.299932,134.528854 567.167892,137.699603" id="Fill-51" fill="#838383"></path>
                            <path d="M377.797162,416.596698 C374.340254,398.322819 368.193603,378.350174 356.206419,363.699709 C342.979826,347.525954 320.434424,343.6102 300.253785,342.801142 C278.11595,341.913618 267.093271,346.824702 267.631548,346.839379 C259.954242,316.013831 248.805211,300.12849 218.801787,289.487862 C185.035336,277.514356 148.002367,288.343528 119.100226,307.069167 C111.80936,311.795846 122.323811,316.643865 127.725697,313.143659 C152.793881,296.904567 185.531846,287.69389 214.413455,299.448984 C239.612299,309.708789 257.897328,335.522579 254.901465,362.87646 C254.171632,369.533387 265.722035,367.485532 267.631548,363.225548 C272.81691,351.698201 298.073618,351.799007 308.141957,352.696926 C325.758749,354.270619 340.420743,361.767595 349.593123,376.826884 C356.951185,388.908663 361.318985,402.931891 364.212185,416.676969 C365.445996,422.518114 366.495014,428.474999 366.838465,434.441217 C366.954193,436.395733 366.773135,438.37825 366.903795,440.325298 C367.019523,442.221943 365.408664,444.394871 367.348042,442.921985 C360.406227,448.193762 370.752686,452.95591 375.966046,448.996476 C384.16967,442.776376 379.320293,424.661174 377.797162,416.596698 Z" id="Fill-52" fill="#838383"></path>
                        </g>
                    </g>
                </g>
            </g>
        </g>
    </g>
</svg>