<?xml version="1.0" encoding="UTF-8"?>
<svg width="76px" height="76px" viewBox="0 0 76 76" version="1.1" xmlns="http://www.w3.org/2000/svg" xmlns:xlink="http://www.w3.org/1999/xlink">
    <title>emblem</title>
    <g id="Symbols" stroke="none" stroke-width="1" fill="none" fill-rule="evenodd">
        <g id="Module-/-Footer-+-COVID" transform="translate(-281.000000, -372.000000)">
            <g id="Group-7" transform="translate(246.000000, 372.000000)">
                <g id="emblem" transform="translate(34.996086, 0.000000)">
                    <path d="M75.2231722,33.0296422 C75.2231722,32.4309906 75.0294419,32.3461816 74.7741835,31.5779119 C74.5172621,30.8096422 74.6029026,30.8096422 74.3900486,30.0413726 C74.35097,29.9016872 74.3168801,29.8035748 74.2827902,29.7029681 C74.1996441,29.3362939 74.1198239,28.9704512 74.0267003,28.6087658 L74.0267003,25.8807434 C74.0267003,25.0484512 73.4929026,25.3477771 73.188588,24.493867 C72.8842734,23.6416198 72.8535093,23.5127434 72.1708801,22.8301142 C71.4874194,22.1466535 71.9355767,21.8265411 71.5306554,21.4216198 C71.125734,21.015867 71.1781161,20.792204 70.9303408,20.5444288 C70.9162059,20.528631 70.9062284,20.5120018 70.8937565,20.496204 C70.7956441,20.3124512 70.6867228,20.1361816 70.5852846,19.9549231 C70.5304082,19.8310355 70.4697116,19.694676 70.3757565,19.5267209 C70.1495992,19.1209681 70.0598015,18.9737996 69.6939588,18.3809681 C69.6523857,18.3119569 69.6116441,18.2437771 69.5692397,18.1755973 C69.5151947,18.0891254 69.4611498,18.0001591 69.3971273,17.8953951 C68.7602284,16.8593951 68.9772397,17.2493501 68.5232621,16.5833501 C68.0709475,15.9173501 68.1540936,16.0611928 67.6976217,15.4417546 C67.2411498,14.8223164 67.2835543,14.9013052 66.8703183,14.0914625 C66.4570824,13.2824512 66.4861835,13.7073276 65.9947902,13.2167658 C65.5042284,12.7253726 65.6746779,12.8966535 65.2697565,12.4909007 C64.8648352,12.0859793 64.8847902,12.1067658 64.3900711,11.6120467 C64.350161,11.5721366 64.339352,11.5596647 64.3077565,11.5289007 C64.2927902,11.5155973 64.2794868,11.5014625 64.2661835,11.4873276 C63.9627003,11.183013 64.0608127,11.2819569 63.7947453,11.0225411 C63.4937565,10.7273726 63.4704756,10.7107434 63.1827902,10.443013 C62.8967677,10.1752827 62.8726554,10.1586535 62.5816441,9.89840629 C62.4203408,9.75373213 62.319734,9.66642876 62.1908576,9.55584449 C62.1867003,9.55251865 62.182543,9.54919281 62.1783857,9.54586697 C62.0769475,9.45939506 61.960543,9.36045124 61.7726329,9.20081079 C61.3319588,8.82582202 61.316161,8.89067596 60.9835767,8.55726022 C60.8455543,8.41923775 60.7515992,8.37350742 60.6634644,8.33609169 C60.3874194,8.12240629 60.121352,7.89791191 59.8403183,7.69170966 C59.7779588,7.64099056 59.7147677,7.59609169 59.5875543,7.50296809 C59.2890599,7.28845124 59.0928352,7.15375461 58.7511048,6.9192827 C58.4102059,6.68397933 58.4484531,6.68148494 58.081779,6.31481079 C57.7167677,5.94896809 57.4847902,6.09530517 57.1164531,5.79348494 C56.7489475,5.49083326 56.7231722,5.39937258 56.3190824,5.39937258 C56.2858239,5.39937258 56.2683632,5.3885636 56.2400936,5.38606921 C56.0330599,5.2680018 55.8301835,5.14660854 55.6223183,5.03269843 C55.5715992,4.9952827 55.5233745,4.95786697 55.4551947,4.92045124 C55.03697,4.69179955 55.1691722,4.76746247 54.8665206,4.6103164 C54.8166329,4.58370966 54.773397,4.56874337 54.7268352,4.55211416 C54.5447453,4.4581591 54.3543408,4.37833888 54.1697565,4.2868782 C54.1389925,4.26276584 54.1115543,4.24779955 54.0807902,4.21620404 C53.798925,3.93517034 53.7531947,4.05905798 53.3391273,3.8661591 C52.9250599,3.67326022 53.0447902,3.73146247 52.6756217,3.56849618 C52.6448576,3.55519281 52.6307228,3.55519281 52.6041161,3.54521528 C52.4270149,3.4687209 52.246588,3.39804674 52.0669925,3.32321528 C52.0545206,3.31157483 52.0487003,3.30991191 52.033734,3.29660854 C51.8242059,3.08624899 51.7202734,3.16606921 51.5988801,3.1452827 C51.5889026,3.14029393 51.5772621,3.13696809 51.5664531,3.13281079 C51.5290374,3.12117034 51.4916217,3.10454112 51.4442284,3.05797933 C51.2671273,2.8808782 49.8237116,2.43937258 49.3306554,2.29220404 C49.2292172,2.26144 49.1685206,2.24397933 49.1685206,2.24397933 C47.8506554,1.82076584 46.4987003,1.46573213 45.1218015,1.19301303 C44.9480262,1.15809169 44.7734194,1.12483326 44.5996441,1.09323775 C43.7490599,0.934428764 42.8851722,0.813866966 42.0146329,0.713260225 C41.4866554,0.628451236 41.061779,0.58355236 40.848925,0.455507416 C40.5920037,0.30085573 39.6108801,0.455507416 39.1843408,0.455507416 C38.75697,0.455507416 38.3736666,0.462159101 37.6868801,0.455507416 C37.0000936,0.44885573 36.8795318,0.455507416 36.1969026,0.455507416 C35.5142734,0.455507416 34.4051048,0.455507416 33.522925,0.0996422472 C32.6415767,-0.256222921 33.1670599,0.455507416 32.7405206,0.455507416 C32.3131498,0.455507416 32.0371048,0.662541124 31.7818464,0.91696809 C31.7801835,0.920293933 31.7768576,0.920293933 31.7743632,0.922788315 C31.5382284,0.960204045 31.304588,1.00676584 31.0692846,1.04833888 C31.0426779,1.0500018 31.017734,1.04667596 30.9878015,1.05249618 C30.6760037,1.10654112 30.2893745,1.18469843 30.2893745,1.18469843 L30.2818913,1.18968719 C27.1289925,1.81993438 24.1182734,2.84512539 21.303779,4.2128782 C21.2339363,4.24114787 21.1632621,4.26858607 21.1100486,4.31265348 C20.4773071,4.62445124 19.8570374,4.95703551 19.2442509,5.30292315 C19.231779,5.30292315 19.2251273,5.30957483 19.2118239,5.30957483 C18.5715992,5.30957483 18.2855767,5.85251865 17.7559363,6.17845124 C17.2279588,6.50521528 17.1672621,6.55593438 16.4813071,6.82699056 C15.795352,7.0988782 15.6714644,7.04067596 15.6714644,7.04067596 C15.6714644,7.04067596 15.0802958,7.81227146 14.4226104,8.5472827 C13.8971273,8.96218157 13.3832846,9.39038382 12.8802509,9.8327209 C12.8735992,9.83355236 12.8636217,9.84186697 12.85697,9.84186697 C12.1751722,9.84186697 12.286588,10.3557097 11.9540037,10.6658445 C11.620588,10.9759793 10.8489925,11.3501366 10.8489925,11.3501366 C10.8489925,11.3501366 10.5721161,11.6278445 10.3368127,11.8631479 C10.1015093,12.0976198 9.84625089,12.3537097 9.26921718,12.9299119 C8.69301493,13.5061142 9.16279022,13.4628782 7.81831831,14.8073501 C6.47467786,16.151822 5.00964415,19.1600467 5.00964415,19.5109231 C5.00964415,19.5225636 5.00382392,19.5317097 5.00299246,19.5433501 C4.83171156,19.8451703 4.66292505,20.1494849 4.49995875,20.4571254 C4.48166662,20.4887209 4.46337448,20.5103389 4.44508235,20.5444288 C4.41265538,20.6067883 4.39186887,20.6616647 4.36692505,20.718204 C4.20312729,21.0333276 4.03517224,21.3467883 3.88052055,21.6677321 C3.87968909,21.6693951 3.87802617,21.6702265 3.87719471,21.6718894 C3.74748684,21.8015973 3.69593628,21.9811928 3.64854302,22.1732602 C3.51634078,22.4576198 3.38580145,22.7428108 3.26108235,23.0313276 C3.25193628,23.0413052 3.2494419,23.0529456 3.23946437,23.0620917 C2.77634078,23.5252153 2.88110482,23.9193276 2.6108801,24.3217546 C2.34065538,24.725013 2.18350932,24.7507883 2.18350932,25.1340917 C2.18350932,25.5182265 0.906385721,29.1026535 0.564655384,29.4443838 C0.222925047,29.7852827 0.564655384,30.3406984 0.564655384,30.8952827 C0.564655384,31.449867 0.480677856,31.4906085 0.680228418,31.6901591 C0.686048642,31.6959793 0.6827228,31.702631 0.687711564,31.7084512 C0.654453137,31.903013 0.613711564,32.0959119 0.58461044,32.2921366 C0.551352013,32.4035524 0.525576732,32.5324288 0.525576732,32.6937321 C0.525576732,32.7095299 0.528071114,32.7203389 0.528902575,32.7361366 C0.287778979,34.4522715 0.154745271,36.2041591 0.154745271,37.9876422 C-0.127951358,38.2703389 0.0366778558,38.5355748 0.176363249,38.8074625 C0.192992462,39.6389231 0.235396957,40.4637321 0.306902575,41.281058 L0.306902575,41.3891479 C0.306902575,41.8547658 0.413329541,42.4151703 0.454071114,42.7452602 C0.484835159,42.9946984 0.528071114,43.2965187 0.576295833,43.6207883 C0.583778979,43.6698445 0.591262125,43.7189007 0.599576732,43.7687883 C0.607059878,43.8261591 0.614543024,43.8768782 0.624520552,43.9367434 C0.689374485,44.3666085 0.824071114,45.0791703 0.909711564,45.5057097 C0.913037406,45.5281591 0.91719471,45.55144 0.922183474,45.5747209 C0.923846395,45.5805411 0.925509316,45.5896872 0.926340777,45.5955074 C1.00865538,46.0054175 1.14667786,46.5924288 1.25809359,47.0555524 C1.26141943,47.0721816 1.27305988,47.1004512 1.2788801,47.1204063 C1.53829583,48.1597321 1.84676774,49.1791029 2.19182392,50.1818445 L2.19182392,50.4395973 C2.19182392,50.6649231 2.31654302,50.9975074 2.19182392,51.1222265 C2.06627336,51.2477771 2.75721718,51.7483164 2.75721718,51.7483164 L2.98919471,52.3203613 L3.18874527,53.0645187 C3.18874527,53.0645187 3.36168909,53.2432827 3.48058797,53.4311928 C3.50968909,53.4952153 3.53962168,53.5600692 3.5687228,53.6240917 C3.57620595,53.6506984 3.59366662,53.6797996 3.59366662,53.7030804 C3.59366662,53.76544 3.64189134,53.8435973 3.70508235,53.9267434 C3.80901493,54.1479119 3.9154419,54.3665861 4.02270033,54.5852602 C4.02103741,54.5877546 4.02186887,54.5910804 4.01937448,54.5935748 C3.90962168,54.7016647 4.04099246,54.8330355 4.20395875,54.9394625 C4.40849808,55.3418894 4.61553179,55.741822 4.83254302,56.1367658 C4.8308801,56.1384288 4.8308801,56.1409231 4.82921718,56.1425861 C4.75521718,56.2174175 4.82589134,56.2781142 4.94229583,56.3271703 C5.29982392,56.9624063 5.67564415,57.5851703 6.06809359,58.1971254 C6.09719471,58.248676 6.12047561,58.2977321 6.15290257,58.3501142 C6.19364415,58.4141366 6.24519471,58.4873052 6.30505988,58.5671254 C7.57386887,60.4986085 9.0172846,62.3045411 10.6111947,63.9641366 L10.615352,63.9840917 L11.0876217,64.4655074 C11.0876217,64.4655074 11.5307902,65.204676 11.7020711,65.3751254 C11.8725206,65.5464063 11.7020711,65.6744512 11.7020711,65.6744512 L13.1737565,66.4094625 L13.4938689,66.8260243 L13.4938689,67.1677546 L14.6762059,67.6408557 L15.457779,68.8747434 L15.8843183,69.4293276 L16.3540936,69.8991029 C16.3540936,69.8991029 17.1863857,70.1344063 17.5904756,70.5393276 C17.9962284,70.944249 18.870925,71.050676 18.99897,71.1787209 C19.1278464,71.3067658 20.1738239,71.5844737 20.4931048,71.9045861 C20.8123857,72.2246984 21.0900936,72.2030804 23.5828127,72.7801142 C23.6094194,72.7859344 23.6335318,72.7934175 23.6593071,72.8009007 C24.6246329,73.1891928 25.6074194,73.5467209 26.6109925,73.8568557 C27.1514419,74.1312378 27.4491048,74.3366085 27.4491048,74.3366085 C27.4491048,74.3366085 28.2589475,74.5245187 29.0671273,74.5245187 C29.0854194,74.5245187 29.1136891,74.528676 29.1353071,74.5295074 C30.1787902,74.7722939 31.2364082,74.9760018 32.3114868,75.1306535 C32.3680262,75.140631 32.4320486,75.1539344 32.4761161,75.1605861 C32.8303183,75.2129681 33.0889026,75.2445636 33.3508127,75.2628557 C34.7742734,75.4266535 36.219352,75.5197771 37.6868801,75.5197771 C39.4312846,75.5197771 41.1432621,75.3909007 42.8244756,75.1605861 C42.8785206,75.1547658 42.9342284,75.1564288 42.9874419,75.1481142 C43.460543,75.0840917 43.9178464,75.0042715 44.1855767,74.9593726 C44.4533071,74.9144737 44.9704756,74.9593726 45.151734,74.7772827 C45.153397,74.7764512 45.1567228,74.7764512 45.1583857,74.7739569 C45.5574868,74.6933052 45.9491048,74.5985187 46.3415543,74.5053951 C46.3972621,74.496249 46.4612846,74.4879344 46.5061835,74.4771254 C46.8978015,74.3856647 47.3052172,74.3939793 47.4665206,74.232676 C47.4764981,74.2226984 47.5006104,74.2210355 47.5130824,74.2118894 C47.5945655,74.18944 47.6768801,74.1653276 47.7575318,74.1420467 C47.9753745,74.1220917 48.2455992,74.1470355 48.4243632,74.1470355 C48.703734,74.1470355 48.6904307,73.8809681 49.1685206,73.7313052 C49.1859812,73.7254849 49.1951273,73.7163389 49.2117565,73.7096872 C52.3488576,72.698631 55.3022059,71.2843164 58.016925,69.5299344 C58.049352,69.516631 58.0734644,69.5066535 58.081779,69.5008333 C58.2156441,69.4143613 58.6139138,69.1491254 58.6579812,69.1191928 C58.6638015,69.1166984 58.6679588,69.1125411 58.673779,69.1092153 L59.688161,69.1092153 C59.688161,69.1092153 59.9866554,68.8107209 60.1363183,68.661058 C60.2868127,68.5122265 60.3932397,68.1929456 60.3932397,68.1929456 L61.2895543,67.8961142 C61.2895543,67.8961142 61.9705206,67.423013 62.3122509,67.0821142 C62.6531498,66.7412153 62.7188352,66.4211029 62.7188352,66.4211029 C62.7188352,66.4211029 63.0805206,66.0577546 63.0805206,65.8449007 C63.0805206,65.6312153 63.5478015,65.3792827 63.5478015,65.1913726 C63.5478015,65.1789007 63.5635992,65.1680917 63.5677565,65.1564512 C63.6242958,65.1024063 63.6816666,65.0491928 63.7373745,64.9943164 C63.8970149,64.9036872 64.1131947,64.8122265 64.254543,64.6708782 C64.4515992,64.473822 64.5164531,64.3989906 64.6062509,64.1304288 C64.7559138,63.97744 64.9022509,63.8227883 65.048588,63.6673052 C65.3869925,63.5675299 65.8492846,63.5833276 66.0687902,63.5833276 C66.3681161,63.5833276 67.8190149,60.8195524 68.5731498,59.3079569 C71.1115992,55.6378894 73.0131498,51.4955524 74.1173295,47.0347658 C74.4582284,46.6764063 74.3584531,46.4976422 74.3584531,46.0336872 C74.3584531,45.953867 74.3742509,45.9131254 74.3883857,45.8649007 C74.3942059,45.8341366 74.4016891,45.804204 74.4083408,45.77344 C74.4914868,45.6204512 74.6453071,45.6553726 74.6453071,45.4042715 C74.6453071,45.0625411 74.7741835,44.8496872 74.7741835,44.167058 C74.7741835,43.4835973 74.9022284,43.6548782 74.9022284,42.8433726 C74.9022284,42.8317321 74.9038913,42.8234175 74.9038913,42.8117771 C74.9255093,42.634676 74.9504531,42.4584063 74.9712397,42.2813052 C75.0643632,41.92544 75.2231722,41.7200692 75.2231722,41.1796198 L75.2231722,39.9939569 C75.2231722,39.4917546 75.4568127,36.2291029 75.4568127,36.0586535 L75.4568127,34.3092602 C75.4568127,33.71144 75.2231722,33.626631 75.2231722,33.0296422" id="Fill-68" fill="#DC5B2A"></path>
                    <path d="M56.7314868,15.2580018 C56.2035093,14.3675074 55.0103632,13.6915299 53.2310374,13.244204 C50.5944756,12.5831928 48.2530824,12.6563613 46.2176666,13.4803389 L46.2184981,13.4753501 L46.8637116,11.0416647 L47.2569925,9.55335011 C47.3318239,9.26982202 47.4232846,8.91811416 47.6311498,8.44002427 L47.911352,7.37824899 C48.0992621,6.66818157 48.248925,5.79847371 48.4576217,4.71591191 L48.8134868,3.37144 C48.8201385,3.33735011 48.9831048,2.8068782 49.1685206,2.24397933 C47.8506554,1.82076584 46.4987003,1.46573213 45.1218015,1.19218157 C44.9480262,1.15809169 44.7742509,1.1240018 44.5996441,1.09323775 C44.3169475,2.00535011 43.9660711,3.12532764 43.7698464,3.78135011 L43.2992397,5.55236135 C43.0190374,6.31065348 42.8519138,6.94838382 42.7197116,7.44310292 C42.5143408,7.92119281 42.3264307,8.62876584 42.0836441,9.54919281 L41.4833295,11.8207434 C41.431779,11.9704063 41.3802284,12.1308782 41.3303408,12.2980018 L41.3303408,12.3021591 C41.3286779,12.3046535 41.3278464,12.3079793 41.3270149,12.3104737 C41.2646554,12.2131928 41.2122734,12.1200692 41.144925,12.0227883 C40.4864082,11.0300243 39.4545655,10.316631 38.0535543,9.88926022 L37.4124981,9.72878831 C36.2035543,9.42613663 34.9430599,9.33550742 33.7158239,9.40618157 C32.6640262,9.67308045 31.8683183,9.84685573 31.3694419,10.0247883 C31.3528127,10.0962939 31.102543,10.1835973 30.6751722,10.3789906 C30.6751722,10.3789906 30.2286779,10.5153501 29.8578464,10.7373501 C29.4878464,10.9601816 28.4859363,11.6552827 28.164161,11.9945187 C27.8432172,12.3337546 27.3044307,12.9091254 27.3044307,12.9091254 C27.3044307,12.9091254 26.6542284,13.5061142 26.4114419,13.9043838 C26.1644981,14.3043164 25.3804307,15.1291254 24.9106554,16.1667883 C24.4491947,17.1820018 23.7557565,18.7060692 23.5611947,19.4177996 L23.5487228,19.4651928 C23.0772846,21.3151928 22.6540711,22.9315524 22.2699363,24.2943164 C21.8966104,25.7851254 21.6097565,26.9242265 21.3428576,27.6891703 L20.1122958,32.5922939 C19.8986104,33.1435524 19.791352,33.5709231 19.7015543,33.9276198 L19.5419138,34.567013 C18.5242059,39.525013 16.5794194,45.7659569 15.2956441,50.5809456 C15.0994194,51.0615299 14.9564082,51.6310804 14.7610149,52.4134849 L14.5822509,53.1218894 C14.4583632,53.3172827 14.3685655,53.6739793 14.2446779,54.1711928 L13.5653745,56.8726085 C13.6011273,57.0330804 13.5487453,57.2467658 13.4772397,57.5302939 C13.4647677,57.5751928 13.4531273,57.6126085 13.4406554,57.6558445 C12.6515992,57.487058 11.8276217,57.3523613 11.1483183,57.3257546 C10.8938913,57.3124512 11.5166554,57.6367209 11.4044082,57.9767883 L11.6164307,58.4008333 C12.3514419,59.8741816 13.0033071,61.4581142 13.766588,62.9871703 C13.9229026,63.2981366 14.0642509,63.5816647 14.0642509,63.7936872 C15.3804531,63.1709231 17.0508576,62.3361366 18.607352,61.6277321 C19.4138689,61.2602265 20.4324082,60.7497097 20.9138239,60.6507658 C21.0269026,60.3106984 20.531352,60.3106984 20.3334644,60.1976198 C20.0333071,60.0388108 19.3190824,59.6987434 18.5358464,59.346204 C18.544161,59.3187658 18.5516441,59.2988108 18.5607902,59.2605636 L18.6863408,59.0651703 L22.5218689,43.7804288 C22.5742509,43.5675748 22.6457565,43.2832153 22.8245206,42.8733052 L23.0756217,41.8772153 C23.1820486,41.4498445 23.2710149,41.0948108 23.2543857,40.8628333 L25.9458239,30.1303389 C28.2822284,22.326249 29.5319138,17.6501142 30.5255093,16.3912827 C30.9162958,15.7327658 31.7727003,15.0393276 32.9292621,14.6477097 C34.0151498,14.2394625 35.6655992,14.577867 37.0898913,14.9362265 C38.9656666,15.4060018 39.5002958,17.6975074 38.6804756,21.6951703 C38.6538689,21.7375748 38.6264307,21.7799793 38.5989925,21.8223838 C38.5956666,22.1266984 38.502543,22.4775748 38.3728352,22.9772827 L38.0726779,24.1097321 C38.0469026,24.2045187 38.0111498,24.3450355 37.975397,24.504676 C37.7392621,25.3319793 37.4457565,26.3355524 37.0957116,27.5594625 C36.4904082,29.673867 36.008161,31.2935524 35.7395992,32.3611479 L35.6872172,32.5748333 C33.3508127,40.3747658 30.710925,49.9889456 27.8739812,61.2951479 L27.6952172,62.0060467 C27.6686104,62.1124737 27.6486554,62.2006085 27.6278689,62.2812602 C26.7964082,62.1665187 26.0364531,62.0792153 25.7047003,62.0551029 C25.4760486,62.0451254 25.0578239,61.7823838 24.9721835,62.1299344 C25.3280486,62.4700018 25.9200486,63.4428108 26.4072846,64.1828108 C27.3493295,65.6095973 28.3196441,67.2043389 29.1037116,68.4324063 C29.2167902,68.2528108 29.4870149,68.0881816 29.7838464,67.9077546 C31.2438913,67.0180917 32.6382509,66.0220018 34.0434194,65.1664288 L34.4491722,64.9203164 C34.6320936,64.7340692 35.1259812,64.6941591 35.0104082,64.5037546 C34.3086554,64.1728333 33.4763632,63.8261142 32.68897,63.5301142 C32.7172397,63.4477996 32.7529925,63.3654849 32.8170149,63.2914849 L33.3341835,61.2311254 C33.4231498,60.8760917 33.4938239,60.5909007 33.6193745,60.3955074 L34.1024531,58.4731703 C34.2263408,58.2777771 34.3327677,57.8545636 34.475779,57.285013 L35.5824531,52.8766085 C37.9853745,45.0883164 39.5194194,38.6727658 41.5880936,30.4280018 C41.6097116,30.3448557 41.6230149,30.2783389 41.6438015,30.1976872 C41.6446329,30.1943613 41.6462958,30.190204 41.6479588,30.1877097 C41.6512846,30.1760692 41.6546104,30.1694175 41.6571048,30.15944 C41.9240037,29.3944962 42.2416217,28.2237996 42.7571273,26.5608782 L42.8909925,26.057013 C42.9109475,26.0121142 42.9217565,25.973867 42.9442059,25.9297996 C43.1055093,25.5913951 43.1770149,25.306204 43.229397,25.0941816 L43.2834419,24.8804962 C44.08497,22.5881591 44.7800711,21.0225187 45.3862059,20.1195524 C45.8842509,19.3371479 46.6691498,18.6254175 47.8090824,18.0034849 C48.9423632,17.3840467 50.1887228,17.2426984 51.5406779,17.5819344 C52.107734,17.7241142 52.5334419,18.1340243 52.7662509,18.7185411 C52.995734,19.3055524 53.1570374,19.8751029 53.1379138,20.2484288 L53.1370824,22.3628333 C53.0464531,24.8364288 52.3147677,28.6594849 51.0118689,33.8469681 C50.7266779,34.9860692 50.5296217,35.7684737 50.4764082,36.2856422 C50.1737565,37.4920917 49.9409475,38.416676 49.887734,38.9321816 C49.4595318,40.3348557 49.1560486,41.2419793 49.0679138,41.5978445 L48.3719812,44.3699344 C48.2106779,45.0109906 47.9787003,45.9355748 47.6053745,47.1245636 L46.9260711,49.8293052 C46.6234194,51.0357546 46.4280262,51.8181591 46.3731498,52.3336647 C46.1943857,52.7435748 46.0696666,53.2416198 45.8568127,53.7887209 L43.377397,63.0703164 C43.1811722,63.8477321 43.0406554,64.410631 42.8810149,64.748204 C41.980543,64.5112378 41.2147677,64.3308108 40.8015318,64.2800917 C40.5587453,64.2326984 40.1679588,63.9757771 40.0665206,64.3191703 C40.404925,64.675867 40.9478689,65.6769456 41.3985206,66.4402265 C42.2707228,67.9127434 43.1612172,69.5523838 43.8837565,70.8170355 C44.0059812,70.6432602 44.2678913,70.4636647 44.5896666,70.3256422 C46.0904531,69.5099793 47.5330374,68.5829007 48.9781161,67.7971703 L49.3946779,67.571013 C49.6582509,67.392249 50.3200936,67.2849906 50.22697,67.0471928 C50.1288576,66.8285187 49.2067677,66.5316872 48.1017565,66.2182265 L49.1186329,62.1665187 C49.5992172,60.5501591 49.9933295,58.9836872 50.3849475,57.422204 C53.6484307,44.4123389 55.755352,35.4167658 56.771397,30.4587658 C57.6835093,25.9248108 58.0801161,22.548249 58.0817802,20.4296872 C58.0826104,18.3152827 57.6743632,16.6240917 56.7314868,15.2580018" id="Fill-69" fill="#FFFFFE"></path>
                </g>
            </g>
        </g>
    </g>
</svg>