<?xml version="1.0" encoding="UTF-8"?>
<svg width="328px" height="150px" viewBox="0 0 328 150" version="1.1" xmlns="http://www.w3.org/2000/svg" xmlns:xlink="http://www.w3.org/1999/xlink">
    <title>logo</title>
    <defs>
        <filter color-interpolation-filters="auto" id="filter-1">
            <feColorMatrix in="SourceGraphic" type="matrix" values="0 0 0 0 1.000000 0 0 0 0 1.000000 0 0 0 0 1.000000 0 0 0 1.000000 0"></feColorMatrix>
        </filter>
        <polygon id="path-2" points="0.589962963 0.130553191 135.968519 0.130553191 135.968519 116.831926 0.589962963 116.831926"></polygon>
    </defs>
    <g id="Desktop" stroke="none" stroke-width="1" fill="none" fill-rule="evenodd">
        <g id="logo" transform="translate(-345.000000, -251.000000)" filter="url(#filter-1)">
            <g transform="translate(345.000000, 251.000000)">
                <path d="M7.93634547,24.8706374 C7.93634547,25.2443873 7.93634547,25.6181373 8.06026286,25.9918872 C7.93634547,26.2410539 7.93634547,26.7393871 7.93634547,27.4887746 L7.93634547,29.4839953 C7.93634547,29.9823286 7.93634547,30.7298285 8.06026286,31.8510784 L8.06026286,34.4692156 L8.30809763,50.053456 L8.30809763,57.4076469 C8.30809763,58.0324511 8.30809763,58.4062011 8.43201502,58.779951 L8.43201502,62.2701715 C8.55593241,61.8983092 9.05160196,61.1489216 9.6711889,60.2768384 C10.2926534,59.4028676 10.6644055,58.779951 10.7883229,58.4062011 C11.1600751,57.5322302 11.6557447,56.286397 12.1532917,54.6649263 L13.3924656,51.0501225 L14.6316395,47.559902 C14.7555569,47.1861521 14.8794743,46.6878188 15.1291866,45.9384313 C15.2512265,45.1909314 15.3751438,44.5680148 15.5009388,44.1942648 C16.4922779,40.953211 17.1118648,38.9579903 17.483617,38.3331861 C17.7314518,37.7102695 17.9811641,36.713603 18.3529162,35.4658822 C19.220338,33.4725491 19.7160075,31.9756617 20.0877597,31.1035785 L22.8158198,23.7474999 C22.9397371,23.3737499 23.685119,23.1245833 24.8003755,23 L26.0395494,23 C27.4045182,23 28.3958573,23 29.1393616,23.1245833 C30.3804131,23.5002209 31,23.7474999 31,23.8720832 C31,23.9985542 30.7521652,24.6214707 30.1325783,25.9918872 L28.3958573,30.4806619 L26.5370965,35.0921322 L25.7917146,37.2119362 L25.4199624,38.2104904 C25.2960451,38.3331861 25.1721277,38.833407 24.9242929,39.5809069 C24.6764581,40.3302944 24.5525407,40.8286277 24.4286233,40.953211 C24.304706,41.3250733 24.304706,41.7007109 24.1807886,42.1990441 C24.0568712,42.5727941 23.9310763,42.946544 23.9310763,43.0711274 C23.8090364,43.6959316 23.5612016,44.5680148 22.9397371,45.6892646 C22.8158198,45.9384313 22.8158198,46.3140688 22.6919024,46.9369854 C22.567985,47.559902 22.4440676,47.933652 22.3201502,48.0582353 C21.948398,49.1813727 21.6986857,50.053456 21.4527285,50.6763725 L18.2271213,61.1489216 L16.86403,65.3885297 C16.6161953,66.7589461 16.2444431,67.7575003 15.7487735,68.3804169 C15.6248562,68.5050002 15.6248562,68.7541668 15.6248562,69.0033335 C15.6248562,69.3770834 15.6248562,69.5016667 15.7487735,69.6262501 C15.8726909,70 15.9966083,70.7474999 16.3683605,71.9952207 C16.7401127,73.1164705 16.9879474,74.1150247 17.2357822,74.7379413 L18.7246684,79.9742158 C18.9725032,80.4706615 19.220338,81.3446323 19.5920901,82.4677698 L20.3355945,85.0859071 C20.4595118,86.2052693 21.0790988,87.8286277 21.948398,89.946544 C22.0723154,91.0696815 22.3201502,91.9398771 22.4440676,92.3155147 C22.567985,92.5646813 22.6919024,92.9384313 22.8158198,93.4367645 C22.9397371,93.8124021 22.9397371,94.1861521 23.0636545,94.4353187 C23.685119,96.3040684 24.1807886,98.0501225 24.5525407,99.6697056 C24.6764581,100.169927 24.9242929,100.917426 25.2960451,102.038676 C25.5438798,103.035343 25.7917146,103.78473 25.915632,104.284951 L27.032766,108.273505 C28.1480225,112.137475 29.0154442,114.631029 29.6369087,116.003333 L29.6369087,116.127917 C29.6369087,116.499779 28.8934044,116.750833 27.5284356,116.875417 C27.4045182,116.875417 27.032766,116.875417 26.6610139,117 L25.5438798,117 C25.1721277,117 24.5525407,116.875417 23.5612016,116.750833 C21.4527285,116.499779 20.4595118,116.377083 20.3355945,116.250612 C19.9638423,114.506446 19.7160075,113.258725 19.3442553,112.386642 C19.0964206,111.761838 18.8467083,110.765171 18.4768336,109.270171 C17.9811641,107.524117 17.3596996,104.907868 16.7401127,101.540343 L15.7487735,98.1747058 C15.1291866,96.1813727 14.6316395,94.9317643 14.5077221,94.559902 C14.5077221,94.4353187 14.13597,93.0630146 13.3924656,90.320294 C13.0188359,88.7007109 12.5231664,87.2038234 12.1532917,85.9579903 C11.5318273,83.5890196 11.0361577,81.9675489 10.9122403,80.846299 C10.5404882,79.7250492 10.1668585,78.6019117 9.79698383,77.3560786 C9.17551935,76.3575244 8.6798498,75.8591911 8.30809763,75.8591911 C8.43201502,76.9823286 8.55593241,78.4773284 8.55593241,80.4706615 L8.55593241,90.320294 C8.55593241,93.3121812 8.55593241,95.5565685 8.43201502,96.9288726 C8.55593241,97.5517892 8.6798498,98.6730391 8.80376719,100.043456 L8.80376719,102.289731 C8.6798498,102.912647 8.6798498,103.662035 8.6798498,104.53223 L8.6798498,106.527451 C8.80376719,107.773284 8.80376719,109.270171 8.80376719,111.138921 C8.80376719,112.635809 8.80376719,113.634363 8.6798498,114.130808 C8.6798498,115.004779 7.93634547,115.380417 6.44745927,115.503113 C5.33220277,115.876863 3.96723397,116.003333 2.35630792,116.003333 C0.991339107,115.876863 0.247834777,115.503113 0.123917388,115.004779 C0.247834777,115.004779 0.371752165,114.880196 0.371752165,114.631029 C0.371752165,114.381863 0.247834777,113.881642 0.123917388,113.258725 L0.123917388,108.522672 C0.123917388,106.652034 0.123917388,105.281618 0,104.15848 C0.123917388,102.788064 0.247834777,101.664926 0.247834777,100.543676 C0.247834777,99.7961766 0.247834777,99.1713723 0.123917388,98.7976224 C0.123917388,98.4238724 0.123917388,97.6763725 0.247834777,96.4286518 L0.247834777,89.6973774 C0.247834777,87.9513233 0.247834777,86.5809069 0.371752165,85.7088236 C0.247834777,84.8367404 0.247834777,83.4625487 0.247834777,81.8429656 L0.247834777,80.0969115 C0.247834777,79.3512992 0.247834777,78.8510784 0.371752165,78.4773284 L0.371752165,76.1083578 C0.495669554,75.6100245 0.495669554,74.8625246 0.495669554,73.9904414 C0.371752165,73.7393871 0.371752165,73.3656372 0.371752165,72.8673039 L0.371752165,71.3704165 C0.371752165,71.2477208 0.371752165,70.9966665 0.247834777,70.8720832 L0.247834777,70.6229166 C0.247834777,70.4983333 0.371752165,70.3737499 0.495669554,70.2491666 C0.371752165,69.6262501 0.371752165,68.6276959 0.371752165,67.2572794 L0.371752165,50.4272059 C0.371752165,49.8042893 0.371752165,49.3059561 0.247834777,48.9303185 C0.371752165,48.3074019 0.371752165,47.0615687 0.371752165,45.3155147 L0.371752165,30.7298285 C0.371752165,29.8577453 0.371752165,29.1083578 0.495669554,28.6100245 L0.495669554,27.4887746 C0.371752165,27.1150247 0.371752165,26.9904414 0.371752165,26.8658581 C0.371752165,26.6148038 0.371752165,26.4921081 0.495669554,26.3656372 C0.495669554,25.493554 0.371752165,24.9952207 0.247834777,24.7460541 L0.371752165,24.3723041 L0.619586942,24.3723041 L0.495669554,24.2477208 C0.495669554,23.9985542 1.11713403,23.7474999 2.4802253,23.6248042 C2.60414269,23.7474999 2.97589486,23.7474999 3.34764702,23.7474999 C3.71939919,23.8720832 4.09302889,23.8720832 4.21694628,23.8720832 C5.33220277,23.8720832 6.32354188,23.9985542 7.31488099,24.2477208 C7.68851069,24.4968874 7.93634547,24.6214707 7.93634547,24.7460541 L7.93634547,24.8706374" id="Fill-1" fill="#1A1919"></path>
                <path d="M60.2045889,45.9412716 C60.0783939,44.9373964 59.8260038,44.1859132 59.6998088,43.5596772 C59.5736138,43.0586884 59.5736138,42.3053075 59.4474187,41.4285771 C59.3212237,40.5518467 59.1950287,39.9237131 59.1950287,39.5479715 C58.4359465,34.2856915 57.8049713,31.6517049 57.4282983,31.6517049 C57.3001912,31.6517049 57.1739962,31.6517049 57.0478011,31.5264577 C56.7954111,31.5264577 56.6692161,31.5264577 56.543021,31.4031082 C56.416826,31.4031082 56.1644359,31.5264577 56.0382409,31.6517049 C55.7858509,31.7788498 55.6596558,32.1545914 55.5315488,32.530333 C55.1548757,34.2856915 54.5239006,40.1761052 53.3862333,50.3268213 L52.6271511,60.1036935 C52.6271511,62.9862767 51.9961759,66.7455904 51.9961759,68.8766904 L51.9961759,69.878668 C51.9961759,70.7553984 51.8699809,72.1350153 51.7437859,73.7632289 C51.7437859,75.1428457 51.6175908,76.5224626 51.4913958,77.9001818 L51.4913958,78.7769122 C51.4913958,79.2797986 51.4913958,79.5283954 51.3652008,79.6555402 L54.7743786,79.6555402 C55.1548757,79.7788898 57.0478011,79.7788898 60.585086,79.9060346 L64.3728489,80.0312818 L63.6137667,72.7612513 C63.6137667,72.5107569 63.6137667,72.1350153 63.4875717,71.5087793 C63.3632887,71.0058928 63.3632887,70.6320489 63.2351816,70.2544096 L63.2351816,68.626196 C63.1089866,67.747568 63.1089866,67.121332 62.9827916,66.6203432 C62.7304015,65.6164679 62.4780115,64.1135015 62.3518164,62.2328959 C62.3518164,61.8571543 62.3518164,61.1056711 62.2256214,59.9784463 C62.0994264,58.974571 61.9732314,58.2230878 61.8470363,57.722099 C61.7208413,57.3463574 61.7208413,56.5929766 61.5946463,55.4657518 C61.4684512,54.4618765 61.4684512,53.5851461 61.2160612,52.7084157 L60.9636711,50.5773157 C60.8374761,49.4500909 60.709369,48.5714628 60.585086,48.1957212 C60.458891,47.8199796 60.332696,47.0684964 60.2045889,45.9412716 Z M63.4875717,24.7593136 C64.2466539,26.1389305 64.625239,27.2661553 64.625239,28.2681329 C64.751434,28.6457722 64.8776291,29.2701105 65.1300191,30.2739857 C65.2562141,31.4031082 65.3824092,32.1545914 65.5086042,32.7808274 C65.8871893,34.6614331 66.1395793,36.0391522 66.3938815,37.1682747 L66.3938815,37.6692635 C66.3938815,38.2954995 66.5181644,39.6732187 66.8986616,41.8043187 C67.0248566,42.1800603 67.1510516,42.6810491 67.2772467,43.3072851 C67.4034417,43.9354188 67.4034417,44.5616548 67.5296367,45.1878908 L67.7820268,47.0684964 L68.665392,53.2094045 L69.5487572,60.4794351 C69.6768642,60.8551767 69.8030593,61.8571543 70.1816444,63.4872655 C70.4340344,65.1154791 70.5602294,66.2446016 70.5602294,67.121332 L71.6959847,74.1408681 L73.0860421,85.2935619 C73.4646272,88.0527956 73.5908222,90.0567508 73.7170172,91.1858732 C73.8432122,92.0626036 74.0956023,93.9413116 74.3479924,96.6986476 L74.8527725,100.708456 L74.9789675,102.340465 C75.1070746,103.217195 75.2332696,104.594914 75.6118547,106.225025 L76.3690249,109.984339 C76.3690249,110.360081 76.3690249,110.861069 76.4952199,111.61445 C76.6214149,112.365934 76.6214149,112.866922 76.7476099,113.242664 C76.873805,113.870798 77,114.371786 77,114.747528 L77,115.373764 C77,115.499011 76.4952199,115.749506 75.4837476,115.87665 L74.3479924,115.87665 C73.9694073,116 73.7170172,116 73.5908222,116 C73.3384321,116 72.833652,115.87665 71.9483748,115.749506 C71.6959847,115.87665 71.3173996,115.87665 70.9388145,115.87665 C70.5602294,115.87665 69.2982792,115.87665 69.1720841,115.624258 L68.917782,114.747528 C68.665392,114.244642 68.917782,113.870798 68.791587,113.495056 C68.4130019,110.234834 68.1606119,106.097881 67.4034417,102.714309 C67.4034417,102.590959 67.4034417,101.964723 67.2772467,100.960848 C67.1510516,99.9588702 67.0248566,99.207387 67.0248566,98.8297477 L67.0248566,98.3306566 C66.6443595,96.1995565 66.5181644,94.8199397 66.5181644,94.4441981 L66.5181644,93.9413116 C66.5181644,93.3150756 66.3938815,92.8140868 66.2676864,92.313098 L65.7609943,89.8062564 L65.2562141,87.2994147 L63.2351816,87.2994147 C63.1089866,87.2994147 62.7304015,87.2994147 62.3518164,87.1741675 L59.6998088,87.1741675 C58.9426386,87.2994147 58.4359465,87.2994147 58.1854685,87.2994147 C56.7954111,87.1741675 55.0286807,87.1741675 52.8814532,87.1741675 L50.8604207,87.0489203 L50.4818356,91.060626 C50.1032505,92.939334 49.9770554,93.9413116 49.9770554,94.3170532 C49.8508604,94.8199397 49.8508604,95.5714229 49.8508604,96.5752981 C49.7246654,97.7025229 49.7246654,98.4540061 49.5965583,98.9568926 C49.4703633,99.5831286 49.3460803,100.585106 49.3460803,101.714229 C49.2179732,102.841453 49.2179732,103.716286 49.0917782,104.219173 C48.9655832,105.097801 48.7131931,106.726014 48.5869981,109.107609 C48.208413,112.741675 47.8298279,114.622281 47.5774379,114.998022 C47.4512428,115.373764 46.8202677,115.624258 45.4302103,115.749506 C44.5468451,115.87665 43.4110899,116 42.0210325,116 C40.7571702,115.87665 40.126195,115.499011 40,115.12327 C40.126195,114.872775 40.126195,114.497034 40.2523901,113.870798 C40.2523901,113.367911 40.2523901,112.99217 40.3785851,112.741675 C40.3785851,111.990192 40.5047801,111.113462 40.6309751,110.111484 L41.1376673,105.471645 C41.2638623,103.592937 41.3900574,102.21332 41.3900574,101.211342 C41.5162524,100.08222 41.6424474,98.8297477 42.0210325,97.3248836 L42.3996176,93.8179621 L43.0305927,87.8023012 C43.4110899,85.1683147 43.6615679,83.7905955 43.7877629,83.5401011 C43.6615679,83.2896067 43.6615679,82.9138651 43.6615679,82.4128763 C43.6615679,82.1604842 43.6615679,81.7847426 43.7877629,81.2837538 L43.7877629,80.2817762 C43.91587,79.1526538 44.042065,78.4011706 44.042065,78.1506762 L44.042065,77.3972953 L44.4206501,75.5185873 C44.5468451,73.1369929 44.6730402,72.0097681 44.6730402,71.8845209 L45.5564054,63.1115239 L46.0611855,58.974571 C46.3135755,56.0919878 46.6921606,52.3326741 46.9464627,49.8258325 C46.9464627,48.5714628 47.0726577,47.3189908 47.3250478,46.191766 L48.082218,39.2974771 L48.4608031,35.4129162 C48.5869981,35.0371746 48.7131931,34.409041 48.8393881,33.5323106 C48.9655832,32.6555802 49.2179732,32.0293442 49.3460803,31.5264577 C49.2179732,31.2759633 49.2179732,30.9002217 49.2179732,30.3992329 C49.2179732,29.7729969 49.3460803,29.0215138 49.5965583,28.2681329 L49.9770554,25.636044 C50.3556405,23.7573361 50.7342256,22.5029664 51.1128107,21.7514832 C51.1128107,21.2504944 51.9961759,21 53.8910134,21 L56.9216061,21 C57.8049713,21.1252472 58.5640535,21.1252472 58.9426386,21.1252472 C61.0898662,21.626236 62.6042065,22.0019776 62.6042065,22.1272248 C63.1089866,22.7534608 63.3632887,23.6301912 63.4875717,24.7593136 L63.4875717,24.7593136 Z" id="Fill-3" fill="#1A1919"></path>
                <path d="M95.0099031,23.3814866 C95.0099031,23.7577375 95.0099031,24.0085714 95.1330463,24.1339883 L95.1330463,24.761073 C95.2543236,25.1373239 95.2543236,25.3881578 95.2543236,25.6389917 C95.1330463,28.0238139 95.0099031,30.4086361 95.0099031,33.0442922 L95.0099031,48.9836457 C95.1330463,49.8615643 95.2543236,51.4919846 95.2543236,53.7513898 C95.3774668,56.6378798 95.3774668,61.783775 95.3774668,69.0636586 C95.3774668,71.4465805 95.5024758,73.9568197 95.5024758,76.7178927 L95.5024758,87.8876018 C95.6256189,88.5165868 95.6256189,89.5180221 95.6256189,90.6486749 C95.6256189,91.9028443 95.5024758,92.9080801 95.3774668,93.5351649 C95.5024758,95.9199871 95.6256189,97.6777245 95.6256189,99.0573109 L95.6256189,102.949037 L95.7487621,107.716781 L99.6912092,107.716781 C100.676355,107.716781 101.293936,107.716781 101.663366,107.591364 C102.771654,107.591364 103.38737,107.467847 103.510513,107.34053 C104.497524,107.467847 105.852099,107.467847 107.454826,107.467847 L108.686258,107.467847 C109.17883,107.34053 109.550126,107.34053 109.796412,107.34053 C111.150987,107.34053 112.012989,107.467847 112.507427,107.716781 C112.876857,107.716781 113,108.722017 113,110.854105 L113,111.48309 C113,113.364344 112.876857,115.372915 112.507427,115.372915 C112.136132,115.372915 111.768568,115.498332 111.150987,115.749166 L109.055687,115.749166 C108.439971,115.874583 107.20854,115.874583 105.605813,115.874583 L100.060639,115.874583 C99.6912092,115.749166 99.0754934,115.749166 98.2116254,115.749166 L97.4727664,115.749166 C96.9801938,115.874583 96.3644779,115.874583 95.7487621,115.874583 L92.9146035,115.874583 C92.1757445,115.874583 91.3118766,115.874583 90.4498744,116 L87.9851453,116 C87.3675637,115.874583 87.1231432,115.498332 87.1231432,114.871247 L87.1231432,110.979522 C87,110.728688 87,110.352437 87,109.850769 C87,109.474518 87.1231432,108.722017 87.2444205,107.591364 C87.1231432,106.462611 87.1231432,104.955708 87.1231432,102.949037 C87,101.818384 87,99.9371298 87,97.5523076 L87,91.7793276 C87,89.3945054 87.1231432,87.5132513 87.2444205,86.2571816 C87.1231432,85.5027796 87.1231432,84.4994441 87.1231432,83.1179574 C87,81.738371 87,80.8604524 87,80.4823013 C87.1231432,79.3554491 87.1231432,77.4703944 87.1231432,74.8366386 L87.1231432,63.0379445 C87.1231432,62.2854428 87.1231432,61.1566903 87.2444205,59.6497867 L87.2444205,56.136212 C87.2444205,54.6293084 87.2444205,53.5005559 87.1231432,52.6226373 C87.2444205,51.4919846 87.2444205,49.8615643 87.2444205,47.727576 C87.2444205,46.5969232 87.2444205,45.0919199 87.3675637,43.2106657 L87.3675637,29.6561344 C87.2444205,29.0271494 87.2444205,28.4000647 87.2444205,28.0238139 C87.3675637,26.6423272 87.4925727,25.7644086 87.4925727,25.3881578 L87.738859,23.3814866 L87.738859,22.8779186 C87.738859,22.5016678 88.2314316,22.2508339 89.0934338,22.2508339 C90.0804449,22.1254169 90.6961607,22 91.0655902,22 C91.5581629,22 91.9275924,22 92.1757445,22.1254169 C93.5303193,22.1254169 94.6386078,22.5016678 95.0099031,23.1287525 L95.0099031,23.3814866" id="Fill-4" fill="#1A1919"></path>
                <path d="M136.196312,31.0359034 C136.196312,31.0359034 135.449416,32.5409372 135.075968,35.4274855 C134.951485,36.3054219 134.827003,37.0598391 134.70252,37.4360975 C134.578037,38.0631949 134.578037,39.0684511 134.453555,40.3226459 L134.453555,40.5734848 C134.453555,40.9497433 134.453555,41.5768407 134.329072,42.3293575 C134.20459,43.0837747 134.20459,43.7108721 134.20459,44.21255 L134.20459,44.463389 C133.831142,47.978935 133.706659,49.8602272 133.582176,50.238386 L133.084246,58.3944528 L132.959763,60.0268063 L132.959763,63.9167105 C132.586315,65.799903 132.461833,67.3049367 132.461833,68.4356123 C132.461833,68.5610318 132.461833,68.6864513 132.586315,68.8118708 L132.586315,70.1914851 C132.586315,71.0713217 132.461833,72.200097 132.335464,73.7070311 L132.335464,74.459548 C132.335464,77.0952573 132.335464,78.8530304 132.210981,79.7309667 L132.210981,81.6141592 C132.210981,82.2412566 132.210981,82.4920956 132.086499,82.6175151 L134.70252,83.119193 C135.075968,83.2446125 136.820611,83.2446125 139.934563,83.3719322 L143.670928,82.9937735 L142.550584,72.701775 C142.550584,72.5763555 142.426102,72.3255165 142.426102,71.6984191 C142.177136,71.0713217 142.177136,70.5696438 142.177136,70.1914851 C142.052654,69.9406461 142.052654,69.4408685 141.928171,68.5610318 C141.928171,67.6830955 141.928171,67.0540978 141.803688,66.5524198 C141.552837,65.549064 141.305758,64.0421299 141.181275,62.1589375 C141.054906,61.782679 140.930424,61.0301621 140.930424,59.9013868 C140.681459,58.898031 140.681459,58.1436138 140.556976,57.6419359 C140.432493,57.2656774 140.432493,56.5131606 140.183528,55.3824849 C140.183528,54.3791291 139.934563,53.5011927 139.934563,52.6213561 L139.561115,50.4873246 C138.938702,45.2159059 138.065437,39.6955485 137.194059,34.1732907 C137.069576,33.6697125 136.32268,31.4121619 136.196312,31.0359034 Z M144.170744,32.6663567 L145.166606,37.0598391 L145.166606,37.561517 C145.166606,38.1886144 145.415571,39.570129 145.789019,41.7022601 L146.660397,46.9736789 L147.658144,53.1249343 L148.654005,60.4030647 L150.896579,74.0832895 C151.767957,80.1072252 152.39037,83.8717099 152.639336,85.2532244 C153.01467,87.6380949 153.263635,89.5193871 153.388118,91.1517406 C153.5126,92.0296769 153.761565,93.9109692 154.010531,96.6739983 L154.632944,100.689322 L154.757427,102.321675 C154.881909,103.199612 155.132761,104.581126 155.504322,106.21158 L156.253104,109.977965 C156.377587,110.354223 156.377587,110.854001 156.502069,111.608418 C156.626552,112.362835 156.626552,112.862613 156.751035,113.238871 C156.875517,113.867869 157,114.369547 157,114.745805 L157,115.372903 C157,115.623742 156.502069,115.751061 155.504322,115.874581 L154.881909,115.874581 C154.508461,116 154.259496,116 154.135013,116 C152.890187,116 152.016923,116 151.643475,115.874581 C151.394509,116 151.021061,116 150.647614,116 C150.147797,116 149.900718,115.874581 149.774349,115.623742 C149.400901,114.620386 149.027453,112.989932 148.654005,110.605062 C148.031592,108.472931 147.409179,105.333643 146.78488,100.942061 C146.162467,96.5485788 145.664536,93.9109692 145.415571,92.7840941 L144.91764,90.2719039 L142.924032,90.7754821 L142.675067,90.7754821 C142.550584,90.7754821 142.177136,90.7754821 141.803688,90.6500627 L139.685598,90.6500627 C139.063184,90.7754821 138.689736,90.7754821 138.438885,90.7754821 L135.449416,90.7754821 C134.70252,90.7754821 134.080107,90.7754821 133.706659,90.6500627 L131.464086,90.3992237 C131.21512,91.527999 131.090638,92.7840941 130.966155,94.2891279 C130.841672,94.7908058 130.841672,95.545223 130.841672,96.5485788 C130.841672,97.6773541 130.841672,98.429871 130.71719,98.9334492 C130.590821,99.5605466 130.466338,100.563902 130.466338,101.692678 C130.341856,102.823353 130.341856,103.70129 130.219259,104.202968 C130.094777,105.082804 129.968408,106.715158 129.843925,109.100028 C129.470477,112.739094 129.221512,114.620386 128.972547,114.996644 C128.848064,115.372903 128.225651,115.623742 126.854456,115.751061 C125.983077,115.874581 124.736365,116 122.993608,116 C121.746896,115.874581 121.124483,115.500222 121,115.123964 C121.124483,114.873125 121.124483,114.494966 121.248965,113.867869 C121.248965,113.366191 121.248965,112.989932 121.373448,112.739094 L121.373448,112.488255 C121.373448,111.859257 121.373448,110.981321 121.497931,110.103384 L121.997747,105.459063 C122.12223,103.826709 122.12223,102.572514 122.12223,101.569159 L122.12223,101.191 C122.244826,100.062225 122.369309,98.68071 122.62016,97.3010957 L122.993608,93.78745 L123.491539,87.761614 C123.616021,86.6328387 123.864987,85.3786439 123.989469,83.9990296 C124.113952,82.6175151 124.238435,81.110581 124.364803,79.4801278 C124.4874,77.8477742 124.4874,76.4681599 124.611882,75.4648041 L124.862734,71.9492581 L124.862734,71.8238386 L125.60963,63.0387741 L125.983077,58.898031 L126.729973,49.7348077 L126.729973,49.3585493 C126.729973,48.229774 126.854456,47.0990984 126.978939,46.0957425 L127.601352,39.1938705 C127.725834,37.310678 127.976686,35.3020661 128.350134,33.2934541 C128.723581,31.2867424 128.723581,31.1594226 129.345995,28.5256136 C129.843925,26.0153237 130.219259,24.1321312 130.466338,22.7525169 C130.466338,22.250839 131.21512,22 132.708912,22 L135.698381,22 C136.571646,22.1254195 137.318541,22.1254195 137.691989,22.1254195 C139.81008,22.6270974 142.052654,23.0033558 142.052654,23.1287753 C143.919893,30.0306473 144.044376,31.7884203 144.170744,32.6663567 L144.170744,32.6663567 Z" id="Fill-5" fill="#1A1919"></path>
                <path d="M226.374814,51.8578398 C226.000836,44.0228128 225.258546,38.3037326 224.384041,34.8191976 C223.509537,31.3403101 222.136395,28.7273795 220.013407,26.8674548 C218.770591,25.6212299 216.522944,25 213.400793,25 C206.047777,25 200.683645,27.7371766 197.436834,33.3320108 C196.56233,31.7149306 195.064528,29.8474758 192.949096,27.9800211 C191.449405,26.6189628 189.451078,25.8716044 186.959778,25.7473584 L185.835955,25.7473584 C183.712968,25.7473584 181.597535,26.1200964 179.599207,26.7432088 C177.974858,27.6129307 176.732041,28.228513 175.984085,28.7273795 C175.984085,28.8516254 175.610107,29.1001174 174.984921,29.5989838 C174.984921,29.5989838 174.30496,30.0056071 173.783657,30.5251812 C173.264243,31.0428728 171.896767,32.5997126 171.509568,33.2905955 C171.120479,33.983361 170.468851,35.1505202 170.468851,35.1505202 C170.468851,35.1505202 169.643454,36.4023926 169.407357,37.1572811 C169.163704,37.9178171 168.213649,39.5970204 167.866113,41.4983604 C167.526133,43.3601676 167.012385,46.1538197 166.985943,47.4056921 L166.985943,47.4885227 C166.972721,50.7245658 166.942501,53.5596332 166.874505,55.9598397 C166.874505,58.5652403 166.874505,60.556941 166.749845,61.9274118 L166.749845,70.5003846 C166.623297,71.4981175 166.623297,72.2435934 166.623297,72.8667058 L166.623297,73.9868022 C166.999164,82.5616574 166.375867,93.6327274 166.249319,102.081454 C166.124659,102.953059 166.124659,103.948909 166.124659,105.31938 L166.124659,106.556192 C166,106.92893 166,107.552042 166,108.423647 L166,113.146877 C166.124659,113.395369 166.124659,113.768107 166.124659,114.266973 C166.124659,114.639711 166.124659,115.012449 166,115.138577 L166,115.884053 C166.124659,116.010182 166.124659,116.134428 166.124659,116.258674 C166.124659,116.755658 167.497802,117.006032 170.121315,117.006032 L170.621842,117.006032 C170.863605,116.881786 171.112924,116.881786 171.237584,116.881786 C171.488791,116.755658 171.613451,116.755658 171.73811,116.633294 C171.862769,116.755658 172.112088,116.881786 172.486066,117.006032 C172.737274,117.128396 172.861933,117.254524 172.986593,117.254524 C173.111252,117.254524 173.235912,117.254524 173.235912,117.37877 L174.361624,117.37877 C174.984921,117.37877 175.23424,117.128396 175.23424,116.755658 C175.10958,116.633294 175.10958,116.134428 175.10958,115.387069 C175.23424,115.387069 175.23424,115.262823 175.23424,115.012449 L175.358899,114.639711 L175.358899,87.9136472 C175.358899,87.5409093 175.358899,87.0420428 175.483558,86.2946844 L175.483558,84.5533582 C175.483558,83.8059998 175.483558,83.1828873 175.358899,82.8101494 L175.358899,64.0433586 C175.984085,50.2407595 176.108744,42.0311121 177.225012,39.5499575 C177.600879,38.3037326 178.724703,36.8108983 180.471823,35.690802 C182.096173,34.5707056 184.96145,34.4464597 187.460305,34.4464597 C191.073539,34.4464597 192.949096,38.6783531 192.949096,47.0028339 C192.949096,48.6217967 192.822548,51.3608558 192.697888,55.2124813 C192.573229,58.9398607 192.448569,61.8031659 192.448569,63.6687381 L192.448569,64.0433586 C191.823384,77.8384276 191.449405,94.7471762 191.449405,114.517347 L191.449405,115.76169 C191.449405,116.633294 191.449405,117.006032 191.574065,117.006032 L191.449405,117.128396 C191.574065,117.37877 192.32391,117.627262 193.447733,117.877637 L194.197579,117.877637 C194.571557,118 194.820876,118 195.064528,118 C197.187515,118 198.934636,117.751508 200.307778,117.128396 L200.307778,116.507166 C200.307778,116.258674 200.307778,116.010182 200.434326,115.76169 L200.434326,112.158556 C200.434326,111.535444 200.434326,111.03846 200.558986,110.66384 L200.558986,107.30355 C200.683645,106.92893 200.683645,106.190984 200.683645,105.195134 L200.683645,97.4843529 C201.425935,83.6817538 201.301276,72.4920853 201.301276,58.0757864 C201.301276,54.9621068 201.057623,52.9722886 201.675254,50.1165135 C201.801802,49.4934011 201.801802,48.9945346 201.801802,48.6217967 L201.801802,48.2471762 C202.17578,44.1470588 202.674418,41.2856362 203.299604,39.5499575 C203.80013,38.0552407 204.797405,36.5624064 206.421755,35.0676896 C208.03855,33.5805028 210.036878,32.8350269 212.409184,32.8350269 C213.400793,32.8350269 214.275297,33.3320108 214.900483,34.1979677 C215.52378,35.0676896 216.024306,35.939294 216.148966,36.5624064 L217.02347,40.0412939 C217.896086,44.1470588 218.271953,50.7377434 218.271953,59.8114651 C218.271953,61.8031659 218.271953,63.1717542 218.396613,64.0433586 C218.396613,66.1517752 218.396613,67.770738 218.521272,68.6404599 C218.396613,71.123497 218.271953,72.7424598 218.271953,73.3636897 L218.271953,78.2130481 C218.271953,79.3312619 218.271953,80.9502247 218.147294,83.0605239 L218.147294,87.7875187 C218.147294,89.8997004 218.147294,91.2664062 218.271953,92.1380106 C218.147294,92.885369 218.147294,93.7569734 218.022634,94.7471762 L217.773316,111.03846 C217.773316,112.405166 217.773316,113.395369 217.646767,114.018481 C217.773316,114.142727 217.773316,114.391219 217.773316,114.890085 C217.773316,115.387069 217.773316,115.635561 217.896086,115.76169 C217.896086,115.884053 217.773316,116.134428 217.646767,116.38292 C217.522108,116.633294 217.522108,116.755658 217.522108,116.881786 C217.522108,117.006032 217.646767,117.128396 217.773316,117.128396 L218.147294,117.128396 C218.271953,117.254524 218.521272,117.254524 218.770591,117.37877 C219.146458,117.503016 219.39011,117.503016 219.639429,117.503016 L222.261054,117.503016 C223.384877,117.627262 224.010063,117.627262 224.259382,117.627262 C226.000836,117.503016 226.875341,117.254524 226.875341,117.006032 L226.875341,107.179304 C227,104.323529 227,101.58447 227,98.8529412 C227,76.1027489 226.750681,60.432695 226.374814,51.8578398" id="Fill-6" fill="#1A1919"></path>
                <path d="M255.204589,48.9407734 C255.078394,47.9388159 254.826004,47.18545 254.699809,46.5592266 C254.573614,46.0582478 254.573614,45.3067796 254.447419,44.4281691 C254.321224,43.5514562 254.195029,42.9252327 254.195029,42.5494986 C253.435946,37.2854261 252.804971,34.6533898 252.426386,34.6533898 C252.300191,34.6533898 252.173996,34.6533898 252.047801,34.5281451 C251.795411,34.5281451 251.669216,34.5281451 251.543021,34.4029004 C251.416826,34.4029004 251.164436,34.5281451 251.038241,34.6533898 C250.785851,34.7786345 250.659656,35.1543686 250.531549,35.5301027 C250.154876,37.2854261 249.521989,43.1757221 248.386233,53.3281331 L247.755258,61.4747313 L247.627151,63.1029124 C247.627151,65.9854381 246.996176,69.7465742 246.996176,71.8757341 L246.996176,72.8795893 C246.996176,73.7563022 246.869981,75.1358915 246.743786,76.7640726 C246.743786,78.1436619 246.617591,79.5232512 246.491396,80.8990452 L246.491396,81.7776557 C246.491396,82.2786345 246.491396,82.5291239 246.365201,82.6543686 L249.774379,82.6543686 C250.154876,82.7796133 252.047801,82.7796133 255.585086,82.9067556 L259.370937,83.0301027 L258.613767,75.762115 C258.613767,75.5116256 258.613767,75.1358915 258.487572,74.5077704 C258.361377,74.0067916 258.361377,73.6310575 258.235182,73.2553234 L258.235182,71.6252447 C258.108987,70.7485318 258.108987,70.1223083 257.982792,69.6194319 C257.730402,68.619372 257.478011,67.1126403 257.351816,65.2339699 C257.351816,64.8582358 257.351816,64.1067676 257.225621,62.9776677 C257.099426,61.9757101 256.973231,61.2223443 256.847036,60.7213655 C256.720841,60.3456314 256.720841,59.5941632 256.594646,58.466961 C256.468451,57.4631057 256.468451,56.5863929 256.216061,55.70968 L255.961759,53.5786225 C255.835564,52.4495226 255.709369,51.5728097 255.585086,51.1970756 C255.456979,50.8213415 255.330784,50.0698734 255.204589,48.9407734 Z M258.487572,27.7611362 C259.246654,29.1388279 259.625239,30.2660301 259.625239,31.2698853 C259.751434,31.6456194 259.877629,32.2718429 260.130019,33.2756981 C260.256214,34.4029004 260.382409,35.1543686 260.508604,35.7824897 C260.887189,37.6611602 261.139579,39.0407495 261.391969,40.1679517 L261.391969,40.6689305 C261.391969,41.295154 261.520076,42.6747433 261.89675,44.8058008 C262.024857,45.1815349 262.151052,45.6825137 262.277247,46.3106348 C262.403442,46.9368583 262.403442,47.5630818 262.529637,48.1893053 L262.782027,50.0698734 L263.665392,56.2106588 L264.548757,63.4786465 C264.674952,63.8562782 264.801147,64.8582358 265.181644,66.4864168 C265.434034,68.1164955 265.560229,69.2455955 265.560229,70.1223083 L266.695985,77.1398066 L268.086042,88.2960729 C268.464627,91.0514562 268.590822,93.0553713 268.717017,94.1844713 C268.843212,95.0630818 269.095602,96.9417522 269.347992,99.6990332 L269.852772,103.710659 L269.978967,105.33884 C270.105163,106.21745 270.23327,107.595142 270.609943,109.225221 L271.369025,112.984459 C271.369025,113.362091 271.369025,113.861172 271.49522,114.614538 C271.621415,115.366006 271.621415,115.866985 271.74761,116.242719 C271.873805,116.868943 272,117.371819 272,117.745655 L272,118.373777 C272,118.499021 271.49522,118.749511 270.483748,118.874755 L269.347992,118.874755 C268.969407,119 268.717017,119 268.590822,119 C268.338432,119 267.833652,118.874755 266.948375,118.749511 C266.695985,118.874755 266.3174,118.874755 265.938815,118.874755 C265.560229,118.874755 264.296367,118.874755 264.170172,118.624266 L263.917782,117.745655 C263.665392,117.244677 263.917782,116.868943 263.791587,116.493208 C263.413002,113.234949 263.160612,109.098078 262.403442,105.714574 C262.403442,105.589329 262.403442,104.963106 262.277247,103.959251 C262.151052,102.957293 262.024857,102.205825 262.024857,101.830091 L262.024857,101.329112 C261.644359,99.1980544 261.520076,97.8203628 261.520076,97.4446287 L261.520076,96.9417522 C261.520076,96.3155287 261.391969,95.8126523 261.265774,95.3135712 L260.256214,90.299988 L258.235182,90.299988 C258.108987,90.299988 257.730402,90.299988 257.351816,90.1747433 L254.699809,90.1747433 C253.942639,90.299988 253.435946,90.299988 253.185468,90.299988 C251.795411,90.1747433 250.026769,90.1747433 247.881453,90.1747433 L245.860421,90.047601 L245.481836,94.0611242 C245.10325,95.9397947 244.977055,96.9417522 244.977055,97.3174863 C244.85086,97.8203628 244.85086,98.5718309 244.85086,99.5737885 C244.722753,100.702888 244.722753,101.454357 244.596558,101.955335 C244.472275,102.581559 244.34608,103.583516 244.34608,104.712616 C244.217973,105.841716 244.217973,106.718429 244.091778,107.219408 C243.965583,108.096121 243.713193,109.7262 243.586998,112.107746 C243.208413,115.739843 242.829828,117.622308 242.577438,117.998042 C242.449331,118.373777 241.818356,118.624266 240.43021,118.749511 C239.546845,118.874755 238.409178,119 237.021033,119 C235.75717,118.874755 235.126195,118.499021 235,118.121389 C235.126195,117.8709 235.126195,117.495166 235.25239,116.868943 C235.25239,116.369861 235.25239,115.99223 235.378585,115.739843 C235.378585,114.990272 235.50478,114.111662 235.630975,113.109704 L236.137667,108.471855 C236.263862,106.593184 236.388145,105.215493 236.388145,104.211638 C236.51434,103.084435 236.642447,101.830091 237.021033,100.325257 L237.399618,96.8165075 L238.030593,90.8009668 C238.409178,88.1689305 238.661568,86.7912389 238.787763,86.5407495 C238.661568,86.2902601 238.661568,85.914526 238.661568,85.4116496 C238.661568,85.1611602 238.661568,84.7854261 238.787763,84.2825496 L238.787763,83.2805921 C238.913958,82.1533898 239.042065,81.4019216 239.042065,81.1514322 L239.042065,80.3980664 L239.418738,78.5193959 C239.546845,76.1378491 239.67304,75.0106468 239.67304,74.8854021 L240.556405,66.1106828 L241.061185,61.9757101 C241.313576,59.0931845 241.692161,55.3320483 241.946463,52.8271543 C241.946463,51.5728097 242.072658,50.3203628 242.323136,49.1912628 L243.082218,42.2990092 L243.460803,38.4126283 C243.586998,38.0368943 243.713193,37.4106708 243.839388,36.5339579 C243.965583,35.6553474 244.217973,35.0291239 244.34608,34.5281451 C244.217973,34.2776557 244.217973,33.9019216 244.217973,33.4009428 C244.217973,32.7728217 244.34608,32.0213535 244.596558,31.2698853 L244.977055,28.6378491 C245.353728,26.757281 245.734226,25.504834 246.112811,24.7533658 C246.112811,24.252387 246.996176,24 248.891013,24 L251.921606,24 C252.804971,24.1271423 253.564054,24.1271423 253.942639,24.1271423 C256.089866,24.6281211 257.604207,25.0038552 257.604207,25.1290999 C258.108987,25.7553234 258.361377,26.6320363 258.487572,27.7611362 L258.487572,27.7611362 Z" id="Fill-7" fill="#1A1919"></path>
                <path d="M287.934468,25.8706374 C287.934468,26.2443873 287.934468,26.6181373 288.060263,26.9918872 C287.934468,27.2410539 287.934468,27.7393871 287.934468,28.4887746 L287.934468,30.4821077 C287.934468,30.980441 287.934468,31.7298285 288.060263,32.8510784 L288.060263,35.4692156 L288.30622,51.053456 L288.30622,58.4076469 C288.30622,59.0324511 288.30622,59.4062011 288.430137,59.779951 L288.430137,63.2701715 C288.555932,62.8964215 289.051602,62.1489216 289.671189,61.2749508 C290.290776,60.4028676 290.662528,59.779951 290.786445,59.4062011 C291.158198,58.5322302 291.655745,57.286397 292.151414,55.6649263 L293.390588,52.0501225 L294.63164,48.559902 C294.755557,48.1861521 294.879474,47.6878188 295.127309,46.9384313 C295.251226,46.1909314 295.375144,45.5661272 295.499061,45.1942648 C296.4904,41.9513233 297.109987,39.9579903 297.483617,39.3331861 C297.731452,38.7102695 297.979287,37.713603 298.351039,36.4658822 C299.21846,34.4725491 299.716008,32.9756617 300.08776,32.1035785 L302.813942,24.7474999 C302.939737,24.3737499 303.683241,24.1245833 304.800376,24 L306.039549,24 C307.402641,24 308.395857,24 309.139362,24.1245833 C310.378536,24.4983333 311,24.7474999 311,24.8739708 C311,24.9985542 310.750288,25.6214707 310.130701,26.9918872 L308.395857,31.4806619 L306.535219,36.0921322 L305.791715,38.2119362 L305.419962,39.2086028 C305.296045,39.3331861 305.172128,39.833407 304.922415,40.5809069 C304.676458,41.3284068 304.550663,41.82674 304.426746,41.9513233 C304.302828,42.3269609 304.302828,42.6988232 304.178911,43.1990441 C304.054994,43.5727941 303.931076,43.946544 303.931076,44.0711274 C303.807159,44.6959316 303.559324,45.5661272 302.939737,46.6892646 C302.813942,46.9384313 302.813942,47.3121812 302.690025,47.9350978 C302.567985,48.559902 302.444068,48.933652 302.32015,49.0582353 C301.946521,50.1794851 301.698686,51.053456 301.450851,51.6763725 L298.227121,62.1489216 L296.862153,66.386642 C296.614318,67.7589461 296.242566,68.7556127 295.746896,69.3785293 C295.622979,69.5031126 295.622979,69.7522792 295.622979,70.0014458 C295.622979,70.3770834 295.622979,70.4997791 295.746896,70.6243624 C295.870813,71 295.994731,71.7474999 296.366483,72.9933331 C296.740113,74.1164705 296.98607,75.1131371 297.235782,75.7360537 L298.722791,80.9723282 C298.972503,81.4706615 299.21846,82.3446323 299.59209,83.4677698 L300.335594,86.0840194 C300.459512,87.2052693 301.079099,88.8286277 301.946521,90.9446564 C302.070438,92.0677939 302.32015,92.9398771 302.444068,93.3136271 C302.567985,93.5646813 302.690025,93.9365436 302.813942,94.4367645 C302.939737,94.8105145 302.939737,95.1861521 303.063655,95.4353187 C303.683241,97.3040684 304.178911,99.0482349 304.550663,100.669706 C304.676458,101.169927 304.922415,101.917426 305.296045,103.038676 C305.54388,104.03723 305.791715,104.78473 305.915632,105.283064 L307.030888,109.271617 C308.148023,113.135588 309.015444,115.631029 309.635031,117.001446 L309.635031,117.127917 C309.635031,117.499779 308.891527,117.750833 307.526558,117.873529 C307.402641,117.873529 307.030888,117.873529 306.659136,118 L305.54388,118 C305.172128,118 304.550663,117.873529 303.559324,117.750833 C301.450851,117.499779 300.459512,117.375196 300.335594,117.250612 C299.961965,115.504558 299.716008,114.258725 299.342378,113.386642 C299.094543,112.763725 298.846708,111.765171 298.474956,110.270171 C297.979287,108.524117 297.3597,105.90598 296.740113,102.540343 L295.746896,99.1747058 C295.127309,97.1794851 294.63164,95.9317643 294.507722,95.559902 C294.507722,95.4353187 294.134092,94.0630146 293.390588,91.320294 C293.018836,89.6988232 292.523166,88.2038234 292.151414,86.9561027 C291.531827,84.587132 291.03428,82.9675489 290.91224,81.8444114 C290.538611,80.7231616 290.166858,79.6019117 289.795106,78.3560786 C289.175519,77.3575244 288.67985,76.8591911 288.30622,76.8591911 C288.430137,77.980441 288.555932,79.4773284 288.555932,81.4706615 L288.555932,91.320294 C288.555932,94.3121812 288.555932,96.5565685 288.430137,97.9288726 C288.555932,98.5517892 288.67985,99.6730391 288.803767,101.043456 L288.803767,103.289731 C288.67985,103.912647 288.67985,104.660147 288.67985,105.53223 L288.67985,107.527451 C288.803767,108.773284 288.803767,110.270171 288.803767,112.138921 C288.803767,113.635809 288.803767,114.632475 288.67985,115.130808 C288.67985,116.004779 287.934468,116.378529 286.447459,116.503113 C285.330325,116.876863 283.967234,117.001446 282.35443,117.001446 C280.991339,116.876863 280.247835,116.503113 280.12204,116.004779 C280.247835,116.004779 280.371752,115.878308 280.371752,115.631029 C280.371752,115.381863 280.247835,114.881642 280.12204,114.258725 L280.12204,109.520784 C280.12204,107.652034 280.12204,106.27973 280,105.15848 C280.12204,103.786176 280.247835,102.664926 280.247835,101.543676 C280.247835,100.794289 280.247835,100.171372 280.12204,99.7976224 C280.12204,99.4238724 280.12204,98.6744849 280.247835,97.4286518 L280.247835,90.6973774 C280.247835,88.9513233 280.247835,87.5790192 280.371752,86.706936 C280.247835,85.8348528 280.247835,84.4644363 280.247835,82.8429656 L280.247835,81.0987991 C280.247835,80.3494116 280.247835,79.8510784 280.371752,79.4773284 L280.371752,77.1083578 C280.49567,76.6100245 280.49567,75.860637 280.49567,74.9885538 C280.371752,74.7393871 280.371752,74.3656372 280.371752,73.8673039 L280.371752,72.3704165 C280.371752,72.2458332 280.371752,71.9966665 280.247835,71.8720832 L280.247835,71.6229166 C280.247835,71.4983333 280.371752,71.3737499 280.49567,71.2491666 C280.371752,70.6243624 280.371752,69.6276959 280.371752,68.2572794 L280.371752,51.4253183 C280.371752,50.8024017 280.371752,50.3040684 280.247835,49.9303185 C280.371752,49.3074019 280.371752,48.0596811 280.371752,46.3155147 L280.371752,31.7298285 C280.371752,30.8558577 280.371752,30.1083578 280.49567,29.6100245 L280.49567,28.4887746 C280.371752,28.1131371 280.371752,27.9904414 280.371752,27.8658581 C280.371752,27.6148038 280.371752,27.4902205 280.49567,27.3656372 C280.49567,26.493554 280.371752,25.9952207 280.247835,25.7441664 L280.371752,25.3723041 L280.619587,25.3723041 L280.49567,25.2458332 C280.49567,24.9985542 281.115256,24.7474999 282.478348,24.6229166 C282.602265,24.7474999 282.974017,24.7474999 283.347647,24.7474999 C283.719399,24.8739708 284.091151,24.8739708 284.215069,24.8739708 C285.330325,24.8739708 286.323542,24.9985542 287.314881,25.2458332 C287.686633,25.4968874 287.934468,25.6214707 287.934468,25.7441664 L287.934468,25.8706374" id="Fill-8" fill="#1A1919"></path>
                <g id="Group-12" transform="translate(192.000000, 0.000000)">
                    <mask id="mask-3" fill="white">
                        <use xlink:href="#path-2"></use>
                    </mask>
                    <g id="Clip-10"></g>
                    <path d="M135.719185,47.0091915 C135.594519,55.2057979 135.469852,60.1429681 135.469852,61.828234 C135.469852,62.7264149 135.469852,64.0727447 135.345185,65.9802021 L135.345185,71.8174362 C135.469852,72.715617 135.469852,73.2767447 135.469852,73.6137979 L135.469852,74.399 C135.469852,76.5324149 135.594519,77.8787447 135.719185,78.6658298 C135.594519,81.0233191 135.469852,82.4807447 135.469852,83.0418723 L135.469852,94.8293191 C135.469852,96.5145851 135.469852,97.8590319 135.594519,98.646117 L135.594519,99.8813511 C135.469852,100.440596 135.469852,100.892511 135.469852,101.229564 L135.469852,101.901787 C135.345185,102.462915 135.345185,103.361096 135.345185,104.370372 L135.345185,108.189053 C135.21863,108.750181 135.21863,109.646479 135.21863,110.657638 C135.21863,112.116947 135.469852,113.013245 135.345185,113.576255 C135.345185,114.585532 135.21863,115.259638 135.093963,115.594809 C135.21863,115.70967 135.21863,115.933745 135.21863,116.157819 L135.21863,116.270798 C134.969296,116.607851 134.47063,116.718947 133.847296,116.718947 L132.97463,116.718947 C131.850741,116.718947 130.728741,116.718947 129.980741,116.831926 C128.856852,116.494872 128.233519,116.270798 128.108852,116.157819 C127.610185,115.594809 127.610185,113.913309 127.610185,111.331745 L127.610185,104.707426 C127.610185,104.259277 127.610185,103.474074 127.485519,102.349936 L127.485519,99.5442979 C127.610185,98.7590957 127.610185,97.2997872 127.610185,95.3904468 L127.610185,57.5614043 C127.610185,55.0909362 127.610185,53.2964574 127.734852,52.0612234 L127.734852,35.3366064 C127.734852,34.6625 128.981519,34.3254468 132.100074,34.3254468 L135.968519,34.3254468 C135.968519,34.5495213 135.843852,38.8163511 135.719185,47.0091915" id="Fill-9" fill="#1A1919" mask="url(#mask-3)"></path>
                    <path d="M6.35862963,74.8735106 C5.96574074,74.8697447 4.26762963,74.5985957 1.26051852,74.0638298 L1.00174074,73.8115106 C0.873296296,73.6853511 0.744851852,73.4349149 0.746740741,73.3106383 L0.750518519,73.0602021 C0.882740741,72.9378085 0.882740741,72.9378085 0.88462963,72.8154149 C0.886518519,72.6911383 0.888407407,72.4407021 0.761851852,72.1921489 C0.633407407,71.9398298 0.637185185,71.6912766 0.639074074,71.567 C0.771296296,71.4446064 0.776962963,71.0717766 0.780740741,70.6989468 L0.792074074,69.8290106 C0.665518519,69.4542979 0.669296296,69.2057447 0.669296296,69.0814681 C0.807185185,68.7086383 0.812851852,68.2115319 0.820407407,67.5901489 C0.827962963,66.968766 0.835518519,66.4697766 0.708962963,66.0969468 C0.73162963,64.3551915 0.74862963,62.9881489 0.62962963,62.1144468 L0.778851852,50.5510745 C0.657962963,49.6773723 0.665518519,49.0559894 0.671185185,48.6850426 L0.695740741,46.694734 C0.707074074,45.8247979 0.71462963,45.2015319 0.589962963,44.7025426 C0.861962963,43.9606489 1.00362963,43.2149894 1.01496296,42.3450532 L1.02251852,41.5993936 C0.897851852,41.2246809 0.899740741,40.9761277 0.90162963,40.8518511 L0.954518519,36.7488404 C1.01118519,32.3953936 1.05274074,29.1623191 1.21140741,27.049617 L1.26240741,23.070883 C1.28318519,21.4552872 1.2982963,20.2106383 1.44185185,19.3425851 C1.4512963,18.4726489 1.46640741,17.3522766 1.61374074,15.987117 L1.6552963,12.8783191 C1.83851852,8.77530851 2.00285185,6.16738298 2.01418519,5.29556383 C2.15018519,4.92461702 2.15774074,4.42751064 2.16718519,3.55569149 L2.18418519,2.31292553 C2.1992963,1.07015957 2.46940741,0.450659574 2.99451852,0.333914894 C4.6982963,0.230351064 5.87885185,0.121138298 6.53240741,0.129984763 C6.9252963,0.134319149 8.32118519,0.136202128 10.0174074,0.53162766 C10.2742963,0.908223404 10.041963,2.29032979 10.0136296,4.52730851 L9.97018519,7.88465957 C9.82096296,9.25170213 9.81151852,9.9973617 9.80962963,10.1216383 L9.77940741,12.4847766 C9.88707407,14.3508085 9.99851852,15.8458936 9.98340741,17.0886596 L9.95885185,18.9546915 C9.81718519,19.8227447 9.80774074,20.4441277 9.80207407,20.941234 L9.69440741,29.3976915 L9.65285185,32.5064894 L9.41862963,50.7845638 C9.24674074,53.8933617 9.2202963,56.0060638 9.07296296,57.3731064 C9.04840741,59.2391383 9.02951852,60.7304574 8.88596296,61.7227872 L8.82551852,66.3247872 C8.68951852,66.695734 8.68574074,67.0685638 8.68196296,67.317117 C8.67818519,67.6899468 8.67440741,67.9385 8.80474074,68.0646596 C8.66685185,68.4356064 8.66118519,68.9345957 8.5232963,69.5540957 C8.38540741,70.0493191 8.37974074,70.4240319 8.37785185,70.5464255 L8.36651852,71.5425213 C8.23051852,71.9134681 8.22485185,72.2862979 8.22296296,72.4105745 C8.22107407,72.6591277 8.08507407,73.0300745 7.94907407,73.4029043 C7.81307407,73.7738511 7.67896296,74.0205213 7.67707407,74.1447979 L7.6732963,74.5176277 C7.66951852,74.7661809 7.27474074,74.8866915 6.35862963,74.8735106" id="Fill-11" fill="#1A1919" mask="url(#mask-3)"></path>
                </g>
                <path d="M326.175115,29.2505162 C326.044766,29.3754301 325.914417,29.5003441 325.784068,29.5003441 C325.393022,29.5003441 325,29.6252581 324.608953,29.7501721 C324.348255,29.8769787 324.087558,29.8769787 323.957209,29.8769787 C323.82686,29.8769787 323.696511,29.8769787 323.566162,30 C323.435813,30 323.175115,30 322.784068,29.8769787 C322.391047,29.7501721 322.262673,29.7501721 322.130349,29.7501721 L321.739302,29.7501721 L321.478604,29.6252581 C320.957209,29.3754301 320.435813,28.6259463 319.784068,27.25 C319.391047,26.3756022 319.130349,25.2513765 319,23.7505162 C319,23.1259463 319.262673,22.2515485 319.65372,21.1254301 C320.175115,20.2510323 320.82686,19.6264625 321.739302,19.3766345 C322.262673,19.124914 322.914417,19 323.696511,19 L324.478604,19 C325.393022,19.124914 326.044766,19.3766345 326.435813,19.5015485 C327.087558,19.7513765 327.348255,20.2510323 327.478604,21.0005162 C327.739302,21.75 327.869651,22.7512044 327.869651,24.1252581 C328,24.7517206 328,25.5012044 328,26.3756022 C328,27.25 328,27.7515485 327.869651,27.9994838 C327.739302,28.6259463 327.348255,29.0006882 326.566162,29.0006882 C326.435813,29.0006882 326.305464,29.1256022 326.175115,29.2505162" id="Fill-13" fill="#1A1919"></path>
                <path d="M168.918555,122.780937 C166.980158,120.552665 165.207964,118.183219 163.341073,116.036981 L162.803811,115.416957 C162.850193,114.804564 161.659712,114.522214 162.096479,114.44018 C164.558611,113.928899 168.348439,113.944161 170.211464,114.083428 C171.62806,113.959423 177.445184,115.050666 178.826993,115.384525 C179.207715,115.49136 180.044531,115.283413 179.998148,115.895806 C179.227041,116.264005 177.721546,117.540301 176.515604,118.490369 C174.186822,120.321825 171.720825,122.412738 169.761169,124 C169.672269,123.647063 169.312806,123.234985 168.918555,122.780937" id="Fill-14" fill="#1A1919"></path>
                <path d="M216.088955,117.554587 C215.023929,116.434158 213.708754,114.952047 213,114.482253 C213.026531,113.849309 213.780766,114.120571 214.201471,114.098949 C215.586763,113.922039 219.405317,114.008528 222.765266,114.153987 C225.971715,114.295515 230.525555,114.216889 230.96142,114.790863 C231.213463,115.158442 230.161702,115.628236 229.80164,116.048888 L229.204695,116.616965 C227.135285,118.590492 225.134097,120.80383 222.986989,122.852052 C222.511328,123.227494 222.151266,123.648146 222.022401,124 C220.299788,122.140482 218.143205,119.706989 216.088955,117.554587" id="Fill-15" fill="#1A1919"></path>
                <path d="M190.290342,120.025055 C189.153016,118.991593 187.741496,117.613643 187,117.192602 C186.996152,116.576352 187.814872,116.838546 188.202992,116.760079 C189.602926,116.518938 195.476858,115.822307 196.878724,116.042397 C198.747878,116.029 202.293091,116.428988 204.944277,116.951461 C205.218471,117.219396 204.403613,117.494986 204.173831,117.883491 L203.592616,118.465292 C201.582504,120.486286 199.651559,122.736938 197.56614,124.836398 C197.139401,125.265093 196.753212,125.651685 196.639287,126 C194.797166,124.275649 192.483895,122.015428 190.290342,120.025055" id="Fill-16" fill="#1A1919"></path>
                <path d="M92,144.82262 L92,144.673755 L95.2771358,144.673755 L95.2771358,144.82262 C95.2771358,146.868052 95.6938814,147.720638 97.0937678,147.720638 C98.2000379,147.720638 98.7418072,147.18898 98.7418072,145.739004 C98.7418072,144.546158 98.0750142,143.927501 96.9895814,143.41711 L95.6938814,142.821653 C93.3354802,141.733204 92.145861,140.689222 92.145861,138.069599 C92.145861,135.277912 93.9833302,134 96.739534,134 C99.7438909,134 101.685547,135.19478 101.685547,138.645723 L101.685547,138.730788 L98.4500852,138.730788 L98.4500852,138.645723 C98.4500852,136.834219 97.8874787,136.238763 96.7168024,136.238763 C95.7791248,136.238763 95.3396477,136.855486 95.3396477,137.963267 C95.3396477,138.920251 95.6522069,139.475109 96.4875923,139.838569 L97.9480962,140.519091 C100.225043,141.543741 102,142.479459 102,145.313678 C102,148.488159 100.204205,150 97.0937678,150 C93.5040727,150 92,148.124698 92,144.82262" id="Fill-17" fill="#1A1919"></path>
                <polyline id="Fill-18" fill="#1A1919" points="107.927603 137.399549 105 137.399549 105 135 114 135 114 137.399549 111.072397 137.399549 111.072397 150 107.927603 150 107.927603 137.399549"></polyline>
                <path d="M121.199368,141.537739 C123.023805,141.537739 123.39204,141.122794 123.39204,139.384153 C123.39204,137.626737 123.023805,137.193015 121.199368,137.193015 L120.256463,137.193015 L120.256463,141.537739 L121.199368,141.537739 Z M121.630835,143.524221 C121.549005,143.542997 121.465315,143.542997 121.383485,143.542997 L120.256463,143.542997 L120.256463,150 L117,150 L117,135 L121.221685,135 C125.093733,135 126.795425,135.86932 126.795425,139.115659 C126.795425,141.186632 125.975265,142.219302 124.561837,142.799474 L127,150 L123.63753,150 L121.630835,143.524221 L121.630835,143.524221 Z" id="Fill-19" fill="#1A1919"></path>
                <polyline id="Fill-20" fill="#1A1919" points="131 135 139 135 139 137.399549 134.187628 137.399549 134.187628 141.122794 138.579713 141.122794 138.579713 143.524221 134.187628 143.524221 134.187628 147.598573 139 147.598573 139 150 131 150 131 135"></polyline>
                <polyline id="Fill-21" fill="#1A1919" points="143 135 151 135 151 137.399549 146.187628 137.399549 146.187628 141.122794 150.577894 141.122794 150.577894 143.524221 146.187628 143.524221 146.187628 147.598573 151 147.598573 151 150 143 150 143 135"></polyline>
                <polyline id="Fill-22" fill="#1A1919" points="156.928814 137.399549 154 137.399549 154 135 163 135 163 137.399549 160.072981 137.399549 160.072981 150 156.928814 150 156.928814 137.399549"></polyline>
                <path d="M176.767208,143.757371 L176.767208,141.520541 L182,141.520541 L182,149.744804 L179.745116,149.744804 L179.644696,148.018366 C179.182764,149.104882 178.257075,150 176.506116,150 C173.206865,150 172,147.678105 172,143.096182 L172,140.903818 C172,136.238763 173.247033,134 177.130546,134 C180.289209,134 181.917838,135.641373 181.917838,138.879652 L181.917838,139.00725 L178.739091,139.00725 L178.739091,138.858386 C178.739091,136.727888 178.136571,136.343161 177.070294,136.343161 C175.399671,136.343161 175.399671,138.260996 175.399671,141.499275 L175.399671,142.500725 C175.399671,145.739004 175.399671,147.656839 177.070294,147.656839 C178.477999,147.656839 179.243016,146.910585 179.243016,143.906235 L179.243016,143.757371 L176.767208,143.757371" id="Fill-23" fill="#1A1919"></path>
                <path d="M191.201227,141.537739 C193.023805,141.537739 193.3939,141.122794 193.3939,139.384153 C193.3939,137.626737 193.023805,137.193015 191.201227,137.193015 L190.258322,137.193015 L190.258322,141.537739 L191.201227,141.537739 Z M191.630835,143.524221 C191.549005,143.542997 191.467175,143.542997 191.385345,143.542997 L190.258322,143.542997 L190.258322,150 L187,150 L187,135 L191.221685,135 C195.095592,135 196.795425,135.86932 196.795425,139.115659 C196.795425,141.186632 195.975265,142.219302 194.561837,142.799474 L197,150 L193.63939,150 L191.630835,143.524221 L191.630835,143.524221 Z" id="Fill-24" fill="#1A1919"></path>
                <polyline id="Fill-25" fill="#1A1919" points="200 135 208 135 208 137.399549 203.187628 137.399549 203.187628 141.122794 207.579713 141.122794 207.579713 143.524221 203.187628 143.524221 203.187628 147.598573 208 147.598573 208 150 200 150 200 135"></polyline>
                <polyline id="Fill-26" fill="#1A1919" points="212 135 220 135 220 137.399549 215.187628 137.399549 215.187628 141.122794 219.579713 141.122794 219.579713 143.524221 215.187628 143.524221 215.187628 147.598573 220 147.598573 220 150 212 150 212 135"></polyline>
                <polyline id="Fill-27" fill="#1A1919" points="227.552923 144.040556 226.382833 145.79985 226.382833 150 223 150 223 135 226.382833 135 226.382833 141.122794 230.296647 135 233.615763 135 229.530104 141.104018 234 150 230.530279 150 227.552923 144.040556"></polyline>
            </g>
        </g>
    </g>
</svg>