<?xml version="1.0" encoding="UTF-8"?>
<svg width="421px" height="801px" viewBox="0 0 421 801" version="1.1" xmlns="http://www.w3.org/2000/svg" xmlns:xlink="http://www.w3.org/1999/xlink">
    <title>mobile-mask</title>
    <g id="Desktop" stroke="none" stroke-width="1" fill="none" fill-rule="evenodd">
        <g id="Portfolio---Kalamaki" transform="translate(-475.000000, -2130.000000)" fill="#FFFFFF" stroke="#030000" stroke-width="3">
            <g id="RWD" transform="translate(475.985017, 1976.000000)">
                <g id="Group-4" transform="translate(-0.000000, 154.021867)">
                    <path d="M389.931472,1.5 C397.80153,1.5 404.92653,4.68997116 410.084015,9.84745674 C415.131767,14.8952086 418.294838,21.8276415 418.427152,29.4986795 L418.431472,30 L418.431472,770.930748 C418.431472,778.800806 415.241501,785.925806 410.084015,791.083291 C405.036264,796.131043 398.103831,799.294114 390.432793,799.426427 L389.931472,799.430748 L30,799.430748 C22.1299423,799.430748 15.0049423,796.240777 9.84745674,791.083291 C4.79970489,786.035539 1.63663413,779.103106 1.50432046,771.432068 L1.5,770.930748 L1.5,30 C1.5,22.1299423 4.68997116,15.0049423 9.84745674,9.84745674 C14.8952086,4.79970489 21.8276415,1.63663413 29.4986795,1.50432046 L30,1.5 L389.931472,1.5 Z M85.4140881,20.2311631 L35.7967088,20.2311631 L35.3876553,20.2364548 C31.3099657,20.3420864 27.6241209,22.0230878 24.9139729,24.7332359 C22.1399627,27.5072461 20.3859689,31.362528 20.2967088,35.7154297 L20.2967088,35.7154297 L20.2967088,765.007739 L20.3020005,765.416793 C20.4076321,769.494482 22.0886335,773.180327 24.7987816,775.890475 C27.5727918,778.664485 31.4280737,780.418479 35.7809755,780.507739 L35.7809755,780.507739 L383.541763,780.507739 L383.950817,780.502447 C388.028507,780.396816 391.714351,778.715814 394.424499,776.005666 C397.19851,773.231656 398.952503,769.376374 399.041763,765.023472 L399.041763,765.023472 L399.041763,35.7311631 L399.036472,35.3221096 C398.93084,31.24442 397.249839,27.5585752 394.539691,24.8484271 C391.76568,22.0744169 387.910398,20.3204231 383.557497,20.2311631 L383.557497,20.2311631 L335.905041,20.2311631 L335.379506,20.2351898 C322.849297,20.4280616 316.243534,27.520197 310.069716,35.1578769 L310.069716,35.1578769 L309.306494,36.1058718 L308.814296,36.7194649 L308.447151,37.1771004 L308.447151,37.1771004 L308.07978,37.6341765 L307.589094,38.2421449 L307.344078,38.5442599 L306.852399,39.1467739 C301.511698,45.6591241 295.660259,51.6337549 284.448692,51.8091173 L284.448692,51.8091173 L141.837476,51.8091173 L141.269413,51.8051604 C128.664437,51.6288115 121.515262,45.5842319 115.31199,38.9584992 L115.31199,38.9584992 L114.789489,38.3968466 C114.269042,37.8340453 113.754452,37.268153 113.24299,36.7023685 L113.24299,36.7023685 L112.73247,36.1367384 C112.562577,35.948286 112.39293,35.759964 112.223429,35.5718909 C111.926926,35.2429013 111.630814,34.9146943 111.334649,34.5877758 L111.334649,34.5877758 L110.742116,33.9358068 C104.121765,26.6780189 97.3272313,20.2311631 85.4140881,20.2311631 L85.4140881,20.2311631 Z" id="mobile-mask"></path>
                </g>
            </g>
        </g>
    </g>
</svg>