<?xml version="1.0" encoding="UTF-8"?>
<svg width="328px" height="335px" viewBox="0 0 328 335" version="1.1" xmlns="http://www.w3.org/2000/svg" xmlns:xlink="http://www.w3.org/1999/xlink">
  <title>pig-left</title>
  <style>
  @keyframes wingRightAnimation {
    0% { transform: rotateZ(6deg); }
    50% { transform: rotateZ(-6deg); }
    100% { transform: rotateZ(6deg); }
  }

  @keyframes wingLeftAnimation {
    0% { transform: rotateZ(-6deg); }
    50% { transform: rotateZ(6deg); }
    100% { transform: rotateZ(-6deg); }
  }

  @keyframes floating {
    0% { transform: translateY(4px); }
    50% { transform: translateY(-4px); }
    100% { transform: translateY(4px); }
  }

  #wing-right-2 {
    animation: 2s wingLeftAnimation infinite both;
    transform-origin: 150px 180px;
  }

  #wing-left-2 {
    animation: 2s wingRightAnimation infinite both;
    transform-origin: 90px 180px;
  }

  #pig {
    animation: 2s floating infinite both;
    transform-origin: 0 0;
  }
  </style>
  <defs>
    <rect id="path-1" x="0" y="0" width="327" height="334"></rect>
  </defs>
  <g id="Desktop" stroke="none" stroke-width="1" fill="none" fill-rule="evenodd">
    <g id="Portfolio---Kalamaki" transform="translate(-75.000000, -2009.000000)">
      <g id="pig-left" transform="translate(75.501269, 2009.623824)">
        <mask id="mask-2" fill="white">
          <use xlink:href="#path-1"></use>
        </mask>
        <g id="mask"></g>
        <g id="pig" mask="url(#mask-2)">
          <g transform="translate(130.715922, 162.242101) rotate(-207.000000) translate(-130.715922, -162.242101) translate(-47.254680, -43.326615)">
            <g id="pig2-base" transform="translate(1.401574, -0.000000)">
              <path d="M88.0195867,190.341624 C87.9221581,190.364286 87.825507,190.386813 87.7296344,190.409205 C87.2368905,190.401048 86.6772444,190.286005 86.1216316,190.099961 C85.0418758,190.061366 83.8621005,189.768492 83.1415056,189.209988 C79.497614,186.392493 76.7925416,182.816705 75.1785909,178.87085 C72.7099281,181.563476 69.7593532,183.754356 66.3405056,185.37765 C66.160925,185.461653 65.9631593,185.477546 65.772213,185.522952 C64.4719599,187.246142 60.173395,186.374331 59.6914832,183.933713 C58.1684592,176.175955 59.8892489,168.425007 64.5401549,162.306436 C62.2601652,161.822853 60.0324586,161.20532 57.8547617,160.458378 C50.7056418,158.3515 43.904317,155.073126 37.7076553,150.720881 C35.1185144,151.594963 32.531647,152.471315 29.9402331,153.345396 C29.9720575,154.087798 29.9220477,154.802956 29.7856575,155.490869 C29.806116,155.602116 29.8356673,155.708822 29.8538526,155.820069 C29.9811501,156.567012 29.7060966,157.048324 29.2219113,157.323035 C27.9580288,160.233614 25.2370442,162.415412 21.9273086,163.237276 C19.3608996,163.875242 16.8126759,163.702696 14.3826571,163.032945 C14.2712717,163.010242 14.1621596,162.973916 14.0530474,162.946672 C13.9234767,162.910347 13.793906,162.885373 13.6666085,162.844507 C12.5754869,162.544822 11.5161896,162.099835 10.5069021,161.507275 C9.07253176,160.767144 7.69953706,159.897603 6.43110814,158.919086 C5.79462052,158.428692 5.45819134,157.727156 5.50592793,157.068757 C-1.16582625,148.829686 -3.05483059,134.932923 7.15852258,131.729471 C7.28809326,131.650009 7.42448348,131.575088 7.551781,131.491085 C7.57905905,131.472922 7.61088343,131.45703 7.63816147,131.438867 C25.6303026,119.90099 34.6593343,100.167177 48.9962178,84.7878812 C59.902888,73.0888092 74.3920738,64.568216 90.1724206,70.4484018 C94.9756289,65.6965761 99.9697836,60.0093696 105.723177,55.9204837 C103.913734,55.6049061 101.608739,54.5355753 101.510993,53.4821366 C100.678381,44.4761946 95.4938539,38.0011268 90.1684592,31.599734 L88.4869847,29.5778246 C84.2961497,24.5148439 80.2937917,19.3365723 78.5519752,12.8339347 C76.6584247,5.76181959 80.9478964,5.50981164 85.7329193,6.96056015 C85.4146755,6.25902449 85.2032707,5.50981164 85.1987245,4.6992996 C85.1873588,3.18725186 85.8420318,1.94537483 86.9058753,1.12805174 C86.9308801,0.97366849 87.0104411,0.832907292 87.2332116,0.730741903 C87.6082848,0.560466258 87.9947236,0.446949163 88.3879822,0.358405828 C88.5675624,0.301647281 88.747143,0.238077707 88.9380893,0.197211552 C92.1023419,-0.479350341 95.4643605,0.673983357 98.5649646,2.29954817 C99.9675104,2.84215989 101.338232,3.47104459 102.665763,4.1793913 C104.093314,3.08735682 105.966406,2.73091314 108.003167,3.08281613 C113.013234,3.94781641 117.445915,9.06516711 121.137544,12.1096956 L139.229704,27.0281124 L139.229704,27.0281124 C140.404933,27.9975484 140.502679,28.8534673 140.038953,29.482352 C144.717137,33.8936264 148.902043,38.797565 152.491378,44.2759 C152.655046,44.2509263 152.816442,44.2236822 153.011934,44.2146007 C176.159625,43.1429992 198.402594,48.6077124 217.656345,59.2578863 C220.172744,60.4112202 222.659592,61.6530969 225.094157,63.0289241 C242.127021,72.6438222 255.354598,87.2307693 263.783512,104.612507 C264.397268,105.675027 265.001931,106.746628 265.583863,107.834122 C273.549051,108.658256 279.427469,107.09172 287.024403,102.959698 C291.657124,100.437348 296.867229,96.4074912 302.054604,95.2201025 C308.017129,93.8556268 315.050317,97.8627804 314.936658,104.072166 C315.186707,104.392284 315.354922,104.737376 315.279907,105.012087 C318.716941,106.96004 320.519564,110.347391 317.339399,114.606552 C313.020376,120.391383 305.089285,124.092041 298.240224,126.47817 C300.565677,127.599719 302.775198,128.80073 304.84833,130.017633 C312.681674,127.577015 320.187681,124.459836 327.38681,120.675176 L327.352714,120.357328 L327.352714,120.357328 C327.341347,119.680766 328.191514,119.524113 329.273541,119.676226 C331.733113,118.334454 334.151766,116.901868 336.538593,115.396631 C336.770457,114.883534 337.250095,114.477143 337.954777,114.334111 C341.428182,113.623494 345.272113,113.934531 347.636209,116.922301 C348.665956,118.225477 348.934189,119.830609 348.527292,121.240491 C349.40701,121.624179 350.250357,122.107762 351.0346,122.700321 C353.389602,124.48481 355.801438,128.294444 353.787409,131.12783 C353.612375,131.377568 353.369144,131.552384 353.089544,131.677253 C352.941789,132.001912 352.6781,132.310678 352.248471,132.58539 C344.931139,137.29862 337.122798,140.465747 329.053045,142.835984 C315.97777,147.047468 302.190994,149.574358 288.597437,152.092168 C276.976991,170.511452 262.824234,186.764829 246.109615,200.809164 L246.081607,200.834205 L246.081607,200.834205 L246.037805,200.877847 C245.940184,200.972904 245.736673,201.113674 243.706874,202.128233 C251.881194,205.885649 253.349661,218.808435 250.515018,225.780655 C250.469555,225.894172 250.369535,225.966823 250.253604,226.030393 C251.074218,227.517467 251.494755,229.211142 251.278803,231.154555 C250.651409,236.800895 245.795917,241.343849 241.151831,244.00923 C239.010505,245.239756 233.418506,241.722996 236.400905,240.011158 C239.762924,238.081368 242.69304,235.166249 244.166054,231.535972 C244.345635,231.097796 244.432015,230.700486 244.527488,230.298636 C240.476699,231.708518 234.71194,228.557283 232.679726,225.099553 C231.379473,222.89278 230.788448,219.621218 232.916136,217.686886 C235.337062,215.482384 239.160534,216.771939 241.479167,218.404314 C241.808777,218.635889 242.117928,218.958278 242.317967,219.301099 C243.174952,219.755168 244.043303,220.250102 244.891195,220.792714 C245.725449,214.957935 241.322319,208.056096 235.764418,206.294311 C231.120331,208.444325 226.353494,210.097133 221.523007,211.332199 C221.309329,211.434365 221.05928,211.522908 220.720578,211.579667 C220.593281,211.60237 220.470529,211.613722 220.345505,211.634155 C200.386913,216.423954 179.340258,213.50017 160.586575,203.073249 L157.740047,192.418312 C158.042896,192.778499 158.314442,193.161048 158.549377,193.564503 C159.144947,194.590698 159.404088,195.576026 159.447279,196.5273 C177.191644,207.08666 196.897756,210.651097 217.233535,207.277369 C217.253994,207.275098 217.278999,207.277369 217.301731,207.275098 C225.269191,205.272657 233.036614,201.962498 240.324397,197.292405 C240.565353,197.138022 240.856319,197.051748 241.172289,197.006342 C256.072919,184.333293 268.843589,169.975651 279.58659,153.790383 C277.563469,154.180882 275.544894,154.578192 273.542231,154.991394 C273.217168,155.057234 272.778446,155.007287 272.296534,154.882418 C271.916915,154.807496 271.544115,154.678087 271.184954,154.501 C269.054993,153.597404 266.850018,151.806104 268.613999,151.440579 C268.707199,151.422417 268.802672,151.404254 268.895872,151.383821 C269.007257,150.811695 269.48235,150.309949 270.473452,150.012534 C274.969782,148.65714 279.547947,147.576457 284.162482,146.620643 C284.451174,146.225604 285.092208,146.148412 285.865086,146.26874 C289.878314,145.464391 293.916026,144.746273 297.951437,144.029657 L302.791111,143.165015 C314.073106,141.123894 325.253061,138.82883 335.742983,134.419826 C332.487804,132.342463 329.889571,129.543132 328.493845,126.042264 C322.515408,128.884732 316.339204,131.293565 309.937958,133.243789 C309.669723,133.327792 309.340114,133.325521 308.97868,133.273303 C308.178524,133.58207 305.173393,132.900967 304.216388,132.290245 C295.164625,126.503144 281.950687,120.681987 271.250876,125.066017 C270.914447,125.202238 270.462086,125.190886 269.959715,125.08191 C268.820857,125.540519 266.349921,125.245374 265.213336,124.359941 C245.650434,109.096432 214.812609,135.346126 222.332256,157.048324 C223.023299,159.041684 216.635692,157.61818 215.890092,155.465896 C210.752727,140.636022 222.17768,125.424731 235.27114,119.060963 C245.120786,114.275082 256.01609,114.906237 265.170146,120.093969 C263.924449,116.965437 262.544635,113.92772 261.064801,110.962653 C260.919318,110.80827 260.79884,110.644806 260.732918,110.4768 C260.628352,110.2089 260.51242,109.950081 260.405582,109.68218 C247.082532,83.8411486 225.014596,64.6703814 198.613999,55.2212184 C185.795593,51.8747345 172.37707,50.4989073 159.265425,49.2797336 C166.400906,54.9851029 172.213402,62.0526772 176.477869,70.3394251 C176.921137,71.1976145 176.921137,71.8832576 176.666542,72.409977 C178.09182,75.4272615 179.176122,78.6420656 179.769419,82.1315811 C181.956209,94.9476614 180.162678,112.724439 167.007843,118.845281 C164.205024,120.148457 158.997191,115.966487 162.447863,114.359085 C174.51385,108.744529 175.86184,89.6259799 172.47709,78.1108056 C168.780915,65.5353817 158.112928,57.0874394 148.283741,49.2524896 C147.269907,48.4442477 147.047136,47.6995756 147.288092,47.0979351 C146.469751,46.2965044 146.403829,45.4405853 146.80618,44.7504013 C143.726034,40.6955709 140.529957,36.7474462 137.090651,32.9900303 C136.104095,31.9116179 134.890223,30.4313549 133.535413,28.8807114 C130.46436,26.3470098 127.393307,23.8155786 124.322255,21.2841473 C124.131308,21.2205778 123.942635,21.1683599 123.751689,21.1206827 C118.2097,23.9449881 114.681741,29.1531524 114.211194,35.623627 C114.204375,35.7167109 114.174824,35.7916324 114.156638,35.875635 C118.893925,44.0125404 123.631211,52.1494459 128.370771,60.2863513 C128.832224,61.0787005 128.866322,61.6916928 128.650371,62.1525723 C121.369407,79.3526827 125.261074,98.4893946 139.429743,110.919517 C141.900679,113.085423 135.48352,111.571105 134.374213,110.599398 C119.714539,97.7401819 114.697652,78.4445459 122.053631,60.3226766 C121.146636,58.7697628 120.241914,57.2145785 119.339466,55.6593945 C109.528464,58.0546051 101.513266,68.5503959 94.5778241,75.1729832 C93.0184297,76.6623276 89.0540208,75.0140594 88.4675432,73.2023265 C68.1635879,66.5116287 50.7306466,92.1029228 41.0378494,105.56151 C36.5210606,111.829924 31.9633544,117.968928 26.7668877,123.454075 C28.4944969,123.168011 30.2380184,122.952329 32.0156375,122.872867 C34.0796757,122.779783 39.36025,126.623472 35.6549828,126.791477 C28.3922043,127.116136 21.6772599,129.386478 15.7692908,133.345954 C21.972772,136.37232 26.5350243,141.594106 28.335375,148.282534 C30.1834623,147.65819 32.0315494,147.033846 33.8796369,146.409502 C34.8866511,146.06895 36.0095971,146.209712 37.0166115,146.616103 C37.8326797,146.772756 38.6123768,147.027035 39.0829232,147.342612 C47.9687451,153.37037 56.6136107,158.324256 66.9315298,159.577485 C67.283871,159.223311 67.5975685,158.848705 67.9749148,158.512695 C69.6388754,157.027891 73.0349913,158.301553 73.9897227,159.988417 C74.1147471,160.020201 74.2443178,160.061068 74.378435,160.108745 C74.8057909,160.092853 75.2240543,160.108745 75.6536833,160.083771 C75.8582687,160.070149 76.1265026,160.113285 76.4311076,160.197288 C78.4905996,159.595648 82.5913984,161.652577 81.7889694,163.489284 C78.5156044,170.988223 79.5567165,179.347622 84.9191246,185.225538 C89.1131233,180.986809 92.8433953,175.753671 92.6319905,169.557908 C92.3887615,162.449467 86.8558653,157.438823 81.9367254,153.009386 C79.2361993,150.58239 85.7897487,151.352036 87.251397,152.668834 C89.4131817,154.612247 91.6568006,156.707773 93.6140002,159.009899 C93.9754342,158.848705 94.4209755,158.782865 94.9051608,158.830542 C101.094539,159.440638 107.144049,160.601753 113.098665,162.272817 L105.850475,165.726599 L105.585076,166.137299 L104.278514,165.968843 C102.174395,165.738829 100.037979,165.675623 97.8739208,165.766437 C98.5513255,167.457842 98.9809548,169.251412 99.0627887,171.169851 C99.1727121,173.828517 98.6181915,176.305795 97.6479401,178.624267 L90.5622693,189.759458 C90.1001448,189.863776 89.651718,189.965723 89.2169896,190.065298 C89.4265699,189.802075 89.6334985,189.542375 89.8405379,189.282639 C89.5904892,189.525565 89.3427136,189.779843 89.0903916,190.015959 L88.9389599,190.129087 L88.9389599,190.129087 L88.0195867,190.341624 Z M238.287636,221.6282 C238.133061,221.939237 238.026222,222.261625 237.983032,222.636232 C237.883012,223.480799 238.112602,224.298122 238.462671,225.060957 C238.544505,225.090471 238.630885,225.099553 238.712719,225.133608 C239.417402,225.185826 240.135724,225.399238 240.776758,225.712545 C240.960885,225.555891 241.138192,225.367453 241.29504,225.070038 C241.524631,224.640944 241.967899,224.41845 242.515733,224.338988 C241.451889,223.405878 240.122085,222.608988 238.694534,221.873397 C238.558144,221.805287 238.421754,221.723554 238.287636,221.6282 Z M154.055319,178.478082 C155.286356,180.212508 155.615093,181.896458 155.351291,183.481926 L153.987131,178.382933 C154.009984,178.41447 154.032714,178.446186 154.055319,178.478082 Z M72.4053235,163.357604 C68.2090513,167.64855 65.7972178,173.183644 65.7108374,179.079722 C68.5250219,176.920627 70.8686604,174.255245 72.7122013,171.049523 C72.8713233,170.774811 73.1418303,170.604536 73.4737132,170.506911 C73.4509816,168.172999 73.803323,165.800492 74.5421033,163.446147 C73.8237816,163.434796 73.1122792,163.39847 72.4053235,163.357604 Z M138.138582,160.53784 C140.797867,161.729639 143.45983,163.998619 144.785499,166.579876 L132.741029,158.91513 C134.582165,159.225087 136.392601,159.75528 138.138582,160.53784 Z M8.81339039,137.575601 C7.08123478,139.482688 6.38337159,142.195747 6.562952,144.949672 C6.9675763,144.967835 7.33582985,145.022323 7.55405417,145.074541 C8.83157576,145.383307 10.7524045,146.239226 11.0297312,147.694515 L11.6025701,150.702718 L11.6025701,150.702718 C11.88217,152.167089 9.37940972,151.924162 8.63380995,151.744805 C8.53151731,151.719831 8.42240513,151.685776 8.31329298,151.653991 C8.99751716,153.415777 9.87041449,155.245672 10.8865215,156.660095 C10.9183459,156.687339 10.9569898,156.710043 10.9910873,156.737287 C13.4983939,158.669348 16.6103638,159.643325 19.6154946,158.249335 C21.465855,157.391146 22.6638157,155.883638 23.1661862,154.108231 C23.1343619,153.940226 23.0843521,153.779032 23.0479814,153.613297 C22.7297376,154.76663 20.7634455,154.945987 19.8428116,154.76436 C18.2925096,154.464675 16.7535735,153.399885 16.5171638,151.769779 L15.5556128,145.156273 L15.5556128,145.156273 C15.4214958,144.225433 16.4216906,143.605629 17.1763831,143.437624 C17.3832416,143.389947 17.6082854,143.380866 17.8333293,143.371784 C15.423769,140.708673 12.3595357,138.665366 8.81339039,137.575601 Z M342.191967,118.924742 C341.882816,118.979231 341.573664,119.026908 341.271333,119.088207 C338.814038,120.602525 336.32037,122.0283 333.788058,123.374613 C334.11312,127.14111 335.658878,130.905337 338.684467,133.155246 C341.739607,131.731741 344.726554,130.110717 347.636209,128.237685 C348.493196,126.498603 347.633935,123.921765 345.431235,124.586975 C343.912759,125.045584 342.041938,124.48481 340.850798,123.485859 C340.080193,122.838812 339.089091,121.195084 340.623481,120.731935 C340.746232,120.336895 341.000827,119.989533 341.487286,119.760228 C341.84872,119.589953 342.094222,119.401514 342.191967,118.995123 L342.191967,118.924742 L342.191967,118.924742 Z M292.782343,106.101851 C290.329592,107.477678 287.851837,108.81718 285.271789,109.87743 C279.32063,112.322588 273.383109,111.977496 267.25237,111.055737 C268.754935,114.073022 270.150661,117.167498 271.414544,120.343706 C271.453188,120.43679 271.460007,120.513982 271.485012,120.600255 C277.984005,119.757958 285.010374,121.195084 291.641211,123.662946 C294.20762,122.818379 296.683103,121.789914 299.076751,120.586633 C294.962313,117.172038 293.202879,111.580186 292.782343,106.101851 Z M311.931528,106.156339 C308.342192,107.252915 305.125656,109.132758 302.368301,111.800409 C301.886389,112.265829 300.829365,112.188638 299.729151,111.839005 C300.263345,114.488494 301.233989,116.91549 302.888857,118.450241 C303.443511,118.107419 304.007257,117.785031 304.550544,117.417235 C306.094027,116.377419 307.671607,115.262681 309.040055,113.991289 C309.290104,113.759714 314.620688,107.032691 313.461371,106.805657 C313.043108,106.723925 312.493,106.476457 311.931528,106.156339 Z M299.229053,102.428438 C299.151765,103.624908 299.113121,105.025709 299.156312,106.515053 C301.950038,104.476286 305.118837,103.061863 308.528592,102.292217 C309.110524,96.6890135 302.936594,100.18307 299.229053,102.428438 Z M91.7750055,5.94571729 C91.7068105,6.99234493 93.1525466,7.92999613 93.8390441,8.50666298 C94.548273,9.10376292 94.8869754,10.0232514 94.6801168,10.8156007 C98.678623,12.8384754 94.4959903,13.4764415 92.0318737,12.2595382 C92.0045958,12.2459161 91.9773178,12.2391051 91.9500396,12.2254831 C91.1998936,12.1414804 90.4747524,11.8690394 89.8405379,11.4739999 C87.2764018,10.8746296 85.1646271,11.6851417 84.9077586,14.6411269 C84.7168123,16.8274661 87.9560797,20.9980842 89.0199235,22.6281898 C91.6158835,26.6012881 94.841512,30.1293994 97.7898135,33.8368678 C102.797607,40.1347963 106.816572,46.5053759 107.759937,54.5696302 C110.5082,52.8668739 113.43377,51.5773197 116.59575,50.948435 C112.754092,44.3508214 108.912435,37.7532075 105.070777,31.1578644 C105.02986,31.0874838 105.011675,31.0261845 104.977577,30.9603446 C100.867686,27.1348185 92.7274638,20.7120212 94.9551704,15.306337 C96.0803895,12.5796564 98.3217352,11.7714147 100.785852,11.8872021 C100.410779,10.9223068 100.219832,9.92335636 100.269842,8.89262112 C98.4513062,7.68025852 96.5941262,6.48378833 94.5505462,5.71641277 C93.639005,5.37359114 91.872752,4.44729162 91.7750055,5.94571729 Z M109.444357,15.0361664 C112.203985,18.2055637 107.932699,19.6199867 105.373109,18.201023 C101.758769,19.1999734 101.306408,20.5258531 104.013753,22.1809324 C104.593412,22.7939247 105.170797,23.4046467 105.748182,24.017639 L109.205674,27.6751598 L109.205674,27.6751598 C111.008298,23.1231243 114.340765,19.4701441 118.914383,17.2134242 C118.921203,17.1067182 118.968939,17.0113638 119.034861,16.9250908 C117.402725,15.5765077 115.772862,14.2279246 114.13618,12.8861526 C112.899575,11.8508766 111.651605,10.8314931 110.392269,9.82573163 C107.68265,7.05364417 107.364406,8.79045574 109.444357,15.0361664 Z" id="Combined-Shape" fill="#000000" fill-rule="nonzero"></path>
              <path d="M66.6771621,145.425763 C65.4246455,144.322377 63.7334069,143.766143 62.1012705,143.559541 C59.9576712,143.291641 56.1955747,143.659436 55.6863846,146.306655 C55.3635945,147.973086 56.7956918,149.367076 58.1709597,150.041368 C59.5257691,150.704308 61.0078759,150.913179 62.346773,150.38646 C64.2403239,150.597602 66.3407329,150.459111 67.4568595,149.219504 C68.5434347,148.018493 67.7160008,146.34071 66.6771621,145.425763" id="path2704" fill="#000000" fill-rule="nonzero"></path>
            </g>
            <g id="Group" transform="translate(141.346414, 265.876044) rotate(-143.000000) translate(-141.346414, -265.876044) translate(48.964959, 153.603501)">
              <g id="wing-right-2" transform="translate(0.000000, -0.000000)" fill-rule="nonzero">
                <path d="M63.8557132,69.1745324 L58.111759,50.3280508 L60.3819939,9.78787613 L86.7857782,64.1254613 L124.650101,108.03754 L133.274963,152.009947 L130.770473,203.97012 L127.003805,214.246096 C110.557436,220.82449 100.690204,222.683975 97.4021082,219.82455 C92.469965,215.535413 90.8329802,223.430327 88.8232146,201.547463 C86.8134491,179.6646 90.6846053,163.564281 91.0562499,150.72915 C91.4278942,137.894018 96.2298536,137.561119 91.0415779,124.933962 C85.8533019,112.306805 73.1878579,106.412162 68.6631762,91.9027442 C65.6467218,82.229799 64.0442343,74.6537284 63.8557132,69.1745324 Z" id="Path-9" fill="#F06414" transform="translate(95.693361, 115.455964) rotate(-33.000000) translate(-95.693361, -115.455964) "></path>
                <path d="M21.5851564,36.3825687 C14.5392972,56.3396313 14.9979261,78.0637884 22.8805705,97.7432514 C24.0888028,100.804979 31.5972268,99.6961416 30.2266812,96.1995153 C22.642837,77.3928108 22.2098745,56.604952 29.0048298,37.5346769 C30.2273498,34.056917 22.6638255,33.2699648 21.5851564,36.3825687 L21.5851564,36.3825687 Z" id="Path" fill="#000000" transform="translate(23.504240, 66.981898) rotate(-33.000000) translate(-23.504240, -66.981898) "></path>
                <path d="M131.749113,209.762594 C124.520954,175.610042 139.396576,140.333523 122.835131,107.714356 C104.890627,72.4016932 66.9555859,47.9359269 62.3976944,6.35371587 C62.059418,3.27614211 54.5497594,3.58660504 54.8702639,6.55925798 C59.1788566,45.7983208 92.331531,69.9816067 111.602506,101.920395 C121.74326,118.729362 124.569185,135.848903 123.800832,155.134555 C123.085058,173.441071 120.403325,191.85138 124.239394,209.968147 C124.896474,213.028416 132.37062,212.560567 131.766824,209.762605 L131.749113,209.762594 Z" id="Path" fill="#000000" transform="translate(93.330893, 108.126487) rotate(-33.000000) translate(-93.330893, -108.126487) "></path>
              </g>
            </g>
            <g id="Group" transform="translate(170.763395, 254.255963) rotate(-176.000000) translate(-170.763395, -254.255963) translate(104.313705, 133.139823)">
              <g id="wing-left-2" transform="translate(0.000000, 0.000000)" fill-rule="nonzero">
                <path d="M126.025274,228.396617 L112.849904,240.281542 L101.26999,240.281542 L98.5288504,230.752077 L92.800429,230.752077 C84.7806388,232.282771 80.7707437,233.048117 80.7707437,233.048117 C80.7707437,233.048117 78.2884277,230.752077 73.3237958,226.159996 L74.4694802,218.123854 L66.44969,220.419894 L58.4298998,215.827813 L60.7212685,205.495631 C62.2488473,200.90355 62.2488473,198.607509 60.7212685,198.607509 C59.1936893,198.607509 55.3747415,199.755529 49.2644252,202.05157 C45.7244397,202.05157 43.954447,202.05157 43.954447,202.05157 C43.954447,202.05157 43.954447,195.163448 43.954447,194.589438 C43.954447,194.206764 45.9153873,187.50998 49.8372676,174.499083 L29.5147969,167.610961 C22.0544229,161.105513 18.324236,157.661452 18.324236,157.278779 C18.324236,156.704769 28.0692656,148.668627 28.0692656,148.094616 C28.0692656,147.711943 33.9886344,144.267882 45.8273725,137.762434 L22.9136862,128.578272 C15.1922513,123.081078 11.3315339,119.691204 11.3315339,118.408651 C11.3315339,117.126097 11.9633012,114.775869 13.2268359,111.357967 L29.5147969,102.173805 C14.4210029,92.0135267 6.87410584,86.4120697 6.87410584,85.369434 C6.87410584,84.3267985 5.91936894,80.7440932 4.00989507,74.6213184 L43.954447,81.5094401 C33.364326,67.763093 28.0692656,59.925762 28.0692656,57.9974467 C28.0692656,55.1049735 22.9136862,12.6282231 22.9136862,12.6282231 C22.9136862,12.6282231 20.0494754,-1.03142447 24.0593705,4.018071 C28.0692656,9.06756644 71.0324271,72.9385268 71.0324271,71.1772574 C71.0324271,69.415988 109.626548,113.079998 109.626548,113.079998 C109.626548,113.079998 112.175994,121.881487 117.274886,139.484465 L112.849904,168.758981 L108.009836,199.755529 L130.608011,226.159996 L126.025274,228.396617 Z" id="Path-8" fill="#F06414"></path>
                <path d="M24.0593705,1.92118843 C33.2283483,23.9158823 45.5766592,44.4395141 60.7077504,62.8329891 C75.606611,80.795971 96.722136,94.9475542 107.7642,115.769085 C120.637801,140.084399 107.21826,161.647035 105.281056,186.579936 C103.87218,204.68408 109.983179,218.818018 126.695967,225.964391 C128.316174,226.65256 135.395775,225.417385 131.979251,223.935174 C108.644747,213.947897 111.304,188.062146 116.446396,167.240616 C121.72968,145.730915 124.036714,127.397381 110.969392,108.269805 C98.3071211,89.724526 79.2696878,76.1375946 65.3042075,58.5981016 C51.3852291,41.0636654 39.9585786,21.6811551 31.3503024,1.00362944 C30.6282536,-0.76090709 23.3373217,-0.0374471132 24.1474252,1.92118843 L24.0593705,1.92118843 Z" id="Path" fill="#000000"></path>
                <path d="M21.7960038,2.61229463 C19.5520009,30.7449732 18.4213018,60.8371418 38.8782582,82.8289185 C41.0004934,85.1033265 47.9412465,83.0738548 45.1927778,80.1346198 C25.4316363,58.8426607 27.0320105,29.4328146 29.1890365,2.40234927 C29.4499671,-0.869299291 22.0743297,-0.799317501 21.7960038,2.61229463 Z" id="Path" fill="#000000"></path>
                <path d="M44.830799,82.8121496 C36.498875,78.9857219 27.8171792,75.9382321 18.9011145,73.7101888 C14.0448372,72.5290185 7.57570883,71.0872958 3.10935166,74.1965533 C-10.1124834,83.4027349 22.7648679,101.311363 28.3478144,104.177439 C30.1201783,105.080687 37.0501214,103.708445 34.7992192,102.544644 C29.9056244,100.078718 25.2179736,97.2385876 20.7798203,94.0506392 C16.5261468,90.9587517 10.1456366,86.9462462 8.3732726,81.8915314 C4.97033382,72.3379469 19.5568891,77.5316227 23.3674717,78.7649039 C28.8776456,80.5591005 34.2750097,82.6703475 39.5314309,85.0876398 C41.3037948,85.8692966 48.3932506,84.5144247 44.8485227,82.8990004 L44.830799,82.8121496 Z" id="Path" fill="#000000"></path>
                <path d="M28.089138,102.310621 C21.1989798,104.47086 1.70018201,111.147964 8.1706351,121.949161 C10.6888655,126.144668 16.6871504,128.233494 20.7792748,130.125935 C28.2696909,133.530669 35.9758274,136.417496 43.8455657,138.766893 C46.4687222,139.570288 52.1347405,136.803039 47.5004973,135.392635 C38.2219999,132.685796 29.2116202,129.099557 20.5869099,124.680704 C6.10708519,117.039526 23.367456,108.18433 31.9364343,105.488494 C36.5531902,104.042383 30.6773192,101.525079 28.089138,102.328474 L28.089138,102.310621 Z" id="Path" fill="#000000"></path>
                <path d="M42.7049158,137.932765 C34.9139013,141.220449 11.2377748,150.418969 16.9072087,162.415517 C18.9218189,166.647535 24.4486255,168.536204 28.6026447,169.847781 C35.3627554,171.932426 42.3796669,173.108974 49.4618827,173.345316 C52.3144281,173.46773 56.5932461,171.596548 51.4230076,171.334233 C43.8994192,171.001967 20.8294586,168.920933 23.94943,156.679558 C26.2314663,147.585964 41.5460693,142.024882 49.2835987,138.842125 C50.8346702,138.195081 44.2916442,137.338184 42.7049158,138.002716 L42.7049158,137.932765 Z" id="Path" fill="#000000"></path>
                <path d="M47.8895276,172.032346 C44.4381696,178.685213 40.1067151,185.409043 37.5354533,192.452211 C35.9478285,196.763269 36.2757074,201.588815 40.6071619,203.912883 C49.2355574,208.561019 57.8639529,202.138786 62.9547062,195.414955 C63.6967483,194.42146 57.0873973,193.357001 55.8621653,194.989171 C53.5324984,198.093843 51.496197,201.819448 47.4063377,201.198514 C44.662508,200.77273 44.1102907,200.063091 43.9549794,197.206794 C43.9595785,194.977505 44.4989648,192.783799 45.5253476,190.820041 C48.2864339,184.557476 51.8585897,178.543285 54.9993257,172.458129 C55.7241109,171.074333 48.7868807,170.346953 47.9240415,172.032346 L47.8895276,172.032346 Z" id="Path" fill="#000000"></path>
                <path d="M56.9076104,195.748885 C55.1496358,203.378771 49.9636111,215.496826 59.1050784,220.128616 C65.0997717,223.216476 73.9951227,221.313493 76.6848238,214.635098 C77.5813908,212.426919 70.2682169,211.996055 69.4595486,214.006754 C68.6508802,216.017454 66.8225868,219.195077 64.185625,217.597289 C62.178652,216.132597 61.0445645,213.721487 61.1794886,211.206137 C61.1794886,206.035767 63.2011591,200.434533 64.3086832,195.497547 C64.7130173,193.70228 57.3998432,193.271416 56.854871,195.712979 L56.9076104,195.748885 Z" id="Path" fill="#000000"></path>
                <path d="M71.7252954,214.760844 C69.2795107,221.616785 67.8793877,230.886297 76.847265,233.474764 C84.7694804,235.748418 92.0182193,232.320447 98.2390194,227.75565 C100.011327,226.426437 93.1347729,225.691872 91.6992037,226.75874 C90.0200122,228.242262 88.1413624,229.48997 86.1164345,230.466545 C82.0755727,231.935675 78.5841264,230.466545 77.5207417,226.461416 C76.4573571,222.456287 77.9106497,218.328731 79.2930496,214.568457 C79.612065,213.658996 72.5051109,212.697065 71.7607415,214.760844 L71.7252954,214.760844 Z" id="Path" fill="#000000"></path>
                <path d="M93.2523095,229.50279 C90.3682331,239.655152 101.939287,242.992189 109.531704,242.091718 C119.556475,240.94406 127.756982,233.440141 132.864924,225.035751 C133.438265,224.082312 126.679797,223.128872 125.724229,224.700281 C123.124627,229.145601 119.695677,233.032118 115.629962,236.141552 C111.84244,238.9489 105.431451,242.03875 101.730799,236.936084 C100.140912,234.727759 99.7492547,231.855372 100.688362,229.290915 C100.896849,228.531694 93.8430239,227.525287 93.3044315,229.50279 L93.2523095,229.50279 Z" id="Path" fill="#000000"></path>
                <path d="M99.5777802,119.612285 C95.2539965,112.914295 84.0227048,105.679032 76.1309209,110.783116 C72.1762408,113.344112 73.125364,119.003377 74.601778,122.728463 C76.2754298,126.83208 79.2195451,130.265865 82.9856998,132.506813 C84.5924748,133.253438 86.4120062,133.374488 88.1004195,132.847085 C88.8737792,132.614267 90.8247548,131.844177 89.3834934,130.948724 C84.4748458,128.037879 81.2672317,122.871374 80.7886552,117.105016 C80.6220477,115.739505 80.88025,114.35515 81.5268624,113.147112 C81.7202022,112.072569 82.2650692,111.893478 83.1614633,112.62775 C84.1087085,112.987902 85.0207967,113.43759 85.8857986,113.970929 C88.5225474,115.613105 90.7488192,117.856994 92.3890506,120.525648 C93.496361,122.316554 100.579633,121.170374 99.5777802,119.612285 L99.5777802,119.612285 Z" id="Path" fill="#000000"></path>
                <path d="M88.3112025,130.786211 C83.6465391,129.231711 78.7530275,128.488015 73.8404026,128.586998 C70.6596229,128.692561 65.7486388,129.097216 64.4378778,132.668738 C63.1271171,136.24026 66.7273402,140.603499 68.981849,142.925869 C72.2012373,146.26005 76.2325229,148.686507 80.6738359,149.963351 C82.3774944,150.578208 84.2481932,150.527989 85.9168794,149.822601 C86.9829648,149.189228 87.4548387,148.063231 85.9168794,147.693763 C80.7309729,146.249632 76.2490392,142.945487 73.3160982,138.404286 C72.0053372,136.345822 70.3799938,133.020612 73.3160982,131.701084 C75.6929444,130.627868 80.9010342,132.422426 83.1380661,133.143768 C84.8403281,133.76734 86.7142798,133.717033 88.3811096,133.003019 C89.4821489,132.352051 89.8841154,131.366804 88.3811096,130.856586 L88.3112025,130.786211 Z" id="Path" fill="#000000"></path>
                <path d="M81.9255492,148.102739 C77.6750688,148.292954 73.3352927,148.275662 69.1026716,148.690676 C66.9238539,148.915475 62.9948384,149.468828 63.0125766,152.322051 C63.0125766,154.898598 67.0845865,157.50973 68.9062207,158.96228 C72.1167626,161.467957 75.6683786,163.533611 79.460985,165.101033 C81.2469011,165.8446 88.3905654,164.530388 84.8187331,162.991377 C80.1062181,160.977461 75.8561048,158.073303 72.3173204,154.448999 C71.9601372,154.085862 70.5314046,152.719773 70.7278552,152.114544 C71.1386159,150.973254 73.3888701,151.284515 74.2996875,151.249931 L82.1755773,150.904086 C83.0149579,150.904086 85.9617196,150.713871 85.9260012,149.399659 C85.8902828,148.085447 82.8185073,148.068154 82.0862815,148.102739 L81.9255492,148.102739 Z" id="Path" fill="#000000"></path>
                <path d="M80.2903962,164.352605 C75.5042365,165.70733 68.8358796,169.032566 71.7398414,175.014472 C74.1239584,179.958341 80.7026871,182.544636 85.7577322,183.600266 C87.2993418,183.916955 89.8089385,183.336359 90.4004862,181.700132 C90.9920343,180.063904 89.0381337,178.955492 87.6399297,178.656397 C84.7270298,178.099954 82.0494827,176.703266 79.9498082,174.645002 C77.3685085,171.953144 79.4837402,170.017821 82.459405,169.173317 C87.2455647,167.800997 84.251974,163.191411 80.2903962,164.352605 L80.2903962,164.352605 Z" id="Path" fill="#000000"></path>
              </g>
            </g>
          </g>
        </g>
      </g>
    </g>
  </g>
</svg>
