<?xml version="1.0" encoding="UTF-8"?>
<svg width="432px" height="405px" viewBox="0 0 432 405" version="1.1" xmlns="http://www.w3.org/2000/svg" xmlns:xlink="http://www.w3.org/1999/xlink">
  <title>pig-right</title>
  <style>
    @keyframes wingRightAnimation {
      0% { transform: rotateZ(6deg); }
      50% { transform: rotateZ(-6deg); }
      100% { transform: rotateZ(6deg); }
    }

    @keyframes wingLeftAnimation {
      0% { transform: rotateZ(-6deg); }
      50% { transform: rotateZ(6deg); }
      100% { transform: rotateZ(-6deg); }
    }

    @keyframes floating {
      0% { transform: translateY(4px); }
      50% { transform: translateY(-4px); }
      100% { transform: translateY(4px); }
    }

    #wing-right {
      animation: 2s wingLeftAnimation infinite both;
      transform-origin: 0 0;
    }

    #wing-left {
      animation: 2s wingRightAnimation infinite both;
      transform-origin: 0 0;
    }

    #pig-instance {
      animation: 2s floating infinite both;
      transform-origin: 0 0;
    }
  </style>
  <defs>
    <rect id="path-1" x="0" y="0" width="431" height="404"></rect>
  </defs>
  <g id="pig-instance" stroke="none" stroke-width="1" fill="none" fill-rule="evenodd">
    <g id="Portfolio---Kalamaki" transform="translate(-1429.000000, -1924.000000)">
      <g id="pig-right" transform="translate(1429.501269, 1924.623824)">
        <mask id="mask-2" fill="white">
          <use xlink:href="#path-1"></use>
        </mask>
        <g id="mask"></g>
        <g mask="url(#mask-2)">
          <g transform="translate(202.498731, 217.876176) scale(-1, 1) rotate(-180.000000) translate(-202.498731, -217.876176) translate(0.498731, 31.376176)">
            <g id="Group" stroke-width="1" fill="none" fill-rule="evenodd" transform="translate(144.000000, 241.000000)">
              <g id="wing-left" fill-rule="nonzero">
                <path d="M74.2511356,51.179655 C71.2122742,61.8252958 71.1397627,79.7736224 63.2312202,83.9600702 C56.4792944,87.5342543 29.5233215,91.1013673 26.283214,90.7799483 C9.73781256,89.1386433 1.76367511,81.7102365 5.82198112,63.2580636 C9.88028714,44.8058911 29.775437,36.2040514 39.5328534,25.4154725 C49.2877721,14.6243917 52.9539835,1.95932087 52.9539835,1.95932087 L81,19.3681638 C81,19.3681638 77.8984673,38.4024417 74.2511356,51.179655 Z" id="bg-copy" fill="#FFFFFF"></path>
                <path d="M53.0291096,0 L59.4033273,3.42401872 L58.0874479,5.5843994 C48.4990736,20.9893874 37.1849157,33.3306064 23.8796182,45.9191882 C16.1326242,53.2500172 3.74542557,64.786691 8.485527,76.3508863 C11.0728532,82.6609039 20.6854192,87.9601178 27.2636211,88.7857742 C31.4318136,89.3111921 35.6174878,88.1877989 39.6383325,87.2020148 C46.0791763,85.6257617 52.410134,83.414003 58.5862511,81.0070888 C61.3560554,80.1284425 63.6413525,80.1479177 65.4197302,80.2486014 L65.78309,81.3337241 C65.6932969,81.9671045 65.6126132,82.6013487 65.5415636,83.2363616 C65.6889112,83.5466082 65.6664344,83.841843 65.4416665,84.1020499 C65.3814215,84.7127718 65.7732306,86.1840425 66.5561532,88.2319534 L40.0093765,92.9890323 C29.9920473,93.043375 23.2692744,92.9010504 21.2648205,92.4436828 C10.1587978,89.9091674 -0.947224898,80.9945791 0.0642298311,68.4445997 C1.09816133,55.6444212 14.4193947,45.5939296 23.1978228,37.4799774 C35.1952533,26.3929799 44.7394499,14.0255082 53.0291096,0 Z" id="Combined-Shape" fill="#000000"></path>
              </g>
            </g>
            <g id="Group" stroke-width="1" fill="none" fill-rule="evenodd" transform="translate(195.000000, 216.000000)">
              <g id="wing-right" fill-rule="nonzero">
                <path d="M38.8075242,5.66983653 C48.8496456,9.0280101 54.1845224,12.4919926 54.1845224,12.4919926 C54.1845224,12.4919926 71.1306024,13.4367151 67.3648066,19.3166679 C63.5990112,25.1941015 58.7863245,27.6075526 58.7863245,27.6075526 C58.7863245,27.6075526 71.8636771,32.9609801 73.0134999,39.0500314 C74.1633227,45.1390829 65.4819091,45.9779966 65.4819091,45.9779966 C65.4819091,45.9779966 59.7553894,45.768898 61.9521035,49.1547833 C64.1488175,52.5381493 90.5872122,51.1223253 90.5872122,51.1223253 C90.5872122,51.1223253 107.219476,51.5934269 110.829618,55.3723169 C114.43725,59.1512068 117.967056,64.5852507 117.967056,64.5852507 C117.967056,64.5852507 129.030963,63.0888102 133.580044,65.2150658 C138.131636,67.3388021 139.386901,76.3930225 139.386901,76.3930225 C139.386901,76.3930225 144.64144,75.2921059 147.779604,77.7307495 C150.917766,80.1719124 154.291919,84.5025205 154.291919,84.5025205 C154.291919,84.5025205 158.607521,80.8798244 166.688918,82.6911723 C174.767805,84.5025205 178.219783,84.4244232 179.555386,88.2033131 C180.888477,91.9822034 180.574661,94.0278425 180.810651,94.0278425 C181.04413,94.0278425 191.322241,93.5567409 194.618568,96.1540977 C197.912383,98.7514548 203.48325,111.347755 203.874893,112.21438 C204.266536,113.081006 203.01127,115.75646 203.01127,115.75646 C203.01127,115.75646 177.122682,111.032847 151.389746,119.064248 C125.65681,127.09313 93.5672118,139.533236 82.505815,144.72795 C71.4444185,149.925183 50.418727,160.055127 29.3152092,152.668657 C8.21169141,145.279668 3.66009993,128.667667 3.66009993,127.251843 C3.66009993,125.8335 2.16884491,107.727578 2.16884491,107.727578 C2.16884491,107.727578 10.2326683,85.2549393 26.3603151,40.3096615 C26.3603151,40.3096615 32.2173823,24.7733851 27.510138,5.66983653 C27.510138,5.66983653 28.7654031,2.31166295 38.8075242,5.66983653 Z" id="bg" fill="#FFFFFF"></path>
                <path d="M66.8576797,51.1482738 C70.1791113,54.6601223 74.504755,60.7340582 73.2846373,65.8809062 C72.0092878,71.2670841 65.5371406,71.5164907 61.0508229,71.5618374 C59.7604104,71.576953 58.4825504,71.5164907 57.2097117,71.4232784 C59.8357262,73.1338556 62.4014883,75.3810356 62.1027351,78.6560737 C61.6357765,83.7928448 55.4523405,85.5790001 49.2287356,86.0601789 C51.2522232,87.0779598 53.2455842,88.1637607 55.1686506,89.4107947 C58.4925927,91.5723197 65.4517828,95.6132127 64.1212017,100.641656 C62.8835103,105.337556 55.1887346,106.428396 51.3978339,107.146385 C48.3425184,107.723296 45.2721399,108.002933 42.199251,108.096146 C46.2889049,109.446469 50.258053,111.152008 54.0891223,113.300937 C57.2473698,115.071977 67.2593645,119.808186 64.4199546,125.131382 C61.84164,129.965842 48.3701345,130.310981 44.021896,130.441982 C35.4258402,130.703985 27.2465323,128.902714 19.2931722,125.746081 C14.6512017,123.901983 18.7684714,120.158363 22.4664826,121.627091 C27.515159,123.632422 32.7596568,124.924803 38.1899339,125.204441 C40.7682485,125.340481 53.9661064,125.554618 55.7561147,122.874125 C57.5210173,122.743124 57.5662069,122.158655 55.8941939,121.128278 C55.2866455,120.244018 54.5134022,119.561298 53.5694426,119.075081 C51.3400918,117.356946 48.6663768,116.109912 46.1031256,114.943494 C40.9289224,112.587987 35.5262613,111.048719 29.9202471,110.164459 C26.9477792,109.693357 25.2431291,106.503974 26.7745526,105.350152 C25.9962882,104.16862 26.4306099,103.017318 29.2574671,103.425438 C36.5857049,104.486046 47.4362172,105.158689 54.17197,101.236201 C62.1529457,96.5856472 46.238694,88.7305945 39.4050306,85.9694855 C38.8100351,85.9191003 38.2577183,85.8687152 37.8033121,85.8183297 C33.7588479,85.3799787 32.1947875,79.948454 37.153085,80.4850564 C40.5674062,80.8579069 43.9315169,80.925927 47.3458381,80.4548254 C49.7785419,80.1197636 56.690032,79.4496406 53.5945479,75.5876149 C51.9752559,73.5646493 47.6596542,71.9120145 45.4303034,70.5843647 C42.5381724,68.8637099 39.6435309,67.1430555 36.7513999,65.4198818 C32.5186459,62.9006216 36.3848627,58.9957688 39.9698999,61.1270624 C41.0418964,61.7644355 42.1138929,62.4043275 43.1858893,63.0417002 C43.5248108,63.0996433 43.8637325,63.1802595 44.2026539,63.3213381 C48.6312296,65.1478016 67.2869803,70.569249 65.7178989,61.3084493 C64.6157761,54.8037201 57.3779171,49.3092138 51.5911446,47.4122113 C50.1174633,46.9285133 49.2940095,46.0518109 49.0027881,45.1599929 C48.4379189,44.8476044 48.0437656,44.4848312 48.1918867,44.1119806 C48.3048606,43.8247851 48.6312296,43.6912642 49.0404459,43.6408791 C49.4822992,42.5827899 50.8304541,41.9051089 52.8815575,42.5777511 C54.9904029,43.2705478 56.9787428,44.164885 58.891767,45.1851855 C64.3571915,45.6210173 70.5079907,44.9005088 69.3606784,39.6327364 C68.3388925,34.9343164 63.4257847,30.3996484 58.7737721,28.6941094 C58.3093239,28.8125146 57.8699811,28.9183235 57.4934015,29.0014591 C55.7510937,29.3894252 53.5819954,29.0367288 52.349325,27.6209047 C51.3526443,26.4746414 51.5258711,24.756506 53.2129474,24.3811363 C55.776199,23.8117835 64.8442345,21.8064526 64.7262396,18.2089493 C64.6007128,14.4779252 55.9569569,14.4703675 53.5393164,14.7197742 C50.2078425,15.0623936 46.015257,10.2833573 50.9233438,9.77950534 C57.2599222,9.12953627 67.8593814,10.3312233 71.4042499,16.6394503 C74.5072655,22.1641875 67.9246549,25.7289404 62.3738725,27.6309817 C64.4802074,28.4648568 66.5062055,29.5103497 68.3815716,30.8354804 C71.8009137,33.2489315 76.3926739,37.624886 76.7341058,42.1091687 C77.1608962,47.7245995 70.3322535,48.6390908 63.5387587,48.1528736 C64.7011343,49.0623265 65.8158095,50.0473572 66.8576797,51.1482738 Z" id="path2588" fill="#000000"></path>
                <path d="M109.894446,52.9455138 C114.039331,54.7064765 117.282936,57.4071232 118.485481,61.4278623 C123.461352,61.1759362 128.354375,61.3522846 132.993835,62.181121 C139.194845,63.2921145 146.60342,68.9780845 143.806689,75.2560805 C148.913108,75.5583914 153.921616,76.7676364 155.935061,81.0201471 C165.404781,79.1307023 175.800888,78.2741537 181.602723,83.2119035 C185.473961,86.5045762 185.84803,89.5050148 184.42707,92.0998528 C196.635779,92.3845291 207.857849,101.088572 208.990099,115.007484 C209.050351,115.758223 208.831935,116.332615 208.435271,116.750812 C208.641135,117.562014 207.950739,118.133885 205.718878,117.730804 C174.570324,112.087527 145.395327,122.534258 116.988707,134.093896 L113.366411,135.574486 C112.160308,136.069262 110.955505,136.564899 109.751906,137.060243 L106.144635,138.544243 C104.342715,139.28465 102.543299,140.021801 100.746073,140.751802 C78.3421007,149.856407 49.1496542,163.198408 24.7749152,153.776376 C6.97274466,146.896277 -0.0969087027,129.566288 0,111.981853 L1.13721034,105.736837 L2.51787738,94.0323728 L2.78967637,93.0073977 C7.88184332,75.0175615 18.2191821,57.6126654 23.1480915,39.6186285 C23.6591819,38.3060034 24.003701,36.647701 24.1816488,34.643721 C24.2378044,34.6703337 24.2942165,34.6995448 24.3506356,34.7287448 C26.6603234,23.8934076 26.6879393,12.8111828 22.1388583,1.22762537 C21.3028518,-0.898630066 28.4930106,-0.0672742676 29.3917804,2.22525233 C38.8173155,26.2247307 28.6045246,49.2356133 19.0348996,71.3579674 L17.388935,75.1779832 L17.388935,75.1779832 C12.9427858,85.5598538 8.57948408,96.7302525 7.30413467,108.147539 C7.45225598,108.459927 7.4296612,108.7572 7.20371346,109.019203 C6.80202861,113.097885 6.80202861,117.206798 7.35183477,121.320749 C10.2213709,142.779806 26.3916967,155.29549 48.0977417,152.199319 C76.7654875,148.11056 103.208903,132.974846 130.169489,123.222791 C153.178499,114.901675 177.113895,109.843001 201.443444,113.478293 C200.23839,104.401399 193.414768,97.9143048 185.318308,97.6321477 C182.190187,97.5213002 174.646044,99.6122859 172.133003,100.431045 C171.023348,100.851762 169.986499,101.204458 169.107814,101.474019 C149.189266,107.608417 128.763591,112.052392 108.217411,115.453393 C104.760411,116.025265 100.77871,111.150497 105.646628,110.346853 C119.411866,108.066923 133.071662,105.295737 146.590867,101.819158 C150.045357,100.929859 154.514101,100.269813 158.561076,99.1739349 C160.895869,98.5416007 168.060923,95.9543204 169.283551,95.4051219 C174.43767,93.1025183 181.341628,86.8043682 171.116238,85.5271035 C168.869314,85.6883359 166.62741,85.9049925 164.388017,86.1720339 C138.622444,89.0490289 114.074479,97.3399134 91.4370267,109.918579 C88.7859069,111.392346 82.338865,107.741938 85.7983757,105.819743 C103.168735,96.1709767 121.565901,88.8348919 140.984853,84.5319956 C143.319646,84.0155473 146.256967,83.2446537 149.482998,82.4636832 C148.930681,79.7932676 145.795029,78.614254 141.238417,78.4152323 C140.244247,78.8561029 138.926218,78.8006793 137.743759,78.4227903 C122.595218,79.1029905 97.8639843,86.9958319 93.985215,88.469599 C92.0144488,89.2203385 85.3966909,86.2198998 88.1331689,85.1794456 C103.201372,79.4405712 118.917292,75.8884148 135.032386,75.2888308 C135.115233,75.059578 135.235739,74.8278061 135.441602,74.5985537 C135.062512,69.3534542 133.096767,66.8845796 129.549388,67.1994869 C126.830483,67.12139 124.111579,67.1843712 121.395185,67.3833929 C118.181706,67.5572217 114.973248,67.8418981 111.774833,68.2097101 C103.723562,69.1342788 95.8354758,70.7314895 87.9976002,72.812398 C84.8619479,73.643754 79.4065654,69.0486238 83.7999934,67.8847255 C92.3232439,65.6224302 101.968702,63.1963827 111.579011,62.0249268 C110.047588,52.9253597 95.9133024,53.1924014 88.8536912,54.1371238 C86.790035,54.4117233 80.3655879,51.0132415 84.3146521,50.4841968 C88.56498,49.9148441 95.1551221,49.6981878 101.459064,50.6756605 L110.093965,52.8373534 C110.02758,52.8734169 109.961074,52.9094701 109.894446,52.9455138 Z" id="Combined-Shape" fill="#000000"></path>
              </g>
            </g>
            <path d="M159.820196,4.79413437 C159.646914,4.64830107 161.655979,7.63034085 161.590684,7.60771153 C163.200448,8.19607353 163.07237,6.56173467 164.955868,6.42595883 C166.382304,6.32538413 167.56263,5.36238142 169.14728,5.63896183 C173.303533,6.35807091 173.740505,9.59406182 173.853515,13.1393199 C173.981592,17.2553394 172.067958,21.5523934 172.653098,25.6382405 C173.65763,32.6809837 180.370419,40.284431 184.463889,46.1227921 C193.030039,58.3350748 202.57812,69.7704177 212.791704,80.6274564 C213.504922,81.3842812 213.675692,82.0279591 213.51999,82.5509474 C213.570217,82.5660337 213.607886,82.5635194 213.658113,82.5786057 C231.601574,87.9769524 249.690692,93.6367936 266.689893,101.282985 C260.740549,87.4765934 259.786243,64.4097863 280.622758,71.1231475 C287.325501,73.282989 295.035287,76.6698421 298.089066,83.4938355 C300.497432,88.8745818 300.708384,95.7010892 301.619997,101.431333 C302.709915,108.29807 304.292054,115.101948 304.894774,122.029031 C305.090657,124.271344 307.650532,126.953457 310.403304,129.571991 L311.679605,130.774197 C312.741428,131.769219 313.782374,132.743379 314.67892,133.668038 C319.078772,132.418397 323.531362,131.384992 327.946282,130.504963 C323.553964,117.852667 317.393668,100.061003 320.814102,87.1572686 C324.116502,74.6885207 337.778143,76.184569 347.509552,79.2671836 C347.966614,79.4130169 348.348336,79.6066234 348.684855,79.8228589 C350.349867,80.159784 351.984745,81.0724994 352.233366,82.3422552 C355.668868,99.8573387 377.552606,172.328951 345.648655,175.471911 C352.060084,199.695327 347.406587,224.157608 334.139225,243.400062 C340.025785,242.215795 346.768709,241.549487 353.413692,241.909042 C353.489031,241.821039 353.549303,241.725493 353.627153,241.640005 C365.884963,228.064935 386.874669,230.207176 401.97279,237.016083 C406.548434,239.080379 402.429853,242.200708 398.93408,240.6242 C389.667266,236.445321 379.559161,234.810982 369.888022,238.424129 C367.263684,239.404732 364.541398,241.006384 362.150611,243.043022 C368.853355,244.513927 374.928264,247.405449 379.187483,252.361267 C389.320705,264.153651 377.351699,278.372398 363.659923,275.664425 C349.523639,272.870962 344.385456,257.762129 350.425207,246.233754 C344.48842,246.379587 338.421044,247.629228 333.581709,248.941728 C332.705254,249.178078 331.05531,249.349055 329.141676,249.934903 C322.426457,258.231416 315.216514,263.861568 305.287158,269.255226 C302.563091,269.880526 300.196877,270.450528 298.179581,270.965073 C294.536157,270.07711 290.348014,270.045182 286.90701,270.301016 C286.279881,269.376268 285.543656,268.29349 284.701093,267.077477 L284.331808,266.542393 C288.011931,266.382218 292.343141,266.502908 296.547109,267.153291 C331.213524,249.934903 348.051999,212.277221 338.496384,175.1375 C337.604862,174.986638 336.673158,174.78046 335.721363,174.546624 C328.835293,177.759985 330.163788,190.482684 331.263751,196.351218 C331.934276,199.934192 324.498224,199.011419 323.895505,195.782971 C322.692577,189.36882 321.806077,182.398993 324.962821,176.374569 C327.815693,170.935992 332.984012,168.36128 338.976049,168.502084 C340.467779,168.537285 341.607923,169.256394 342.230734,170.154024 C349.880248,168.398995 354.754741,159.857689 356.07319,152.146124 C357.38913,144.432045 355.62115,136.398641 354.179649,128.835423 C351.3544,114.00317 348.383495,99.2010888 345.467839,84.3889502 C336.836394,81.7991516 327.767977,82.1536777 327.752909,93.8027418 C327.750398,97.1367932 328.315447,100.553819 328.787578,103.835068 C330.083425,112.82896 332.321021,121.581473 335.214074,130.183125 C337.597328,131.166242 339.799765,133.137506 336.906711,133.655466 C336.364264,133.751012 335.819305,133.856615 335.276857,133.95719 C334.453141,134.79196 332.868491,135.028311 331.437032,134.701443 C313.149519,138.39002 294.414988,144.605536 282.363111,159.643968 C270.245938,174.755316 267.880264,196.793747 282.880445,210.957179 C285.954314,213.861273 278.812088,213.878874 277.034066,212.199276 C263.179052,199.117022 261.576822,178.924137 271.343389,162.79447 C280.025061,148.457547 294.226639,140.303453 309.613564,135.231974 C282.649402,114.088658 249.336595,98.969767 214.773144,88.5451997 C215.401055,96.7294655 211.145813,103.49845 206.356831,110.335924 L204.977784,112.292633 C202.8987,115.234338 200.797665,118.214578 199.017052,121.350152 C198.022565,123.102666 191.176677,120.392177 191.739215,119.399003 C193.181786,116.857731 194.920331,114.332626 196.709011,111.784249 L197.906194,110.08145 C198.106064,109.796932 198.305877,109.512017 198.505298,109.226654 L199.694414,107.508643 C204.803448,100.036802 209.191083,92.1878892 206.930257,83.0110768 C206.852405,82.9431888 206.764509,82.8803299 206.694192,82.8074129 C193.215878,68.4830616 181.043455,53.1051903 170.473263,36.5028222 C166.954888,30.9762426 164.943312,28.1576367 165.417953,21.8541175 L165.652995,19.1024682 L165.652995,19.1024682 L166.188932,13.6220785 L166.188932,13.6220785 C166.013138,13.7125957 165.849902,13.7955698 165.643973,13.8936301 C162.673068,15.3192765 161.158736,14.3286157 158.265682,13.6220785 C156.869382,13.2826389 156.721213,10.9442771 155.656409,10.4690617 C140.435231,3.68781268 140.832021,17.8160434 141.547751,25.7564158 C143.411158,46.4144585 159.290305,66.1069845 169.687216,83.3379445 C170.58125,84.8163925 169.742465,85.6863636 168.366256,85.9880878 C167.90166,86.17918 167.319031,86.2973552 166.568143,86.2872976 C142.574885,85.9906021 123.109557,89.9331304 106.0978,105.891821 C114.694087,105.79376 123.260237,108.795915 130.158864,114.159061 C134.046405,117.18133 127.98154,118.561718 125.550571,116.668399 C117.815671,110.656547 108.453429,109.301303 100.158502,112.077164 C99.9676409,112.298429 99.7717572,112.49455 99.5783844,112.718328 C98.9329725,113.475153 97.7852942,113.698931 96.5974346,113.570699 C92.8128585,115.47156 89.3547555,118.272566 86.5345305,121.973715 C78.9980259,131.862722 76.9588251,143.949286 76.0321437,156.043394 C75.9090886,157.652589 73.174249,157.690304 71.0898442,156.805247 C68.2193926,156.141454 65.3288504,155.377086 62.4307742,154.914442 C55.6652483,153.835779 42.1743774,152.706828 36.8051513,156.993824 C31.9130782,160.903666 28.3947033,170.563866 25.3133,175.954669 C19.2208106,186.608044 12.3824559,197.1181 7.94744514,208.601216 C12.980244,208.926987 18.242963,209.815301 23.5647485,210.708938 L25.8486319,211.090626 L25.8486319,211.090626 L28.1367593,211.463219 C42.25382,213.712796 56.4424825,214.887546 67.5488671,204.701432 C69.7337254,202.697482 76.4565587,205.521116 74.3093705,207.701073 C75.4947189,207.987711 76.5695686,208.442811 76.9688702,208.993458 C87.1749201,222.998484 105.216323,228.89719 121.670564,222.704303 C121.71828,222.684188 121.781063,222.67916 121.833801,222.666588 C139.01884,215.462925 153.09234,200.743818 158.202899,182.763576 C154.908032,183.550573 151.246512,183.538001 147.153042,182.421623 C144.802436,181.780459 144.059082,180.294468 144.513633,179.220833 C143.268012,178.97191 142.122845,178.55704 141.67834,177.91839 C134.387945,167.521481 124.365223,145.493108 134.325162,133.683124 C136.590383,130.995265 139.501016,129.516817 142.642691,128.905826 C141.884269,128.78765 141.13087,128.702162 140.390027,128.67199 C139.076601,128.792679 137.758152,129.016458 136.439703,129.355897 C136.145877,129.504245 135.839495,129.642536 135.595896,129.853742 C135.020801,130.346558 134.116722,130.499935 133.142325,130.432047 C132.81083,130.562794 132.476823,130.653311 132.145327,130.799144 C129.885129,131.792319 123.267771,128.533699 126.384333,127.168398 C127.765565,126.559921 129.161865,126.064591 130.5657,125.644691 C134.531092,123.326445 139.809909,123.391818 145.096261,124.535855 C149.491091,125.161933 153.762865,126.668039 157.745837,128.968685 C158.888492,129.501731 159.943251,130.027234 160.910114,130.535136 C161.505299,130.391817 162.213495,130.389303 163.032189,130.592966 C169.127189,132.114159 175.254837,134.726586 179.016811,140.011787 C179.082106,140.102304 179.12731,140.200364 179.190093,140.290882 C183.401595,145.744545 181.867172,152.171268 179.360863,158.773997 C176.46781,166.400073 172.283933,173.988434 166.389838,178.667672 C166.633437,178.95431 166.764026,179.256034 166.706266,179.572844 C165.249694,187.593676 163.238118,193.112713 158.75288,199.705384 C158.971366,199.770758 160.083886,201.880312 160.802126,203.052007 C163.830792,207.985196 165.877527,213.873845 166.932286,219.91587 C167.462177,220.034045 167.964443,220.222623 168.383835,220.516803 C184.732601,231.889287 201.72929,242.105163 219.414084,251.237345 L219.574027,250.448511 C219.783217,252.647198 220.003921,254.942024 220.236137,257.332989 L220.236137,257.332989 L218.187859,256.202441 C218.195638,256.174206 218.203404,256.14597 218.211156,256.117732 L215.224067,254.567508 L196.299792,244.131742 L190.003885,240.48591 C182.515095,235.992735 175.176986,231.24561 167.941841,226.330021 C168.012158,226.825352 168.087498,227.333254 168.157815,227.813498 C169.217597,234.856241 172.519998,248.197475 169.493843,255.17233 C163.521898,268.935977 131.271384,235.125279 123.948342,227.021472 C105.068154,232.37456 83.4882859,225.429877 71.3962266,210.132466 C59.0516385,219.431435 44.5126504,218.246867 29.847746,216.118301 L27.3329149,215.745937 C20.2062523,214.674791 13.0777691,213.509541 6.18449065,213.343313 C4.17793708,213.29554 -0.329902322,209.262495 0.0191727069,208.294463 C3.89164531,197.605888 10.0444066,187.97586 15.6672771,178.144683 C19.9315173,170.684555 23.5905268,162.211137 28.9647755,155.490233 C38.7765462,143.222634 55.4141151,149.151512 68.8823839,152.689227 C70.4092732,135.262147 75.8136581,115.612365 93.5637465,108.381044 C93.772187,108.295556 93.9881614,108.230182 94.1991132,108.149722 C105.213811,95.7614342 117.233043,88.6935473 130.681221,84.9597114 C121.306422,74.0850725 111.856283,62.8961374 105.859224,49.7560529 C101.303669,39.7715 96.0424303,21.0067756 103.840114,11.0750243 C107.448896,6.48127493 113.488648,5.75965148 118.476151,8.61848725 C124.299928,11.9575672 125.565639,17.9040462 126.198495,24.0290453 C128.368285,22.7291173 130.992626,21.9370916 133.96353,21.4945629 C133.955997,20.544132 133.930883,19.5962155 133.986132,18.6432703 C134.94295,2.23199395 147.163087,-5.81398186 159.820196,4.79413437 Z M358.521738,246.867374 C355.990316,250.229084 354.528721,254.231957 355.279608,258.483752 C354.553834,263.0247 364.840249,275.239497 372.93678,266.944598 C380.048869,259.763565 370.67658,252.039428 364.069269,248.722978 C362.359053,247.865578 360.48811,247.267159 358.521738,246.867374 Z M155.272175,204.766806 C152.685504,208.100857 149.754781,211.173414 146.56539,213.964362 C146.811501,214.198198 146.974737,214.454664 147.007384,214.741302 C147.90393,222.865223 149.724645,229.958253 155.156654,236.251715 C156.540397,237.853367 149.717111,236.94568 148.587012,235.635695 C144.09424,230.430954 141.854133,224.88426 140.616047,218.625999 C136.896765,221.220827 132.918817,223.443527 128.770098,225.261415 C129.11415,225.437421 129.397931,225.631027 129.581258,225.842234 C137.655187,235.132822 146.361973,244.946398 157.047686,251.29769 C161.236587,253.789428 161.201428,255.443882 162.46965,251.622043 C163.29839,249.127791 162.652978,244.644673 162.5249,242.175565 C161.969895,231.225495 161.452561,214.743816 155.272175,204.766806 Z M139.636628,138.789804 C138.01933,142.418036 137.785777,146.561714 138.044444,150.448926 C138.717481,160.556683 142.519636,169.895044 148.119904,178.194971 C148.177665,178.207543 148.220357,178.202514 148.278118,178.2176 C158.868402,181.106608 165.56361,171.476581 169.476264,163.103737 C167.344144,163.287286 163.351127,162.085419 163.501807,160.420907 C163.705225,158.155462 164.086948,155.618465 165.159286,153.579313 C166.414951,151.18815 168.943862,151.243466 171.302002,151.877087 C171.754042,151.997776 172.24124,152.166239 172.720904,152.377446 C172.748529,152.332187 172.761085,152.284414 172.791221,152.239156 C173.88365,150.657619 174.426098,149.151512 174.54413,147.735924 C174.541619,146.684918 174.413541,145.739516 174.187521,144.879602 C173.381384,142.445695 171.339672,140.383913 168.881079,138.789804 C165.988025,137.389302 162.339061,136.808483 158.80813,136.464014 C156.274197,136.220121 143.423715,130.296271 139.636628,138.789804 Z M271.152528,77.4090662 C269.932021,79.3199853 270.002339,82.9457031 269.959646,85.0099991 C269.813989,92.1156013 271.915973,98.7258735 275.19326,104.936361 C275.273622,105.089738 275.276134,105.21797 275.245998,105.336145 C282.918114,109.2133 290.288872,113.620986 297.272883,118.662293 C296.306021,112.577523 295.339159,106.495269 294.369784,100.4105 C293.468217,94.7406008 293.694236,85.3343522 289.846877,80.685287 C286.479182,76.6145261 275.642788,70.3638087 271.152528,77.4090662 Z M108.724653,18.4823507 C104.598535,25.3490882 108.616665,39.0146752 111.200825,46.0071311 C116.444485,60.2057642 126.592774,72.2043254 136.432169,83.5918957 C144.11182,82.0103584 152.240999,81.3314792 160.900069,81.2409623 C150.683973,64.9151743 136.690836,46.5125191 134.290004,26.9331397 C130.934865,28.6378808 128.112129,31.5218603 127.461694,35.1148915 C126.984541,37.747434 120.633385,35.6630235 120.181345,33.689245 C119.277266,29.7190588 120.093449,24.9870193 119.071337,21.2028963 C117.644901,15.9327821 112.366083,12.4176965 108.724653,18.4823507 Z" id="pig" fill="#000000" fill-rule="nonzero"></path>
            <path d="M139.636628,138.789804 C138.01933,142.418036 137.785777,146.561714 138.044444,150.448926 C138.717481,160.556683 142.519636,169.895044 148.119904,178.194971 C148.177665,178.207543 148.220357,178.202514 148.278118,178.2176 C158.868402,181.106608 165.56361,171.476581 169.476264,163.103737 C167.344144,163.287286 163.351127,162.085419 163.501807,160.420907 C163.705225,158.155462 164.086948,155.618465 165.159286,153.579313 C166.414951,151.18815 168.943862,151.243466 171.302002,151.877087 C171.754042,151.997776 172.24124,152.166239 172.720904,152.377446 C172.748529,152.332187 172.761085,152.284414 172.791221,152.239156 C173.88365,150.657619 174.426098,149.151512 174.54413,147.735924 C174.541619,146.684918 174.413541,145.739516 174.187521,144.879602 C173.381384,142.445695 171.339672,140.383913 168.881079,138.789804 C165.988025,137.389302 162.339061,136.808483 158.80813,136.464014 C156.274197,136.220121 143.423715,130.296271 139.636628,138.789804 Z" id="pig-path-copy" fill="#F06414" fill-rule="nonzero"></path>
            <path d="M151.865596,154.939917 C150.380503,157.180043 145.377186,155.533122 145.017534,153.121279 C144.741067,152.759632 144.523319,152.345951 144.400988,151.856818 C143.909219,149.86386 143.647432,147.608124 144.968602,145.888353 C146.607831,143.757502 149.6612,143.570174 151.887616,144.629095 C153.942768,145.607361 155.349569,147.662761 154.923859,150.108427 C154.564207,152.161225 152.927425,153.337226 151.865596,154.939917" id="path2596" fill="#000000" fill-rule="nonzero"></path>
            <path d="M29.7255678,200.659283 C25.590033,200.1316 24.2182336,194.509556 29.1567116,195.140803 C42.7312334,196.874266 54.3625821,190.80098 61.0000776,179.251131 C62.7016125,176.289695 69.6084339,179.08099 67.6551926,182.478875 C59.9353601,195.912601 45.2256428,202.639328 29.7255678,200.659283" id="path2600" fill="#000000" fill-rule="nonzero"></path>
            <path d="M95.0806908,183.958111 C93.5007346,183.812885 91.1524964,182.841379 91.0070074,181.021055 C90.9329869,180.089611 91.4536833,179.45112 92.1760221,179.063019 C92.558887,174.38326 93.9423056,169.951387 96.7168005,166.037817 C99.21308,162.517357 103.932529,160.141172 107.549327,163.927043 C110.586722,167.104472 108.174673,172.675612 106.469647,175.923149 C104.1648,180.307449 100.548002,184.463895 95.0806908,183.958111" id="path2604" fill="#000000" fill-rule="nonzero"></path>
            <path d="M131.20628,188.753843 C132.907074,185.794708 136.313814,185.361172 139.331433,186.782767 C145.284209,189.588149 139.854556,197.364072 136.775089,200.328248 C135.051104,201.986776 129.814722,200.277837 129.482294,198.410103 C129.178213,198.062266 128.990095,197.679141 129.000403,197.255687 C129.064827,194.213373 129.670413,191.425636 131.20628,188.753843" id="path2608" fill="#000000" fill-rule="nonzero"></path>
          </g>
        </g>
      </g>
    </g>
  </g>
</svg>
