<?xml version="1.0" encoding="UTF-8"?>
<svg width="196px" height="59px" viewBox="0 0 196 59" version="1.1" xmlns="http://www.w3.org/2000/svg" xmlns:xlink="http://www.w3.org/1999/xlink">
    <title>logo</title>
    <g id="Desktop" stroke="none" stroke-width="1" fill="none" fill-rule="evenodd">
        <g id="Portfolio---Kobas" transform="translate(-339.000000, -284.000000)" fill-rule="nonzero">
            <g id="content" transform="translate(337.000000, 284.000000)">
                <g id="Group" transform="translate(2.000000, 0.000000)">
                    <g id="Logo-/-Light" transform="translate(97.997586, 29.371567) scale(1, -1) translate(-97.997586, -29.371567) translate(0.000000, -0.000000)">
                        <g id="g3039" transform="translate(38.459074, 0.138102)" fill="#D7DF21">
                            <path d="M0,20.5046786 L0,20.6181009 C0,31.9948724 9.1694706,41.2169902 21.3898896,41.2169902 C33.6104933,41.2169902 42.6667264,32.1058933 42.6667264,20.7313384 L42.6667264,20.6181009 C42.6667264,9.24317661 33.5009503,0.0210588591 21.2768368,0.0210588591 C9.0558636,0.0210588591 0,9.12993906 0,20.5046786" id="path3041"></path>
                        </g>
                        <g id="g3043" transform="translate(83.885638, 0.910999)" fill="#FFFFFF">
                            <path d="M19.2115908,8.86688805 C22.5497894,8.86688805 24.4757514,10.1660719 24.4757514,12.4886424 L24.4757514,12.6016952 C24.4757514,14.754317 22.7766339,16.1667384 19.1020478,16.1667384 L10.7219149,16.1667384 L10.7219149,8.86688805 L19.2115908,8.86688805 Z M17.6251567,23.8631972 C20.9676041,23.8631972 22.8370396,24.992617 22.8370396,27.3170348 L22.8370396,27.4282404 C22.8370396,29.5791996 21.1336735,30.8233348 17.8520013,30.8233348 L10.7219149,30.8233348 L10.7219149,23.8631972 L17.6251567,23.8631972 Z M0.0308493813,39.6492135 L20.3406412,39.6492135 C25.3216155,39.6492135 28.830317,38.4045241 31.1528875,36.0841704 C32.7389521,34.5018003 33.6982386,32.4092147 33.6982386,29.6902204 L33.6982386,29.5791996 C33.6982386,24.992617 31.0959917,22.2773173 27.5878443,20.7516584 C32.3990547,19.1692883 35.4505573,16.4501093 35.4505573,11.076221 L35.4505573,10.9629834 C35.4505573,4.17279446 29.9065356,0.0376842742 20.457758,0.0376842742 L0.0308493813,0.0376842742 L0.0308493813,39.6492135 Z" id="path3045"></path>
                        </g>
                        <g id="g3047" transform="translate(117.429629, 0.866276)" fill="#FFFFFF">
                            <path d="M26.6006641,15.7017809 L22.186247,26.9632829 L17.7147492,15.7017809 L26.6006641,15.7017809 Z M16.9784281,39.9789509 L27.5597659,39.9789509 L44.4255106,0.0823881681 L32.6506527,0.0823881681 L29.7690988,7.15927319 L14.4857242,7.15927319 L11.6610661,0.0823881681 L0.116193179,0.0823881681 L16.9784281,39.9789509 Z" id="path3049"></path>
                        </g>
                        <g id="g3051" transform="translate(161.164058, 0.182288)" fill="#FFFFFF">
                            <path d="M0,6.65016603 L6.10651496,13.9537109 C10.0114555,10.8381081 14.369531,9.19902689 18.9542663,9.19902689 C21.9001051,9.19902689 23.4824752,10.2189037 23.4824752,11.9143266 L23.4824752,12.0314434 C23.4824752,13.6703399 22.1790426,14.5767945 16.8058932,15.8192672 C8.37237431,17.7415346 1.8655563,20.1206315 1.8655563,28.268378 L1.8655563,28.3816155 C1.8655563,35.740209 7.69682828,41.0575709 17.1984377,41.0575709 C23.9356101,41.0575709 29.1962609,39.246509 33.4974405,35.7985827 L28.0104993,28.0437502 C24.3883756,30.5892859 20.4232141,31.950538 16.9152515,31.950538 C14.2598032,31.950538 12.9534151,30.8176083 12.9534151,29.4014924 L12.9534151,29.2899174 C12.9534151,27.475161 14.3126351,26.6880399 19.8041945,25.4379934 C28.9091954,23.4593843 34.573659,20.5135455 34.573659,13.1002729 L34.573659,12.9946092 C34.573659,4.90154182 28.1800786,0.090331422 18.5576578,0.090331422 C11.5372992,0.090331422 4.86071719,2.29560037 0,6.65016603" id="path3053"></path>
                        </g>
                        <g id="g3055" transform="translate(0.015148, 0.151901)" fill="#FFFFFF">
                            <path d="M17.7337761,8.86688805 C17.7337761,3.97255057 13.7649201,0.00369453669 8.87058258,0.00369453669 C3.97218112,0.00369453669 0.0070196197,3.97255057 0.0070196197,8.86688805 C0.0070196197,13.7651048 3.97218112,17.7302663 8.87058258,17.7302663 C13.7649201,17.7302663 17.7337761,13.7651048 17.7337761,8.86688805" id="path3057"></path>
                        </g>
                        <g id="g3059" transform="translate(0.022093, 0.152159)" fill="#FFFFFF">
                            <path d="M0,17.7337761 C0,17.7337761 0.600546938,21.9597719 8.86356296,21.7975817 C17.1337833,21.6350221 24.9397852,16.1063327 24.7772256,0.0070196197 L39.252605,0.0070196197 C39.252605,0.0070196197 39.4111006,18.3834604 27.700343,26.8406243 C27.700343,26.8406243 30.7932244,46.6259766 45.2686038,58.4422133 L28.0291567,58.4422133 C28.0291567,58.4422133 20.0642898,52.0506648 14.5319059,32.3717152 L14.5319059,58.4422133 L0,58.4422133 L0,17.7337761 Z" id="path3061"></path>
                        </g>
                        <g id="g3063" transform="translate(49.930093, 9.798281)" fill="#FFFFFF">
                            <path d="M18.4726834,16.0712346 C18.4386937,15.7237634 18.3365398,15.3988289 18.159202,15.1045591 C17.2983749,13.6843792 15.0245723,13.5334573 13.0836475,14.7646617 C11.2670438,15.912739 10.3796161,17.8669641 10.980163,19.275691 C11.018032,19.3719337 11.0706792,19.4642971 11.1236958,19.5531507 C11.9847076,20.9733306 14.2544462,21.1242524 16.2029448,19.8928633 C17.7400568,18.9187987 18.6049478,17.3759602 18.4726834,16.0712346 M19.949205,15.4747516 C19.3187323,18.165298 17.6718926,20.3310354 15.4211809,21.3791754 C13.0306309,22.4895684 10.0247558,22.3061347 7.28304017,20.9295503 C5.81778692,20.1950764 4.43178148,19.1280942 3.25728827,17.7234314 C-1.12720314,12.4836547 -1.34259463,4.43584547 4.32593301,1.20700514 C10.2778316,-2.17294175 17.589135,2.47589376 19.6998238,9.44748449 C20.3458135,11.5772002 20.379988,13.6466949 19.949205,15.4747516" id="path3065"></path>
                        </g>
                    </g>
                </g>
            </g>
        </g>
    </g>
</svg>