<?xml version="1.0" encoding="UTF-8"?>
<svg width="421px" height="801px" viewBox="0 0 421 801" version="1.1" xmlns="http://www.w3.org/2000/svg" xmlns:xlink="http://www.w3.org/1999/xlink">
    <title>mobile-mask</title>
    <g id="Desktop" stroke="none" stroke-width="1" fill="none" fill-rule="evenodd">
        <g id="Portfolio---Kobas" transform="translate(-1064.000000, -2608.000000)">
            <g id="RWD" transform="translate(-2.000000, 2608.021867)">
                <g id="mobile-mask" transform="translate(1066.985017, 0.000000)">
                    <path d="M389.931472,0 C406.500015,5.09121799e-16 419.931472,13.4314575 419.931472,30 L419.931472,770.930748 C419.931472,787.49929 406.500015,800.930748 389.931472,800.930748 L30,800.930748 C13.4314575,800.930748 2.02906125e-15,787.49929 0,770.930748 L0,30 C-2.02906125e-15,13.4314575 13.4314575,3.04359188e-15 30,0 L389.931472,0 Z M85.4140881,20.9171915 L35.7967088,20.9171915 C28.0647223,20.9171915 21.7967088,27.185205 21.7967088,34.9171915 L21.7967088,34.9171915 L21.7967088,765.828897 C21.7967088,773.560883 28.0647223,779.828897 35.7967088,779.828897 L35.7967088,779.828897 L383.541763,779.828897 C391.27375,779.828897 397.541763,773.560883 397.541763,765.828897 L397.541763,765.828897 L397.541763,34.9171915 C397.541763,27.185205 391.27375,20.9171915 383.541763,20.9171915 L383.541763,20.9171915 L335.905041,20.9171915 C323.572054,20.9171915 317.213187,27.9078234 311.23626,35.3178932 L310.474893,36.2656317 C304.013575,44.332169 297.721783,52.5633295 284.454583,52.5633295 L284.454583,52.5633295 L141.837476,52.5633295 C111.742434,52.5633295 111.069376,20.9171915 85.4140881,20.9171915 L85.4140881,20.9171915 Z" id="Combined-Shape" fill="#ECECEC"></path>
                    <g id="dots" transform="translate(170.014983, 21.978133)" fill="#C7C7C7">
                        <circle id="Oval-Copy-2" cx="79" cy="5" r="5"></circle>
                        <rect id="Rectangle" x="0" y="2" width="62" height="6" rx="3"></rect>
                    </g>
                </g>
            </g>
        </g>
    </g>
</svg>