<?xml version="1.0" encoding="UTF-8"?>
<svg width="335px" height="62px" viewBox="0 0 335 62" version="1.1" xmlns="http://www.w3.org/2000/svg" xmlns:xlink="http://www.w3.org/1999/xlink">
    <title>logo</title>
    <defs>
        <polygon id="path-1" points="0 61.8881486 334.050554 61.8881486 334.050554 0 0 0"></polygon>
    </defs>
    <g id="Desktop" stroke="none" stroke-width="1" fill="none" fill-rule="evenodd">
        <g id="Portfolio---CP-Package" transform="translate(-337.000000, -282.000000)">
            <g id="Group-49" transform="translate(337.000000, 282.000000)">
                <path d="M74.173323,44.5962649 C74.173323,43.5284405 73.4532014,42.9817514 72.1989581,42.9817514 L70.4114311,42.9817514 L70.4114311,46.2597919 L72.1989581,46.2597919 C73.4532014,46.2727784 74.173323,45.7139405 74.173323,44.6209811 L74.173323,44.5962649 Z M74.942877,44.5962649 C74.942877,46.1232243 73.9500392,47.0050486 72.2362419,47.0050486 L70.4114311,47.0050486 L70.4114311,49.2140081 L69.5920257,49.2140081 L69.5920257,42.2620486 L72.1989581,42.2620486 C73.9500392,42.2620486 74.942877,43.1195757 74.942877,44.5962649 L74.942877,44.5962649 Z" id="Fill-1" fill="#FFFFFF"></path>
                <path d="M81.460627,46.2727784 C82.7023027,46.2727784 83.434573,45.7017919 83.434573,44.6075757 C83.434573,43.5162919 82.7144514,42.9951568 81.460627,42.9951568 L79.6111,42.9951568 L79.6111,46.2727784 L81.460627,46.2727784 Z M83.3604243,49.2140081 L81.9076135,46.9920622 L81.460627,46.9920622 L79.6111,46.9920622 L79.6111,49.2140081 L78.8164108,49.2140081 L78.8164108,42.2620486 L81.460627,42.2620486 C83.1983027,42.2620486 84.2045459,43.1195757 84.2045459,44.5962649 C84.2799514,45.6205216 83.6272757,46.5584811 82.6398838,46.842927 L84.2791135,49.2140081 L83.3604243,49.2140081 Z" id="Fill-3" fill="#FFFFFF"></path>
                <path d="M88.6980378,45.739327 C88.6980378,47.3014757 89.9656865,48.5687054 91.5290919,48.5687054 C93.0924973,48.5687054 94.359727,47.3014757 94.359727,45.739327 C94.3593081,44.1759216 93.0908216,42.9074351 91.5278351,42.9091092 C89.9656865,42.9107865 88.6992946,44.1767595 88.6980378,45.739327 M95.1661459,45.739327 C95.248673,47.7463676 93.6886189,49.4392189 91.6815784,49.5217459 C89.6737,49.6046919 87.9800108,48.0433811 87.8974838,46.0355027 C87.8153757,44.0293 89.3758486,42.3356108 91.3833081,42.2539216 C91.4319027,42.2505703 91.4804973,42.2497324 91.5290919,42.2497324 C93.4892135,42.2023946 95.1175514,43.7511378 95.1661459,45.7125162 C95.1661459,45.7213135 95.1661459,45.7288541 95.1661459,45.739327" id="Fill-5" fill="#FFFFFF"></path>
                <polygon id="Fill-7" fill="#FFFFFF" points="98.9529635 42.2619649 101.34918 48.3207892 103.757545 42.2619649 104.589518 42.2619649 101.746734 49.2143432 100.927328 49.2143432 98.1461257 42.2619649"></polygon>
                <mask id="mask-2" fill="white">
                    <use xlink:href="#path-1"></use>
                </mask>
                <g id="Clip-10"></g>
                <polygon id="Fill-9" fill="#FFFFFF" mask="url(#mask-2)" points="108.239432 49.2141757 109.034541 49.2141757 109.034541 42.2617973 108.239432 42.2617973"></polygon>
                <path d="M119.276511,45.739327 C119.283601,44.2303811 118.066642,43.0016919 116.558534,42.9933135 C116.533399,42.9933135 116.507845,42.9949892 116.483128,42.9949892 L114.496615,42.9949892 L114.496615,48.4706784 L116.520831,48.4706784 C118.008412,48.4899486 119.230399,47.3014757 119.250926,45.8138946 C119.251764,45.7925297 119.251764,45.7720027 119.251764,45.7506378 L119.276511,45.739327 Z M120.083318,45.739327 C120.084574,47.6579757 118.529128,49.2159351 116.609642,49.2176108 C116.566912,49.2176108 116.52502,49.216773 116.483128,49.2142595 L113.702345,49.2142595 L113.702345,42.2618811 L116.507845,42.2618811 C118.41225,42.1931784 120.01252,43.6824351 120.081223,45.5880973 C120.083318,45.6371108 120.083736,45.6886378 120.083318,45.739327 L120.083318,45.739327 Z" id="Fill-11" fill="#FFFFFF" mask="url(#mask-2)"></path>
                <polygon id="Fill-12" fill="#FFFFFF" mask="url(#mask-2)" points="123.981986 49.2141757 124.776257 49.2141757 124.776257 42.2617973 123.981986 42.2617973"></polygon>
                <polygon id="Fill-13" fill="#FFFFFF" mask="url(#mask-2)" points="130.263885 42.2619649 134.435061 47.9106676 134.435061 42.2619649 135.216764 42.2619649 135.216764 49.2143432 134.397777 49.2143432 130.226182 43.578627 130.226182 49.2143432 129.431912 49.2143432 129.431912 42.2619649"></polygon>
                <path d="M144.726809,45.8137689 L145.433945,45.8137689 L145.433945,48.2962824 C144.695809,48.8731338 143.78885,49.1915122 142.851728,49.202823 C140.918836,49.202823 139.350404,47.6369041 139.349566,45.7023365 C139.349147,43.7698635 140.915904,42.2005932 142.849634,42.1997554 L142.851728,42.1997554 C143.791782,42.2031068 144.698742,42.5424311 145.409647,43.1553095 L144.950093,43.7267149 C144.368215,43.2110257 143.61835,42.9240662 142.839999,42.919877 C141.307593,42.8176608 139.981715,43.9768095 139.879499,45.5092149 C139.777282,47.0412014 140.936012,48.3674986 142.468418,48.4705527 C142.591999,48.4785122 142.71558,48.4785122 142.839999,48.4705527 C143.492255,48.4579851 144.126499,48.2552284 144.664809,47.8861608 L144.726809,45.8137689 Z" id="Fill-14" fill="#FFFFFF" mask="url(#mask-2)"></path>
                <path d="M159.997284,44.5962649 C159.997284,43.5284405 159.277162,42.9817514 158.023338,42.9817514 L156.247959,42.9817514 L156.247959,46.2597919 L158.035486,46.2597919 C159.277162,46.2727784 160.009432,45.7139405 160.009432,44.6209811 L159.997284,44.5962649 Z M160.766838,44.5962649 C160.766838,46.1232243 159.774,47.0050486 158.060203,47.0050486 L156.247959,47.0050486 L156.247959,49.2140081 L155.45327,49.2140081 L155.45327,42.2620486 L158.060203,42.2620486 C159.774,42.2620486 160.766838,43.1195757 160.766838,44.5962649 L160.766838,44.5962649 Z" id="Fill-15" fill="#FFFFFF" mask="url(#mask-2)"></path>
                <path d="M168.327612,46.7072392 L166.750801,43.1317662 L165.186558,46.7072392 L168.327612,46.7072392 Z M168.650599,47.4395095 L164.925572,47.4395095 L164.156436,49.21405 L163.311896,49.21405 L166.427396,42.2620905 L167.24722,42.2620905 L170.351828,49.21405 L169.482572,49.21405 L168.650599,47.4395095 Z" id="Fill-16" fill="#FFFFFF" mask="url(#mask-2)"></path>
                <path d="M176.620908,42.9696865 C175.094786,42.8674703 173.775611,44.0220108 173.673814,45.5468757 C173.570759,47.0721595 174.724462,48.3917541 176.250584,48.4943892 C176.373746,48.5023486 176.497327,48.5023486 176.620908,48.4943892 C177.388368,48.4876865 178.124827,48.1915108 178.681989,47.6628351 L179.166259,48.1839703 C178.468759,48.8492135 177.545881,49.2258216 176.583205,49.2388084 C174.649895,49.2396459 173.082719,47.673727 173.081461,45.7399973 C173.079786,43.8066865 174.646962,42.2382541 176.580692,42.2382541 L176.583205,42.2382541 C177.508597,42.2571054 178.394192,42.6194703 179.066557,43.2553892 L178.594854,43.8272135 C178.067854,43.3035649 177.362814,42.9964973 176.620908,42.9696865" id="Fill-17" fill="#FFFFFF" mask="url(#mask-2)"></path>
                <polygon id="Fill-18" fill="#FFFFFF" mask="url(#mask-2)" points="187.856439 49.2142176 185.298939 45.9118797 183.945412 47.4028122 183.945412 49.2142176 183.150723 49.2142176 183.150723 42.2618392 183.945412 42.2618392 183.945412 46.3588662 187.67002 42.3250959 188.613426 42.3250959 185.857358 45.3538797 188.774709 49.2142176"></polygon>
                <path d="M196.707735,46.7072392 L195.130505,43.1317662 L193.567519,46.7072392 L196.707735,46.7072392 Z M197.030722,47.4395095 L193.306532,47.4395095 L192.499276,49.21405 L191.630438,49.21405 L194.745938,42.2620905 L195.565762,42.2620905 L198.669114,49.21405 L197.800276,49.21405 L197.030722,47.4395095 Z" id="Fill-19" fill="#FFFFFF" mask="url(#mask-2)"></path>
                <path d="M206.999903,45.8137689 L207.707457,45.8137689 L207.707457,48.2962824 C206.969322,48.8731338 206.062362,49.1915122 205.124822,49.202823 C203.191092,49.202823 201.623916,47.6369041 201.622659,45.7023365 C201.622241,43.7698635 203.188578,42.2005932 205.122308,42.1997554 L205.124822,42.1997554 C206.064457,42.2031068 206.971416,42.5424311 207.682322,43.1553095 L207.223186,43.7267149 C206.641308,43.2110257 205.891443,42.9240662 205.113092,42.919877 C203.580268,42.8176608 202.254808,43.9768095 202.152173,45.5092149 C202.049538,47.0412014 203.208686,48.3674986 204.741092,48.4705527 C204.865092,48.4785122 204.989092,48.4785122 205.113092,48.4705527 C205.76493,48.4579851 206.399592,48.2552284 206.937903,47.8861608 L206.999903,45.8137689 Z" id="Fill-20" fill="#FFFFFF" mask="url(#mask-2)"></path>
                <polygon id="Fill-21" fill="#FFFFFF" mask="url(#mask-2)" points="212.189135 49.2141757 212.983405 49.2141757 212.983405 42.2617973 212.189135 42.2617973"></polygon>
                <polygon id="Fill-22" fill="#FFFFFF" mask="url(#mask-2)" points="218.471034 42.2619649 222.642628 47.9106676 222.642628 42.2619649 223.424331 42.2619649 223.424331 49.2143432 222.605345 49.2143432 218.43375 43.578627 218.43375 49.2143432 217.639899 49.2143432 217.639899 42.2619649"></polygon>
                <path d="M232.735977,45.8137689 L233.468247,45.8137689 L233.468247,48.2962824 C232.729693,48.8731338 231.822734,49.1915122 230.886031,49.202823 C228.95272,49.202823 227.384288,47.6369041 227.383869,45.7023365 C227.38345,43.7698635 228.949369,42.2005932 230.88268,42.1997554 L230.886031,42.1997554 C231.825666,42.2031068 232.731788,42.5424311 233.442693,43.1553095 L232.983977,43.7267149 C232.402099,43.2110257 231.652234,42.9240662 230.874301,42.919877 C229.341058,42.8176608 228.015599,43.9768095 227.912545,45.5092149 C227.809909,47.0412014 228.969896,48.3674986 230.501882,48.4705527 C230.625882,48.4785122 230.750301,48.4785122 230.874301,48.4705527 C231.526139,48.4579851 232.160382,48.2552284 232.698274,47.8861608 L232.735977,45.8137689 Z" id="Fill-23" fill="#FFFFFF" mask="url(#mask-2)"></path>
                <path d="M245.473332,43.0073473 C244.579778,43.0073473 243.996224,43.3671986 243.996224,43.9629014 C243.996224,45.7751446 247.906414,44.832577 247.894293,47.3519554 C247.894293,48.5073338 246.876711,49.2517527 245.411751,49.2517527 C244.423103,49.2396041 243.475508,48.8583878 242.754549,48.1839284 L243.113981,47.5010905 C243.738589,48.09805 244.561346,48.4428203 245.423481,48.4704689 C246.428886,48.4704689 247.050562,48.0607662 247.050562,47.3904959 C247.050562,45.5275635 243.151265,46.5208203 243.151265,44.0253203 C243.151265,42.9336176 244.120643,42.2382122 245.560468,42.2382122 C246.339238,42.2398878 247.10167,42.4631716 247.757697,42.8829284 L247.422143,43.5909014 C246.839427,43.2193203 246.164968,43.0161446 245.473332,43.0073473" id="Fill-24" fill="#FFFFFF" mask="url(#mask-2)"></path>
                <path d="M252.226766,45.739327 C252.22928,47.3014757 253.497347,48.5678676 255.060334,48.5661936 C256.621226,48.5636784 257.88678,47.2998 257.888455,45.739327 C257.88678,44.1759216 256.618293,42.9091108 255.054469,42.9107848 C253.493577,42.9124622 252.22928,44.1771784 252.226766,45.739327 M258.694874,45.739327 C258.77782,47.7463676 257.217347,49.4392189 255.209888,49.5217459 C253.202009,49.6046919 251.508739,48.0433811 251.425793,46.0355027 C251.344523,44.0293 252.904577,42.3356108 254.912036,42.2539216 C254.960631,42.2505703 255.009226,42.2497324 255.05782,42.2497324 C257.017942,42.2023946 258.646699,43.7511378 258.694455,45.7125162 C258.694874,45.7213135 258.694874,45.7288541 258.694874,45.739327" id="Fill-25" fill="#FFFFFF" mask="url(#mask-2)"></path>
                <polygon id="Fill-26" fill="#FFFFFF" mask="url(#mask-2)" points="263.400507 42.2619649 263.400507 48.4703432 266.454426 48.4703432 266.454426 49.2026135 262.618804 49.2026135 262.618804 42.2619649"></polygon>
                <path d="M273.059395,48.5187284 C274.138949,48.6079581 275.085705,47.8044716 275.173678,46.7236608 C275.183732,46.6025932 275.182057,46.47985 275.169908,46.3587824 L275.169908,42.2617554 L275.964178,42.2617554 L275.964178,46.3587824 C275.963341,47.9703635 274.655057,49.2757149 273.043895,49.273205 C271.434827,49.2723635 270.131151,47.9691068 270.129476,46.3587824 L270.129476,42.2617554 L270.923746,42.2617554 L270.923746,46.3587824 C270.816503,47.4437824 271.609935,48.4106473 272.694516,48.5170527 C272.815584,48.5283635 272.937908,48.5300392 273.059395,48.5187284" id="Fill-27" fill="#FFFFFF" mask="url(#mask-2)"></path>
                <polygon id="Fill-28" fill="#FFFFFF" mask="url(#mask-2)" points="284.853345 42.2619649 284.853345 42.995073 282.581966 42.995073 282.581966 49.2026135 281.786858 49.2026135 281.786858 42.995073 279.527209 42.995073 279.527209 42.2619649"></polygon>
                <polygon id="Fill-29" fill="#FFFFFF" mask="url(#mask-2)" points="288.540459 49.2141757 289.33473 49.2141757 289.33473 42.2617973 288.540459 42.2617973"></polygon>
                <path d="M294.17672,45.739327 C294.178815,47.3014757 295.447301,48.5678676 297.010288,48.5661936 C298.571599,48.5636784 299.836315,47.2998 299.838409,45.739327 C299.836315,44.1759216 298.567828,42.9091108 297.004004,42.9107848 C295.443112,42.9124622 294.178815,44.1771784 294.17672,45.739327 L294.17672,45.739327 Z M300.644828,45.739327 C300.728193,47.7463676 299.166882,49.4392189 297.159004,49.5217459 C295.151964,49.6046919 293.458274,48.0433811 293.376166,46.0355027 C293.293639,44.0293 294.85495,42.3356108 296.860734,42.2539216 C296.909747,42.2505703 296.958761,42.2497324 297.007774,42.2497324 C298.967477,42.2023946 300.596234,43.7511378 300.644828,45.7125162 L300.644828,45.739327 Z" id="Fill-30" fill="#FFFFFF" mask="url(#mask-2)"></path>
                <polygon id="Fill-31" fill="#FFFFFF" mask="url(#mask-2)" points="305.474461 42.2619649 309.646474 47.9106676 309.646474 42.2619649 310.440326 42.2619649 310.440326 49.2143432 309.62092 49.2143432 305.474461 43.578627 305.474461 49.2143432 304.679772 49.2143432 304.679772 42.2619649"></polygon>
                <path d="M317.107211,43.0073473 C316.213657,43.0073473 315.630103,43.3671986 315.630103,43.9629014 C315.630103,45.7751446 319.540711,44.832577 319.527757,47.3519554 C319.527757,48.5073338 318.510589,49.2517527 317.045211,49.2517527 C316.057819,49.2396041 315.109386,48.8583878 314.388008,48.1839284 L314.748697,47.5010905 C315.372049,48.09805 316.193968,48.4436581 317.057778,48.4704689 C318.062765,48.4704689 318.684022,48.0607662 318.684022,47.3904959 C318.684022,45.5275635 314.785562,46.5208203 314.785562,44.0253203 C314.785562,42.9336176 315.754103,42.2382122 317.193927,42.2382122 C317.976886,42.2382122 318.743508,42.4614959 319.403724,42.8829284 L319.068589,43.5909014 C318.482103,43.2168068 317.802616,43.0148878 317.107211,43.0073473" id="Fill-32" fill="#FFFFFF" mask="url(#mask-2)"></path>
                <path d="M80.9144824,19.2330703 C78.1177797,19.2829216 75.8903878,21.590327 75.9406581,24.3878676 C75.9414959,24.4574081 75.9444284,24.5269486 75.9486176,24.5960703 C75.7831446,27.4019892 77.9242392,29.8111919 80.7301581,29.9766649 C80.7921581,29.9804351 80.8533203,29.9829486 80.9144824,29.9842054 C82.8142797,29.8359081 84.5875635,28.9750297 85.8803473,27.5758405 L89.4554014,31.3993135 C87.1601446,33.8688405 83.9734284,35.3170432 80.6040635,35.421773 C74.753023,35.6484081 69.8261176,31.0893135 69.5986446,25.2378541 C69.591523,25.0451514 69.5890095,24.8516108 69.5923608,24.6580703 C69.5923608,18.5753676 74.3596581,14.0807865 80.7653473,14.0807865 C84.0433878,14.1126243 87.1722932,15.4535838 89.4554014,17.8049757 L85.8924959,22.0012865 C84.7182662,20.3943135 82.8989014,19.3834622 80.9144824,19.2330703" id="Fill-33" fill="#FFFFFF" mask="url(#mask-2)"></path>
                <path d="M105.818291,21.8523189 C105.93098,20.4095622 104.85352,19.1490351 103.411182,19.0367649 C103.24152,19.0237784 103.070601,19.0262919 102.900939,19.0468189 L99.9215878,19.0468189 L99.9215878,24.745373 L102.900939,24.745373 C104.344953,24.9108459 105.650304,23.8744405 105.815777,22.430427 C105.838399,22.2385622 105.838818,22.0441838 105.818291,21.8523189 M111.691115,21.6784676 C111.691115,26.6443324 108.587345,29.5118324 103.199209,29.5118324 L99.9215878,29.5118324 L99.9215878,35.186927 L93.7136284,35.186927 L93.7136284,14.2543865 L103.186642,14.2543865 C108.599074,14.2543865 111.691115,16.9363054 111.691115,21.6784676" id="Fill-34" fill="#FFFFFF" mask="url(#mask-2)"></path>
                <path d="M140.170438,21.2933135 C140.170438,18.102827 137.997924,16.4397189 134.236451,16.4397189 L128.8856,16.4397189 L128.8856,26.3337459 L134.248181,26.3337459 C137.997924,26.3337459 140.183005,24.6333541 140.183005,21.3553135 L140.170438,21.2933135 Z M142.467789,21.2933135 C142.467789,25.8867595 139.4876,28.5313946 134.335316,28.5313946 L128.8856,28.5313946 L128.8856,35.1871784 L126.501532,35.1871784 L126.501532,14.2919216 L134.335316,14.2919216 C139.4876,14.2919216 142.467789,16.8490027 142.467789,21.2933135 L142.467789,21.2933135 Z" id="Fill-35" fill="#FFFFFF" mask="url(#mask-2)"></path>
                <path d="M158.358431,27.6126635 L153.616269,16.8862446 L148.935688,27.6126635 L158.358431,27.6126635 Z M159.301836,29.8107311 L147.954999,29.8107311 L145.63335,35.1871365 L143.149999,35.1871365 L152.449161,14.2918797 L154.931674,14.2918797 L164.255553,35.1871365 L161.660769,35.1871365 L159.301836,29.8107311 Z" id="Fill-36" fill="#FFFFFF" mask="url(#mask-2)"></path>
                <path d="M177.961114,16.4021 C173.347978,16.3262757 169.546708,20.0056405 169.470465,24.6196135 C169.469627,24.6405595 169.469627,24.6615054 169.469208,24.6832892 C169.510681,29.3182081 173.301059,33.0423973 177.935978,33.0009243 L177.961114,33.0009243 C180.270614,32.9908703 182.490465,32.1023432 184.168654,30.5179919 L185.633614,32.0939649 C183.51933,34.0725189 180.7331,35.1780459 177.837114,35.1868432 C171.989424,35.2957622 167.160127,30.6445054 167.05037,24.7968162 C167.049532,24.7423568 167.048695,24.6874784 167.048695,24.6330189 C167.156776,18.778627 171.990262,14.1202486 177.844654,14.2279108 C177.871046,14.2283297 177.897438,14.2287486 177.92383,14.2295865 C180.756978,14.2496946 183.478276,15.3355324 185.546897,17.2709378 L184.13137,19.0467351 C182.500938,17.3899108 180.285695,16.4406405 177.961114,16.4021" id="Fill-37" fill="#FFFFFF" mask="url(#mask-2)"></path>
                <polygon id="Fill-38" fill="#FFFFFF" mask="url(#mask-2)" points="206.975354 35.1869689 199.289449 25.2544014 195.243111 29.7234284 195.243111 35.1869689 192.859462 35.1869689 192.859462 14.2917122 195.243111 14.2917122 195.243111 26.4206716 206.415678 14.2917122 209.246732 14.2917122 200.965962 23.3789014 209.880138 35.1869689"></polygon>
                <path d="M229.470923,27.6003892 L224.777774,16.8861189 L220.060328,27.6125378 L229.470923,27.6003892 Z M230.426477,29.8106054 L219.067072,29.8106054 L216.745004,35.1870108 L214.262072,35.1870108 L223.536099,14.2917541 L226.019869,14.2917541 L235.380612,35.1870108 L232.784991,35.1870108 L230.426477,29.8106054 Z" id="Fill-39" fill="#FFFFFF" mask="url(#mask-2)"></path>
                <path d="M254.387634,24.9559635 L256.497309,24.9559635 L256.497309,32.5295986 C254.274107,34.2345986 251.553228,35.16795 248.751499,35.1868014 C242.876161,35.3170851 238.007904,30.6608014 237.87762,24.7854635 C237.876364,24.746923 237.876364,24.7092203 237.875945,24.6706797 C237.996174,18.7819365 242.867364,14.1063824 248.755269,14.2266122 C248.795066,14.2270311 248.835282,14.2282878 248.875918,14.2295446 C251.695661,14.2328959 254.421566,15.2458419 256.560147,17.084477 L255.194472,18.8108419 C253.450512,17.2667068 251.204269,16.4104365 248.875918,16.4020581 C244.227593,16.3128284 240.386945,20.0085311 240.297296,24.6555986 C240.296877,24.6769635 240.296877,24.6991662 240.296458,24.7205311 C240.35008,29.3822608 244.172715,33.1177608 248.835701,33.0637203 L248.912364,33.0637203 C250.874999,33.0302068 252.78485,32.4173284 254.399364,31.2996527 L254.387634,24.9559635 Z" id="Fill-40" fill="#FFFFFF" mask="url(#mask-2)"></path>
                <polygon id="Fill-41" fill="#FFFFFF" mask="url(#mask-2)" points="265.262811 35.1870946 267.646459 35.1870946 267.646459 14.2918378 265.262811 14.2918378"></polygon>
                <polygon id="Fill-42" fill="#FFFFFF" mask="url(#mask-2)" points="279.403293 14.2917541 291.917239 31.2504297 291.917239 14.2917541 294.301307 14.2917541 294.301307 35.1870108 291.817955 35.1870108 279.316158 18.2266595 279.316158 35.1870108 276.920361 35.1870108 276.920361 14.2917541"></polygon>
                <path d="M317.255718,24.9559635 L319.367069,24.9559635 L319.367069,32.5295986 C317.143028,34.2362743 314.422988,35.1687878 311.62042,35.1868014 C305.745501,35.3170851 300.876826,30.6608014 300.746123,24.7854635 C300.745704,24.746923 300.744866,24.7092203 300.744447,24.6706797 C300.865515,18.7819365 305.737961,14.1072203 311.626704,14.2282878 C311.644718,14.2287068 311.662731,14.2291257 311.681164,14.2295446 C314.502164,14.2328959 317.228488,15.2458419 319.367069,17.084477 L318.000555,18.8108419 C316.257015,17.2667068 314.010772,16.4104365 311.681164,16.4020581 C307.034096,16.3128284 303.193866,20.0085311 303.103799,24.6555986 C303.10338,24.6769635 303.10338,24.6991662 303.102961,24.7205311 C303.157001,29.3822608 306.980055,33.1177608 311.642623,33.0637203 L311.718447,33.0637203 C313.68192,33.0302068 315.590934,32.4173284 317.206704,31.2996527 L317.255718,24.9559635 Z" id="Fill-43" fill="#FFFFFF" mask="url(#mask-2)"></path>
                <path d="M26.8594473,25.7070851 L26.8594473,35.9333149 L32.8198257,35.9333149 C35.8427446,35.9333149 37.9050824,34.1436932 37.9050824,30.7538014 C37.9050824,27.3643284 35.8427446,25.754423 32.8198257,25.7163014 L26.8594473,25.7070851 Z" id="Fill-44" fill="#FFFFFF" mask="url(#mask-2)"></path>
                <path d="M32.3489608,48.3444581 C30.4089473,48.334823 28.4827581,48.0172824 26.6428662,47.4027284 L26.6428662,61.4331608 C28.5300959,61.73185 30.4378527,61.8830797 32.3489608,61.8847554 C43.7636635,62.0477149 54.4012716,56.1204311 60.2690689,46.3290392 L48.0274203,39.2949716 C44.9098257,45.0102824 38.858123,48.5040662 32.3489608,48.3444581" id="Fill-45" fill="#FFFFFF" mask="url(#mask-2)"></path>
                <path d="M32.1511473,13.0132973 L32.348877,13.0132973 C39.8822959,13.0132973 45.4472149,16.6193514 48.2631878,22.0715811 L60.5044176,14.9528919 C55.118377,5.97922973 45.0990932,0 32.348877,0 C13.6290662,0 0.00330945946,13.8888378 0.00330945946,30.5002297 C-0.152528378,41.3079189 5.39689054,51.3988378 14.6084986,57.0542432 L14.6084986,13.6253378 L14.6084986,13.0132973 L32.1511473,13.0132973 Z" id="Fill-46" fill="#FFFFFF" mask="url(#mask-2)"></path>
                <path d="M328.545247,18.5243014 L329.377639,18.5243014 C329.841382,18.5243014 330.109909,18.2440446 330.109909,17.7203959 C330.109909,17.2114095 329.841382,16.9382743 329.377639,16.9382743 L328.545247,16.9382743 L328.545247,18.5243014 Z M330.034923,21.0315311 L329.396491,19.600923 L329.371774,19.600923 L328.545247,19.600923 L328.545247,21.0315311 L327.399923,21.0315311 L327.399923,15.8620716 L329.371774,15.8620716 C330.535531,15.8620716 331.199099,16.5256392 331.199099,17.6759905 C331.199099,18.4576932 330.923869,19.0328689 330.416977,19.3428689 L331.330639,21.0315311 L330.034923,21.0315311 Z" id="Fill-47" fill="#FFFFFF" mask="url(#mask-2)"></path>
                <path d="M333.581281,18.5357378 C333.581281,20.9306973 331.632889,22.8723865 329.228714,22.8723865 C326.825376,22.8723865 324.877403,20.9306973 324.877403,18.5357378 C324.877403,16.1407784 326.825376,14.1990892 329.228714,14.1990892 C331.632889,14.1990892 333.581281,16.1407784 333.581281,18.5357378 Z" id="Stroke-48" stroke="#FFFFFF" stroke-width="2.241" mask="url(#mask-2)"></path>
            </g>
        </g>
    </g>
</svg>