<?xml version="1.0" encoding="UTF-8"?>
<svg width="339px" height="77px" viewBox="0 0 339 77" version="1.1" xmlns="http://www.w3.org/2000/svg" xmlns:xlink="http://www.w3.org/1999/xlink">
    <title>logo</title>
    <g id="Desktop" stroke="none" stroke-width="1" fill="none" fill-rule="evenodd">
        <g id="Portfolio---Quonota" transform="translate(-337.000000, -282.000000)">
            <g id="content" transform="translate(337.000000, 282.741935)">
                <g id="Group" transform="translate(0.258065, 0.000000)">
                    <g id="logo-light" transform="translate(-0.000000, -0.000000)">
                        <path d="M95.4026595,36.8308 C95.4026595,40.2614667 96.4505725,43.1334667 98.5501999,45.4428 C100.615615,47.7201333 103.247435,48.8561333 106.444393,48.8561333 C108.153746,48.8561333 109.80101,48.4654667 111.381115,47.6841333 L106.25179,42.2828 L110.17101,38.2068 L115.499274,43.8108 C116.787941,41.7401333 117.434175,39.4134667 117.434175,36.8308 C117.434175,33.4681333 116.386262,30.6321333 114.289169,28.3214667 C112.189542,26.0121333 109.572927,24.8574667 106.444393,24.8574667 C103.28038,24.8574667 100.647293,26.0121333 98.5501999,28.3214667 C96.4505725,30.6321333 95.4026595,33.4681333 95.4026595,36.8308 M106.444393,54.7148 C101.538082,54.7148 97.4668074,53.0161333 94.2394381,49.6201333 C91.0120687,46.2241333 89.4015519,41.9761333 89.4015519,36.8828 C89.4015519,31.7868 91.0120687,27.5401333 94.2394381,24.1441333 C97.5022869,20.7134667 101.568494,18.9988 106.444393,18.9988 C111.251869,18.9988 115.286397,20.7134667 118.550513,24.1441333 C121.808293,27.5761333 123.439084,31.8214667 123.439084,36.8828 C123.439084,41.2628 122.197301,45.0694667 119.712467,48.2961333 L123.632955,52.4228 L119.759351,56.4988 L115.546158,52.0668 C112.866187,53.8334667 109.832688,54.7148 106.444393,54.7148" id="Fill-494" fill="#FFFFFF"></path>
                        <path d="M149.297573,40.2448 L149.297573,19.6594667 L155.106078,19.6594667 L155.106078,40.2954667 C155.106078,44.3381333 153.75152,47.7688 151.039871,50.5888 C148.328222,53.3394667 144.955133,54.7141333 140.920605,54.7141333 C136.884809,54.7141333 133.51172,53.3394667 130.800071,50.5888 C128.089689,47.7688 126.733865,44.3381333 126.733865,40.2954667 L126.733865,19.6594667 L132.495486,19.6594667 L132.495486,40.2448 C132.495486,42.7594667 133.302645,44.8648 134.914429,46.5621333 C136.530014,48.2621333 138.532073,49.1101333 140.920605,49.1101333 C143.276192,49.1101333 145.261778,48.2621333 146.874829,46.5621333 C148.489147,44.8648 149.297573,42.7594667 149.297573,40.2448" id="Fill-495" fill="#FFFFFF"></path>
                        <path d="M164.307565,36.8308 C164.307565,40.2614667 165.355478,43.1334667 167.456373,45.4428 C169.52052,47.7201333 172.153608,48.8561333 175.349299,48.8561333 C178.513312,48.8561333 181.126125,47.7201333 183.195342,45.4428 C185.292435,43.1334667 186.340348,40.2614667 186.340348,36.8308 C186.340348,33.4681333 185.292435,30.6321333 183.195342,28.3214667 C181.094447,26.0121333 178.4791,24.8574667 175.349299,24.8574667 C172.185286,24.8574667 169.553466,26.0121333 167.456373,28.3214667 C165.355478,30.6321333 164.307565,33.4681333 164.307565,36.8308 M163.145611,49.6201333 C159.918241,46.2241333 158.306457,41.9761333 158.306457,36.8828 C158.306457,31.7868 159.918241,27.5401333 163.145611,24.1441333 C166.407192,20.7134667 170.474666,18.9988 175.349299,18.9988 C180.156774,18.9988 184.191303,20.7134667 187.455419,24.1441333 C190.714466,27.5761333 192.345257,31.8214667 192.345257,36.8828 C192.345257,41.9428 190.714466,46.1894667 187.455419,49.6201333 C184.228049,53.0161333 180.192254,54.7148 175.349299,54.7148 C170.442988,54.7148 166.37298,53.0161333 163.145611,49.6201333" id="Fill-496" fill="#FFFFFF"></path>
                        <polygon id="Fill-497" fill="#FFFFFF" points="201.54307 54.0528 196.026004 54.0528 196.026004 19.6594667 201.108445 19.6594667 219.02307 43.5554667 219.02307 19.6594667 224.59082 19.6594667 224.59082 54.0528 219.508379 54.0528 201.54307 30.1048"></polygon>
                        <path d="M234.272928,36.8308 C234.272928,40.2614667 235.320841,43.1334667 237.421736,45.4428 C239.485884,47.7201333 242.118971,48.8561333 245.314662,48.8561333 C248.478675,48.8561333 251.091489,47.7201333 253.160705,45.4428 C255.257798,43.1334667 256.305711,40.2614667 256.305711,36.8308 C256.305711,33.4681333 255.257798,30.6321333 253.160705,28.3214667 C251.05981,26.0121333 248.444463,24.8574667 245.314662,24.8574667 C242.150649,24.8574667 239.518829,26.0121333 237.421736,28.3214667 C235.320841,30.6321333 234.272928,33.4681333 234.272928,36.8308 M233.110974,49.6201333 C229.883604,46.2241333 228.271821,41.9761333 228.271821,36.8828 C228.271821,31.7868 229.883604,27.5401333 233.110974,24.1441333 C236.373823,20.7134667 240.440029,18.9988 245.314662,18.9988 C250.122137,18.9988 254.156666,20.7134667 257.420782,24.1441333 C260.679829,27.5761333 262.31062,31.8214667 262.31062,36.8828 C262.31062,41.9428 260.679829,46.1894667 257.420782,49.6201333 C254.193412,53.0161333 250.157617,54.7148 245.314662,54.7148 C240.409618,54.7148 236.338343,53.0161333 233.110974,49.6201333" id="Fill-498" fill="#FFFFFF"></path>
                        <polygon id="Fill-499" fill="#FFFFFF" points="273.978314 25.2656 262.795929 25.2656 262.795929 19.6589333 290.927388 19.6589333 290.927388 25.2656 279.743736 25.2656 279.743736 54.0522667 273.978314 54.0522667"></polygon>
                        <path d="M309.330363,41.7233333 L303.908332,28.2726667 L298.485033,41.7233333 L309.330363,41.7233333 Z M293.54451,54.0526667 L287.49145,54.0526667 L301.536272,19.6593333 L306.233508,19.6593333 L320.320145,54.0526667 L314.267085,54.0526667 L311.556703,47.2753333 L296.256159,47.2753333 L293.54451,54.0526667 Z" id="Fill-500" fill="#FFFFFF"></path>
                        <path d="M334.010932,22.9688 C334.21874,22.9688 334.410076,23.0288 334.587474,23.1488 C334.764872,23.2701333 334.899187,23.4221333 334.99042,23.6061333 L335.75323,23.2114667 C335.369291,22.4968 334.788947,22.1408 334.010932,22.1408 C333.377369,22.1408 332.848977,22.3528 332.427025,22.7741333 C332.003805,23.1981333 331.793462,23.7421333 331.793462,24.4088 C331.793462,25.0741333 332.003805,25.6181333 332.427025,26.0408 C332.848977,26.4648 333.377369,26.6754667 334.010932,26.6754667 C334.776276,26.6754667 335.356619,26.3168 335.75323,25.5981333 L334.99042,25.2101333 C334.899187,25.3981333 334.764872,25.5514667 334.587474,25.6701333 C334.410076,25.7888 334.21874,25.8474667 334.010932,25.8474667 C333.630794,25.8474667 333.319081,25.7114667 333.073259,25.4408 C332.827436,25.1674667 332.704525,24.8248 332.704525,24.4088 C332.704525,23.9914667 332.827436,23.6474667 333.073259,23.3768 C333.319081,23.1048 333.630794,22.9688 334.010932,22.9688" id="Fill-501" fill="#FFFFFF"></path>
                        <path d="M333.773346,28.2298667 C331.77002,28.2298667 330.141763,26.5152 330.141763,24.4085333 C330.141763,22.3005333 331.77002,20.5858667 333.773346,20.5858667 C335.775404,20.5858667 337.404928,22.3005333 337.404928,24.4085333 C337.404928,26.5152 335.775404,28.2298667 333.773346,28.2298667 M333.773346,19.6592 C331.284711,19.6592 329.259844,21.7898667 329.259844,24.4085333 C329.259844,27.0258667 331.284711,29.1565333 333.773346,29.1565333 C336.260714,29.1565333 338.285581,27.0258667 338.285581,24.4085333 C338.285581,21.7898667 336.260714,19.6592 333.773346,19.6592" id="Fill-502" fill="#FFFFFF"></path>
                        <g id="Group" transform="translate(-0.000000, 0.000000)" fill="#F91E2B">
                            <path d="M3.98891192,19.9753333 C3.33760928,21.262 2.77627256,22.5953333 2.28082639,23.9513333 L7.57994636,29.5286667 L0.396610366,31.4526667 C0.16472635,32.926 0.03294527,34.41 -1.12543376e-15,35.9046667 L15.1497557,31.7206667 L3.98891192,19.9753333 Z" id="Fill-503"></path>
                            <path d="M33.8579807,0 C32.4248615,0.0466666667 31.0145505,0.208 29.6055066,0.464 L27.7086194,8.34666667 L22.244773,2.59733333 C20.9776473,3.14133333 19.7333298,3.756 18.5206904,4.452 L29.7917741,16.312 L33.8579807,0 Z" id="Fill-504"></path>
                            <path d="M8.71465748,12.7298667 C7.79979268,13.8085333 6.98503081,14.9205333 6.23615948,16.0805333 L23.1814324,33.9112 L0.0982022472,40.3925333 C0.219846321,41.8178667 0.407380935,43.2432 0.693751359,44.6352 L30.9603175,36.1365333 L8.71465748,12.7298667 Z" id="Fill-505"></path>
                            <path d="M5.17810946,56.6576 C5.87249438,57.8976 6.67711925,59.0922667 7.54763465,60.2402667 L14.9831287,58.2576 L12.8138094,65.9202667 C13.9048046,66.9069333 15.0502863,67.7869333 16.2401174,68.5749333 L20.6357767,52.5416 L5.17810946,56.6576 Z" id="Fill-506"></path>
                            <path d="M1.69718826,48.6810667 C2.0925315,50.0264 2.57784067,51.3477333 3.14044451,52.6344 L26.5404561,46.3970667 L19.9640734,70.7784 C21.1754456,71.4037333 22.4425714,71.9490667 23.7096971,72.4250667 L32.3261524,40.5197333 L1.69718826,48.6810667 Z" id="Fill-507"></path>
                            <path d="M65.1809496,17.0774667 C64.4320783,15.8254667 63.5945082,14.6188 62.6581022,13.4708 L55.3873345,15.7441333 L57.2588793,7.92946667 C56.1691511,7.0148 55.0338065,6.16813333 53.8553795,5.43746667 L49.9437622,21.7028 L65.1809496,17.0774667 Z" id="Fill-508"></path>
                            <path d="M68.8387616,24.9374667 C68.3876648,23.6041333 67.8694104,22.2708 67.2751284,20.9961333 L44.1031994,27.9174667 L50.0308138,3.29213333 C48.8080374,2.70146667 47.5523158,2.1908 46.2737859,1.77346667 L38.517709,34.0041333 L68.8387616,24.9374667 Z" id="Fill-509"></path>
                            <path d="M42.1982025,0.6608 C40.8651862,0.371466667 39.5093617,0.174133333 38.1548042,0.0701333333 L31.9078742,24.7288 L14.8954436,6.8288 C13.8171195,7.63946667 12.7590695,8.52213333 11.756773,9.48346667 L34.0227071,32.9141333 L42.1982025,0.6608 Z" id="Fill-510"></path>
                            <path d="M36.633493,74.4532 C38.0552081,74.4185333 39.4655191,74.2798667 40.8656931,74.0358667 L42.6941556,66.4772 L47.9932755,72.0532 C49.2819424,71.5318667 50.5490682,70.9412 51.7718446,70.2572 L40.6122679,58.5118667 L36.633493,74.4532 Z" id="Fill-511"></path>
                            <path d="M70.7568099,38.8268 L55.2547932,43.1041333 L66.5258769,54.9654667 C67.1873166,53.6894667 67.7714615,52.3801333 68.2884489,51.0468 L62.8233354,45.2961333 L70.314583,43.3014667 C70.5578711,41.8174667 70.7124605,40.3334667 70.7568099,38.8268" id="Fill-512"></path>
                            <path d="M28.3278637,73.7305333 C29.6621472,74.0278667 31.0040333,74.2305333 32.3687278,74.3465333 L38.5320275,50.0678667 L62.5846089,75.3772 L65.4229706,72.3905333 L36.431133,41.8825333 L28.3278637,73.7305333 Z" id="Fill-513"></path>
                            <path d="M47.2593563,40.8834667 L70.6859775,34.3034667 C70.5858746,32.8794667 70.4046756,31.4541333 70.1309764,30.0408 L39.4906082,38.6608 L68.4837129,69.1701333 L71.3119377,66.1928 L47.2593563,40.8834667 Z" id="Fill-514"></path>
                        </g>
                    </g>
                </g>
            </g>
        </g>
    </g>
</svg>