<svg xmlns="http://www.w3.org/2000/svg" viewBox="0 0 947.93 104.41"><g fill="#fcfbfc"><path d="M399.32 103.79h-26.96c-1.16 0-2.33.02-3.49-.03-.75-.03-1.19-.52-1.28-1.24-.09-.66-.13-1.65.58-1.71 5.67-.51 4.41-4.71 4.41-8.14.03-25.67.01-51.35.01-77.02 0-.99-.07-1.99.01-2.98.21-2.46-.52-4.24-3.21-4.74-.99-.18-2.12-.29-1.8-1.73.3-1.34 1.47-1.07 2.43-1.1.66-.02 1.33 0 2 0 18.97 0 37.94-.04 56.91.02 7.5.03 14.86.83 22.02 3.44 16.29 5.93 25.07 17.96 28.17 34.36 1.89 10.03 1.37 20.02-2.39 29.77-5.31 13.79-15.29 22.57-28.95 27.46-7.23 2.59-14.83 3.56-22.51 3.63-8.65.08-17.31.02-25.96.02Zm1.51-49.53c0 7.77-.03 15.54.01 23.31.02 3.47.09 3.52 3.67 3.54 6.64.04 13.29 0 19.93.02 4.01.02 7.91-.67 11.77-1.69 4.52-1.2 8.13-3.73 10.77-7.51 5.81-8.33 6.39-17.53 3.94-27.02-2.19-8.48-7.41-14.18-16.22-16.36-2.61-.64-5.2-1.07-7.85-1.1-7.64-.08-15.28-.08-22.92-.05-3 .01-3.08.1-3.1 3.04-.04 7.94-.02 15.87-.02 23.81ZM.37 99.25c-.64-3.66-.43-5.78.56-8.04 3.39-7.72 6.55-15.54 9.8-23.32.38-.91.69-1.86 1.16-2.74.21-.4.7-.75 1.24-.4.27.17.54.41.68.68.15.28.26.65.21.95-.86 4.84 2.55 6.73 5.99 8.57 5.76 3.09 12.01 4.8 18.36 6.09 9.36 1.92 18.79 2.13 28.23.42 2.64-.48 5.13-1.35 7.54-2.48 2.33-1.09 4.12-2.84 5.22-5.14 1.77-3.71.65-6.39-3.23-7.84-3.75-1.4-7.72-1.96-11.66-2.42-7.26-.85-14.56-1.32-21.82-2.16-8.58-.99-17.12-2.32-25.04-6.06-1.79-.85-3.5-1.88-5.2-2.92-9.93-6.04-10.97-16.9-7.75-25.68 2.91-7.92 8.59-13.22 16-16.89 7.88-3.89 16.32-5.45 25.04-5.76 15.27-.53 30.08 2.25 44.75 6.12.96.25 1.96.4 2.89.73 3.14 1.14 6.13 1.46 8.85-1.04.65-.6 1.53-.66 2.2.11.56.64.06 1.22-.22 1.78-3.7 7.4-7.41 14.79-11.1 22.19-.38.76-.71 1.59-1.71 1.48-.89-.09-1.63-.71-1.6-1.61.08-2.76-1.99-3.62-3.91-4.57-2.53-1.25-5.18-2.17-7.95-2.82-9.57-2.24-19.21-3.85-29.08-3.67-4.17.07-8.28.57-12.25 1.89-1.9.63-3.72 1.49-5.2 2.87-3.18 2.97-2.8 6.33 1.03 8.46 3.26 1.81 6.92 2.24 10.55 2.6 9.75.97 19.54 1.54 29.23 3.08 8.23 1.31 16.34 2.96 23.41 7.77 8.75 5.95 11.92 14.35 10.71 24.51-1.75 14.61-11.37 22.12-24.51 26.22-15.87 4.95-32.04 5.1-48.32 2.62-8.53-1.3-17-2.92-25.09-6.08-2.81-1.1-5.56-1.49-8.01 2.5Zm242.46-61.08c0-8.12-.07-16.24.04-24.35.04-3.04-.02-5.74-3.97-6.07-.79-.07-1.19-.58-1.15-1.31.06-1.02.79-1.34 1.7-1.35 1-.01 2-.01 3-.01h29.45c1.16 0 2.33-.02 3.49.06.76.05 1.19.62 1.11 1.34-.04.42-.4 1.15-.64 1.16-4.91.27-4.57 3.69-4.56 7.13.06 14.91.01 29.82.04 44.73 0 3.14.11 6.23 1.12 9.31 1.64 4.98 4.95 8.19 9.78 9.81 8.12 2.72 16.35 2.75 24.49.11 6.7-2.17 10.25-7.01 11.06-13.89.19-1.64.22-3.31.22-4.96.02-15.41-.06-30.81.07-46.22.03-3.22-.45-5.59-4.21-5.92-.8-.07-1.17-.6-1.12-1.33.05-.72.5-1.21 1.26-1.27.83-.06 1.66-.07 2.49-.07h31.45c.83 0 1.68-.04 2.49.1.71.12 1.06.67 1.09 1.43.02.62-.38 1.03-.82 1.07-4.56.41-4.28 3.6-4.27 6.89.07 15.9.11 31.81 0 47.71-.07 9.12-2.19 17.71-7.71 25.21-6.25 8.5-15.13 12.54-25.15 14.76-8.18 1.82-16.45 2.48-24.76 1.9-7.8-.54-15.55-1.86-22.78-4.89-12.83-5.38-20.17-15.17-22.3-28.85-.71-4.59-.96-9.2-.93-13.84.05-6.13.01-12.26.01-18.39Zm-121.01-4.63c-1.19-.7-1.09-1.57-1.09-2.37V2.85c0-.66-.03-1.34.12-1.98.1-.43.38-.97 1.02-.81.3.07.79.29.81.47.5 5.49 4.61 4.6 8.19 4.6h83.36c.67 0 1.34-.06 2 .01 2.86.31 4.93-.45 5.3-3.69.11-.93.6-1.57 1.62-1.44 1.03.14 1.22.93 1.22 1.83v29.81c0 .9-.25 1.66-1.3 1.75-1.07.09-1.45-.68-1.55-1.54-.37-3.3-2.53-3.72-5.34-3.69-9.64.1-19.28.04-28.72.04-1.02 1-.83 2.03-.83 3.01 0 21.04 0 42.07-.02 63.11 0 3.06-.37 6.2 4.16 6.3.62.01.96.81.89 1.56-.09.93-.47 1.56-1.5 1.59-.83.02-1.66.02-2.5.02-10.32 0-20.63.02-30.95.02h-2c-.92.01-1.62-.29-1.76-1.3-.12-.89.07-1.89 1.03-1.93 4.43-.15 4.29-3.25 4.29-6.31l-.12-61.11c0-.83-.04-1.66 0-2.48.08-1.59-.47-2.54-2.24-2.47-1 .04-2-.01-2.99-.01-7.82 0-15.65.16-23.46-.07-3.65-.11-6.18.62-6.77 4.62-.04.24-.46.42-.87.78Zm414.96 7.21c7.11-9.72 13.89-18.92 20.1-28.52 1.85-2.85 1.77-2.96-1.43-4.46-.67-.31-1.21-.55-1.17-1.3.05-1.02.76-1.37 1.69-1.37 3.5-.01 6.99-.02 10.49-.02h19.48c.99 0 2.01 0 2.97.19 1.08.22 1.45 1.74.52 2.28-5.04 2.88-7.2 8.15-10.38 12.49-9.4 12.84-18.48 25.92-27.75 38.85-1.11 1.55-1.82 3.04-1.81 4.99.06 10.61.08 21.21 0 31.82-.02 2.73.71 4.52 3.74 4.76 1.22.1 1.76.99 1.53 2.08-.18.85-.96 1.27-1.9 1.27-2-.02-4 0-5.99 0H520.9c-1.17 0-2.34.07-3.49-.07-.67-.08-1.05-.69-1.15-1.43-.1-.75.17-1.33.79-1.66.42-.22.96-.22 1.44-.32 1.91-.41 2.79-1.6 2.79-3.53-.01-10.11-.04-20.22.03-30.33.01-2.06-1.26-3.38-2.27-4.84-8.43-12.11-16.91-24.17-25.38-36.25-3.24-4.61-6.45-9.24-9.73-13.83-.95-1.33-1.72-2.88-3.3-3.65-.85-.41-1.37-.93-.99-1.9.38-.98 1.29-.89 2.1-.89h36.46c.49 0 1.04-.03 1.45.18.39.2.76.66.88 1.07.13.44-.04.99-.58 1.22-.3.12-.65.11-.95.23-3.12 1.25-3.35 1.66-1.54 4.58 2.44 3.94 5.05 7.79 7.67 11.62 3.74 5.46 7.56 10.87 11.67 16.77ZM930.13 3.89c9.6.08 17.87 8.33 17.8 17.76-.07 9.29-8.62 17.46-18.18 17.37-9.37-.09-17.4-8.16-17.45-17.54-.05-9.67 8.06-17.68 17.83-17.59Zm14.89 17.82c.09-8.63-6.36-15.26-14.89-15.32-8.51-.06-15.19 6.53-15.23 15.01-.04 8.06 6.64 15.2 14.67 15.2 9.69 0 15.71-7.78 15.45-14.89Z"/><path d="M930.7 22.37c2.22 3.08 4.14 5.75 6.14 8.52-1.2.98-2.18.89-3.02-.13-.95-1.15-1.77-2.4-2.69-3.57-1.11-1.4-1.76-3.19-4.01-4.47-.06 2.65-.09 4.97-.16 7.29-.03.95-.49 1.58-1.51 1.49-.72-.07-1.2-.54-1.21-1.31-.02-5.79-.03-11.59-.05-17.38 0-1.15.56-1.78 1.69-2.09 2.12-.58 4.19-.91 6.34-.06 2.2.86 3.61 2.26 3.92 4.66.34 2.54-.45 4.56-2.73 5.86-.71.4-1.49.66-2.73 1.19Zm-3.71-6.34c-.04 3.65.19 4.1 2.04 4.07 2.71-.05 4.89-1.82 4.85-3.95-.04-1.97-2.06-3.4-4.64-3.49-2.71-.09-2.2 1.79-2.25 3.37Z"/></g><path fill="#bb2020" d="M690.08 40.56c-1.29 1.27-.9 2.3-.9 3.21-.03 17.22-.03 34.45-.01 51.68 0 3.59.02 3.63 3.74 4.89 1 .34 1.27.89 1.18 1.8-.08.81-.62 1.09-1.35 1.14-.33.02-.66.03-1 .03h-30.95c-.33 0-.67-.01-1-.02-1-.02-1.53-.54-1.52-1.51 0-.7.31-1.3 1.1-1.39 1.31-.14 2.71 0 3.5-1.4.7-1.24.37-2.59.37-3.89.02-27.16-.04-54.33.08-81.49.01-3.21-.38-5.5-4.06-5.92-.8-.09-1.03-.76-1-1.45.04-.71.4-1.24 1.17-1.33.49-.06 1-.06 1.49-.06h39.43c.5 0 1 .02 1.5.05.78.04 1.17.5 1.28 1.23.1.71-.08 1.42-.84 1.54-1.52.23-2.82.81-4.19 2.09 3.41 4.18 6.7 8.45 10.23 12.51 3.9 4.49 8.14 8.69 12.03 13.19 5.74 6.65 11.89 12.9 18.16 19.04 1.51 1.48 1.99 3.88 4.47 4.76.05-1.11.14-2.08.14-3.06 0-14.41.01-28.82 0-43.23 0-2.1.52-4.42-2.36-5.32-.66-.21-.76-.98-.62-1.69.16-.8.72-1.04 1.43-1.07 1-.03 2-.03 2.99-.03h24.96c1.16 0 2.34-.03 3.49.09.74.08 1.1.73 1.01 1.44-.06.44-.37 1.19-.62 1.2-4.91.34-4.35 3.86-4.35 7.17.03 26.33.01 52.67.01 79v1.99c.06 3.45.05 3.5 3.54 4.56.94.29 1.46.65 1.39 1.64-.08 1.03-.76 1.35-1.69 1.36-2.16 0-4.33.01-6.49.01h-25.46c-1.01 0-2.08.02-2.17-1.38-.09-1.37.9-1.39 1.92-1.66 2.22-.58 2.38-1.09 1.56-2.95-.61-1.4-1.61-2.48-2.67-3.54-3.63-3.64-7.42-7.15-10.81-11.01-7.51-8.55-15.68-16.51-22.83-25.38-.52-.64-1.17-1.17-1.74-1.78-3.27-3.51-6.91-6.66-9.7-10.61-1.13-1.6-2.59-2.96-3.9-4.43Zm129.94-.28c-1.15 1.48-.91 2.51-.91 3.48-.01 17.23-.02 34.45 0 51.68 0 3.52.03 3.56 3.77 4.91.99.36 1.25.92 1.13 1.83-.11.81-.68 1.06-1.39 1.1-.66.04-1.33.04-2 .04h-27.96c-.83 0-1.67.02-2.49-.09-.76-.1-1.08-.69-1.09-1.4-.01-.71.32-1.16 1.04-1.45 3.95-1.58 3.95-1.6 3.96-5.75V22.57c0-3.31.02-6.63 0-9.94-.03-3.73-.04-3.78-3.54-4.77-1.09-.31-2.56-.02-2.24-1.81.3-1.67 1.75-1.16 2.81-1.19 2.66-.06 5.32-.02 7.99-.02h30.45c1.16 0 2.34-.04 3.49.11.73.1 1.06.8.92 1.5-.08.43-.42.83-.69 1.2-.07.09-.32.03-.48.08-4.49 1.55-4.65 2.06-1.5 5.7 6.37 7.38 12.95 14.57 19.55 21.75 6.37 6.93 12.47 14.11 19.13 20.77 1.14 1.14 2.04 2.61 4.05 3.22v-46.3c0-2.33.38-4.82-3.03-5.21-.79-.09-.98-.79-.92-1.49.09-1.03.79-1.33 1.71-1.33h30.95c1.04 0 2.05.07 2.11 1.45.04 1.03-.62 1.36-1.55 1.52-3.7.63-4.38 2.98-4.36 6.45.14 26.83.08 53.67.08 80.5 0 .5.03 1 0 1.49-.15 2.26.4 3.98 3.11 4.04 1.11.03 2 .32 1.85 1.68-.15 1.38-1.23 1.32-2.23 1.32h-30.45c-.99 0-2.08.1-2.22-1.31-.14-1.35.8-1.44 1.84-1.73 2.59-.73 2.82-1.56.9-3.63-5.52-5.95-11.3-11.66-16.64-17.75-8.16-9.31-17.19-17.82-24.95-27.5-3.06-3.82-6.62-7.24-10.19-11.11ZM621.77 4.85h17.45c.82 0 1.72-.02 1.96 1.04.28 1.24-.32 1.75-1.53 1.95-2.78.46-3.45 2.18-3.44 4.92.1 27.63.06 55.27.07 82.9 0 3.54.04 3.59 3.47 4.63.91.27 1.53.59 1.5 1.57-.03.99-.66 1.42-1.62 1.43-1 .01-1.99.02-2.99.02h-28.92c-1.16 0-2.33 0-3.48-.12-.44-.05-.85-.41-.93-1-.1-.71.03-1.63.66-1.65 4.82-.19 4.26-3.66 4.26-6.77V13.84c0-4.48-.02-4.51-4.56-6.08-.96-.33-1.33-.81-1.21-1.77.1-.82.67-1.08 1.37-1.12 1-.05 1.99-.04 2.99-.04h14.96Z"/></svg>