<svg xmlns="http://www.w3.org/2000/svg" viewBox="0 0 315.55 103.07"><path fill="#fff" d="M6.48 35.69L0 53.47h22.77l6.48-17.78H6.48zM35.73 17.9l-6.48 17.79h22.77L58.5 17.9H35.73zM22.77 53.47l-6.6 18.15h22.77l6.61-18.15H22.77zM87.83 0H65.01L58.5 17.9h22.81L87.83 0zM42.24 0H19.43l-6.52 17.9h22.81L42.24 0z"/><path d="M302.52 35.81L315.55 0H110.37l-6.52 17.9H81.31l-6.47 17.79H52.02l-6.47 17.78h22.82l-6.61 18.15h90.95l6.52-17.91H90.82l13.04-35.81h91.32l.04-.12h.01l-19.59 53.84h22.82l19.55-53.72h68.24l-6.51 17.91H234.2l-6.51 17.9h45.53l6.52 17.91h22.77l-6.52-17.91h-22.76l6.52-17.9h22.77zM71.37 89.9h5.88a6.48 6.48 0 013.43.8 3.6 3.6 0 011.7 2.3 5.79 5.79 0 01-.35 3.4 9.33 9.33 0 01-2.13 3.4 10.29 10.29 0 01-7.36 3.08h-5.89zm1.91 10.48a6 6 0 005.72-4 2.66 2.66 0 00-2.79-4h-2.74l-2.92 8zm23.26.06l-.88 2.41h-10l4.69-12.95h9.78l-.87 2.4h-6.81l-1 2.81h6l-.85 2.33h-6l-1.09 3zm22.19-10.54l-10.32 12.95h-3l-.88-12.95h3.24l.58 9.25 7.36-9.25zm10.96 10.54l-.88 2.41h-10l4.69-12.95h9.79l-.88 2.4h-6.81l-1 2.81h6l-.85 2.33h-6l-1.09 3zm9.92-10.54h3l-3.83 10.5h6.5l-.89 2.45h-9.49zm12.81 12.3a3.84 3.84 0 01-1.66-2.4 6 6 0 01.33-3.43 9.83 9.83 0 012.17-3.43 10.83 10.83 0 013.4-2.4 9.57 9.57 0 014-.87 5.78 5.78 0 013.3.87 3.89 3.89 0 011.67 2.4 5.9 5.9 0 01-.33 3.43 9.55 9.55 0 01-2.17 3.43 11 11 0 01-3.41 2.4 9.44 9.44 0 01-3.94.87 5.88 5.88 0 01-3.36-.87zm6.51-2.21a6.48 6.48 0 003.3-3.62 4 4 0 00.25-2.15 2.29 2.29 0 00-.91-1.47 3.16 3.16 0 00-1.88-.52 5.29 5.29 0 00-2.27.52 6.9 6.9 0 00-2 1.47 6.32 6.32 0 00-1.3 2.15 4.09 4.09 0 00-.26 2.15 2.29 2.29 0 00.92 1.47 3.14 3.14 0 001.88.52 5.25 5.25 0 002.27-.51zM182 90.47a2.6 2.6 0 011.36 1.63 4 4 0 01-.22 2.49 6.81 6.81 0 01-1.59 2.49 7.38 7.38 0 01-2.55 1.63 8.74 8.74 0 01-3.19.57h-2.61l-1.3 3.57h-3l4.72-12.95h5.6a5.84 5.84 0 012.78.57zm-3.2 5.78a3.18 3.18 0 001.3-1.66 1.6 1.6 0 00-.09-1.67 2.33 2.33 0 00-1.84-.58h-2.45l-1.63 4.49h2.44a4.14 4.14 0 002.23-.58zm18.91 6.6l2.81-7.77-6.15 6.4H193l-1.52-6.24-2.77 7.61h-2.81l4.71-12.95h2.48l1.92 8 7.7-8h2.46l-4.67 12.95zm20.48-2.41l-.88 2.41h-10L212 89.9h9.79l-.88 2.4h-6.81l-1 2.81h6l-.85 2.33h-6l-1.09 3zM240 89.9l-4.71 12.95h-2.46L229.22 95l-2.86 7.87h-3l4.71-12.95h2.48l3.58 7.86L237 89.9zm8.56 2.44h-4.15l.89-2.44h11.29l-.89 2.44h-4.15l-3.82 10.51h-3zm9.89 10.31a4.47 4.47 0 01-1.91-1.08l1.83-2.26a4.27 4.27 0 001.63 1 6.13 6.13 0 002.16.37 4.41 4.41 0 002-.38 1.87 1.87 0 001-1 .74.74 0 00-.08-.77 1.67 1.67 0 00-.75-.49 12.38 12.38 0 00-1.38-.41 16.74 16.74 0 01-2.16-.7 2.34 2.34 0 01-1.21-1.13 2.59 2.59 0 01.08-2.07 5.31 5.31 0 011.35-2 6.83 6.83 0 012.37-1.45 9 9 0 013.2-.54 8.62 8.62 0 012.32.3 4.82 4.82 0 011.76.85l-1.75 2.28a5.41 5.41 0 00-3.22-1 4.12 4.12 0 00-2 .41 2 2 0 00-1 1.07.73.73 0 00.33 1 8.22 8.22 0 001.89.64 16 16 0 012.17.7 2.38 2.38 0 011.21 1.01 2.54 2.54 0 01-.07 2 5.31 5.31 0 01-1.36 2 6.83 6.83 0 01-2.39 1.45 9.72 9.72 0 01-6 .12z"/></svg>