<svg xmlns="http://www.w3.org/2000/svg" width="1346.309" height="294.72"><path data-name="Kształt 26" d="M27.635 146.86L.003 220.05h97.154l27.633-73.19H27.635zm124.787-73.18l-27.632 73.18h97.154l27.633-73.18h-97.155zM97.175 220.05l-28.181 74.67h97.155l28.18-74.67H97.175zM374.718 0H277.38l-27.8 73.68h97.338zm-194.5 0H82.879l-27.8 73.68h97.339zm1110.481 147.36L1346.309 0H470.888l-27.8 73.68h-96.17l-27.615 73.18h-97.359l-27.615 73.19h97.356l-28.179 74.67h388.036l27.8-73.68H387.501l55.607-147.36h389.621l.19-.5h.04l-83.6 221.54h97.36l83.41-221.04h291.18l-27.8 73.68h-194.27l-27.81 73.68h194.28l27.8 73.68h97.15l-27.8-73.68h-97.12l27.81-73.68h97.15z" fill="#2b2b2b" fill-rule="evenodd"/></svg>