<?xml version="1.0" encoding="UTF-8"?> <svg xmlns="http://www.w3.org/2000/svg" width="2020" height="256" viewBox="0 0 2020 256" fill="none"><g clip-path="url(#clip0_2_22)"><path d="M219.617 250C203.269 250 187.08 246.767 171.976 240.485C156.871 234.203 143.147 224.995 131.586 213.388C120.026 201.781 110.856 188.001 104.6 172.835C98.3437 157.67 95.1235 141.415 95.1235 125C95.1235 108.585 98.3437 92.3302 104.6 77.1645C110.856 61.9988 120.026 48.219 131.586 36.6116C143.147 25.0043 156.871 15.7969 171.976 9.51504C187.08 3.23321 203.269 0 219.617 0V250Z" fill="#05E27E"></path><path d="M376.498 250C445.812 250 502.006 194.035 502.006 125C502.006 55.9644 445.812 0 376.498 0C307.184 0 250.994 55.9644 250.994 125C250.994 194.035 307.184 250 376.498 250Z" fill="#05E27E"></path><path d="M63.7469 233.805V17.2061C44.669 28.1752 28.8253 43.9594 17.8096 62.9708C6.79308 81.9821 0.993896 103.55 0.993896 125.506C0.993896 147.461 6.79308 169.029 17.8096 188.041C28.8253 207.052 44.669 222.837 63.7469 233.805Z" fill="#05E27E"></path><path d="M601.144 38.5666V60.1406C604.363 53.1636 609.654 47.3496 616.296 43.4886C622.939 39.6286 630.611 37.9096 638.266 38.5666C643.058 38.5266 647.837 39.0936 652.487 40.2536C656.381 41.3096 660.142 42.8056 663.696 44.7136L651.644 76.4106C649.048 74.7126 646.256 73.3366 643.328 72.3136C639.427 71.1146 635.352 70.5846 631.275 70.7466C627.217 70.4596 623.144 71.0546 619.337 72.4896C615.53 73.9256 612.078 76.1676 609.219 79.0626C603.453 86.8216 600.75 96.4336 601.626 106.06V183.196H568V38.5666H601.144Z" fill="#1F2226"></path><path d="M1017.92 0V55.682C1022.86 49.409 1029.17 44.34 1036.36 40.857C1047.34 35.822 1059.58 34.164 1071.51 36.095C1083.44 38.027 1094.53 43.46 1103.37 51.705C1114.13 64.356 1119.57 80.684 1118.55 97.263V183.196H1084.45V100.878C1084.84 91.473 1081.94 82.225 1076.25 74.725C1073.22 71.401 1069.48 68.798 1065.31 67.109C1061.13 65.42 1056.64 64.686 1052.15 64.962C1047.64 64.94 1043.18 65.8 1039.01 67.493C1034.93 69.218 1031.27 71.809 1028.28 75.086C1025.11 78.592 1022.65 82.687 1021.05 87.139C1019.29 92.587 1018.43 98.287 1018.52 104.012V183.196H984.532V0H1017.92Z" fill="#1F2226"></path><path fill-rule="evenodd" clip-rule="evenodd" d="M1156.94 165.932C1163.52 172.306 1171.31 177.305 1179.84 180.636C1188.04 183.956 1196.79 185.675 1205.63 185.698C1214.87 185.785 1224.01 183.809 1232.39 179.913C1240.32 176.312 1247.26 170.855 1252.64 164.004V182.926H1286.02V38.2971H1252.64V55.0501C1247.21 48.6271 1240.36 43.5521 1232.63 40.2261C1224.29 36.5101 1215.25 34.6201 1206.12 34.6811C1197.03 34.7281 1188.04 36.4861 1179.6 39.8641C1171 43.1361 1163.17 48.1411 1156.58 54.5681C1149.63 61.4101 1144.17 69.6171 1140.55 78.6731C1136.3 88.7741 1134.2 99.6531 1134.4 110.612C1134.27 121.342 1136.41 131.98 1140.67 141.827C1144.41 150.881 1149.94 159.082 1156.94 165.932ZM1210.89 156.68C1235.47 156.68 1255.39 136.309 1255.39 111.18C1255.39 86.0512 1235.47 65.6801 1210.89 65.6801C1186.32 65.6801 1166.39 86.0512 1166.39 111.18C1166.39 136.309 1186.32 156.68 1210.89 156.68Z" fill="#1F2226"></path><path d="M1337.55 38.5674V60.1414C1340.74 53.1744 1346.01 47.3634 1352.64 43.5024C1359.26 39.6414 1366.91 37.9184 1374.55 38.5674C1383.45 38.3814 1392.25 40.4984 1400.1 44.7134L1388.05 76.4114C1385.48 74.6654 1382.68 73.2864 1379.73 72.3134C1375.83 71.0944 1371.76 70.5644 1367.68 70.7474C1363.6 70.4584 1359.51 71.0524 1355.68 72.4874C1351.86 73.9224 1348.38 76.1654 1345.5 79.0634C1339.78 86.8384 1337.12 96.4494 1338.03 106.06V183.196H1304.28V38.5674H1337.55Z" fill="#1F2226"></path><path d="M1551.36 38.5668H1517.97V56.6459C1512.55 50.0309 1505.71 44.7179 1497.96 41.0979C1489.68 37.1959 1480.61 35.2579 1471.45 35.4339C1462.32 35.4169 1453.27 37.1769 1444.81 40.6159C1436.26 43.9629 1428.47 49.0048 1421.91 55.4408C1415.04 62.3238 1409.63 70.5229 1406 79.5459C1401.92 89.4799 1399.91 100.143 1400.1 110.882C1399.95 121.77 1402.08 132.568 1406.37 142.58C1410.22 151.627 1415.83 159.821 1422.88 166.685C1429.48 173.031 1437.26 178.026 1445.78 181.388C1454.04 184.61 1462.82 186.285 1471.69 186.33C1481.09 186.238 1490.35 184.056 1498.81 179.942C1506.73 176.164 1513.63 170.543 1518.94 163.551C1518.94 216.099 1499.41 223.813 1461.2 224.536C1461.2 234.299 1461.2 247.436 1461.2 255.27C1471.33 255.27 1477.96 255.27 1489.17 255.27C1525.32 254.426 1551.36 215.376 1551.24 182.955L1551.36 38.5668ZM1516.89 127.876C1514.71 133.136 1511.65 137.986 1507.85 142.218C1504.05 146.367 1499.4 149.655 1494.23 151.86C1488.78 154.167 1482.91 155.356 1476.99 155.356C1471.07 155.356 1465.21 154.167 1459.76 151.86C1454.46 149.607 1449.67 146.313 1445.68 142.171C1441.68 138.03 1438.56 133.128 1436.5 127.755C1434.32 122.394 1433.17 116.669 1433.12 110.882C1433.05 104.888 1434.2 98.9419 1436.5 93.4059C1438.54 88.0899 1441.7 83.2799 1445.78 79.3049C1449.78 75.2849 1454.53 72.0909 1459.76 69.9039C1465.21 67.5959 1471.07 66.4079 1476.99 66.4079C1482.91 66.4079 1488.78 67.5959 1494.23 69.9039C1499.4 72.0669 1504.04 75.3139 1507.85 79.4249C1515.66 88.0308 1519.96 99.2569 1519.9 110.882C1519.95 116.684 1518.93 122.445 1516.89 127.876Z" fill="#1F2226"></path><path d="M1644.64 185.968C1634 186.096 1623.43 184.13 1613.55 180.183C1604.56 176.607 1596.4 171.235 1589.56 164.396C1582.72 157.558 1577.35 149.396 1573.77 140.41C1566.22 121.449 1566.22 100.314 1573.77 81.3526C1577.49 72.3496 1582.94 64.1616 1589.8 57.2476C1596.74 50.4156 1604.92 44.9746 1613.91 41.2186C1623.22 37.1786 1633.28 35.1266 1643.44 35.1916C1653.63 35.1156 1663.75 37.0396 1673.21 40.8566C1682.26 44.2626 1690.47 49.5636 1697.31 56.4046C1704.05 63.3206 1709.34 71.5166 1712.86 80.5096C1716.59 89.9456 1718.47 100.012 1718.4 110.158V122.934H1600.17C1602.3 132.447 1607.62 140.949 1615.23 147.039C1623.63 153.518 1634.04 156.845 1644.64 156.44H1658.38V185.848L1644.64 185.968ZM1617.28 72.9156C1610.07 78.3706 1604.68 85.8966 1601.85 94.4896H1684.05C1682.07 85.6236 1676.98 77.7586 1669.71 72.3136C1661.94 67.1646 1652.76 64.5546 1643.44 64.8406C1634.07 64.6056 1624.88 67.4416 1617.28 72.9156Z" fill="#1F2226"></path><path d="M946.446 129.683L942.71 128.237C939.546 135.688 934.475 142.173 928.006 147.039C921.047 152.197 912.559 154.871 903.901 154.632C898.016 154.663 892.188 153.473 886.786 151.137C881.661 148.886 877.001 145.698 873.047 141.736C869.136 137.745 866.098 132.984 864.128 127.755C861.957 122.396 860.851 116.664 860.874 110.882C860.835 105.02 861.941 99.2062 864.128 93.7672C866.098 88.5382 869.136 83.7771 873.047 79.7861C876.958 75.8281 881.578 72.6391 886.666 70.3861C892.022 68.0381 897.812 66.8471 903.66 66.8901C912.243 66.6611 920.68 69.1502 927.765 74.0012C934.605 78.6482 939.895 85.2391 942.951 92.9241L948.615 90.3932L960.065 85.5722L972.117 80.1481C966.587 67.1771 957.42 56.0841 945.723 48.2091C939.738 44.1021 933.206 40.8571 926.318 38.5671C918.892 36.3251 911.176 35.1882 903.419 35.1932C893.278 35.1472 883.233 37.1562 873.89 41.0982C864.857 44.7622 856.658 50.2152 849.786 57.1282C842.91 64.0312 837.463 72.2222 833.756 81.2332C826.046 100.122 826.046 121.28 833.756 140.169C837.42 149.202 842.872 157.401 849.786 164.274C856.724 171.106 864.906 176.548 873.89 180.304C883.216 184.302 893.273 186.313 903.419 186.209C911.358 186.355 919.276 185.34 926.921 183.196C933.888 181.024 940.504 177.858 946.566 173.795C952.398 169.672 957.595 164.718 961.993 159.091C966.398 153.465 970.082 147.311 972.961 140.772L963.801 136.794L946.446 129.683Z" fill="#1F2226"></path><path d="M778.435 134.986C775.157 140.713 770.573 145.585 765.057 149.208C757.891 153.859 749.494 156.253 740.952 156.078C730.444 156.491 720.123 153.207 711.785 146.797C704.178 140.701 698.866 132.202 696.72 122.692H813.508V110.64C813.605 100.58 811.763 90.5959 808.084 81.2319C804.554 72.4859 799.309 64.5359 792.657 57.8499C785.999 51.1349 778.044 45.8449 769.275 42.3029C759.903 38.0549 749.79 35.6799 739.506 35.3119C729.651 35.2529 719.884 37.1629 710.778 40.9299C701.671 44.6969 693.409 50.2449 686.475 57.2479C679.598 64.1009 674.221 72.3099 670.687 81.3529C666.833 90.7149 664.906 100.758 665.021 110.881C664.939 120.873 666.822 130.783 670.566 140.048C674.019 149.047 679.268 157.248 685.993 164.153C692.835 171.043 701.047 176.422 710.098 179.941C719.941 183.891 730.467 185.857 741.073 185.726C755.428 186.191 769.613 182.509 781.93 175.12C792.839 168.159 801.798 158.536 807.963 147.159L778.435 134.986ZM713.714 73.1569C721.123 67.5209 730.197 64.5109 739.506 64.5999C748.721 64.2489 757.805 66.8689 765.418 72.0719C772.729 77.3539 777.801 85.1779 779.64 94.0079H698.407C701.11 85.4489 706.472 77.9759 713.714 72.6749V73.1569Z" fill="#1F2226"></path><path d="M1703.89 185.68C1711.9 185.68 1718.39 179.188 1718.39 171.18C1718.39 163.172 1711.9 156.68 1703.89 156.68C1695.88 156.68 1689.39 163.172 1689.39 171.18C1689.39 179.188 1695.88 185.68 1703.89 185.68Z" fill="#1F2226"></path><path d="M1846.52 181.629C1841.99 179.798 1837.88 177.048 1834.47 173.554C1831.05 170.098 1828.35 166.003 1826.51 161.502C1824.53 156.833 1823.5 151.811 1823.5 146.738C1823.5 141.664 1824.53 136.642 1826.51 131.973C1828.38 127.488 1831.07 123.398 1834.47 119.921C1837.93 116.414 1842.06 113.637 1846.61 111.753C1851.17 109.869 1856.05 108.917 1860.98 108.953C1865.99 108.897 1870.96 109.882 1875.56 111.846C1880.07 113.722 1884.17 116.465 1887.62 119.921C1891.1 123.352 1893.84 127.452 1895.69 131.973C1899.54 141.439 1899.54 152.036 1895.69 161.502C1891.84 170.493 1884.68 177.656 1875.69 181.509C1871.08 183.473 1866.11 184.458 1861.1 184.401C1856.1 184.472 1851.14 183.529 1846.52 181.629ZM1869.42 167.046C1871.97 165.866 1874.26 164.195 1876.16 162.126C1878.07 160.058 1879.54 157.634 1880.51 154.994C1881.62 152.32 1882.19 149.453 1882.19 146.557C1882.19 143.622 1881.62 140.715 1880.51 138C1879.54 135.374 1878.02 132.988 1876.05 131.009C1874.21 128.969 1871.95 127.363 1869.42 126.309C1866.82 125.087 1863.97 124.469 1861.1 124.501C1858.23 124.496 1855.39 125.113 1852.79 126.309C1850.25 127.363 1847.99 128.969 1846.16 131.009C1844.22 133.021 1842.71 135.397 1841.7 138C1840.62 140.723 1840.09 143.63 1840.13 146.557C1840.09 149.445 1840.62 152.312 1841.7 154.994C1842.68 157.611 1844.2 159.993 1846.16 161.984C1847.99 164.024 1850.25 165.63 1852.79 166.684C1855.39 167.88 1858.23 168.497 1861.1 168.492C1863.95 168.638 1866.79 168.144 1869.42 167.046Z" fill="#1F2226"></path><path d="M1922.45 110.881V119.318C1924.83 116.309 1927.83 113.843 1931.25 112.086C1934.99 110.231 1939.12 109.32 1943.3 109.435C1948.28 109.271 1953.22 110.392 1957.64 112.689C1961.54 114.818 1964.72 118.045 1966.8 121.969C1969.21 118.128 1972.58 114.973 1976.56 112.809C1980.88 110.554 1985.68 109.395 1990.54 109.435C1994.56 109.165 1998.59 109.745 2002.37 111.136C2006.15 112.528 2009.59 114.699 2012.48 117.51C2017.72 123.721 2020.39 131.694 2019.95 139.807V183.195H2002.84V141.012C2002.96 136.672 2001.6 132.42 1998.98 128.959C1997.46 127.309 1995.59 126.027 1993.5 125.213C1991.41 124.398 1989.16 124.072 1986.93 124.259C1984.81 124.197 1982.71 124.583 1980.76 125.393C1978.81 126.204 1977.05 127.419 1975.6 128.959C1973.93 130.91 1972.67 133.171 1971.89 135.612C1971.1 138.053 1970.8 140.626 1971.02 143.181V183.195H1954.03V140.409C1954.19 136.064 1952.83 131.798 1950.17 128.357C1948.73 126.821 1946.96 125.625 1945.01 124.853C1943.05 124.082 1940.94 123.756 1938.84 123.897C1936.6 123.809 1934.38 124.192 1932.3 125.023C1930.22 125.853 1928.34 127.113 1926.79 128.718C1923.39 132.739 1921.7 137.931 1922.09 143.181V183.195H1905.45V110.881H1922.45Z" fill="#1F2226"></path><path d="M1805.18 155.837C1803.57 159.481 1801.04 162.639 1797.83 164.997C1794.36 167.602 1790.11 168.961 1785.77 168.854C1782.86 168.884 1779.98 168.266 1777.34 167.046C1774.73 165.995 1772.39 164.391 1770.47 162.346C1768.43 160.394 1766.86 158.003 1765.89 155.355C1764.71 152.736 1764.05 149.911 1763.96 147.039C1763.92 144.112 1764.45 141.205 1765.53 138.482C1766.53 135.848 1768.09 133.464 1770.11 131.491C1771.98 129.449 1774.29 127.844 1776.86 126.791C1779.41 125.647 1782.17 125.03 1784.97 124.977C1787.78 124.924 1790.56 125.436 1793.16 126.482C1795.75 127.528 1798.12 129.087 1800.1 131.066C1802.08 133.045 1803.65 135.403 1804.7 138L1819.64 131.491C1818.26 128.319 1816.43 125.357 1814.22 122.693C1812.01 119.96 1809.41 117.565 1806.5 115.582C1800.15 111.476 1792.74 109.3 1785.17 109.315C1780.22 109.263 1775.31 110.207 1770.74 112.091C1766.16 113.975 1762.01 116.761 1758.54 120.283C1755.15 123.786 1752.41 127.868 1750.46 132.335C1746.61 141.801 1746.61 152.398 1750.46 161.864C1752.38 166.347 1755.12 170.435 1758.54 173.916C1761.99 177.333 1766.09 180.036 1770.59 181.871C1775.22 183.917 1780.23 184.945 1785.29 184.884C1789.37 184.922 1793.43 184.354 1797.34 183.196C1800.83 182.174 1804.13 180.586 1807.11 178.496C1810.04 176.503 1812.64 174.062 1814.82 171.264C1817.08 168.545 1818.91 165.497 1820.24 162.225L1805.18 155.837Z" fill="#1F2226"></path></g><defs><clipPath id="clip0_2_22"><rect width="2020" height="256" fill="white"></rect></clipPath></defs></svg> 