<svg width="250" height="40" viewBox="0 0 250 40" fill="none" xmlns="http://www.w3.org/2000/svg">
<path fill-rule="evenodd" clip-rule="evenodd" d="M26.1994 1.69862C18.2595 2.72706 12.1261 9.5211 12.1261 17.7494C12.1261 25.9778 18.2595 32.7718 26.1994 33.8003C26.8853 33.8891 27.5846 33.9349 28.2947 33.9349V1.56396C27.5846 1.56396 26.8853 1.60978 26.1994 1.69862ZM26.1994 3.81653C19.4206 4.8294 14.2214 10.6815 14.2214 17.7494C14.2214 24.8174 19.4206 30.6695 26.1994 31.6823V3.81653ZM48.5051 3.66146C40.7325 3.66146 34.4318 9.96871 34.4318 17.7494C34.4318 25.5302 40.7325 31.8374 48.5051 31.8374C56.2777 31.8374 62.5783 25.5302 62.5783 17.7494C62.5783 9.96871 56.2777 3.66146 48.5051 3.66146ZM5.98897 30.3192C6.64669 30.8533 7.3471 31.3368 8.08427 31.7638V3.73456C7.3471 4.16164 6.64669 4.64521 5.98897 5.17937C2.3359 8.14618 0 12.6735 0 17.7494C0 22.8253 2.3359 27.3527 5.98897 30.3192ZM5.98897 27.4722V8.02645C3.57517 10.5558 2.0953 13.9798 2.0953 17.7494C2.0953 21.5191 3.5752 24.9431 5.98897 27.4722ZM32.3365 17.7494C32.3365 8.8103 39.5753 1.56396 48.5051 1.56396C57.4349 1.56396 64.6736 8.8103 64.6736 17.7494C64.6736 26.6886 57.4349 33.9349 48.5051 33.9349C39.5753 33.9349 32.3365 26.6886 32.3365 17.7494Z" fill="#ffffff"/>
<path d="M77.9746 6.00635V9.37756C79.0154 7.1289 80.9195 6.00635 83.6869 6.00635C84.4979 6.00635 85.2289 6.09842 85.8764 6.27902C86.5238 6.45962 87.1016 6.69334 87.6099 6.97663L85.6675 11.9343C85.2881 11.6758 84.8599 11.4633 84.3935 11.2933C83.9236 11.1269 83.3214 11.0419 82.5834 11.0419C81.0866 11.0419 79.9483 11.4739 79.1756 12.3415C78.4028 13.2056 78.0129 14.622 78.0129 16.5839V28.6699H72.8716V6.00635H77.9746Z" fill="#ffffff"/>
<path d="M119.955 28.2061C118.545 27.5863 117.32 26.7471 116.279 25.6883C115.239 24.6294 114.421 23.383 113.822 21.9488C113.227 20.5146 112.927 18.9848 112.927 17.3594C112.927 15.734 113.227 14.1617 113.822 12.7275C114.417 11.2934 115.239 10.0398 116.279 8.97034C117.32 7.89736 118.545 7.0581 119.955 6.45256C121.365 5.84702 122.883 5.54248 124.505 5.54248C125.751 5.54248 126.924 5.716 128.028 6.06657C129.131 6.41361 130.14 6.89875 131.056 7.51846C131.971 8.13817 132.769 8.87473 133.454 9.72816C134.14 10.5816 134.697 11.5235 135.129 12.5576L130.52 14.5335C130.012 13.2941 129.232 12.3061 128.177 11.5696C127.123 10.833 125.911 10.4647 124.54 10.4647C123.6 10.4647 122.73 10.6453 121.932 11.0065C121.135 11.3677 120.436 11.8599 119.837 12.4797C119.242 13.0994 118.779 13.8288 118.448 14.6681C118.117 15.5074 117.954 16.4033 117.954 17.3594C117.954 18.3155 118.117 19.1725 118.448 20.0118C118.779 20.851 119.242 21.5805 119.837 22.2002C120.432 22.8199 121.139 23.3121 121.95 23.6733C122.761 24.0345 123.638 24.2151 124.578 24.2151C126.026 24.2151 127.262 23.8221 128.292 23.0324C129.322 22.2462 130.088 21.2299 130.596 19.9905L135.205 22.0054C134.774 23.0395 134.213 23.9956 133.527 24.8738C132.842 25.752 132.048 26.5063 131.146 27.1402C130.245 27.774 129.235 28.2627 128.118 28.6133C127.001 28.9639 125.796 29.1374 124.501 29.1374C122.876 29.1374 121.358 28.8258 119.952 28.2061" fill="#ffffff"/>
<path d="M142.135 0V8.7184C142.897 7.73749 143.84 6.96197 144.972 6.39184C146.099 5.82525 147.377 5.53841 148.797 5.53841C151.564 5.53841 153.73 6.39184 155.289 8.09515C156.852 9.79846 157.632 12.1746 157.632 15.2236V28.6659H152.375V15.8043C152.375 14.0231 151.958 12.6208 151.119 11.6009C150.28 10.5811 149.023 10.0711 147.349 10.0711C146.639 10.0711 145.967 10.2057 145.33 10.4784C144.697 10.751 144.143 11.1441 143.673 11.6611C143.203 12.1781 142.834 12.8226 142.57 13.5981C142.302 14.3737 142.169 15.2519 142.169 16.2328V28.6694H136.99V0H142.131H142.135Z" fill="#ffffff"/>
<path d="M167.093 28.3407C165.784 27.8131 164.611 27.0411 163.57 26.0354C162.53 25.0262 161.691 23.7939 161.057 22.3349C160.424 20.8759 160.107 19.2151 160.107 17.356C160.107 15.4969 160.417 13.7971 161.04 12.3381C161.663 10.8792 162.488 9.64684 163.515 8.6376C164.542 7.62836 165.722 6.85993 167.055 6.33229C168.388 5.80465 169.753 5.53906 171.148 5.53906C172.621 5.53906 173.978 5.82236 175.225 6.39249C176.467 6.95908 177.498 7.7346 178.309 8.71905V6.0065H183.45V28.6701H178.309V25.7274C177.498 26.7862 176.457 27.6183 175.186 28.2274C173.916 28.833 172.544 29.1375 171.072 29.1375C169.725 29.1375 168.399 28.8719 167.093 28.3443M174.577 23.7903C175.388 23.4291 176.088 22.9263 176.673 22.2782C177.257 21.6337 177.72 20.883 178.062 20.0296C178.403 19.1762 178.577 18.259 178.577 17.2781C178.577 16.2972 178.406 15.419 178.062 14.5655C177.72 13.7121 177.254 12.972 176.673 12.3381C176.088 11.7043 175.392 11.2085 174.577 10.8473C173.763 10.4861 172.875 10.3055 171.911 10.3055C170.947 10.3055 170.09 10.4861 169.265 10.8473C168.44 11.2085 167.723 11.7007 167.114 12.3204C166.505 12.9401 166.028 13.6767 165.687 14.5301C165.346 15.3836 165.172 16.3007 165.172 17.2816C165.172 18.2625 165.342 19.1868 165.687 20.0508C166.028 20.9149 166.505 21.6656 167.114 22.2995C167.723 22.9334 168.44 23.4291 169.265 23.7903C170.09 24.1515 170.974 24.3321 171.911 24.3321C172.847 24.3321 173.766 24.1515 174.577 23.7903Z" fill="#ffffff"/>
<path d="M191.338 6.00635V9.37756C192.379 7.1289 194.283 6.00635 197.051 6.00635C197.865 6.00635 198.593 6.09842 199.24 6.27902C199.888 6.45962 200.465 6.69334 200.974 6.97663L199.031 11.9343C198.652 11.6758 198.224 11.4633 197.754 11.2933C197.284 11.1269 196.682 11.0419 195.944 11.0419C194.447 11.0419 193.309 11.4739 192.536 12.3415C191.763 13.2056 191.373 14.622 191.373 16.5839V28.6699H186.232V6.00635H191.335H191.338Z" fill="#ffffff"/>
<path d="M224.258 6.0065H219.117L219.13 8.87486C218.312 7.84438 217.279 7.0299 216.032 6.43144C214.786 5.82944 213.425 5.53552 211.953 5.54261C210.557 5.54969 209.192 5.82236 207.863 6.35708C206.533 6.89534 205.356 7.66732 204.333 8.68009C203.31 9.69287 202.492 10.9323 201.875 12.3948C201.259 13.8573 200.96 15.5323 200.967 17.4162C200.977 19.2753 201.305 20.9326 201.945 22.388C202.589 23.8434 203.431 25.0722 204.479 26.0744C205.527 27.0765 206.703 27.8379 208.012 28.362C209.321 28.8861 210.651 29.1411 211.995 29.134C213.491 29.1269 214.873 28.8082 216.14 28.1814C217.407 27.5546 218.441 26.6976 219.249 25.607L219.263 25.6176C219.301 33.8473 216.266 35.1363 210.376 35.1681C210.383 36.6873 210.393 38.7554 210.4 39.9842C211.946 39.9771 212.98 40.0231 214.71 39.9842C220.314 39.8567 224.279 33.734 224.251 28.6736V6.0065H224.258ZM218.953 20.0296C218.612 20.883 218.145 21.6302 217.564 22.2747C216.979 22.9192 216.283 23.4256 215.468 23.7868C214.654 24.148 213.766 24.3286 212.802 24.3286C211.838 24.3286 210.982 24.148 210.157 23.7868C209.332 23.4256 208.615 22.9263 208.005 22.2959C207.396 21.6621 206.919 20.9149 206.578 20.0508C206.234 19.1868 206.063 18.2625 206.063 17.2816C206.063 16.3007 206.234 15.3836 206.578 14.5301C206.923 13.6767 207.396 12.9437 208.005 12.3204C208.615 11.7007 209.332 11.2085 210.157 10.8473C210.982 10.4861 211.862 10.3055 212.802 10.3055C213.742 10.3055 214.654 10.4861 215.468 10.8473C216.28 11.2085 216.979 11.7078 217.564 12.3381C218.149 12.972 218.612 13.7121 218.953 14.5655C219.294 15.419 219.468 16.322 219.468 17.2781C219.468 18.2342 219.298 19.1762 218.953 20.0296Z" fill="#ffffff"/>
<path d="M234.061 28.043C232.626 27.441 231.398 26.6159 230.378 25.5642C229.358 24.516 228.564 23.2766 227.997 21.8566C227.429 20.433 227.147 18.9174 227.147 17.3026C227.147 15.6878 227.443 14.1262 228.035 12.692C228.627 11.2578 229.438 10.0149 230.472 8.96314C231.506 7.91141 232.72 7.07923 234.116 6.46661C235.516 5.85044 237.019 5.5459 238.631 5.5459C240.243 5.5459 241.785 5.83274 243.184 6.40995C244.583 6.98716 245.784 7.79455 246.79 8.83212C247.796 9.86968 248.583 11.0914 249.15 12.5008C249.718 13.9102 250 15.447 250 17.1114V19.0697H232.017C232.369 20.6597 233.138 21.938 234.322 22.9119C235.505 23.8857 237.005 24.3708 238.819 24.3708C240.253 24.3708 241.499 24.0132 242.558 23.2943C243.616 22.5755 244.409 21.6158 244.939 20.4118L249.133 22.8729C248.176 24.6931 246.836 26.1591 245.109 27.2746C243.383 28.3901 241.287 28.946 238.819 28.946C237.082 28.946 235.495 28.645 234.057 28.043M234.642 11.3853C233.521 12.2317 232.734 13.3471 232.282 14.7282H244.824C244.444 13.2161 243.717 12.0688 242.634 11.2897C241.552 10.5071 240.215 10.1176 238.631 10.1176C237.047 10.1176 235.766 10.539 234.645 11.3853" fill="#ffffff"/>
<path d="M94.7144 28.043C93.2803 27.441 92.0515 26.6159 91.0316 25.5642C90.0117 24.516 89.218 23.2766 88.6506 21.8566C88.0832 20.433 87.8013 18.9174 87.8013 17.3026C87.8013 15.6878 88.0971 14.1262 88.6889 12.692C89.2807 11.2578 90.0917 10.0149 91.1256 8.96314C92.1594 7.91141 93.3743 7.07923 94.7701 6.46661C96.1694 5.85044 97.6732 5.5459 99.2849 5.5459C100.897 5.5459 102.439 5.83274 103.838 6.40995C105.237 6.98716 106.438 7.79455 107.444 8.83212C108.45 9.86968 109.237 11.0914 109.804 12.5008C110.372 13.9102 110.654 15.447 110.654 17.1114V19.0697H92.6711C93.0227 20.6597 93.792 21.938 94.9755 22.9119C96.159 23.8857 97.6593 24.3708 99.4729 24.3708C100.907 24.3708 102.153 24.0132 103.211 23.2943C104.27 22.5755 105.063 21.6158 105.592 20.4118L109.787 22.8729C108.83 24.6931 107.489 26.1591 105.763 27.2746C104.036 28.3901 101.941 28.946 99.4729 28.946C97.7359 28.946 96.1486 28.645 94.7109 28.043M95.2957 11.3853C94.1749 12.2317 93.3882 13.3471 92.9357 14.7282H105.477C105.098 13.2161 104.371 12.0688 103.288 11.2897C102.205 10.5071 100.869 10.1176 99.2849 10.1176C97.7011 10.1176 96.4201 10.539 95.2992 11.3853" fill="#ffffff"/>
</svg>
