<svg xmlns="http://www.w3.org/2000/svg" viewBox="0 0 324 349" width="324" height="349" preserveAspectRatio="xMidYMid meet" style="width: 100%; height: 100%; transform: translate3d(0px, 0px, 0px);"><style>#whiteit path{fill:#fff}</style><defs><clipPath id="__lottie_element_2"><rect width="324" height="349" x="0" y="0"></rect></clipPath><clipPath id="__lottie_element_5"><path fill="#ffffff" clip-rule="nonzero" d=" M311.385009765625,227.8249969482422 C311.385009765625,227.8249969482422 200.19400024414062,227.8249969482422 200.19400024414062,227.8249969482422 C200.19400024414062,227.8249969482422 200.19400024414062,303.99798583984375 200.19400024414062,303.99798583984375 C200.19400024414062,303.99798583984375 311.385009765625,303.99798583984375 311.385009765625,303.99798583984375 C311.385009765625,303.99798583984375 311.385009765625,227.8249969482422 311.385009765625,227.8249969482422" fill-opacity="1"></path></clipPath><mask id="__lottie_element_7" mask-type="alpha"><g transform="matrix(0.9999976754188538,0,0,0.9999976754188538,140.00082397460938,204.00035095214844)" opacity="1" style="display: block;"><g opacity="1" transform="matrix(1,0,0,1,0,0)"><path stroke-linecap="butt" stroke-linejoin="miter" fill-opacity="0" stroke-miterlimit="4" stroke="rgb(219,71,107)" stroke-opacity="1" stroke-width="29" d=" M-1.75,-91.75 C-1.75,-91.75 -35,-124.25 -38.25,-123.5 C-41.5,-122.75 -40.25,-201 -40.25,-201 C-40.25,-201 -90.625,-200.625 -90.625,-200.625 C-90.625,-200.625 -90.5,-125.5 -90.5,-125.5 C-90.5,-125.5 -133,-89 -133,-71 C-133,-53 -133,138 -133,138 C-133,138 11,138 11,138 C11,138 11,50 11,50"></path></g></g></mask></defs><g clip-path="url(#__lottie_element_2)"><g mask="url(#__lottie_element_7)" style="display: block;"><g transform="matrix(2.7699999809265137,0,0,2.7699999809265137,-531.2892456054688,-517.833984375)" opacity="1"><g opacity="1" transform="matrix(1,0,0,1,219.5780029296875,250)"><path fill="rgb(214,120,19)" fill-opacity="1" d=" M23.905000686645508,41.32699966430664 C23.905000686645508,41.32699966430664 23.905000686645508,59.69499969482422 23.905000686645508,59.69499969482422 C23.905000686645508,59.69499969482422 -23.899999618530273,59.69499969482422 -23.899999618530273,59.69499969482422 C-23.899999618530273,59.69499969482422 -23.899999618530273,-9.055999755859375 -23.899999618530273,-9.055999755859375 C-23.899999618530273,-9.055999755859375 -23.899999618530273,-9.055999755859375 -23.899999618530273,-9.055999755859375 C-23.899999618530273,-9.055999755859375 -23.899999618530273,-10.170999526977539 -23.899999618530273,-10.170999526977539 C-23.899999618530273,-10.170999526977539 -23.899999618530273,-10.170999526977539 -23.899999618530273,-10.170999526977539 C-23.899999618530273,-10.199000358581543 -23.899999618530273,-10.22599983215332 -23.899999618530273,-10.253999710083008 C-23.913000106811523,-20.531999588012695 -17.38599967956543,-29.680999755859375 -7.663000106811523,-33.01300048828125 C-7.663000106811523,-33.01300048828125 -7.663000106811523,-59.70500183105469 -7.663000106811523,-59.70500183105469 C-7.663000106811523,-59.70500183105469 7.660999774932861,-59.70500183105469 7.660999774932861,-59.70500183105469 C7.660999774932861,-59.70500183105469 7.660999774932861,-33.005001068115234 7.660999774932861,-33.005001068115234 C12.906999588012695,-31.207000732421875 17.368999481201172,-27.649999618530273 20.291000366210938,-22.93600082397461 C20.291000366210938,-22.93600082397461 22.82900047302246,-22.93600082397461 22.82900047302246,-22.93600082397461 C19.954999923706055,-28.173999786376953 15.373000144958496,-32.26900100708008 9.845999717712402,-34.53799819946289 C9.845999717712402,-34.53799819946289 9.845999717712402,-61.904998779296875 9.845999717712402,-61.904998779296875 C9.845999717712402,-61.904998779296875 -9.847000122070312,-61.904998779296875 -9.847000122070312,-61.904998779296875 C-9.847000122070312,-61.904998779296875 -9.847000122070312,-34.53799819946289 -9.847000122070312,-34.53799819946289 C-18.981000900268555,-30.783000946044922 -25.22800064086914,-22.21299934387207 -26.007999420166016,-12.368000030517578 C-26.007999420166016,-12.368000030517578 -26.091999053955078,-12.368000030517578 -26.091999053955078,-12.368000030517578 C-26.091999053955078,-12.368000030517578 -26.091999053955078,-9.057000160217285 -26.091999053955078,-9.057000160217285 C-26.091999053955078,-9.057000160217285 -26.100000381469727,-9.057000160217285 -26.100000381469727,-9.057000160217285 C-26.100000381469727,-9.057000160217285 -26.100000381469727,61.904998779296875 -26.100000381469727,61.904998779296875 C-26.100000381469727,61.904998779296875 26.100000381469727,61.904998779296875 26.100000381469727,61.904998779296875 C26.100000381469727,61.904998779296875 26.100000381469727,44.30500030517578 26.100000381469727,44.30500030517578 C26.100000381469727,44.30500030517578 26.100000381469727,44.30500030517578 26.100000381469727,44.30500030517578 C26.100000381469727,44.30500030517578 26.100000381469727,41.32699966430664 26.100000381469727,41.32699966430664 C26.100000381469727,41.32699966430664 23.905000686645508,41.32699966430664 23.905000686645508,41.32699966430664z"></path></g><g opacity="1" transform="matrix(1,0,0,1,245.6840057373047,296.69500732421875)"><path fill="rgb(214,120,19)" fill-opacity="1" d=" M-2.2139999866485596,15.208000183105469 C-2.2139999866485596,15.208000183105469 2.2139999866485596,15.208000183105469 2.2139999866485596,15.208000183105469 C2.2139999866485596,15.208000183105469 2.2139999866485596,-14.407999992370605 2.2139999866485596,-14.407999992370605 C2.2139999866485596,-14.407999992370605 3.8239998817443848,-14.809000015258789 3.8239998817443848,-14.809000015258789 C3.8239998817443848,-14.809000015258789 3.8239998817443848,-15.208000183105469 3.8239998817443848,-15.208000183105469 C3.8239998817443848,-15.208000183105469 -3.8239998817443848,-15.208000183105469 -3.8239998817443848,-15.208000183105469 C-3.8239998817443848,-15.208000183105469 -3.8239998817443848,-14.809000015258789 -3.8239998817443848,-14.809000015258789 C-3.8239998817443848,-14.809000015258789 -2.2139999866485596,-14.407999992370605 -2.2139999866485596,-14.407999992370605 C-2.2139999866485596,-14.407999992370605 -2.2139999866485596,15.208000183105469 -2.2139999866485596,15.208000183105469z"></path></g></g></g><g clip-path="url(#__lottie_element_5)" id="whiteit" transform="matrix(2.7699999809265137,0,0,2.7699999809265137,-531.5357666015625,-518.074951171875)" opacity="1" style="display: block;"><g opacity="0.9999999563249019" transform="matrix(1,0,0,1,0,0)"><g opacity="1" transform="matrix(1,0,0,1,210.947998046875,290.927001953125)"><path fill="rgb(0,41,71)" fill-opacity="1" d=" M-8.392999649047852,9.03499984741211 C-8.392999649047852,9.03499984741211 -6.7829999923706055,8.630000114440918 -6.7829999923706055,8.630000114440918 C-6.7829999923706055,8.630000114440918 -6.7829999923706055,-8.640000343322754 -6.7829999923706055,-8.640000343322754 C-6.7829999923706055,-8.640000343322754 -8.392999649047852,-9.039999961853027 -8.392999649047852,-9.039999961853027 C-8.392999649047852,-9.039999961853027 -8.392999649047852,-9.444999694824219 -8.392999649047852,-9.444999694824219 C-8.392999649047852,-9.444999694824219 -1.5509999990463257,-9.444999694824219 -1.5509999990463257,-9.444999694824219 C1.6490000486373901,-9.444999694824219 4.104000091552734,-8.616999626159668 5.814000129699707,-6.961999893188477 C7.603000164031982,-5.10099983215332 8.531000137329102,-2.5769999027252197 8.37600040435791,0 C8.531000137329102,2.5769999027252197 7.603000164031982,5.10099983215332 5.814000129699707,6.961999893188477 C4.105999946594238,8.616999626159668 1.6510000228881836,9.444999694824219 -1.5509999990463257,9.444999694824219 C-1.5509999990463257,9.444999694824219 -8.392999649047852,9.444999694824219 -8.392999649047852,9.444999694824219 C-8.392999649047852,9.444999694824219 -8.392999649047852,9.03499984741211 -8.392999649047852,9.03499984741211z M-1.5509999990463257,8.765000343322754 C0.007000000216066837,8.821000099182129 1.4780000448226929,8.045000076293945 2.312999963760376,6.728000164031982 C3.2249999046325684,5.369999885559082 3.680999994277954,3.125999927520752 3.680999994277954,-0.004999999888241291 C3.680999994277954,-3.135999917984009 3.2249999046325684,-5.380000114440918 2.312999963760376,-6.736999988555908 C1.4789999723434448,-8.055000305175781 0.00800000037997961,-8.831000328063965 -1.5509999990463257,-8.774999618530273 C-1.5509999990463257,-8.774999618530273 -2.3510000705718994,-8.774999618530273 -2.3510000705718994,-8.774999618530273 C-2.3510000705718994,-8.774999618530273 -2.3510000705718994,8.767999649047852 -2.3510000705718994,8.767999649047852 C-2.3510000705718994,8.767999649047852 -1.5509999990463257,8.765000343322754 -1.5509999990463257,8.765000343322754z"></path></g><g opacity="1" transform="matrix(1,0,0,1,231.1300048828125,290.9330139160156)"><path fill="rgb(0,41,71)" fill-opacity="1" d=" M-8.720000267028809,9.029000282287598 C-8.720000267028809,9.029000282287598 -7.110000133514404,8.628999710083008 -7.110000133514404,8.628999710083008 C-7.110000133514404,8.628999710083008 -7.110000133514404,-8.645999908447266 -7.110000133514404,-8.645999908447266 C-7.110000133514404,-8.645999908447266 -8.720000267028809,-9.045999526977539 -8.720000267028809,-9.045999526977539 C-8.720000267028809,-9.045999526977539 -8.720000267028809,-9.446000099182129 -8.720000267028809,-9.446000099182129 C-8.720000267028809,-9.446000099182129 -1.6100000143051147,-9.446000099182129 -1.6100000143051147,-9.446000099182129 C1.4299999475479126,-9.446000099182129 3.621000051498413,-8.982999801635742 4.9629998207092285,-8.055999755859375 C6.264999866485596,-7.205999851226807 7.0279998779296875,-5.73799991607666 6.974999904632568,-4.184000015258789 C7.019999980926514,-3.2019999027252197 6.704999923706055,-2.23799991607666 6.090000152587891,-1.472000002861023 C5.478000164031982,-0.7649999856948853 4.691999912261963,-0.23000000417232513 3.809999942779541,0.07900000363588333 C2.806999921798706,0.460999995470047 1.74399995803833,0.6620000004768372 0.6710000038146973,0.6729999780654907 C0.6710000038146973,0.6729999780654907 0.6710000038146973,0.8080000281333923 0.6710000038146973,0.8080000281333923 C1.2630000114440918,0.8330000042915344 1.8489999771118164,0.9340000152587891 2.4149999618530273,1.1080000400543213 C3.5420000553131104,1.3980000019073486 4.479000091552734,2.181999921798706 4.964000225067139,3.240000009536743 C4.964000225067139,3.240000009536743 7.379000186920166,8.640000343322754 7.379000186920166,8.640000343322754 C7.379000186920166,8.640000343322754 8.720000267028809,9.039999961853027 8.720000267028809,9.039999961853027 C8.720000267028809,9.039999961853027 8.720000267028809,9.444999694824219 8.720000267028809,9.444999694824219 C8.720000267028809,9.444999694824219 4.9629998207092285,9.444999694824219 4.9629998207092285,9.444999694824219 C3.506999969482422,9.454999923706055 2.2090001106262207,8.529999732971191 1.7430000305175781,7.151000022888184 C1.7430000305175781,7.151000022888184 -0.9399999976158142,1.0789999961853027 -0.9399999976158142,1.0789999961853027 C-0.9399999976158142,1.0789999961853027 -2.684000015258789,1.0789999961853027 -2.684000015258789,1.0789999961853027 C-2.684000015258789,1.0789999961853027 -2.684000015258789,8.635000228881836 -2.684000015258789,8.635000228881836 C-2.684000015258789,8.635000228881836 -0.8059999942779541,9.03499984741211 -0.8059999942779541,9.03499984741211 C-0.8059999942779541,9.03499984741211 -0.8059999942779541,9.4399995803833 -0.8059999942779541,9.4399995803833 C-0.8059999942779541,9.4399995803833 -8.720000267028809,9.4399995803833 -8.720000267028809,9.4399995803833 C-8.720000267028809,9.4399995803833 -8.720000267028809,9.029000282287598 -8.720000267028809,9.029000282287598z M-1.6100000143051147,0.39399999380111694 C-0.5,0.4519999921321869 0.5799999833106995,0.017999999225139618 1.340999960899353,-0.7929999828338623 C2.7709999084472656,-2.8340001106262207 2.7709999084472656,-5.552000045776367 1.340999960899353,-7.5929999351501465 C0.5799999833106995,-8.402999877929688 -0.5,-8.838000297546387 -1.6100000143051147,-8.779999732971191 C-1.6100000143051147,-8.779999732971191 -2.684000015258789,-8.779999732971191 -2.684000015258789,-8.779999732971191 C-2.684000015258789,-8.779999732971191 -2.684000015258789,0.39500001072883606 -2.684000015258789,0.39500001072883606 C-2.684000015258789,0.39500001072883606 -1.6100000143051147,0.39399999380111694 -1.6100000143051147,0.39399999380111694z"></path></g><g opacity="1" transform="matrix(1,0,0,1,261.2449951171875,291.1239929199219)"><path fill="rgb(0,41,71)" fill-opacity="1" d=" M-6.236999988555908,-5.059000015258789 C-6.236999988555908,-5.059000015258789 -6.236999988555908,8.027999877929688 -6.236999988555908,8.027999877929688 C-6.236999988555908,8.027999877929688 -4.090000152587891,8.838000297546387 -4.090000152587891,8.838000297546387 C-4.090000152587891,8.838000297546387 -4.090000152587891,9.23799991607666 -4.090000152587891,9.23799991607666 C-4.090000152587891,9.23799991607666 -9.190999984741211,9.23799991607666 -9.190999984741211,9.23799991607666 C-9.190999984741211,9.23799991607666 -9.190999984741211,8.838000297546387 -9.190999984741211,8.838000297546387 C-9.190999984741211,8.838000297546387 -7.045000076293945,8.027999877929688 -7.045000076293945,8.027999877929688 C-7.045000076293945,8.027999877929688 -7.045000076293945,-8.70199966430664 -7.045000076293945,-8.70199966430664 C-7.045000076293945,-8.70199966430664 -8.92300033569336,-9.241000175476074 -8.92300033569336,-9.241000175476074 C-8.92300033569336,-9.241000175476074 -8.92300033569336,-9.645999908447266 -8.92300033569336,-9.645999908447266 C-8.92300033569336,-9.645999908447266 -6.105000019073486,-9.645999908447266 -6.105000019073486,-9.645999908447266 C-5.328999996185303,-9.687999725341797 -4.557000160217285,-9.510000228881836 -3.878000020980835,-9.133000373840332 C-3.3010001182556152,-8.755000114440918 -2.7869999408721924,-8.291000366210938 -2.3499999046325684,-7.756999969482422 C-2.3499999046325684,-7.756999969482422 6.236000061035156,2.36299991607666 6.236000061035156,2.36299991607666 C6.236000061035156,2.36299991607666 6.236000061035156,-8.428999900817871 6.236000061035156,-8.428999900817871 C6.236000061035156,-8.428999900817871 4.090000152587891,-9.23799991607666 4.090000152587891,-9.23799991607666 C4.090000152587891,-9.23799991607666 4.090000152587891,-9.642999649047852 4.090000152587891,-9.642999649047852 C4.090000152587891,-9.642999649047852 9.190999984741211,-9.642999649047852 9.190999984741211,-9.642999649047852 C9.190999984741211,-9.642999649047852 9.190999984741211,-9.23799991607666 9.190999984741211,-9.23799991607666 C9.190999984741211,-9.23799991607666 7.044000148773193,-8.428999900817871 7.044000148773193,-8.428999900817871 C7.044000148773193,-8.428999900817871 7.044000148773193,9.651000022888184 7.044000148773193,9.651000022888184 C7.044000148773193,9.651000022888184 6.24399995803833,9.651000022888184 6.24399995803833,9.651000022888184 C6.24399995803833,9.651000022888184 -6.236999988555908,-5.059000015258789 -6.236999988555908,-5.059000015258789z"></path></g><g opacity="1" transform="matrix(1,0,0,1,281.5710144042969,290.9230041503906)"><path fill="rgb(0,41,71)" fill-opacity="1" d=" M-8.720999717712402,9.038999557495117 C-8.720999717712402,9.038999557495117 -7.111000061035156,8.638999938964844 -7.111000061035156,8.638999938964844 C-7.111000061035156,8.638999938964844 -7.111000061035156,-8.63599967956543 -7.111000061035156,-8.63599967956543 C-7.111000061035156,-8.63599967956543 -8.720999717712402,-9.03600025177002 -8.720999717712402,-9.03600025177002 C-8.720999717712402,-9.03600025177002 -8.720999717712402,-9.435999870300293 -8.720999717712402,-9.435999870300293 C-8.720999717712402,-9.435999870300293 -1.0750000476837158,-9.435999870300293 -1.0750000476837158,-9.435999870300293 C-1.0750000476837158,-9.435999870300293 -1.0750000476837158,-9.03600025177002 -1.0750000476837158,-9.03600025177002 C-1.0750000476837158,-9.03600025177002 -2.684000015258789,-8.63599967956543 -2.684000015258789,-8.63599967956543 C-2.684000015258789,-8.63599967956543 -2.684000015258789,-0.16300000250339508 -2.684000015258789,-0.16300000250339508 C-2.684000015258789,-0.16300000250339508 3.8889999389648438,-8.227999687194824 3.8889999389648438,-8.227999687194824 C3.8889999389648438,-8.227999687194824 1.8769999742507935,-9.036999702453613 1.8769999742507935,-9.036999702453613 C1.8769999742507935,-9.036999702453613 1.8769999742507935,-9.437000274658203 1.8769999742507935,-9.437000274658203 C1.8769999742507935,-9.437000274658203 6.9770002365112305,-9.437000274658203 6.9770002365112305,-9.437000274658203 C6.9770002365112305,-9.437000274658203 6.9770002365112305,-9.036999702453613 6.9770002365112305,-9.036999702453613 C6.9770002365112305,-9.036999702453613 4.830999851226807,-8.227999687194824 4.830999851226807,-8.227999687194824 C4.830999851226807,-8.227999687194824 0.13600000739097595,-2.427999973297119 0.13600000739097595,-2.427999973297119 C0.13600000739097595,-2.427999973297119 7.380000114440918,8.635000228881836 7.380000114440918,8.635000228881836 C7.380000114440918,8.635000228881836 8.720999717712402,9.03499984741211 8.720999717712402,9.03499984741211 C8.720999717712402,9.03499984741211 8.720999717712402,9.4350004196167 8.720999717712402,9.4350004196167 C8.720999717712402,9.4350004196167 4.9629998207092285,9.4350004196167 4.9629998207092285,9.4350004196167 C4.230999946594238,9.460000038146973 3.510999917984009,9.25 2.9070000648498535,8.836000442504883 C2.2880001068115234,8.371999740600586 1.75600004196167,7.801000118255615 1.3370000123977661,7.150000095367432 C1.3370000123977661,7.150000095367432 -2.687000036239624,0.9430000185966492 -2.687000036239624,0.9430000185966492 C-2.687000036239624,0.9430000185966492 -2.687000036239624,8.633999824523926 -2.687000036239624,8.633999824523926 C-2.687000036239624,8.633999824523926 -1.0779999494552612,9.034000396728516 -1.0779999494552612,9.034000396728516 C-1.0779999494552612,9.034000396728516 -1.0779999494552612,9.434000015258789 -1.0779999494552612,9.434000015258789 C-1.0779999494552612,9.434000015258789 -8.720999717712402,9.434000015258789 -8.720999717712402,9.434000015258789 C-8.720999717712402,9.434000015258789 -8.720999717712402,9.038999557495117 -8.720999717712402,9.038999557495117z"></path></g><g opacity="1" transform="matrix(1,0,0,1,298.80499267578125,290.9209899902344)"><path fill="rgb(0,41,71)" fill-opacity="1" d=" M-3.7669999599456787,8.987000465393066 C-4.232999801635742,8.760000228881836 -4.6579999923706055,8.458999633789062 -5.0279998779296875,8.095999717712402 C-5.28000020980835,8.51200008392334 -5.5970001220703125,8.88599967956543 -5.9670000076293945,9.20300006866455 C-6.289000034332275,9.437000274658203 -6.4670000076293945,9.562000274658203 -6.502999782562256,9.581000328063965 C-6.502999782562256,9.581000328063965 -7.173999786376953,9.581000328063965 -7.173999786376953,9.581000328063965 C-7.173999786376953,9.581000328063965 -7.173999786376953,4.453999996185303 -7.173999786376953,4.453999996185303 C-7.173999786376953,4.453999996185303 -6.10099983215332,4.453999996185303 -6.10099983215332,4.453999996185303 C-5.849999904632568,5.298999786376953 -5.46999979019165,6.099999904632568 -4.973999977111816,6.828999996185303 C-4.064000129699707,8.293000221252441 -2.4590001106262207,9.180999755859375 -0.7350000143051147,9.173999786376953 C0.17100000381469727,9.218000411987305 1.0540000200271606,8.88599967956543 1.7070000171661377,8.256999969482422 C2.3340001106262207,7.5970001220703125 2.6630001068115234,6.710000038146973 2.61899995803833,5.801000118255615 C2.625,5.2270002365112305 2.440999984741211,4.666999816894531 2.0959999561309814,4.209000110626221 C1.7330000400543213,3.7279999256134033 1.2940000295639038,3.309000015258789 0.7960000038146973,2.9679999351501465 C0.2759999930858612,2.6089999675750732 -0.4490000009536743,2.1589999198913574 -1.378000020980835,1.6180000305175781 C-2.36899995803833,1.0729999542236328 -3.328000068664551,0.4690000116825104 -4.248000144958496,-0.1889999955892563 C-4.995999813079834,-0.7440000176429749 -5.633999824523926,-1.434999942779541 -6.126999855041504,-2.2260000705718994 C-6.659999847412109,-3.0969998836517334 -6.931000232696533,-4.105000019073486 -6.90500020980835,-5.125999927520752 C-6.914000034332275,-5.979000091552734 -6.656000137329102,-6.814000129699707 -6.166999816894531,-7.513999938964844 C-5.605000019073486,-8.279000282287598 -4.8379998207092285,-8.868000030517578 -3.9539999961853027,-9.21399974822998 C-2.802000045776367,-9.666999816894531 -1.5700000524520874,-9.883000373840332 -0.3319999873638153,-9.847999572753906 C1.2619999647140503,-9.791999816894531 2.7839999198913574,-9.170000076293945 3.9609999656677246,-8.093999862670898 C4.2179999351501465,-8.506999969482422 4.533999919891357,-8.880000114440918 4.900000095367432,-9.199999809265137 C5.2220001220703125,-9.434000015258789 5.401000022888184,-9.5600004196167 5.435999870300293,-9.57800006866455 C5.435999870300293,-9.57800006866455 6.10699987411499,-9.57800006866455 6.10699987411499,-9.57800006866455 C6.10699987411499,-9.57800006866455 6.10699987411499,-4.451000213623047 6.10699987411499,-4.451000213623047 C6.10699987411499,-4.451000213623047 5.033999919891357,-4.451000213623047 5.033999919891357,-4.451000213623047 C4.814000129699707,-5.284999847412109 4.460999965667725,-6.078000068664551 3.986999988555908,-6.798999786376953 C3.572000026702881,-7.466000080108643 3.0280001163482666,-8.043999671936035 2.38700008392334,-8.49899959564209 C1.7480000257492065,-8.949999809265137 0.9819999933242798,-9.185999870300293 0.20000000298023224,-9.173999786376953 C-0.4950000047683716,-9.177000045776367 -1.1540000438690186,-8.869999885559082 -1.600000023841858,-8.336999893188477 C-2.11299991607666,-7.748000144958496 -2.38100004196167,-6.985000133514404 -2.3510000705718994,-6.204999923706055 C-2.3580000400543213,-5.559999942779541 -2.1549999713897705,-4.929999828338623 -1.7740000486373901,-4.409999847412109 C-1.38100004196167,-3.871000051498413 -0.8999999761581421,-3.4010000228881836 -0.35199999809265137,-3.0199999809265137 C0.210999995470047,-2.625 0.9760000109672546,-2.1480000019073486 1.9420000314712524,-1.590000033378601 C2.882999897003174,-1.0609999895095825 3.7960000038146973,-0.48399999737739563 4.678999900817871,0.13699999451637268 C5.38100004196167,0.6460000276565552 5.98199987411499,1.281999945640564 6.449999809265137,2.01200008392334 C6.940000057220459,2.7809998989105225 7.190999984741211,3.677999973297119 7.173999786376953,4.589000225067139 C7.179999828338623,5.539999961853027 6.888999938964844,6.468999862670898 6.3420000076293945,7.247000217437744 C5.709000110626221,8.107999801635742 4.841000080108643,8.767000198364258 3.8420000076293945,9.147000312805176 C2.552000045776367,9.647000312805176 1.1740000247955322,9.885000228881836 -0.20900000631809235,9.847000122070312 C-1.4509999752044678,9.854000091552734 -2.674999952316284,9.557000160217285 -3.7769999504089355,8.984000205993652"></path></g></g><g opacity="0.9999990121583071" transform="matrix(1,0,0,1,0,0)"><g opacity="1" transform="matrix(1,0,0,1,210.40499877929688,266.5989990234375)"><path fill="rgb(0,41,71)" fill-opacity="1" d=" M-3.8269999027252197,9.04699993133545 C-3.8269999027252197,9.04699993133545 -2.2170000076293945,8.647000312805176 -2.2170000076293945,8.647000312805176 C-2.2170000076293945,8.647000312805176 -2.2170000076293945,-8.753000259399414 -2.2170000076293945,-8.753000259399414 C-2.2170000076293945,-8.753000259399414 -5.300000190734863,-8.753000259399414 -5.300000190734863,-8.753000259399414 C-5.303999900817871,-7.639999866485596 -5.611000061035156,-6.548999786376953 -6.185999870300293,-5.5960001945495605 C-6.414000034332275,-5.209000110626221 -6.703000068664551,-4.861999988555908 -7.044000148773193,-4.570000171661377 C-7.044000148773193,-4.570000171661377 -7.849999904632568,-4.570000171661377 -7.849999904632568,-4.570000171661377 C-7.849999904632568,-4.570000171661377 -7.849999904632568,-9.437000274658203 -7.849999904632568,-9.437000274658203 C-7.849999904632568,-9.437000274658203 7.849999904632568,-9.437000274658203 7.849999904632568,-9.437000274658203 C7.849999904632568,-9.437000274658203 7.849999904632568,-4.579999923706055 7.849999904632568,-4.579999923706055 C7.849999904632568,-4.579999923706055 7.045000076293945,-4.579999923706055 7.045000076293945,-4.579999923706055 C6.690999984741211,-4.866000175476074 6.390999794006348,-5.214000225067139 6.159999847412109,-5.605999946594238 C5.5920000076293945,-6.560999870300293 5.295000076293945,-7.6519999504089355 5.301000118255615,-8.762999534606934 C5.301000118255615,-8.762999534606934 2.2119998931884766,-8.762999534606934 2.2119998931884766,-8.762999534606934 C2.2119998931884766,-8.762999534606934 2.2119998931884766,8.63700008392334 2.2119998931884766,8.63700008392334 C2.2119998931884766,8.63700008392334 3.821000099182129,9.036999702453613 3.821000099182129,9.036999702453613 C3.821000099182129,9.036999702453613 3.821000099182129,9.437000274658203 3.821000099182129,9.437000274658203 C3.821000099182129,9.437000274658203 -3.8269999027252197,9.437000274658203 -3.8269999027252197,9.437000274658203 C-3.8269999027252197,9.437000274658203 -3.8269999027252197,9.04699993133545 -3.8269999027252197,9.04699993133545z"></path></g><g opacity="1" transform="matrix(1,0,0,1,229.8560028076172,266.6080017089844)"><path fill="rgb(0,41,71)" fill-opacity="1" d=" M-8.92199993133545,9.442999839782715 C-8.92199993133545,9.442999839782715 -8.92199993133545,9.041999816894531 -8.92199993133545,9.041999816894531 C-8.92199993133545,9.041999816894531 -7.311999797821045,8.63700008392334 -7.311999797821045,8.63700008392334 C-7.311999797821045,8.63700008392334 -7.311999797821045,-8.63700008392334 -7.311999797821045,-8.63700008392334 C-7.311999797821045,-8.63700008392334 -8.92199993133545,-9.038000106811523 -8.92199993133545,-9.038000106811523 C-8.92199993133545,-9.038000106811523 -8.92199993133545,-9.442999839782715 -8.92199993133545,-9.442999839782715 C-8.92199993133545,-9.442999839782715 -1.277999997138977,-9.442999839782715 -1.277999997138977,-9.442999839782715 C-1.277999997138977,-9.442999839782715 -1.277999997138977,-9.038000106811523 -1.277999997138977,-9.038000106811523 C-1.277999997138977,-9.038000106811523 -2.88700008392334,-8.63700008392334 -2.88700008392334,-8.63700008392334 C-2.88700008392334,-8.63700008392334 -2.88700008392334,-0.27300000190734863 -2.88700008392334,-0.27300000190734863 C-2.88700008392334,-0.27300000190734863 2.88100004196167,-0.27300000190734863 2.88100004196167,-0.27300000190734863 C2.88100004196167,-0.27300000190734863 2.88100004196167,-8.63700008392334 2.88100004196167,-8.63700008392334 C2.88100004196167,-8.63700008392334 1.2710000276565552,-9.038000106811523 1.2710000276565552,-9.038000106811523 C1.2710000276565552,-9.038000106811523 1.2710000276565552,-9.442999839782715 1.2710000276565552,-9.442999839782715 C1.2710000276565552,-9.442999839782715 8.92199993133545,-9.442999839782715 8.92199993133545,-9.442999839782715 C8.92199993133545,-9.442999839782715 8.92199993133545,-9.038000106811523 8.92199993133545,-9.038000106811523 C8.92199993133545,-9.038000106811523 7.311999797821045,-8.63700008392334 7.311999797821045,-8.63700008392334 C7.311999797821045,-8.63700008392334 7.311999797821045,8.631999969482422 7.311999797821045,8.631999969482422 C7.311999797821045,8.631999969482422 8.92199993133545,9.036999702453613 8.92199993133545,9.036999702453613 C8.92199993133545,9.036999702453613 8.92199993133545,9.437999725341797 8.92199993133545,9.437999725341797 C8.92199993133545,9.437999725341797 1.2740000486373901,9.437999725341797 1.2740000486373901,9.437999725341797 C1.2740000486373901,9.437999725341797 1.2740000486373901,9.036999702453613 1.2740000486373901,9.036999702453613 C1.2740000486373901,9.036999702453613 2.884000062942505,8.631999969482422 2.884000062942505,8.631999969482422 C2.884000062942505,8.631999969482422 2.884000062942505,0.4020000100135803 2.884000062942505,0.4020000100135803 C2.884000062942505,0.4020000100135803 -2.884999990463257,0.4020000100135803 -2.884999990463257,0.4020000100135803 C-2.884999990463257,0.4020000100135803 -2.884999990463257,8.631999969482422 -2.884999990463257,8.631999969482422 C-2.884999990463257,8.631999969482422 -1.2760000228881836,9.036999702453613 -1.2760000228881836,9.036999702453613 C-1.2760000228881836,9.036999702453613 -1.2760000228881836,9.437999725341797 -1.2760000228881836,9.437999725341797 C-1.2760000228881836,9.437999725341797 -8.92199993133545,9.442999839782715 -8.92199993133545,9.442999839782715z"></path></g><g opacity="1" transform="matrix(1,0,0,1,245.6840057373047,266.6080017089844)"><path fill="rgb(0,41,71)" fill-opacity="1" d=" M-3.8239998817443848,9.442999839782715 C-3.8239998817443848,9.442999839782715 -3.8239998817443848,9.041999816894531 -3.8239998817443848,9.041999816894531 C-3.8239998817443848,9.041999816894531 -2.2139999866485596,8.63700008392334 -2.2139999866485596,8.63700008392334 C-2.2139999866485596,8.63700008392334 -2.2139999866485596,-8.63700008392334 -2.2139999866485596,-8.63700008392334 C-2.2139999866485596,-8.63700008392334 -3.8239998817443848,-9.038000106811523 -3.8239998817443848,-9.038000106811523 C-3.8239998817443848,-9.038000106811523 -3.8239998817443848,-9.442999839782715 -3.8239998817443848,-9.442999839782715 C-3.8239998817443848,-9.442999839782715 3.8239998817443848,-9.442999839782715 3.8239998817443848,-9.442999839782715 C3.8239998817443848,-9.442999839782715 3.8239998817443848,-9.038000106811523 3.8239998817443848,-9.038000106811523 C3.8239998817443848,-9.038000106811523 2.2139999866485596,-8.63700008392334 2.2139999866485596,-8.63700008392334 C2.2139999866485596,-8.63700008392334 2.2139999866485596,8.631999969482422 2.2139999866485596,8.631999969482422 C2.2139999866485596,8.631999969482422 3.8239998817443848,9.036999702453613 3.8239998817443848,9.036999702453613 C3.8239998817443848,9.036999702453613 3.8239998817443848,9.437999725341797 3.8239998817443848,9.437999725341797 C3.8239998817443848,9.437999725341797 -3.8239998817443848,9.442999839782715 -3.8239998817443848,9.442999839782715z"></path></g><g opacity="1" transform="matrix(1,0,0,1,261.2449951171875,266.8059997558594)"><path fill="rgb(0,41,71)" fill-opacity="1" d=" M-6.236999988555908,-5.057000160217285 C-6.236999988555908,-5.057000160217285 -6.236999988555908,8.029999732971191 -6.236999988555908,8.029999732971191 C-6.236999988555908,8.029999732971191 -4.090000152587891,8.84000015258789 -4.090000152587891,8.84000015258789 C-4.090000152587891,8.84000015258789 -4.090000152587891,9.239999771118164 -4.090000152587891,9.239999771118164 C-4.090000152587891,9.239999771118164 -9.190999984741211,9.239999771118164 -9.190999984741211,9.239999771118164 C-9.190999984741211,9.239999771118164 -9.190999984741211,8.84000015258789 -9.190999984741211,8.84000015258789 C-9.190999984741211,8.84000015258789 -7.045000076293945,8.029999732971191 -7.045000076293945,8.029999732971191 C-7.045000076293945,8.029999732971191 -7.045000076293945,-8.699999809265137 -7.045000076293945,-8.699999809265137 C-7.045000076293945,-8.699999809265137 -8.92300033569336,-9.23900032043457 -8.92300033569336,-9.23900032043457 C-8.92300033569336,-9.23900032043457 -8.92300033569336,-9.644000053405762 -8.92300033569336,-9.644000053405762 C-8.92300033569336,-9.644000053405762 -6.105000019073486,-9.644000053405762 -6.105000019073486,-9.644000053405762 C-5.328999996185303,-9.685999870300293 -4.557000160217285,-9.508000373840332 -3.878000020980835,-9.130999565124512 C-3.3010001182556152,-8.753000259399414 -2.7869999408721924,-8.288999557495117 -2.3499999046325684,-7.755000114440918 C-2.3499999046325684,-7.755000114440918 6.236000061035156,2.365000009536743 6.236000061035156,2.365000009536743 C6.236000061035156,2.365000009536743 6.236000061035156,-8.430000305175781 6.236000061035156,-8.430000305175781 C6.236000061035156,-8.430000305175781 4.090000152587891,-9.23900032043457 4.090000152587891,-9.23900032043457 C4.090000152587891,-9.23900032043457 4.090000152587891,-9.644000053405762 4.090000152587891,-9.644000053405762 C4.090000152587891,-9.644000053405762 9.190999984741211,-9.644000053405762 9.190999984741211,-9.644000053405762 C9.190999984741211,-9.644000053405762 9.190999984741211,-9.23900032043457 9.190999984741211,-9.23900032043457 C9.190999984741211,-9.23900032043457 7.044000148773193,-8.430000305175781 7.044000148773193,-8.430000305175781 C7.044000148773193,-8.430000305175781 7.044000148773193,9.64900016784668 7.044000148773193,9.64900016784668 C7.044000148773193,9.64900016784668 6.24399995803833,9.64900016784668 6.24399995803833,9.64900016784668 C6.24399995803833,9.64900016784668 -6.236999988555908,-5.057000160217285 -6.236999988555908,-5.057000160217285z"></path></g><g opacity="1" transform="matrix(1,0,0,1,281.4989929199219,266.6059875488281)"><path fill="rgb(0,41,71)" fill-opacity="1" d=" M-4.757999897003174,8.689000129699707 C-5.9679999351501465,7.836999893188477 -6.914999961853027,6.664000034332275 -7.49399995803833,5.302000045776367 C-8.211999893188477,3.628999948501587 -8.5600004196167,1.8220000267028809 -8.513999938964844,0.0020000000949949026 C-8.562000274658203,-1.8309999704360962 -8.199999809265137,-3.6519999504089355 -7.453999996185303,-5.327000141143799 C-6.823999881744385,-6.72599983215332 -5.785999774932861,-7.9019999504089355 -4.47599983215332,-8.701000213623047 C-3.128999948501587,-9.482999801635742 -1.593000054359436,-9.880000114440918 -0.035999998450279236,-9.847999572753906 C1.5479999780654907,-9.78499984741211 3.059999942779541,-9.163999557495117 4.230000019073486,-8.093999862670898 C4.486999988555908,-8.506999969482422 4.802999973297119,-8.880000114440918 5.169000148773193,-9.199999809265137 C5.491000175476074,-9.434000015258789 5.669000148773193,-9.5600004196167 5.705999851226807,-9.57800006866455 C5.705999851226807,-9.57800006866455 6.379000186920166,-9.57800006866455 6.379000186920166,-9.57800006866455 C6.379000186920166,-9.57800006866455 6.379000186920166,-4.451000213623047 6.379000186920166,-4.451000213623047 C6.379000186920166,-4.451000213623047 5.302999973297119,-4.451000213623047 5.302999973297119,-4.451000213623047 C5.083000183105469,-5.284999847412109 4.730000019073486,-6.078000068664551 4.25600004196167,-6.798999786376953 C3.8410000801086426,-7.4670000076293945 3.296999931335449,-8.045000076293945 2.6559998989105225,-8.49899959564209 C2.0169999599456787,-8.949999809265137 1.2519999742507935,-9.185999870300293 0.4699999988079071,-9.173999786376953 C-0.8820000290870667,-9.097000122070312 -2.072000026702881,-8.258000373840332 -2.5989999771118164,-7.011000156402588 C-3.4140000343322754,-5.573999881744385 -3.821000099182129,-3.236999988555908 -3.821000099182129,0 C-3.821000099182129,3.236999988555908 -3.4590001106262207,5.531000137329102 -2.734999895095825,6.88100004196167 C-2.2769999504089355,8.045000076293945 -1.184000015258789,8.835000038146973 0.06499999761581421,8.904999732971191 C0.8059999942779541,8.862000465393066 1.4780000448226929,8.458999633789062 1.8650000095367432,7.826000213623047 C2.1019999980926514,7.485000133514404 2.309000015258789,7.124000072479248 2.4820001125335693,6.745999813079834 C2.4820001125335693,6.745999813079834 2.4820001125335693,0.5400000214576721 2.4820001125335693,0.5400000214576721 C2.4820001125335693,0.5400000214576721 0.871999979019165,0.14000000059604645 0.871999979019165,0.14000000059604645 C0.871999979019165,0.14000000059604645 0.871999979019165,-0.26499998569488525 0.871999979019165,-0.26499998569488525 C0.871999979019165,-0.26499998569488525 8.519000053405762,-0.26499998569488525 8.519000053405762,-0.26499998569488525 C8.519000053405762,-0.26499998569488525 8.519000053405762,0.14000000059604645 8.519000053405762,0.14000000059604645 C8.519000053405762,0.14000000059604645 6.908999919891357,0.5400000214576721 6.908999919891357,0.5400000214576721 C6.908999919891357,0.5400000214576721 6.908999919891357,9.579999923706055 6.908999919891357,9.579999923706055 C6.908999919891357,9.579999923706055 6.508999824523926,9.579999923706055 6.508999824523926,9.579999923706055 C5.4079999923706055,9.657999992370605 4.326000213623047,9.265000343322754 3.5309998989105225,8.5 C3.236999988555908,8.194000244140625 3.0169999599456787,7.824999809265137 2.88700008392334,7.421000003814697 C2.6440000534057617,7.861000061035156 2.3459999561309814,8.269000053405762 2.002000093460083,8.635000228881836 C1.2130000591278076,9.437000274658203 0.12700000405311584,9.876999855041504 -0.9980000257492065,9.848999977111816 C-2.3389999866485596,9.854999542236328 -3.6500000953674316,9.449999809265137 -4.754000186920166,8.689000129699707"></path></g><g opacity="1" transform="matrix(1,0,0,1,299.34698486328125,266.60699462890625)"><path fill="rgb(0,41,71)" fill-opacity="1" d=" M-3.7690000534057617,8.98799991607666 C-4.235000133514404,8.76099967956543 -4.659999847412109,8.460000038146973 -5.03000020980835,8.097000122070312 C-5.2820000648498535,8.512999534606934 -5.598999977111816,8.88700008392334 -5.968999862670898,9.204000473022461 C-6.290999889373779,9.437999725341797 -6.468999862670898,9.562999725341797 -6.505000114440918,9.581999778747559 C-6.505000114440918,9.581999778747559 -7.178999900817871,9.581999778747559 -7.178999900817871,9.581999778747559 C-7.178999900817871,9.581999778747559 -7.178999900817871,4.451000213623047 -7.178999900817871,4.451000213623047 C-7.178999900817871,4.451000213623047 -6.105999946594238,4.451000213623047 -6.105999946594238,4.451000213623047 C-5.855000019073486,5.296000003814697 -5.474999904632568,6.0970001220703125 -4.979000091552734,6.826000213623047 C-4.070000171661377,8.291999816894531 -2.4649999141693115,9.180000305175781 -0.7400000095367432,9.173999786376953 C0.16599999368190765,9.218000411987305 1.0490000247955322,8.88599967956543 1.7020000219345093,8.256999969482422 C2.3289999961853027,7.5970001220703125 2.6579999923706055,6.710000038146973 2.614000082015991,5.801000118255615 C2.619999885559082,5.2270002365112305 2.436000108718872,4.666999816894531 2.0910000801086426,4.209000110626221 C1.7280000448226929,3.7279999256134033 1.2890000343322754,3.309000015258789 0.7910000085830688,2.9679999351501465 C0.2709999978542328,2.6089999675750732 -0.45399999618530273,2.1589999198913574 -1.3830000162124634,1.6180000305175781 C-2.374000072479248,1.0729999542236328 -3.3329999446868896,0.4690000116825104 -4.252999782562256,-0.1889999955892563 C-5.000999927520752,-0.7450000047683716 -5.638999938964844,-1.4359999895095825 -6.131999969482422,-2.2269999980926514 C-6.664999961853027,-3.0980000495910645 -6.935999870300293,-4.105999946594238 -6.909999847412109,-5.126999855041504 C-6.916999816894531,-5.980000019073486 -6.6579999923706055,-6.813000202178955 -6.169000148773193,-7.51200008392334 C-5.60699987411499,-8.277000427246094 -4.840000152587891,-8.866000175476074 -3.9560000896453857,-9.211999893188477 C-2.803999900817871,-9.664999961853027 -1.5720000267028809,-9.880999565124512 -0.33399999141693115,-9.845999717712402 C1.2599999904632568,-9.789999961853027 2.7820000648498535,-9.168000221252441 3.9590001106262207,-8.092000007629395 C4.216000080108643,-8.505000114440918 4.5320000648498535,-8.878000259399414 4.8979997634887695,-9.197999954223633 C5.21999979019165,-9.432000160217285 5.39900016784668,-9.557999610900879 5.434000015258789,-9.576000213623047 C5.434000015258789,-9.576000213623047 6.105000019073486,-9.576000213623047 6.105000019073486,-9.576000213623047 C6.105000019073486,-9.576000213623047 6.105000019073486,-4.448999881744385 6.105000019073486,-4.448999881744385 C6.105000019073486,-4.448999881744385 5.031000137329102,-4.448999881744385 5.031000137329102,-4.448999881744385 C4.810999870300293,-5.2829999923706055 4.458000183105469,-6.076000213623047 3.9839999675750732,-6.796999931335449 C3.569000005722046,-7.464000225067139 3.0250000953674316,-8.041999816894531 2.384000062942505,-8.496999740600586 C1.7450000047683716,-8.947999954223633 0.9789999723434448,-9.184000015258789 0.19699999690055847,-9.17199993133545 C-0.49799999594688416,-9.175000190734863 -1.156999945640564,-8.868000030517578 -1.6030000448226929,-8.335000038146973 C-2.115999937057495,-7.745999813079834 -2.384000062942505,-6.982999801635742 -2.3540000915527344,-6.203000068664551 C-2.3580000400543213,-5.558000087738037 -2.1519999504089355,-4.929999828338623 -1.7690000534057617,-4.4120001792907715 C-1.3760000467300415,-3.872999906539917 -0.8949999809265137,-3.4030001163482666 -0.34700000286102295,-3.0220000743865967 C0.2160000056028366,-2.627000093460083 0.9810000061988831,-2.1500000953674316 1.9470000267028809,-1.5920000076293945 C2.88700008392334,-1.062999963760376 3.8010001182556152,-0.4860000014305115 4.683000087738037,0.13500000536441803 C5.385000228881836,0.6439999938011169 5.986000061035156,1.2799999713897705 6.453999996185303,2.009999990463257 C6.943999767303467,2.7790000438690186 7.195000171661377,3.6760001182556152 7.177999973297119,4.586999893188477 C7.184000015258789,5.538000106811523 6.89300012588501,6.4670000076293945 6.3460001945495605,7.244999885559082 C5.7129998207092285,8.105999946594238 4.84499979019165,8.765000343322754 3.8459999561309814,9.145000457763672 C2.555999994277954,9.645000457763672 1.1779999732971191,9.883000373840332 -0.20499999821186066,9.845000267028809 C-1.4450000524520874,9.852999687194824 -2.6679999828338623,9.559000015258789 -3.7690000534057617,8.98799991607666"></path></g></g><g opacity="0.9999971080318075" transform="matrix(1,0,0,1,0,0)"><g opacity="1" transform="matrix(1,0,0,1,212.21400451660156,242.2220001220703)"><path fill="rgb(0,41,71)" fill-opacity="1" d=" M-9.659000396728516,9.17300033569336 C-9.659000396728516,9.17300033569336 -7.513000011444092,8.36299991607666 -7.513000011444092,8.36299991607666 C-7.513000011444092,8.36299991607666 -0.13600000739097595,-9.579000473022461 -0.13600000739097595,-9.579000473022461 C-0.13600000739097595,-9.579000473022461 0.6690000295639038,-9.579000473022461 0.6690000295639038,-9.579000473022461 C0.6690000295639038,-9.579000473022461 8.317999839782715,8.77299976348877 8.317999839782715,8.77299976348877 C8.317999839782715,8.77299976348877 9.659000396728516,9.17300033569336 9.659000396728516,9.17300033569336 C9.659000396728516,9.17300033569336 9.659000396728516,9.572999954223633 9.659000396728516,9.572999954223633 C9.659000396728516,9.572999954223633 6.440000057220459,9.572999954223633 6.440000057220459,9.572999954223633 C4.870999813079834,9.670000076293945 3.4189999103546143,8.744000434875488 2.8450000286102295,7.28000020980835 C2.8450000286102295,7.28000020980835 1.4759999513626099,4.041999816894531 1.4759999513626099,4.041999816894531 C1.4759999513626099,4.041999816894531 -4.935999870300293,4.041999816894531 -4.935999870300293,4.041999816894531 C-4.935999870300293,4.041999816894531 -6.706999778747559,8.359000205993652 -6.706999778747559,8.359000205993652 C-6.706999778747559,8.359000205993652 -4.695000171661377,9.168999671936035 -4.695000171661377,9.168999671936035 C-4.695000171661377,9.168999671936035 -4.695000171661377,9.569000244140625 -4.695000171661377,9.569000244140625 C-4.695000171661377,9.569000244140625 -9.659000396728516,9.569000244140625 -9.659000396728516,9.569000244140625 C-9.659000396728516,9.569000244140625 -9.659000396728516,9.17300033569336 -9.659000396728516,9.17300033569336z M-4.669000148773193,3.372999906539917 C-4.669000148773193,3.372999906539917 1.2070000171661377,3.372999906539917 1.2070000171661377,3.372999906539917 C1.2070000171661377,3.372999906539917 -1.74399995803833,-3.7269999980926514 -1.74399995803833,-3.7269999980926514 C-1.74399995803833,-3.7269999980926514 -4.669000148773193,3.372999906539917 -4.669000148773193,3.372999906539917z"></path></g><g opacity="1" transform="matrix(1,0,0,1,231.60000610351562,242.36099243164062)"><path fill="rgb(0,41,71)" fill-opacity="1" d=" M-7.177999973297119,9.034000396728516 C-7.177999973297119,9.034000396728516 -5.567999839782715,8.633000373840332 -5.567999839782715,8.633000373840332 C-5.567999839782715,8.633000373840332 -5.567999839782715,-8.638999938964844 -5.567999839782715,-8.638999938964844 C-5.567999839782715,-8.638999938964844 -7.177999973297119,-9.039999961853027 -7.177999973297119,-9.039999961853027 C-7.177999973297119,-9.039999961853027 -7.177999973297119,-9.439000129699707 -7.177999973297119,-9.439000129699707 C-7.177999973297119,-9.439000129699707 0.46799999475479126,-9.439000129699707 0.46799999475479126,-9.439000129699707 C0.46799999475479126,-9.439000129699707 0.46799999475479126,-9.039999961853027 0.46799999475479126,-9.039999961853027 C0.46799999475479126,-9.039999961853027 -1.1410000324249268,-8.638999938964844 -1.1410000324249268,-8.638999938964844 C-1.1410000324249268,-8.638999938964844 -1.1410000324249268,8.765999794006348 -1.1410000324249268,8.765999794006348 C-1.1410000324249268,8.765999794006348 4.626999855041504,8.765999794006348 4.626999855041504,8.765999794006348 C4.620999813079834,7.65500020980835 4.916999816894531,6.564000129699707 5.485000133514404,5.609000205993652 C5.716000080108643,5.2170000076293945 6.015999794006348,4.86899995803833 6.369999885559082,4.583000183105469 C6.369999885559082,4.583000183105469 7.177999973297119,4.583000183105469 7.177999973297119,4.583000183105469 C7.177999973297119,4.583000183105469 7.177999973297119,9.439000129699707 7.177999973297119,9.439000129699707 C7.177999973297119,9.439000129699707 -7.177999973297119,9.439000129699707 -7.177999973297119,9.439000129699707 C-7.177999973297119,9.439000129699707 -7.177999973297119,9.034000396728516 -7.177999973297119,9.034000396728516z"></path></g><g opacity="1" transform="matrix(1,0,0,1,248.90199279785156,242.36099243164062)"><path fill="rgb(0,41,71)" fill-opacity="1" d=" M-7.175000190734863,9.034000396728516 C-7.175000190734863,9.034000396728516 -5.565000057220459,8.633000373840332 -5.565000057220459,8.633000373840332 C-5.565000057220459,8.633000373840332 -5.565000057220459,-8.638999938964844 -5.565000057220459,-8.638999938964844 C-5.565000057220459,-8.638999938964844 -7.175000190734863,-9.039999961853027 -7.175000190734863,-9.039999961853027 C-7.175000190734863,-9.039999961853027 -7.175000190734863,-9.439000129699707 -7.175000190734863,-9.439000129699707 C-7.175000190734863,-9.439000129699707 0.47099998593330383,-9.439000129699707 0.47099998593330383,-9.439000129699707 C0.47099998593330383,-9.439000129699707 0.47099998593330383,-9.039999961853027 0.47099998593330383,-9.039999961853027 C0.47099998593330383,-9.039999961853027 -1.1390000581741333,-8.638999938964844 -1.1390000581741333,-8.638999938964844 C-1.1390000581741333,-8.638999938964844 -1.1390000581741333,8.765999794006348 -1.1390000581741333,8.765999794006348 C-1.1390000581741333,8.765999794006348 4.630000114440918,8.765999794006348 4.630000114440918,8.765999794006348 C4.624000072479248,7.65500020980835 4.920000076293945,6.564000129699707 5.48799991607666,5.609000205993652 C5.718999862670898,5.2170000076293945 6.01800012588501,4.86899995803833 6.372000217437744,4.583000183105469 C6.372000217437744,4.583000183105469 7.175000190734863,4.583000183105469 7.175000190734863,4.583000183105469 C7.175000190734863,4.583000183105469 7.175000190734863,9.439000129699707 7.175000190734863,9.439000129699707 C7.175000190734863,9.439000129699707 -7.175000190734863,9.439000129699707 -7.175000190734863,9.439000129699707 C-7.175000190734863,9.439000129699707 -7.175000190734863,9.034000396728516 -7.175000190734863,9.034000396728516z"></path></g></g></g></g></svg>