<svg xmlns="http://www.w3.org/2000/svg" width="175.399" height="44.941" viewBox="0 0 175.399 44.941">
	<g id="Group_134" data-name="Group 134" transform="translate(-311.434 -644.202)">
		<g id="Group_15" data-name="Group 15" transform="translate(311.434 644.202)">
			<path id="Path_3" data-name="Path 3" d="M471.547,757.146,459.355,787.2a.26.26,0,0,0,.241.358h2.489a.26.26,0,0,0,.243-.168l3.517-9.259h13.89l3.353,8.992a.26.26,0,0,0,.244.169h2.521a.26.26,0,0,0,.242-.356l-11.739-29.788a.26.26,0,0,0-.242-.165h-2.327A.26.26,0,0,0,471.547,757.146Zm-4.6,18.292,5.978-14.568,5.745,14.568Z" transform="translate(-459.335 -756.984)" fill="#fff"/>
			<path id="Path_4" data-name="Path 4" d="M654.844,832.773l-7.364-18.217a.26.26,0,0,0-.241-.163h-2.413a.26.26,0,0,0-.241.359l8.93,21.811h2.629l9.123-21.81a.26.26,0,0,0-.24-.361h-2.318a.26.26,0,0,0-.24.16Z" transform="translate(-618.307 -806.255)" fill="#fff"/>
			<path id="Path_5" data-name="Path 5" d="M827,814.31a10.962,10.962,0,0,0-9.014-2.43,10.29,10.29,0,0,0-7.511,5.441,12.092,12.092,0,0,0-.382,10.879,11.094,11.094,0,0,0,7.777,6.267,14.957,14.957,0,0,0,3.127.34,11.557,11.557,0,0,0,7.588-2.623.735.735,0,0,0,0-1.1l-.937-.823a.736.736,0,0,0-.952-.016c-1.026.836-3.779,2.55-8.262,1.592a8.422,8.422,0,0,1-5.9-4.767,9.206,9.206,0,0,1-.828-3.133h18.653l.117-1.219A10.807,10.807,0,0,0,827,814.31Zm-15.119,6.93a9.959,9.959,0,0,1,.97-2.648,7.549,7.549,0,0,1,5.577-4.055,7.718,7.718,0,0,1,9.315,6.7Z" transform="translate(-759.414 -803.967)" fill="#fff"/>
			<path id="Path_6" data-name="Path 6" d="M996.13,811.659a8.977,8.977,0,0,1,5.554,1.923.552.552,0,0,0,.757-.063l1.057-1.194a.55.55,0,0,0-.065-.794,11.735,11.735,0,1,0-.346,18.607.55.55,0,0,0,.094-.79l-1.013-1.233a.551.551,0,0,0-.751-.093,9.029,9.029,0,1,1-5.288-16.363Z" transform="translate(-909.991 -801.597)" fill="#fff"/>
			<path id="Path_7" data-name="Path 7" d="M1171.223,808.965h-.072a11.466,11.466,0,0,0-3.132.436,9.43,9.43,0,0,0-5.368,4.076,10.065,10.065,0,0,0-8.7-4.512,7.3,7.3,0,0,0-6.885,4.031,11.01,11.01,0,0,0,1.062,10.937c4.862,6.586,12.921,8.568,13.822,8.772a2.3,2.3,0,0,0,.764.033c6.164-.609,13.355-5.789,15.417-7.356a.7.7,0,0,0,.121-.995l-.812-1.01a.7.7,0,0,0-.966-.121c-1.756,1.324-7.507,5.437-12.595,6.566V819.644H1179.8v-5a5.034,5.034,0,0,0-1.553-3.393C1176.725,809.734,1174.362,808.965,1171.223,808.965Zm-10.274,20.65c-2.523-.842-7.456-2.948-10.655-7.281a8.422,8.422,0,0,1-.824-8.124,4.615,4.615,0,0,1,4.481-2.551q.133,0,.262,0a6.973,6.973,0,0,1,6.736,7Zm16.16-12.664h-13.038a6.817,6.817,0,0,1,4.694-4.961,8.77,8.77,0,0,1,2.4-.331h.061c2.987,0,4.436.816,5.125,1.5a2.327,2.327,0,0,1,.76,1.485Z" transform="translate(-1048.722 -801.596)" fill="#fff"/>
			<path id="Path_8" data-name="Path 8" d="M1434.9,827.172a6.606,6.606,0,0,1-6.606,6.606h-.161a6.606,6.606,0,0,1-6.606-6.606V814.227a.56.56,0,0,0-.56-.56h-1.574a.56.56,0,0,0-.56.56V827.2a9.273,9.273,0,0,0,9.273,9.272h.188a9.3,9.3,0,0,0,9.3-9.3V814.227a.56.56,0,0,0-.56-.56h-1.574a.56.56,0,0,0-.56.56Z" transform="translate(-1282.816 -805.632)" fill="#fff"/>
			<path id="Path_9" data-name="Path 9" d="M1607.984,812.009a.253.253,0,0,0,.047-.369,7.863,7.863,0,0,0-5.737-2.695,6.77,6.77,0,0,0-5.686,2.787.252.252,0,0,1-.45-.156v-1.712a.252.252,0,0,0-.252-.252h-2.189a.252.252,0,0,0-.252.252v21.8a.252.252,0,0,0,.252.252h2.189a.252.252,0,0,0,.252-.252V819.238c0-.007,0-.013,0-.019.22-3.592,2.667-7.7,6.042-7.582a5.068,5.068,0,0,1,3.812,1.788l-.008-.011Z" transform="translate(-1432.691 -801.576)" fill="#fff"/>
		</g>
		<g id="Group_16" data-name="Group 16" transform="translate(324.683 681.84)">
			<path id="Path_10" data-name="Path 10" d="M557.366,1031.12v-3.012H553.8v3.012h-1v-6.912h1v2.906h3.569v-2.906h1v6.912Z" transform="translate(-552.799 -1023.965)" fill="#fff"/>
			<path id="Path_11" data-name="Path 11" d="M620.153,1028.1v2.029h3.706v.993h-4.7v-6.912h4.7v.993h-3.706v1.9h3.139v.993Z" transform="translate(-609.749 -1023.965)" fill="#fff"/>
			<path id="Path_12" data-name="Path 12" d="M677.457,1030.289V1028.1h-3.6v2.188h-.968v-4.069a3.942,3.942,0,0,1,.181-1.237,2.6,2.6,0,0,1,.533-.941,2.3,2.3,0,0,1,.865-.6,3.175,3.175,0,0,1,1.188-.206,3.252,3.252,0,0,1,1.2.206,2.33,2.33,0,0,1,.88.6,2.566,2.566,0,0,1,.538.941,3.944,3.944,0,0,1,.181,1.237v4.069Zm0-4.069a2.176,2.176,0,0,0-.45-1.464,2,2,0,0,0-2.7,0,2.175,2.175,0,0,0-.45,1.464v.888h3.6Z" transform="translate(-655.867 -1023.134)" fill="#fff"/>
			<path id="Path_13" data-name="Path 13" d="M734.934,1031.12v-6.912h.944v5.918h3.4v.993Z" transform="translate(-709.115 -1023.965)" fill="#fff"/>
			<path id="Path_14" data-name="Path 14" d="M773.9,1031.12V1025.2h-2.024v-.993h5.056v.993H774.9v5.918Z" transform="translate(-740.822 -1023.965)" fill="#fff"/>
			<path id="Path_15" data-name="Path 15" d="M832.457,1031.12v-3.012h-3.569v3.012h-1v-6.912h1v2.906h3.569v-2.906h1v6.912Z" transform="translate(-788.893 -1023.965)" fill="#fff"/>
			<path id="Path_16" data-name="Path 16" d="M929.339,1028.676a.15.15,0,0,1,.127.158v.8q0,.116-.137.116a2.837,2.837,0,0,1-1.574-.634,2.773,2.773,0,0,1-1.848.634,2.56,2.56,0,0,1-1.657-.523,1.893,1.893,0,0,1-.65-1.569,2.351,2.351,0,0,1,1.408-2.018,3.429,3.429,0,0,1-.391-1.49,1.64,1.64,0,0,1,.445-1.215,1.675,1.675,0,0,1,1.237-.444,1.452,1.452,0,0,1,1.565,1.532,1.551,1.551,0,0,1-.4,1.088,4.794,4.794,0,0,1-1.149.867,7.452,7.452,0,0,0,1.31,1.723,2.748,2.748,0,0,0,.284-1.374q0-.148.127-.148h.714q.117,0,.117.148a3.821,3.821,0,0,1-.44,1.934A1.741,1.741,0,0,0,929.339,1028.676Zm-3.335.233a1.452,1.452,0,0,0,1.027-.391,8.982,8.982,0,0,1-1.613-2.029,1.428,1.428,0,0,0-.8,1.183,1.122,1.122,0,0,0,.372.919A1.592,1.592,0,0,0,926,1028.909Zm.9-4.893a.753.753,0,0,0-.161-.512.56.56,0,0,0-.445-.185.6.6,0,0,0-.489.227.93.93,0,0,0-.186.608,2.143,2.143,0,0,0,.284,1.015Q926.9,1024.608,926.9,1024.016Z" transform="translate(-871.035 -1022.494)" fill="#fff"/>
			<path id="Path_17" data-name="Path 17" d="M1073.975,1031.12v-6.912h2.679a2.916,2.916,0,0,1,1.046.169,1.893,1.893,0,0,1,.724.475,1.944,1.944,0,0,1,.42.724,2.884,2.884,0,0,1,.137.9,2.917,2.917,0,0,1-.137.914,1.893,1.893,0,0,1-.42.719,1.977,1.977,0,0,1-.724.476,2.834,2.834,0,0,1-1.046.174h-1.682v2.357Zm2.7-3.35a1.224,1.224,0,0,0,1.007-.365,1.428,1.428,0,0,0,.293-.925,1.412,1.412,0,0,0-.293-.914,1.224,1.224,0,0,0-1.007-.365h-1.7v2.568Z" transform="translate(-1000.094 -1023.965)" fill="#fff"/>
			<path id="Path_18" data-name="Path 18" d="M1133.516,1030.289V1028.1h-3.6v2.188h-.968v-4.069a3.94,3.94,0,0,1,.181-1.237,2.6,2.6,0,0,1,.533-.941,2.3,2.3,0,0,1,.865-.6,3.174,3.174,0,0,1,1.188-.206,3.252,3.252,0,0,1,1.2.206,2.328,2.328,0,0,1,.88.6,2.567,2.567,0,0,1,.538.941,3.947,3.947,0,0,1,.181,1.237v4.069Zm0-4.069a2.176,2.176,0,0,0-.45-1.464,2,2,0,0,0-2.7,0,2.175,2.175,0,0,0-.45,1.464v.888h3.6Z" transform="translate(-1047.275 -1023.134)" fill="#fff"/>
			<path id="Path_19" data-name="Path 19" d="M1231.777,1031.12l-1.525-2.473h-1.525v2.473h-1v-6.912h2.748a2.777,2.777,0,0,1,1.017.169,1.8,1.8,0,0,1,1.11,1.168,2.839,2.839,0,0,1,.132.882,2.526,2.526,0,0,1-.347,1.347,1.794,1.794,0,0,1-1.1.777v.021l1.682,2.547Zm-1.291-3.466a1.571,1.571,0,0,0,.587-.1,1.012,1.012,0,0,0,.381-.259.972.972,0,0,0,.21-.386,1.756,1.756,0,0,0,.064-.486,1.816,1.816,0,0,0-.064-.491.922.922,0,0,0-.6-.645,1.666,1.666,0,0,0-.582-.09h-1.76v2.452Z" transform="translate(-1132.052 -1023.965)" fill="#fff"/>
			<path id="Path_20" data-name="Path 20" d="M1286.669,1028.1v2.029h3.706v.993h-4.7v-6.912h4.7v.993h-3.706v1.9h3.139v.993Z" transform="translate(-1181.781 -1023.965)" fill="#fff"/>
			<path id="Path_21" data-name="Path 21" d="M1398.569,1026.833a4.008,4.008,0,0,1-.249,1.437,3.377,3.377,0,0,1-.7,1.136,3.223,3.223,0,0,1-1.08.75,3.625,3.625,0,0,1-2.743,0,3.232,3.232,0,0,1-1.075-.75,3.381,3.381,0,0,1-.7-1.136,4.253,4.253,0,0,1,0-2.869,3.376,3.376,0,0,1,.7-1.141,3.234,3.234,0,0,1,1.075-.75,3.625,3.625,0,0,1,2.743,0,3.224,3.224,0,0,1,1.08.75,3.372,3.372,0,0,1,.7,1.141A4.022,4.022,0,0,1,1398.569,1026.833Zm-3.4,2.6a2.391,2.391,0,0,0,.973-.2,2.187,2.187,0,0,0,.758-.544,2.539,2.539,0,0,0,.489-.824,3.135,3.135,0,0,0,0-2.071,2.537,2.537,0,0,0-.489-.824,2.188,2.188,0,0,0-.758-.544,2.52,2.52,0,0,0-1.946,0,2.187,2.187,0,0,0-.758.544,2.537,2.537,0,0,0-.489.824,3.135,3.135,0,0,0,0,2.071,2.539,2.539,0,0,0,.489.824,2.186,2.186,0,0,0,.758.544A2.393,2.393,0,0,0,1395.166,1029.433Z" transform="translate(-1272.832 -1023.134)" fill="#fff"/>
			<path id="Path_22" data-name="Path 22" d="M1465.48,1031.12l-1.525-2.473h-1.526v2.473h-1v-6.912h2.748a2.775,2.775,0,0,1,1.017.169,1.8,1.8,0,0,1,1.11,1.168,2.843,2.843,0,0,1,.132.882,2.525,2.525,0,0,1-.347,1.347,1.8,1.8,0,0,1-1.1.777v.021l1.682,2.547Zm-1.291-3.466a1.571,1.571,0,0,0,.587-.1,1.012,1.012,0,0,0,.382-.259.97.97,0,0,0,.21-.386,1.76,1.76,0,0,0,.064-.486,1.821,1.821,0,0,0-.064-.491.921.921,0,0,0-.6-.645,1.665,1.665,0,0,0-.582-.09h-1.76v2.452Z" transform="translate(-1332.625 -1023.965)" fill="#fff"/>
			<path id="Path_23" data-name="Path 23" d="M1517.95,1031.12V1025.2h-2.024v-.993h5.056v.993h-2.034v5.918Z" transform="translate(-1379.394 -1023.965)" fill="#fff"/>
			<path id="Path_24" data-name="Path 24" d="M1022.484,1026.733a3.733,3.733,0,0,0-.914-.264q-.493-.079-.914-.175a2.059,2.059,0,0,1-.7-.285.674.674,0,0,1-.282-.6,1.01,1.01,0,0,1,.349-.787,1.685,1.685,0,0,1,1-.312,1.778,1.778,0,0,1,1.292.342l.888-.607c-.037-.035-.073-.069-.108-.1a3.109,3.109,0,0,0-2.093-.63,2.836,2.836,0,0,0-.955.153,2.161,2.161,0,0,0-.739.433,1.879,1.879,0,0,0-.472.671,2.215,2.215,0,0,0-.164.866,1.923,1.923,0,0,0,.164.851,1.54,1.54,0,0,0,.426.539,1.938,1.938,0,0,0,.6.317,5.75,5.75,0,0,0,.693.18q.354.069.7.127a2.947,2.947,0,0,1,.606.164,1.152,1.152,0,0,1,.426.285.693.693,0,0,1,.164.486,1,1,0,0,1-.375.814,1.673,1.673,0,0,1-1.083.306,1.594,1.594,0,0,1-1.052-.306,5.127,5.127,0,0,1-.466-.417l-.626.789a4.467,4.467,0,0,0,.363.363,2.32,2.32,0,0,0,.775.417,3.217,3.217,0,0,0,1.006.148,3.3,3.3,0,0,0,1.021-.148,2.211,2.211,0,0,0,.78-.428,1.943,1.943,0,0,0,.5-.676,2.14,2.14,0,0,0,.18-.893,1.593,1.593,0,0,0-.986-1.622Z" transform="translate(-952.624 -1023.198)" fill="#fff"/>
			<path id="Path_25" data-name="Path 25" d="M1343.846,1026.733a3.735,3.735,0,0,0-.914-.264q-.493-.079-.914-.175a2.058,2.058,0,0,1-.7-.285.674.674,0,0,1-.282-.6,1.01,1.01,0,0,1,.349-.787,1.686,1.686,0,0,1,1-.312,1.778,1.778,0,0,1,1.292.342l.888-.607c-.037-.035-.073-.069-.108-.1a3.109,3.109,0,0,0-2.093-.63,2.837,2.837,0,0,0-.955.153,2.162,2.162,0,0,0-.739.433,1.878,1.878,0,0,0-.472.671,2.211,2.211,0,0,0-.164.866,1.92,1.92,0,0,0,.164.851,1.54,1.54,0,0,0,.426.539,1.936,1.936,0,0,0,.6.317,5.74,5.74,0,0,0,.693.18q.354.069.7.127a2.945,2.945,0,0,1,.606.164,1.152,1.152,0,0,1,.426.285.693.693,0,0,1,.164.486,1,1,0,0,1-.375.814,1.674,1.674,0,0,1-1.083.306,1.594,1.594,0,0,1-1.052-.306,5.135,5.135,0,0,1-.466-.417l-.626.789a4.471,4.471,0,0,0,.363.363,2.321,2.321,0,0,0,.775.417,3.216,3.216,0,0,0,1.006.148,3.3,3.3,0,0,0,1.021-.148,2.211,2.211,0,0,0,.78-.428,1.942,1.942,0,0,0,.5-.676,2.139,2.139,0,0,0,.18-.893,1.593,1.593,0,0,0-.986-1.622Z" transform="translate(-1228.43 -1023.198)" fill="#fff"/>
			<path id="Path_26" data-name="Path 26" d="M1572.891,1026.733a3.734,3.734,0,0,0-.914-.264q-.493-.079-.914-.175a2.06,2.06,0,0,1-.7-.285.674.674,0,0,1-.282-.6,1.01,1.01,0,0,1,.349-.787,1.686,1.686,0,0,1,1-.312,1.777,1.777,0,0,1,1.292.342l.888-.607c-.037-.035-.073-.069-.108-.1a3.109,3.109,0,0,0-2.093-.63,2.835,2.835,0,0,0-.955.153,2.158,2.158,0,0,0-.739.433,1.878,1.878,0,0,0-.472.671,2.218,2.218,0,0,0-.164.866,1.925,1.925,0,0,0,.164.851,1.542,1.542,0,0,0,.426.539,1.937,1.937,0,0,0,.6.317,5.742,5.742,0,0,0,.693.18q.354.069.7.127a2.946,2.946,0,0,1,.606.164,1.149,1.149,0,0,1,.426.285.693.693,0,0,1,.164.486,1,1,0,0,1-.375.814,1.673,1.673,0,0,1-1.083.306,1.594,1.594,0,0,1-1.052-.306,5.135,5.135,0,0,1-.466-.417l-.626.789a4.508,4.508,0,0,0,.363.363,2.319,2.319,0,0,0,.775.417,3.215,3.215,0,0,0,1.006.148,3.3,3.3,0,0,0,1.021-.148,2.212,2.212,0,0,0,.78-.428,1.942,1.942,0,0,0,.5-.676,2.141,2.141,0,0,0,.18-.893,1.593,1.593,0,0,0-.985-1.622Z" transform="translate(-1425.006 -1023.198)" fill="#fff"/>
		</g>
		<circle id="Ellipse_1" data-name="Ellipse 1" cx="1.723" cy="1.723" r="1.723" transform="translate(317.249 683.475)" fill="#fff"/>
		<circle id="Ellipse_2" data-name="Ellipse 2" cx="1.723" cy="1.723" r="1.723" transform="translate(477.543 683.421)" fill="#fff"/>
	</g>
</svg>
