<svg xmlns="http://www.w3.org/2000/svg" xmlns:xlink="http://www.w3.org/1999/xlink" xml:space="preserve" id="Layer_1" x="0" y="0" version="1.1" viewBox="0 0 211 66"><style>.st1{fill:#fff; transition: 0.3s all;}.st26{fill:#4e86fb}</style><defs><path id="SVGID_1_" d="M120.2 1v9.3L113.8 1H110v15h3.8V6.8l6.4 9.2h3.8V1z"/></defs><clipPath id="SVGID_00000099622577190513473920000000345706228000410003_"><use xlink:href="#SVGID_1_" overflow="visible"/></clipPath><g clip-path="url(#SVGID_00000099622577190513473920000000345706228000410003_)"><path d="M109 0h16v17h-16V0z" class="st1"/></g><defs><path id="SVGID_00000116223214101042275090000002387081087821653912_" d="M126 1v15h10v-2.9h-6.1V9.8h5.4V7h-5.4V3.9h6.1V1h-10z"/></defs><clipPath id="SVGID_00000157998131473604011660000016188804949406458790_"><use xlink:href="#SVGID_00000116223214101042275090000002387081087821653912_" overflow="visible"/></clipPath><g clip-path="url(#SVGID_00000157998131473604011660000016188804949406458790_)"><path d="M125 0h12v17h-12V0z" class="st1"/></g><defs><path id="SVGID_00000137106117495426494360000014979919522538840977_" d="M138 1v2.9h4.1V16h3.7V3.9h4.2V1h-12z"/></defs><clipPath id="SVGID_00000021108288198121655900000018225860844988542627_"><use xlink:href="#SVGID_00000137106117495426494360000014979919522538840977_" overflow="visible"/></clipPath><g clip-path="url(#SVGID_00000021108288198121655900000018225860844988542627_)"><path d="M137 0h14v17h-14V0z" class="st1"/></g><defs><path id="SVGID_00000160179698496788022680000014703033815091735441_" d="M156.1 1v2.9h6.6l-6.7 9.3V16h11v-2.9h-6.8l6.8-9.3V1h-10.9z"/></defs><clipPath id="SVGID_00000096052321623293057470000007386754312312331173_"><use xlink:href="#SVGID_00000160179698496788022680000014703033815091735441_" overflow="visible"/></clipPath><g clip-path="url(#SVGID_00000096052321623293057470000007386754312312331173_)"><path d="M155 0h13v17h-13V0z" class="st1"/></g><defs><path id="SVGID_00000100357797669862112940000004147361599152614846_" d="M169 1v15h10v-2.9h-6.1V9.8h5.4V7h-5.4V3.9h6.1V1h-10z"/></defs><clipPath id="SVGID_00000072276246212721798810000016420514429276291719_"><use xlink:href="#SVGID_00000100357797669862112940000004147361599152614846_" overflow="visible"/></clipPath><g clip-path="url(#SVGID_00000072276246212721798810000016420514429276291719_)"><path d="M168 0h12v17h-12V0z" class="st1"/></g><defs><path id="SVGID_00000177454871482189505020000005347922746389354647_" d="m188.8 16.6-3.3-5.8h-.8v5.8H181V1.2h6.3c1.1 0 2.1.2 3.1.6.8.4 1.4 1 1.9 1.7.4.8.6 1.6.6 2.5 0 1-.3 2-.9 2.9-.7.8-1.6 1.4-2.7 1.6l3.6 6-4.1.1zm-4.1-8.4h2.3c.6.1 1.2-.1 1.6-.5.4-.4.6-.9.5-1.4 0-.5-.2-1.1-.5-1.4-.4-.4-1-.6-1.6-.5h-2.3v3.8z"/></defs><clipPath id="SVGID_00000062892108314627654970000012342069234211760038_"><use xlink:href="#SVGID_00000177454871482189505020000005347922746389354647_" overflow="visible"/></clipPath><g clip-path="url(#SVGID_00000062892108314627654970000012342069234211760038_)"><path d="M180 .2h14v17.4h-14V.2z" class="st1"/></g><defs><path id="SVGID_00000051384896936606958460000011674801525035590789_" d="M206.2 2c1.2.7 2.1 1.6 2.8 2.8 1.4 2.5 1.4 5.6 0 8.1-.7 1.2-1.6 2.2-2.8 2.8-2.4 1.3-5.4 1.3-7.8 0-1.2-.7-2.1-1.6-2.8-2.8-1.4-2.5-1.4-5.6 0-8.1.7-1.2 1.6-2.1 2.8-2.8 2.4-1.3 5.4-1.3 7.8 0m-6.8 3.6c-1.4 1.9-1.4 4.5 0 6.4 1.6 1.6 4.2 1.6 5.8 0 1.4-1.9 1.4-4.5 0-6.4-1.7-1.5-4.2-1.5-5.8 0"/></defs><clipPath id="SVGID_00000022524265965823619050000001810903299877243546_"><use xlink:href="#SVGID_00000051384896936606958460000011674801525035590789_" overflow="visible"/></clipPath><g clip-path="url(#SVGID_00000022524265965823619050000001810903299877243546_)"><defs><path id="SVGID_00000028294089635905929460000005771401728665500556_" d="M194.5 1H210v15.8h-15.5z"/></defs><clipPath id="SVGID_00000172400168550400099120000003690554516455084706_"><use xlink:href="#SVGID_00000028294089635905929460000005771401728665500556_" overflow="visible"/></clipPath><g clip-path="url(#SVGID_00000172400168550400099120000003690554516455084706_)"><path d="M193.5 0H211v17.8h-17.5V0z" class="st1"/></g></g><defs><path id="SVGID_00000036943968083426151200000004764460642686945935_" d="M124 40.7h-3.7l-6.2-9.4v9.4h-3.7V25.4h3.7l6.2 9.5v-9.5h3.7z"/></defs><clipPath id="SVGID_00000088109826041792557180000009992599947329862836_"><use xlink:href="#SVGID_00000036943968083426151200000004764460642686945935_" overflow="visible"/></clipPath><g clip-path="url(#SVGID_00000088109826041792557180000009992599947329862836_)"><path d="M109.4 24.4H125v17.4h-15.6V24.4z" class="st1"/></g><defs><path id="SVGID_00000061445720029066348870000002617045904136401543_" d="M130.5 28.3v3.2h5.2v2.8h-5.2v3.5h5.8v2.9h-9.5V25.4h9.5v2.9h-5.8z"/></defs><clipPath id="SVGID_00000057855841016502091470000017641182465243964084_"><use xlink:href="#SVGID_00000061445720029066348870000002617045904136401543_" overflow="visible"/></clipPath><g clip-path="url(#SVGID_00000057855841016502091470000017641182465243964084_)"><path d="M125.8 24.4h11.5v17.4h-11.5V24.4z" class="st1"/></g><defs><path id="SVGID_00000148648894891152374640000001142854886406937227_" d="M142.4 28.3v3.2h5.1v2.8h-5.1v3.5h5.8v2.9h-9.5V25.4h9.5v2.9h-5.8z"/></defs><clipPath id="SVGID_00000160154686356091547560000010853818044173341837_"><use xlink:href="#SVGID_00000148648894891152374640000001142854886406937227_" overflow="visible"/></clipPath><g clip-path="url(#SVGID_00000160154686356091547560000010853818044173341837_)"><path d="M137.7 24.4h11.5v17.4h-11.5V24.4z" class="st1"/></g><defs><path id="SVGID_00000011007110620944264200000002371131885284056733_" d="M163.3 37c-.6 1.2-1.6 2.1-2.8 2.7-1.3.7-2.8 1-4.3 1h-5.8V25.4h5.8c1.5 0 3 .3 4.3 1 1.2.6 2.1 1.5 2.8 2.7 1.3 2.5 1.3 5.4 0 7.9m-4-.7c1.6-1.9 1.6-4.6 0-6.5-.9-.8-2.1-1.2-3.4-1.2h-1.8v8.8h1.8c1.3.1 2.5-.3 3.4-1.1"/></defs><clipPath id="SVGID_00000054954575403295224570000004315319375241604025_"><use xlink:href="#SVGID_00000011007110620944264200000002371131885284056733_" overflow="visible"/></clipPath><g clip-path="url(#SVGID_00000054954575403295224570000004315319375241604025_)"><path d="M149.5 24.4h15.8v17.4h-15.8V24.4z" class="st1"/></g><defs><path id="SVGID_00000035504209118863935560000009943637768123988918_" d="M177 38.6c-.4.7-1.1 1.3-1.8 1.6-.9.4-1.9.6-2.9.6-1.5.1-3-.4-4.2-1.3-1.1-.8-1.8-2.1-1.8-3.5h3.9c0 .5.3 1 .6 1.4.4.3.9.5 1.4.5.4 0 .8-.1 1.1-.4.3-.3.4-.6.4-1s-.1-.7-.4-1c-.3-.3-.6-.5-1-.6-.4-.2-.9-.4-1.6-.6-.8-.3-1.6-.6-2.4-1-.6-.3-1.2-.8-1.6-1.4-.9-1.5-.9-3.3 0-4.8.5-.7 1.1-1.2 1.9-1.5.9-.4 1.8-.6 2.8-.5 1.5-.1 2.9.4 4.1 1.2 1 .8 1.6 2 1.7 3.4h-4c0-.5-.2-.9-.5-1.2-.3-.3-.8-.5-1.2-.4-.4 0-.7.1-1 .3-.3.3-.4.6-.4 1 0 .3.1.7.4.9.3.3.6.5.9.6.4.2.9.4 1.6.6.8.3 1.6.6 2.4 1 .6.3 1.2.8 1.6 1.4.5.7.7 1.6.7 2.4-.1.9-.3 1.6-.7 2.3"/></defs><clipPath id="SVGID_00000065041979445101520580000002701883822194314626_"><use xlink:href="#SVGID_00000035504209118863935560000009943637768123988918_" overflow="visible"/></clipPath><g clip-path="url(#SVGID_00000065041979445101520580000002701883822194314626_)"><path d="M165.2 24.1h13.5v17.8h-13.5V24.1z" class="st1"/></g><defs><path id="SVGID_00000029734943385494036790000010325975265606009492_" d="M124 64.8h-3.7l-6.2-9.4v9.4h-3.7V49.5h3.7l6.2 9.5v-9.5h3.7z"/></defs><clipPath id="SVGID_00000158014552502126472790000001872679283742383755_"><use xlink:href="#SVGID_00000029734943385494036790000010325975265606009492_" overflow="visible"/></clipPath><g clip-path="url(#SVGID_00000158014552502126472790000001872679283742383755_)"><path d="M109.4 48.5H125v17.4h-15.6V48.5z" class="st1"/></g><defs><path id="SVGID_00000150085959836024780850000012624066497997705618_" d="M130.4 49.5v8.9c-.1.8.2 1.7.7 2.3.5.6 1.2.9 2 .8.8.1 1.5-.2 2-.8.5-.7.7-1.5.7-2.3v-8.9h3.7v8.9c0 1.3-.2 2.5-.8 3.7-.5 1-1.4 1.7-2.3 2.2-1 .5-2.2.8-3.3.8-1.1 0-2.3-.2-3.3-.8-.9-.5-1.7-1.3-2.2-2.2-.6-1.1-.8-2.4-.8-3.7v-8.9h3.6z"/></defs><clipPath id="SVGID_00000017516839320754880040000002554765857606657971_"><use xlink:href="#SVGID_00000150085959836024780850000012624066497997705618_" overflow="visible"/></clipPath><g clip-path="url(#SVGID_00000017516839320754880040000002554765857606657971_)"><path d="M125.7 48.5h14.7V66h-14.7V48.5z" class="st1"/></g><defs><path id="SVGID_00000026130783897083783080000013613690434393044670_" d="M154 50.9c1.3 1.1 2.2 2.5 2.5 4.2h-3.9c-.3-.7-.7-1.3-1.3-1.7-.6-.4-1.4-.6-2.1-.6-1 0-2 .4-2.6 1.2-.7.9-1.1 2-1 3.2-.1 1.1.3 2.3 1 3.2.6.8 1.6 1.2 2.6 1.2.8 0 1.5-.2 2.1-.6.6-.4 1.1-1 1.3-1.6h3.9c-.3 1.6-1.2 3.1-2.5 4.2-1.4 1.1-3.1 1.6-4.8 1.6-1.4 0-2.7-.3-3.9-1-1.1-.7-2-1.6-2.6-2.8-1.2-2.6-1.2-5.6 0-8.1.6-1.2 1.5-2.1 2.6-2.8 1.2-.7 2.6-1 3.9-1 1.7-.3 3.4.3 4.8 1.4"/></defs><clipPath id="SVGID_00000093140377090232895370000018324037453912651681_"><use xlink:href="#SVGID_00000026130783897083783080000013613690434393044670_" overflow="visible"/></clipPath><g clip-path="url(#SVGID_00000093140377090232895370000018324037453912651681_)"><path d="M140.7 48.3h16.8V66h-16.8V48.3z" class="st1"/></g><defs><path id="SVGID_00000057110394140555499300000003679966100277512119_" d="M162.5 62h4.9v2.9h-8.6V49.5h3.7z"/></defs><clipPath id="SVGID_00000114036795172670907330000001943730064549154476_"><use xlink:href="#SVGID_00000057110394140555499300000003679966100277512119_" overflow="visible"/></clipPath><g clip-path="url(#SVGID_00000114036795172670907330000001943730064549154476_)"><path d="M157.8 48.5h10.6v17.4h-10.6V48.5z" class="st1"/></g><defs><path id="SVGID_00000136409864518005363940000018251199839774493839_" d="M173 52.4v3.3h5.2v2.8H173v3.4h5.9v3h-9.6V49.5h9.6v2.9z"/></defs><clipPath id="SVGID_00000152228780218916859870000001327166274143906971_"><use xlink:href="#SVGID_00000136409864518005363940000018251199839774493839_" overflow="visible"/></clipPath><g clip-path="url(#SVGID_00000152228780218916859870000001327166274143906971_)"><path d="M168.3 48.5h11.5v17.4h-11.5V48.5z" class="st1"/></g><defs><path id="SVGID_00000074423699365813573880000015945495733868793277_" d="M190.7 62.1h-5.8l-1 2.8H180l5.6-15.3h4.3l5.6 15.3h-3.9l-.9-2.8zm-1-2.9-1.9-5.6-1.9 5.7 3.8-.1z"/></defs><clipPath id="SVGID_00000071552042895039861520000007095685060800132792_"><use xlink:href="#SVGID_00000074423699365813573880000015945495733868793277_" overflow="visible"/></clipPath><g clip-path="url(#SVGID_00000071552042895039861520000007095685060800132792_)"><path d="M179.1 48.6h17.5v17.3h-17.5V48.6z" class="st1"/></g><defs><path id="SVGID_00000077311088276931824810000009686597771832901300_" d="m205.1 64.8-3.3-5.8h-.8v5.8h-3.7V49.5h6.3c1.1 0 2.1.2 3.1.6.8.4 1.4 1 1.9 1.7.4.8.6 1.6.6 2.5 0 1-.3 2-.9 2.9-.7.8-1.6 1.4-2.7 1.6l3.7 6h-4.2zm-4.1-8.3h2.3c.6 0 1.2-.1 1.6-.5.7-.8.7-2 0-2.9-.4-.4-1-.6-1.6-.5H201v3.9z"/></defs><clipPath id="SVGID_00000023977632026050348980000017445702987456582047_"><use xlink:href="#SVGID_00000077311088276931824810000009686597771832901300_" overflow="visible"/></clipPath><g clip-path="url(#SVGID_00000023977632026050348980000017445702987456582047_)"><path d="M196.2 48.5h14v17.4h-14V48.5z" class="st1"/></g><defs><path id="SVGID_00000156570964073288141240000014983626100261193099_" d="m59.8 14.8-.6-.4c-2.8-1.7-5.8-2.9-9-3.4 15.2-5.9 28.3-6 32.1.5 2 3.4 1.1 8.1-2 13.3 1.4 1.4 2.7 2.8 3.9 4.2C89.4 21.2 91 13.8 88 8.4 81.6-2.7 57.3-.6 33.8 13l-.8.4c-1 .5-2 1.1-2.9 1.7l-.8.6-.3.1c-6.6 4.8-9.8 13-8.3 21C10.1 27.3 4.8 17.4 8.2 11.5c2.9-5 11.3-6.1 22-3.6 2.3-1.3 4.6-2.5 6.9-3.6C21-.8 7.3.4 2.7 8.4-3.4 19 9.2 37.9 31 51.5c2.8 1.7 5.8 2.9 9 3.6-15.3 5.9-28.5 6-32.2-.5-2-3.5-1-8.3 2.2-13.6-1.3-1.3-2.5-2.6-3.6-3.9-5.2 7.8-6.8 15.2-3.8 20.6 6.4 11.1 30.7 9.1 54.2-4.6l1.4-.8c.7-.4 1.5-.8 2.2-1.3l.1-.1c.4-.3 2-1.5 2.4-1.9 5.8-5 8.4-12.8 6.8-20.3 11 9.7 16.5 19.8 13 25.9-2.9 5.1-11.5 6.1-22.3 3.6-2.3 1.3-4.7 2.6-7 3.7 16.1 5 29.8 3.8 34.4-4.2 6.1-10.6-6.3-29.4-28-42.9m-14.7 37c-11.5 0-20.7-8.4-20.7-18.8s9.3-18.8 20.7-18.8S65.8 22.6 65.8 33s-9.2 18.9-20.7 18.8"/></defs><clipPath id="SVGID_00000061464945338743960130000015504586359816019087_"><use xlink:href="#SVGID_00000156570964073288141240000014983626100261193099_" overflow="visible"/></clipPath><g clip-path="url(#SVGID_00000061464945338743960130000015504586359816019087_)"><defs><path id="SVGID_00000068679169059890986170000003500826796557864607_" d="M1 1.2h88.3v63.6H1z"/></defs><clipPath id="SVGID_00000076603108987901973340000012703973142233309318_"><use xlink:href="#SVGID_00000068679169059890986170000003500826796557864607_" overflow="visible"/></clipPath><g clip-path="url(#SVGID_00000076603108987901973340000012703973142233309318_)"><path fill="#39c67f" d="M0 .2h90.3v65.6H0V.2z"/></g></g><ellipse class="bg" style="transition: 0.3s all;" id="Layer_2_00000146478845737371432160000009240195191239322777_" cx="45.2" cy="33" fill="#0049a0" rx="20.7" ry="18.8"/><defs><path id="SVGID_00000116206046680834143910000009356583160035351988_" d="M45.2 10.4c-13.8 0-24.9 10.1-24.9 22.6s11.2 22.6 24.9 22.6S70.1 45.5 70.1 33 58.9 10.4 45.2 10.4m0 41.4c-11.5 0-20.7-8.4-20.7-18.8s9.2-18.8 20.7-18.8S65.9 22.6 65.9 33s-9.3 18.8-20.7 18.8"/></defs><clipPath id="SVGID_00000124158779797381971560000001974806909691152517_"><use xlink:href="#SVGID_00000116206046680834143910000009356583160035351988_" overflow="visible"/></clipPath><g clip-path="url(#SVGID_00000124158779797381971560000001974806909691152517_)"><path d="M19.3 9.4h51.8v47.2H19.3V9.4z" class="st26"/></g><defs><path id="SVGID_00000047038579681917655500000011435557919225748640_" d="M38.7 27.9v.1h-.2v.4l-.1.1c-.1 0 0 .1 0 .2h.3l.1-.1c.1-.1.2-.1.3-.1 0 0 .1 0 .1-.1.1-.1.1-.2.1-.4v-.2c.1-.1.1-.1 0-.2l-.1-.1h-.3c-.1.2-.2.3-.2.4"/></defs><clipPath id="SVGID_00000062888256438856439490000011453636336027414189_"><use xlink:href="#SVGID_00000047038579681917655500000011435557919225748640_" overflow="visible"/></clipPath><g clip-path="url(#SVGID_00000062888256438856439490000011453636336027414189_)"><path d="M37.3 26.8h3V30h-3v-3.2z" class="st26"/></g><defs><path id="SVGID_00000020400554400484433360000011895379730786146183_" d="M60.8 10.1c-.1.2-.1.4-.1.6 0 .1 0 .3.2.4s0 .1.1.2 0 .1 0 .1c-.1 0-.2 0-.2.1v.2c0 .1-.1.2-.1.2h-.1l-.4.1v-.2c0-.1 0-.1-.1-.1s-.1 0-.2.1 0 .1-.1.1h-.1c-.1 0-.1.1-.2.1-.1.1-.1.1 0 .2s0 .1 0 .1c-.1.1-.2.1-.3.2-.1 0-.2.1-.2.2-.1.1-.2.1-.2.2s-.1.1-.1.2c-.1 0-.1.1-.2.2l-.1.1v.2s0 .1.1.1c.1.1.2.1.3.2.1 0 .2.1.3.2v.2s-.1 0-.1-.1 0-.1-.1-.1h-.1c-.1.1-.2.2-.4.2l-.4.2h-.1c-.1 0-.2.1-.1.2v.1c0 .1.1.1.1.2.1 0 .1.1.1.2 0 0 0 .1.1.1l.1.1h.3l.2.2h.1l.2.1.1.1c0 .2.1.3.2.4v.1l-.1.1v-.1c-.1-.1-.1-.3 0-.4v-.1c0-.1-.1-.2-.1-.1h-.2c-.1 0-.2 0-.3-.1 0-.1-.1-.1-.2-.1-.1-.1-.2-.1-.3-.1l-.3-.1h-.1c-.1 0-.1.1-.1.2v.1h.1l.1.1h.1v.1h-.1l-.1-.1h-.1s-.1 0-.1.1v.1l.3.3h.3-.5c-.1 0-.1 0-.2-.1V16c-.1-.1-.1-.3-.2-.4 0-.1-.1-.2-.1-.3 0 0-.1 0-.1-.1 0 0 .1.2.1.3v.3c-.1.1-.1.2-.1.2v.3l.2.2.1.1c.1.1.1.1.1.2v.3c0 .2.1.3.2.5l.1.1c.1 0 .2 0 .2-.1.1-.1.2-.1.3 0l-.5.7c-.1.1-.1.2 0 .3l.1.1v.2c-.1.1-.1.2-.1.4v.2c-.1.1-.1.2-.2.4H57v-.1l.1.1c.1 0 .2 0 .2-.1.1-.2.1-.5.2-.7v-.4c0-.1 0-.1-.1-.2 0 0-.1-.1-.2-.1l-.2-.2-.3-.9c0-.2-.1-.3-.3-.4-.1-.1-.1-.1-.1-.2 0-.3 0-.5-.1-.8 0-.1 0-.1-.1-.1-.2-.1-.4-.1-.6-.1h-.2s-.1 0-.1.1v.8c0 .1 0 .2-.1.3-.1.1-.1.2-.1.3 0 .1 0 .2.1.2s.1.1.1.2.1.2 0 .3 0 .1 0 .1.1.2.2.3h.2l.3.3v.3h-.1l.2-.3s-.1-.1-.2-.1l-.3-.1-.2-.1c-.1 0-.2-.1-.2-.1-.2-.1-.3-.1-.5-.1h-.1c-.2 0-.4 0-.6-.2-.1-.1-.2-.1-.3-.2h-.1c0 .1 0 .2.1.3.1.1.2.1.3.2h.1s.1 0 .1.1c.1.1.1.2.2.3v.1c-.1.1-.2.1-.2.2v-.1c0-.1-.1-.1-.1-.1-.1 0-.2.1-.3.1 0 .1-.1.1-.2.1s-.2 0-.2.1c-.1 0-.2 0-.3.1h-.1V19c0-.1 0-.2-.1-.3-.1 0-.2 0-.2.1 0 0-.1.1-.2.1s-.1 0-.2.1c-.1 0-.2.1-.2.1-.1.2-.3.3-.5.4l-.1.1v.3c-.1.1-.3.1-.4 0l-.2-.2v-.2l.2-.1v-.1l-.2-.2c-.1-.1-.2-.2-.3-.1h-.3v.1c.2.1.2.3.2.5v.1c0 .1 0 .1.1.1s.1.1.1.2v.1l-.1.1h-.2c-.1 0-.2 0-.3.1 0 .1-.1.1-.1.1l-.2.2c-.1.2-.2.2 0 .4v.2l-.1.1c-.2-.1-.4-.2-.5-.3H49s-.1 0-.1.1v.2c.1.1.2.1.3.2h.1v.1c0 .1-.1.1-.1.1-.1 0-.2-.1-.3-.1 0-.1-.1-.1-.2-.1s-.1 0-.1-.1-.1-.2-.1-.3v-.2c0-.2-.1-.3-.2-.4-.1 0-.1-.1-.2-.1 0-.1-.1-.1-.2-.2.1 0 .2 0 .3.1.3.1.5.2.8.2.2 0 .4 0 .6-.1 0 0 .1 0 .1-.1.1-.1.2-.3.2-.5v-.1c-.1-.1-.1-.2-.3-.3-.1 0-.1-.1-.1-.1-.1 0-.1-.1-.2-.1s-.2-.1-.3-.1c-.1-.1-.2-.2-.3-.2-.2-.2-.5-.2-.7-.2h-.3v-.2l-.1-.1h-.1c0 .1-.1.1-.2.1H47v-.1c.1 0 .1 0 .2-.1l.1-.1v-.1c-.2-.1-.3-.2-.5-.2h-.1v.1c0 .1 0 0 0 0v.1c0-.1 0-.1-.1-.1h-.1l-.1.1v.1h-.1c0-.1 0-.1-.1-.1s0 0 0-.1-.1-.1-.1-.1-.1.3-.1.4-.2.1-.2.1v-.1c-.2 0-.2 0-.1.2s0 0 0 .1c-.1 0-.3.1-.4.1v.2H45v-.1s0-.1-.1-.1v.1c-.1 0-.2 0-.2.1h-.1c-.1 0-.1 0-.1.1-.1.1-.1.1 0 .2l.1.1v.1s-.1.1-.1 0h-.2s-.1 0-.1-.1 0-.1.1-.2l-.2.3v.3h.1l.2-.1h.2l-.1.1h-.1c-.1 0-.1.1 0 .1s-.1 0-.1.1v.3c0 .1 0 .1-.1.1s-.1.1-.1.2-.1.1-.1.2 0 .1-.1.1 0 .1 0 .1v.4s0 .1-.1.1h-.1c0 .1 0 .1-.1.2s-.2.2-.3.4v.1l-.1.1h-.1v.2s-.2.1-.3.1l-.2.2s0 .1-.1.1h-.1l-.1.1v.5c0 .1 0 0 0 0 0 .1.1.2.1.3 0 0 0 .1.1.2s0 .1 0 .1l-.1.1v.1h.1v.1l-.1.1v.1c.1.1.3.2.4.3h.1c.2-.1.3-.1.4-.2 0-.1.1-.1.1-.2.1-.1.2-.1.3-.2s.1.1.1.1v.2c0 .1.1.2.1.2 0 .1.1.3.2.4.1.1.1.2.2.3v.2c-.1 0-.2 0-.3.1v.1l.1.1v.1H44c-.1-.1-.1-.2-.2-.2s0 0 0-.1.1-.2.1-.2v-.1c-.1 0-.2-.2-.1-.3v-.2s0-.1-.1-.1h-.1c-.1.1-.2.2-.4.3v.1c0 .1-.1.3 0 .4s0 0 0 .1v.1s0 .1.1.1c0 .2.1.3.1.5 0 .1-.1.2-.2.2h-.3c-.1 0-.2.1-.2.1-.1 0-.2.1-.3.1-.1 0-.2.1-.2.2 0 .2-.2.4-.3.6l-.2.1-.1.1v.1c0 .1-.1.1-.2.1h-.1c-.1 0-.1.1-.1.1 0 .1-.1.1-.2.1s-.1 0-.2-.1h-.1l-.1.1v.2c0 .1 0 .1-.1.1h-.3l-.3.1s-.1.1 0 .1c0 .1 0 .2.2.3s.1.1.2.1.2.1.2.2.1.2.2.3c.1 0 .1.1.1.2v.8c0 .1-.1.1-.2.1h-1.3c-.1-.1-.3 0-.4.1h-.2l-.1.1c.1.1.1.3.1.4.1.3 0 .6-.1.8l-.1.2v.1c.1.1.2.3.1.4v.2h.4c.1 0 .1 0 .2.1l.1.2c.1.1.1.1.2.1l.2-.1c.1-.1.3-.1.4-.1h.3c.1 0 .1 0 .2-.1 0-.1.1-.1.2-.1s.1-.1.1-.1c0-.1.1-.2.2-.3v-.1c-.1-.2-.1-.3.1-.5l.1-.1c.1-.1.2-.2.3-.2.2-.1.3-.2.3-.4V31c0-.1.1-.2.2-.1.2 0 .3.1.5.1.1.1.1.1.2 0s.2-.2.3-.2l.1-.1c.1-.1.2-.1.3-.1.1 0 .2.1.2.2l.1.3c.2.1.3.3.4.4.1.1.2.2.4.2.2.1.3.2.4.3 0 .1.1.2.2.2 0 0 .1 0 .1.1s.1.2.1.3v.1c0 .1-.1.2-.2.2-.2.1-.4.1-.7.1h-.1l.2.1.5.2s.1 0 .1-.1V33c0-.1.1-.1.1-.1-.1-.2-.3-.3-.5-.2-.2.1-.3.3-.2.5 0-.1.1-.2.2-.3v-.2c-.1-.1-.1-.2 0-.2 0-.1.1-.1.1-.1.1 0 .1.1.2.1h.1c.1 0 0-.2 0-.2-.2-.1-.4-.3-.6-.3-.1 0-.1-.1-.1-.1v-.1h-.1c-.1 0-.2-.1-.3-.2-.1-.1-.1-.1-.1-.2-.1-.1-.2-.3-.3-.4h-.1c-.1 0-.1-.1-.1-.2v-.2s0-.1.1-.1l.2-.1h.1v.2s0 .1.1.1h.2s.1 0 .1.1c0 .2.1.3.3.4.1.1.2.1.3.2.1.1.1.1.2.1s.2.1.2.1l.2.2v.3c0 .1 0 .3.1.3 0 .1 0 .1.1.2l.2.2c.1.1.1.2.1.3v.2c.1.1.2.2.2.3 0 0 0 .1.1.1s.2.1.3.1c0 0 .1 0 .1-.1s.1-.2.1-.3.2 0 .2-.1v-.1c0-.1-.1-.2-.2-.2 0 0-.1 0-.1-.1l-.3-.4v-.1h.1v.1c.1.1.2.1.2-.1v-.1h.4c.1 0 .2.1.2.2v.4s0 .1.1.1h.2v.1c0 .1-.1.1-.2.1s0 0 0 .1l.1.1s.1 0 .1.1v.1c.1 0 .1.1.2.1 0 .1.1.1.2.2h.1c.1 0 .2 0 .2.1 0 0 .1 0 .1.1s0 0 .1 0 .2 0 .3-.1c.1-.1.1-.1.2-.1s.2.1.2.1c.1.1.2.1.3.1.1 0 .3-.1.3-.2h.4v.8c0 .1-.1.2-.1.3 0 .1-.1.2-.1.4 0 .1-.1.2-.2.3l-.1.1H49c-.2 0-.3 0-.4.1h-.2c-.3-.1-.5-.1-.8-.2-.1 0-.2 0-.3-.1-.1-.1-.2-.1-.4-.1-.1 0-.2-.1-.3-.1l-.1-.1c-.2-.1-.4-.1-.6 0-.1.1-.2.2-.2.4v.2l-.1.1c-.1.1-.2.1-.2 0l-.1-.1c-.1 0-.1-.1-.2-.1-.1-.1-.3-.1-.5-.1-.1 0-.1-.1-.2-.1v-.1c0-.1-.1-.1-.2-.1-.1-.4-.4-.4-.6-.4-.1 0-.2 0-.3-.1-.1-.1-.2-.2-.3-.2v-.2l.2-.2c.1-.1.1-.2 0-.3 0-.1-.1-.1-.1-.1v-.1c0-.1.1-.1.1-.2 0 0 0-.1-.1-.1h-.2c-.1-.1-.2-.1-.3-.1l-.3.1h-1.8c-.1 0-.2 0-.2.1-.1.1-.2.1-.4.2-.1 0-.2.1-.3.2-.1.1-.2.1-.3.1h-.6s0 .1-.1.1c-.1-.1-.2-.1-.2.1 0 .1 0 .1-.1.2 0 .2-.1.3-.3.4l-.4.2c-.1.1-.2.2-.2.3s0 .1-.1.2-.1.2-.1.3v.4l-.1.2-.1.1-.2.1c-.1.1-.2.1-.3.1-.1 0-.2.1-.2.1l-.1.1c0 .1-.1.2-.2.2-.1.1-.2.2-.2.3-.1.2-.2.3-.3.5l-.1.1-.3.6c0 .1-.1.2-.1.2 0 .1 0 .2.1.3.1 0 .1.1.1.2v.2c.1.2.1.4 0 .7v.1c0 .2-.1.4-.2.6v.1l.1.2v.5c0 .1.1.1.2.2.1 0 .1.1.2.1 0 .1 0 .1.1.2.1 0 .1.1.1.2 0 0 0 .1.1.1.1.1.2.1.3.2l.1.1c0 .2.1.3.2.4l.3.3c.1 0 .2.1.3.2.2.2.4.3.6.5.1.1.2.1.3.1h.1l.2-.1c.1-.1.3-.1.4-.1h.3c.1 0 .3 0 .4.1h.3c.1 0 .2-.1.2-.1.1 0 .1 0 .2-.1s.2-.1.3-.1c.1 0 .2-.1.3-.1.2 0 .3-.1.5-.1h.1c.1 0 .3.2.3.3 0 .1.1.1.1.2s.2.2.3.2h.1c.2 0 .3-.1.5-.1s.2 0 .2.1l.1.1c.1.1.2.2.2.4v.3c0 .1-.1.1-.1.2v.3c0 .1-.1.3-.2.4v.1c.1.3.3.6.5.8l.2.1c.1.1.2.2.2.3 0 .1 0 .1.1.2 0 .1.1.3.2.4.1.2.1.3.1.5v.2c0 .1.1.2.1.3 0 0 0 .1.1.1.1.2 0 .4-.1.6l-.2.2c-.1.1-.1.2-.1.3 0 .2-.1.3-.1.5 0 .1-.1.2-.1.2v.4c0 .1 0 .2.1.2.1.1.2.3.3.5.1.2.1.4.2.6.1.1.1.3.1.4 0 .2 0 .3.1.5v.2c0 .2 0 .3.1.5 0 .2.1.4.2.5.1.1.1.2.2.2.1.1.1.2.1.3 0 .2.1.4.2.6v.1c.1.1.1.2 0 .3v.1c.1.1.1.2.1.3v.1c.1.1.2.1.4.2h.1c.1-.1.2-.1.4-.1h.2c.1 0 .2-.1.3-.1h.5c.1-.1.2 0 .3-.1s.1 0 .1 0c.2 0 .3-.1.5-.2s.4-.3.5-.5c.1-.1.2-.2.3-.4.1-.1.2-.3.3-.4 0-.1.1-.1.2-.2s.2-.2.3-.4c0-.1.1-.2.1-.4V54c-.1-.1-.1-.1 0-.2s.2-.1.3-.2c.1 0 .2-.1.3-.1.1 0 .1-.1.2-.2v-.6l-.2-.6v-.2c.3-.2.5-.4.8-.7.1-.1.2-.1.2-.1.1 0 .2-.1.3-.1.2-.1.4-.3.4-.5v-1.3c0-.1 0-.2-.1-.2-.1-.1-.2-.2-.2-.3 0-.2-.1-.3-.1-.5v-.1c.1-.1.1-.2 0-.2-.1-.1-.2-.2-.1-.4 0-.1.1-.2.2-.3.1-.1.2-.3.2-.4 0-.1.1-.1.1-.2l.3-.3c.2-.3.5-.6.7-.8.1-.2.3-.3.5-.4h.1c.4-.4.8-.8 1-1.4l.3-.6c.1-.1.1-.3.2-.4 0-.2.1-.4 0-.6 0-.1-.1-.1-.1-.1-.1.1-.3.2-.5.2s-.5.1-.7.1h-.1c-.1 0-.3 0-.4.1h-.2l-.1-.1-.3-.3v-.1s.1-.2 0-.3l-.2-.2c-.1-.1-.2-.3-.4-.4-.1-.1-.2-.1-.3-.2-.2-.1-.3-.2-.4-.4 0-.1-.1-.2-.1-.3 0-.1-.1-.2-.2-.3l-.2-.2c-.1 0-.1-.1-.1-.2 0-.2-.1-.4-.1-.6 0-.2-.2-.3-.3-.4 0 0-.1 0-.1-.1 0 0 0-.1-.1-.1v-.1c0-.1 0-.2-.1-.3l-.1-.2c-.2-.2-.3-.5-.4-.7 0 0 0-.1-.1-.1v-.1h.1l.1-.1c.1 0 .1 0 .2.1l.1.1c.1.2.2.4.4.6.1.1.1.2.2.3 0 .1.1.1.1.2.1.1.3.2.3.3l.1.1c0 .1.1.2.1.2v.1c0 .2.1.4.3.5l.2.1c.1.1.2.2.2.3 0 .1.1.3.2.4.1.1.2.2.2.3.1.1.1.3.1.4v.1c.1.2.1.4.2.5 0 .1 0 .1.1.2 0 .1.1.1.2.1h.2c.1 0 .2 0 .2-.1.1-.1.2-.1.3-.1.1 0 .3 0 .4-.1.1-.1.1-.1.2-.1s.1 0 .2-.1.1-.1.2-.1l.4-.1c.1 0 .2-.1.3-.1l.1-.1c0-.1.1-.2.2-.2l.5-.1c.1 0 .2-.1.2-.2s.1-.1.1-.1c.1 0 .2-.1.3-.2 0-.1.1-.1.1-.1h.1s0-.1.1-.1v-.2c0-.1 0-.1.1-.1.2-.1.3-.3.4-.5.1-.1 0-.2 0-.3l-.2-.2c0-.1-.1-.1-.2-.1H57c-.1 0-.1 0-.2-.1s-.2-.2-.2-.3v-.3h-.1c-.1.1-.3.3-.4.5-.1.1-.2.2-.4.2h-.4s-.1-.1-.1-.2v-.4H55l-.1.1c0 .1-.1.1-.1 0s-.1-.1-.1-.2-.1-.2-.2-.3V37s-.1 0-.1-.1l-.2-.4v-.2h.4l.1.1.3.4c0 .1.1.1.2.1h.1c.1 0 .2.1.2.1s.1.1.2.1c.1.1.3.1.4.2h.2l.3-.1c.1 0 .2 0 .2.1s.1.2.1.2c0 .1.1.1.2.1.3 0 .7.1 1 .1h1.5c.1 0 .1 0 .1.1l.1.1c.1 0 .1.1.1.1 0 .1.1.2.2.2s.2.1.2.1c.1.1.2.2.4.2h.1c-.1.1-.1.1-.2.1h-.1v.1l.3.3c.1.1.3.2.5 0 .1-.1.2-.1.2-.3.1.2.1.3.1.5v.2c.1.2.1.4.1.6.1.2.1.3.2.5v.1c.1.1.1.2.2.3.1.1.1.3.2.4 0 .1 0 .1.1.2 0 .1.1.3.2.4.1.1.1.1.1.2.1.2.2.3.2.5 0 .1.1.2.1.3l.1.1c.1.1.2.1.3 0v-.1c0-.1.1-.1.1-.1.1 0 .1-.1.1-.2s.1-.2.2-.2.1-.1.1-.2v-.4l.1-.1v-.9c0-.1.1-.1.1-.2h.1c.1-.1.2-.2.3-.2l.1-.1c0-.1 0-.1.1-.2s.3-.2.4-.4c.1 0 .1-.1.2-.2 0-.1.1-.1.2-.2l.1-.1c.2-.1.3-.3.3-.5 0-.1 0-.1.1-.1s.2-.1.3-.1c.2 0 .4 0 .6-.2.1 0 .2 0 .2-.1s.1 0 .1 0c0 .1.1.1.1.2.1.2.2.5.4.6h.1s.1.1 0 .1 0 .2.1.2.1.1.2.1c.1.2.1.3.1.5v.2c0 .1.1.1.1.1.1 0 .3 0 .4-.1.1-.1.2-.1.3-.2h.1c.1.1.2.1.2.2l.1.3c0 .2.1.4.2.6 0 0 0 .1.1.1v.1c.1.2.1.4 0 .6v.5c0 .1 0 .3.1.3.2.2.3.4.4.6.1.1.1.2.1.3v.3c0 .1 0 .1.1.2s.1.2.2.3c0 0 0 .1.1.1s.1.1.1.1c.1.1.2.2.3.2l.3.2c.1 0 .1.1.2.1v-.1h-.2l.1-.1v-.1c0-.1-.1-.2-.1-.3-.1-.1-.1-.2-.1-.4v-.2c0-.1 0-.2-.1-.2l-.3-.3c-.1-.1-.2-.2-.4-.3-.1 0-.2-.1-.2-.3 0-.1 0-.2-.1-.2-.1-.1-.1-.2-.2-.3-.1 0-.2-.1-.2-.2v-.2c.1-.3.2-.6.2-.8h.1v.1c0 .1.1.2.2.2h.1c.1.1.3.2.3.3.1.2.2.3.4.4h.1s.2.1.1.2 0 .2 0 .3.1 0 .1 0l.4-.4.1-.1c.2-.1.3-.2.5-.3.1-.1.1-.2.2-.3.1-.2.1-.4 0-.5 0-.2-.1-.4-.2-.6 0-.1-.1-.1-.2-.2s-.3-.2-.4-.3c-.1-.1-.2-.1-.2-.2s0-.1-.1-.1l-.3.5v-.1c0-.1 0-.3.1-.4.1-.1.1-.1.1-.2 0 0 0-.1.1-.1l.4-.2h.1s.2 0 .2.2c0 .1.1.1.1.2h.1v-.3c0-.1 0 0 0 0 .2-.1.3-.1.5-.2.1 0 .3-.1.3-.3h.1c.1 0 .1.1.1 0 .1 0 .2-.1.3-.1.1 0 .2 0 .2-.1.1 0 .2-.1.2-.2l.1-.1.3-.3c.1-.1.2-.2.2-.3l.1-.1.1-.1v-.5c.1-.1.2-.2.2-.3 0-.1 0-.1.1-.2s.1-.2.1-.3v-.2c.1-.1.1-.2 0-.3 0-.1-.1-.1-.1-.1h-.1v-.1l.1-.1v-.1c0-.1-.1-.1-.2-.2h.1c.1 0 .1-.1 0-.2l-.1-.1c-.1-.1-.2-.1-.2-.2-.1-.1-.1-.2-.2-.4 0-.1-.1-.1-.2-.2l-.1.2c-.1-.1-.1-.2-.1-.2 0-.1 0-.2.1-.2l.1-.1c0-.1.1-.2.2-.2.1-.1.2-.1.3-.1 0 0 .1 0 .1-.1V33c0-.1 0-.1-.1-.1h-.3s-.1 0-.1-.1h-.1c-.1.1-.2.1-.2.2 0 0-.1 0-.1.1-.1 0-.1 0-.1-.1s-.1-.2-.2-.2-.2-.1-.3-.2c-.1-.1 0-.2.1-.2h.1c.1 0 .1-.1.2-.1 0-.1.1-.3.2-.4l.1-.1.1-.2.1-.1c.1 0 .2 0 .2.1v.8h.1c.1 0 .1-.1.2-.2.1-.2.3-.3.5-.3h.2c.1.1.1.1.1.2v.4c0 .1 0 .1.1.2l.1.1h.3l.1.1v.2-.1c.1.1.2.3.2.5v.1c0 .1 0 .2.1.3.1 0 .1 0 .2-.1s.1-.1.2-.1h.1c.1 0 .1 0 .2-.1s.1-.3.1-.4l-.4-.3c0-.2-.1-.4-.3-.5-.1-.1-.1-.2-.2-.3 0-.1-.1-.2-.2-.2l-.2-.1c-.1-.1-.1-.2 0-.2l.1-.1.2-.2c.2-.1.2-.4.1-.6-.1-.1 0-.3.1-.4l.1-.1.1-.1c0-.1 0-.1.1-.2s.1.1.2.1h.2c.1 0 .1-.1.2-.2s.2-.2.2-.4c.1-.2.2-.4.2-.7v-.1c.1-.2.2-.4.2-.7 0-.2.1-.4.1-.6v-.1c.1-.1.1-.3 0-.4 0-.2-.1-.5-.2-.7-.1-.1-.1-.2-.1-.3v-.7c.1.1.2.2.2.3.1.1.1.3.1.4.1.2.2.4.2.6v.1c0 .2.1.3.2.5 0 .1.1.2.1.2 0 .1 0 .2.1.4 0 .1.1.2.1.2v.1c0 .1.1.2.2.2h.1V28c0-.1 0-.1.1-.1s.1.1.2.1 0-.1 0-.1c0-.1 0-.2-.1-.2-.2-.1-.2-.3-.3-.3s-.1-.2-.1-.3 0-.2-.1-.4v-.1s0-.1.1-.1h.2v-.2c-.2-.4-.4-.8-.7-1.1-.1-.1-.1-.2-.1-.4v-.2c-.1-.2-.2-.4-.3-.5 0-.1-.1-.1-.1-.2s-.1-.1-.2-.1h-.1v.1c.1.1.1.1 0 .3v.2c.1.1.1.3.1.4v.1c0 .1-.1 0-.1 0 0-.1 0-.1-.1-.2l-.1-.1c0-.1 0-.2-.1-.2-.1-.1-.3-.2-.4-.3h-.3c-.1 0-.1 0-.1.1s0 .2-.1.2c0-.1-.1-.2-.2-.3h-.1v.2h-.1c-.1 0-.1-.2-.1-.3s-.1-.1-.2-.1h.2c-.1 0-.1-.1-.1-.1v-.1l.2-.3c.1-.1.1-.2.1-.4 0-.3.1-.5.2-.7.1-.2.1-.3.1-.5v-.2c.1-.1.1-.2 0-.3v-.1c0-.1.1-.2.2-.2s.3-.1.4-.1h.2s.1.1.1 0 .1-.1.2-.1.3-.1.4-.1v-.3c0-.1.1-.1.1-.1l.5.1.1.1v.3s.1.1.1 0 .3-.1.3-.2h.2c0-.1.1-.1.1-.2s-.1-.1-.2-.1c0 0-.1 0-.1-.1-.1-.1-.1-.3 0-.4v-.1c0-.1.1-.2 0-.3V19c0-.1.1-.2.2-.2s.2-.1.2-.1h.2c.1 0 .1 0 .1-.1h.1v.3c0 .1 0 .1.1.2.1 0 .1.1.2.1h.1s0-.1.1-.1c0-.1.1-.3.1-.4 0-.1.1-.2.2-.2 0 0 0-.1.1-.1-.2-.1-.2-.3-.2-.5.1-.1.2-.1.3-.1v.1c-.1.1-.1.2 0 .3.1.1.1.3.1.4v.1c.1.1 0 .2.1.4s-.1.1-.1.2-.1.1-.1.2c0 .2 0 .4-.1.6v.7c0 .2 0 .3-.1.4v.1l-.1.1c-.1.1-.1.1 0 .2s.1.2.1.3v.5c0 .1.1.3.1.4.2.5.4.9.7 1.3.1.1.2.2.2.4 0 .1.1.2.2.2.1.1.1.2.2.3l.1.3c0 .1.1.2.2.2.1-.1.1-.2.1-.2.1-.2.1-.4 0-.6-.1-.2-.1-.3.2-.4v-.1s-.1-.1-.1-.2v-.4c0-.1.1-.1.1-.2l.2-.1v-.2c0-.1-.1-.1-.2-.2-.1-.2-.2-.4-.2-.6 0 0 0-.1.1-.1h.1c.2.2.5.3.7.2.2-.2.3-.5.2-.7 0-.1-.1-.2-.2-.3 0-.1-.1-.1-.2-.1h-.1v-.5c0-.1-.1-.1-.2-.1h-.1v.1c-.1 0-.1-.1-.1-.2-.1-.1-.1-.3-.1-.4 0-.2 0-.4-.1-.6v-.1c0-.1 0-.2.1-.3h.1c.1 0 .1 0 .1-.1s0-.1.1-.2h.1l.1.2h.1v-.2c0-.1.1-.2.1-.2.1-.1.2-.1.3-.1.1 0 .1 0 .2.1l.2.1h.2s.1 0 .1-.1-.1-.2 0-.2 0-.2 0-.3c0-.1.1-.2.1-.4s.1-.4.2-.5c.1-.1.1-.2.1-.3.1-.2.2-.3.3-.4 0 0 .1-.1.2-.1h.4v-.1c0-.2 0-.3-.1-.4l-.1-.1s0-.1-.1-.1-.2-.2-.4-.2 0-.1 0-.1-.1-.1-.2-.1h-.1v-.1c0-.1-.1-.1-.2-.1s-.2 0-.2-.1V15h.1c.1 0 .2-.1.2-.3v-.5c0-.1-.1-.1-.1-.2s-.1-.2-.2-.2-.2-.1-.2-.1V13c0-.1.1-.1.1 0s.1.1.2.2c.2.1.2.1.3-.1V13c0-.1.1-.1.2-.1s.1 0 .1.1l.1.1c.1.1.2.1.2 0 .1 0 .2-.1.2-.1h.6v-.1c0-.1 0-.3-.2-.3s-.1-.1-.1-.1v-.1c0-.1 0-.2-.1-.3l-.1-.1v-.1c.1-.1.2-.2.2-.3v-.1c-.1-.1-.1-.3-.1-.4 0-.1 0-.1-.1-.1h-.1c-.1 0-.2-.1-.4-.1s-.1 0-.1-.1c-.1-.1-.1-.1-.2 0s-.1.2-.3.2v.1l.2.2v.1h-.1c-.1-.2-.3-.3-.3-.5-.1-.1-.3-.2-.5-.2h-.5c-.1 0-.3 0-.4-.1h-.4c-.1 0-.2 0-.2-.1-.1-.1-.1-.1-.2-.1-.3-.1-.5-.1-.8-.1H81c-.2 0-.3 0-.5.1-.1.1-.2.1-.3.1h-.6v.1c0 .1.1.2.1.4 0 0 0 .1.1.1s.2.1.2.1c.1.1.1.2.2.3v.1l-.1.1H80c-.1-.1-.2-.2-.3-.2h-.1s-.1 0-.1-.1l-.1-.1v-.1c.1-.1.1-.2 0-.2 0-.1-.1-.1-.2-.1s-.2.3-.2.3v.3c0 .1 0 .1-.1.1s-.2 0-.3.1h-.3l-.4.2c-.2.1-.4.2-.6.2-.1 0-.1 0-.1-.1 0-.2-.2-.4-.4-.5l-.1-.1c-.2-.2-.5-.2-.7-.1 0 0-.1 0-.1.1-.2.1-.4.2-.5.3l-.3.2h-.2c0-.1-.1-.1-.2-.2l-.2-.1h-.3s-.1-.1-.1 0H74c-.1-.1-.1-.1-.2-.1v-.1c0-.1.1-.2 0-.2-.1-.1-.3-.1-.5-.1h-.2s-.1 0-.1.1c-.1.1-.2.1-.3.1h-1.5v.1l.2.1v.1h-.1c-.1 0-.1.1-.1.2s0 .1.1.1h.1v.2c0 .1.1.2.2.2v.1s-.1.1-.1 0c-.1-.1-.2-.1-.2 0l-.2.1c-.1.1-.1.1-.2.1h-.2c-.1 0-.2.1-.2.1 0 .1-.1.2-.2.1-.2 0-.3 0-.5-.1 0 .1 0 .2.1.3.1.1.1.3.1.4 0 0 0 .1-.1.1h-.2c-.2-.1-.4-.2-.5-.4 0 0 0-.1-.1 0s-.1 0-.2 0V13l.1-.1v-.1c0-.1-.1-.2-.1-.2s-.1 0-.2-.1-.1 0 0-.1 0-.1 0-.1l-.3-.3c-.2-.1-.3-.1-.5-.2h-.8s-.1 0-.1.1c-.1.1-.1.1 0 .2l.2.3v.1l-.4.2c-.1 0-.2 0-.3-.1 0-.1-.1 0-.1 0s-.3.1-.3-.1v-.1c0-.1-.1-.1-.1-.1l-.6.1-.2.1c-.1 0-.1.1-.2.1v.1c0 .1-.2.2-.3.1l-.1-.1s0-.1-.1 0h-.2c-.1 0-.1 0-.1.1v.1c0 .1 0 .1.1.1h.1v.1l-.2.2c-.1.1-.2.2-.4.2-.1 0-.1 0-.1-.1s.1-.1.1-.2.1-.1.1-.2v-.1c0-.1 0-.2.1-.3v-.2c.1-.1.1-.2.1-.3 0-.1 0-.3.1-.4v-.3c-.1-.1-.1-.2-.2-.3V11l-.3-.3h-.1s0 .1-.1 0-.2-.2-.3-.2c-.1 0-.2-.1-.3-.1-.1-.1-.2-.1-.2 0-.1.1-.3.2-.5.2v.2c0 .1 0 .1-.1.2H62v-.5c0-.1-.1-.1-.1-.1h-.3l-.1-.1c0-.1 0-.2-.1-.2s-.2-.1-.4-.1h-.1c-.1-.1-.2-.1-.3-.1.1-.1.1.1.2.2z"/></defs><clipPath id="SVGID_00000026842802587075093100000009267511140461660037_"><use xlink:href="#SVGID_00000020400554400484433360000011895379730786146183_" overflow="visible"/></clipPath><g clip-path="url(#SVGID_00000026842802587075093100000009267511140461660037_)"><defs><path id="SVGID_00000117657952635266944440000003603088441917011639_" d="M45.2 15.6c10.3 0 19.3 7.8 19.3 17.5-.1 5.2-2.6 10-6.7 13.1-3.6 2.8-8 4.4-12.6 4.4-10.3 0-18.7-8.1-19.1-17.5 0-9.7 8.8-17.5 19.1-17.5z"/></defs><clipPath id="SVGID_00000183212150752873389320000016631110884246232728_"><use xlink:href="#SVGID_00000117657952635266944440000003603088441917011639_" overflow="visible"/></clipPath><g clip-path="url(#SVGID_00000183212150752873389320000016631110884246232728_)"><path d="M26.8 14.6h38.6v36.9H26.8V14.6z" class="st26"/></g></g><defs><path id="SVGID_00000162341114293432916080000011512172176477881747_" d="M58.3 45c-.1 0-.2.1-.2.1s0 .1-.1.1-.1 0-.2.1-.1.1-.2.1-.2.1-.3.1H57l-.3.1-.1.1c-.1.1-.1.2 0 .2v.1c.1.1 0 .1 0 .2s-.1.1-.2.2-.2.1-.1.2v.3c.1.1.2.1.4.1h.4c.1 0 .2 0 .3-.1l.1-.1c.1-.1.1-.2.2-.3s.2-.3.4-.4l.1-.1c0-.1.1-.1.1-.2 0 0 0-.1.2-.1v-.3c.1-.2 0-.3-.2-.4"/></defs><clipPath id="SVGID_00000096039355747097945720000005403210885868483492_"><use xlink:href="#SVGID_00000162341114293432916080000011512172176477881747_" overflow="visible"/></clipPath><g clip-path="url(#SVGID_00000096039355747097945720000005403210885868483492_)"><path d="M55.3 44h4.3v4h-4.3v-4z" class="st26"/></g><defs><path id="SVGID_00000073714661360334000480000013080658995041792922_" d="M39.1 27.1c.1.1.1.1.1.2v.4c0 .1 0 .1.1 0v.1s0 .1.1.1h.2v.3c0 .1-.1.2-.2.1v.3l-.1.1-.1.1v.1c.1 0 .2.1.3.1-.1 0-.2 0-.2.1-.1.1-.1.2-.2.2h.1c.1 0 .1-.1.2 0 .1 0 .2 0 .2-.1h.7c.1 0 .2-.1.3-.1v-.2c0-.1.1-.1.1-.2.1-.1 0-.2 0-.2h-.2v-.1c-.1-.1-.1-.2-.1-.3 0-.1 0-.1-.1-.1s-.1-.1-.2-.2c0-.1-.1-.2-.2-.3v-.1c0-.1.1-.2.1-.3 0 0 0-.1-.1-.1h-.3l.1-.1s0-.1-.1-.1h-.2s-.1 0-.1.1-.1.2-.2.2c0 .1 0 0 0 0"/></defs><clipPath id="SVGID_00000023972850534981585320000016433861884155699638_"><use xlink:href="#SVGID_00000073714661360334000480000013080658995041792922_" overflow="visible"/></clipPath><g clip-path="url(#SVGID_00000023972850534981585320000016433861884155699638_)"><path d="M38.1 25.7h3.7v4.8h-3.7v-4.8z" class="st26"/></g><defs><path id="SVGID_00000070822900124910555150000000927749415661456266_" d="m34 21.9.6-.3.1-.1c.1-.1.2-.2.4-.2.1 0 .1-.1.1-.1 0-.1.1-.1.1-.2v-.1c0-.1 0-.3.1-.4v-.1l-.1-.1c-.1-.1 0-.2 0-.2 0-.1-.1-.2-.1-.2H35c-.1-.1-.2-.1-.2 0-.1.1-.3.2-.4.1h-.2c-.1 0-.2 0-.3.1h-.1l-.1-.1h-.1v.2c0 .1 0 .2-.1.2h-.1c0-.1-.1-.2 0-.3 0-.1 0-.2-.1-.3l-.1-.1c-.1-.1-.1-.1-.3 0-.1 0-.1 0-.2.1s-.2.2-.2.4 0 .1.1.1h.1c.1-.1.2 0 .3 0s0 .1 0 .1 0 .1-.1.2c-.1 0-.2 0-.3.1v.2l.2.1s.1 0 .1.1.1.1.1.2v.1l-.1.1c-.1 0-.1 0-.1.1s.1.2.1.2h.1c.1 0 .3 0 .4.1.3-.1.4 0 .6 0 0 .1 0 .1 0 0l.8.7"/></defs><clipPath id="SVGID_00000052093820460790824550000011792989843415041192_"><use xlink:href="#SVGID_00000070822900124910555150000000927749415661456266_" overflow="visible"/></clipPath><g clip-path="url(#SVGID_00000052093820460790824550000011792989843415041192_)"><path d="M31.5 18.6h5v5h-5v-5z" class="st26"/></g></svg>