<svg xmlns="http://www.w3.org/2000/svg" id="Layer_1" data-name="Layer 1" viewBox="0 0 1833.21 1690.7"><defs><style>.cls-1{fill:none;stroke:#dcab35;isolation:isolate;opacity:.8}</style></defs><path d="M916.11 264.45v368.43" class="cls-1" transform="translate(.5 .58)"/><path d="M0 793.36l458.06-264.45 458.05 264.45v528.91l-458 264.46-69.53-40.15L0 1322.27zm114.51 66.11v396.69l458.06 264.46m-114.51-66.12l340.88-196.8V857.94m-111.87 464.33V925.59L343.54 727.24m114.52 66.12L229 925.59v395.15m0-130.7l226.36 130.7L687.07 1190m0-264.45l-117.15 64.62-111.86-64.58L229 1057.82m683.67-265.54L799 857.94l-340.94-196.8L0 925.59m343.54 66.12v132.23l222.55 128.48M459.52 1191l113.05-67V990.18m-229 133.76l114.52-66.88V925.59m114.51 198.35l-114.51-66.88m458.02-792.61L1374.17 0l458 264.45v528.91l-458 264.46-458.06-264.46zm114.51 66.11v396.69l458.05 264.46m-114.5-66.12l340.88-196.8V329m-111.87 464.36V396.68l-343.54-198.35m114.53 66.12l-229 132.23v395.15m0-130.7l226.36 130.7 231.68-130.7m0-264.45L1486 461.26l-111.85-64.58-229 132.23m683.64-265.54L1715.05 329l-340.88-196.8-458.06 264.48m343.54 66.12V595l222.55 128.51m-101.62-66.08l108.1-62.4V461.27M1259.65 595l114.52-66.88V396.68M1488.68 595l-114.51-66.88" transform="translate(.5 .58)" stroke-miterlimit="10" fill="none" stroke="#dcab35" opacity=".32"/><path d="M0 1321.7v368.43" class="cls-1" transform="translate(.5 .58)"/></svg>