<svg xmlns="http://www.w3.org/2000/svg" id="Layer_1" data-name="Layer 1" viewBox="0 0 1833.21 1690.7"><defs><style>.cls-1{fill:none;stroke:#dcab35;isolation:isolate;opacity:.8}</style></defs><path d="M0 264.45v368.43" class="cls-1" transform="translate(916.6 .58)"/><path fill="none" stroke="#dcab35" stroke-miterlimit="10" d="M0 264.45L458.06 0l458.05 264.45v528.91l-458 264.46L0 793.36zm114.51 66.11v396.69l458.06 264.46m-114.51-66.12l340.88-196.8V329M687.07 793.36V396.68L343.54 198.33m114.52 66.12L229 396.68v395.15m0-130.7l226.36 130.7 231.68-130.7m0-264.45l-117.12 64.58-111.86-64.58L229 528.91m683.67-265.54L799 329 458.06 132.23 0 396.68m343.54 66.12V595l222.55 128.51m-101.62-66.08L572.57 595V461.27M343.54 595l114.52-66.88V396.68M572.57 595l-114.51-66.85" opacity=".32" transform="translate(916.6 .58)"/><path d="M-916.1 1321.7v368.43" class="cls-1" transform="translate(916.6 .58)"/></svg>