<svg xmlns="http://www.w3.org/2000/svg" viewBox="0 0 188.035 26.341" fill="#fff"><path d="M116.518 25.143l-4.621-7.965h-6.755v7.965h-3.965V1.207h11.965a7.96 7.96 0 016.552 12.488 7.909 7.909 0 01-3.517 2.861l4.931 8.586zm-3.379-19.93h-8v8.007l8 .034a3.815 3.815 0 002.793-1.172 4.027 4.027 0 001.172-2.9 4 4 0 00-3.965-3.965zm64.951.539L168.145.044v25.1h3.967V6.87l5.979 3.452 5.978-3.452v18.272h3.966V.042zM27.059 1.207h3.966v19.934h11.968v4H27.059zm101.227 0h3.967v23.936h-3.967zM9.971 0L0 5.757v19.385h3.958v-7.967h12.025v7.967h3.958V5.757zM3.958 13.211V8.042l6.013-3.471 6.012 3.471v5.169zM83.862 0l-9.971 5.757v19.385h3.958v-7.967h12.025v7.967h3.958V5.757zm-6.013 13.211V8.042l6.013-3.471 6.012 3.471v5.169zm-21.587 13.13l-9.97-5.757V1.208h3.963V18.3l6.012 3.471L62.28 18.3V1.208h3.958v19.374zm103.98-11.166a9.636 9.636 0 01-2.932 7.07 9.95 9.95 0 01-17-7.07V1.207h3.967v13.968a5.725 5.725 0 001.724 4.208 5.783 5.783 0 004.242 1.758 6.065 6.065 0 006-5.966V1.207h4z"/></svg>