<svg xmlns="http://www.w3.org/2000/svg" width="16" height="16" viewBox="0 0 512 512" fill="none">
<rect width="512" height="512" rx="40" fill="black"/>
<path d="M214.15 345.2C194.15 345.2 176.417 340.667 160.95 331.6C145.483 322.533 133.35 310.133 124.55 294.4C115.75 278.667 111.35 260.8 111.35 240.8C111.35 220.8 115.75 203.067 124.55 187.6C133.35 171.867 145.483 159.6 160.95 150.8C176.417 141.733 194.15 137.2 214.15 137.2C231.217 137.2 246.55 140.133 260.15 146C274.017 151.6 285.35 159.867 294.15 170.8C302.95 181.733 308.417 194.933 310.55 210.4L259.35 217.2C258.283 209.467 255.75 202.933 251.75 197.6C247.75 192 242.683 187.733 236.55 184.8C230.417 181.867 223.083 180.4 214.55 180.4C204.95 180.4 196.15 182.933 188.15 188C180.15 193.067 173.883 200.133 169.35 209.2C164.817 218.267 162.55 228.8 162.55 240.8C162.55 252.8 164.817 263.467 169.35 272.8C173.883 281.867 180.15 289.067 188.15 294.4C196.15 299.467 204.95 302 214.55 302C223.083 302 230.55 300.533 236.95 297.6C243.35 294.667 248.417 290.533 252.15 285.2C256.15 279.6 258.817 273.2 260.15 266L312.55 272.4C310.417 286.533 304.95 299.2 296.15 310.4C287.35 321.333 275.883 329.867 261.75 336C247.883 342.133 232.017 345.2 214.15 345.2Z" fill="white"/>
<path d="M365.681 344.8C356.615 344.8 349.015 341.867 342.881 336C336.748 329.867 333.681 322.267 333.681 313.2C333.681 307.067 335.148 301.733 338.081 297.2C341.015 292.4 344.881 288.667 349.681 286C354.481 283.067 359.815 281.6 365.681 281.6C374.748 281.6 382.348 284.667 388.481 290.8C394.615 296.667 397.681 304.133 397.681 313.2C397.681 319.067 396.215 324.4 393.281 329.2C390.348 334 386.481 337.867 381.681 340.8C377.148 343.467 371.815 344.8 365.681 344.8Z" fill="#FE0048"/>
</svg>