<svg xmlns="http://www.w3.org/2000/svg" viewBox="0 0 1863.667 762.865"><style>@keyframes flicker{0%{opacity:0;stroke:#facabb;transform:translate3d(0,10px,0)}}</style><g fill="none"><path stroke="#f88b6a" d="M1091.469 146.79c-13.5-7.793-33.95-8.616-45.69-1.837l-.69.395c-3.03 1.749-2.66 4.8.82 6.809l18.13 10.468c3.92 2.263 9.86 2.5 13.27.533l15.08-8.709c3.41-1.967 3-5.4-.92-7.659h0zm-72.87 90.709c-14.92-4.684-32.059-3.727-42.631 2.376l-8.526 4.923c-1.916 1.107-1.042 3.141 1.692 3.942l155.525 45.626c3.67 1.077 7.81.806 10.38-.679l18.87-10.9c2.57-1.484 3.04-3.874 1.18-5.994l-79.03-89.79c-1.39-1.579-4.91-2.084-6.82-.977l-21.72 12.536c-2.68 1.548-3.06 4.066-.95 6.234l55.34 58.861-83.31-26.158zm244.07-118.546c-3.92-2.262-9.86-2.5-13.27-.533l-42.51 24.545c-3.41 1.967-2.99 5.4.93 7.659l48.88 28.22c3.91 2.261 9.85 2.5 13.26.533l42.51-24.544c3.41-1.967 3-5.4-.92-7.659l-48.88-28.22h0zm-30.12-49.062l18.92 10.925 111.94 64.633c7.84 4.525 8.67 11.382 1.85 15.318l-72.68 41.963c-13.63 7.871-37.39 6.915-53.06-2.134l-69.38-40.054c-15.67-9.05-17.33-22.766-3.7-30.637l57.6-33.253-44.15-25.49c-1.74-1-1.92-2.53-.41-3.4 13.63-7.87 37.39-6.915 53.07 2.134h0zm-461.989 335c3.919 2.262 9.859 2.5 13.266.534l42.512-24.545c3.408-1.967 2.994-5.4-.924-7.659l-1.577-.91c-3.918-2.262-9.858-2.5-13.266-.533l-42.512 24.546c-3.408 1.967-2.994 5.4.925 7.659l1.576.91h0zm96.227-10.95l-57.6 33.253 1.577.91c7.837 4.525 19.716 5 26.533 1.068l67.2-38.8a6.558 6.558 0 015.9.238c15.674 9.049 17.328 22.766 3.7 30.637l-60.34 34.837c-13.633 7.871-37.39 6.915-53.064-2.134l-69.385-40.051c-15.674-9.049-17.329-22.767-3.7-30.638l60.34-34.836c13.632-7.871 37.391-6.916 53.065 2.134l22.074 12.74c15.675 9.05 17.33 22.767 3.7 30.638zm58.3-124.691l-72.682 41.963c-6.816 3.935-5.99 10.793 1.848 15.318l83.566 48.247c15.675 9.05 39.433 10 53.066 2.134 1.513-.874 1.329-2.4-.411-3.4l-84.355-48.7c-3.918-2.263-4.331-5.692-.923-7.659l42.511-24.544c3.408-1.968 9.348-1.73 13.267.533l59.126 34.136c15.68 9.05 39.43 10 53.07 2.135 1.51-.874 1.33-2.4-.41-3.4l-94.608-54.62c-15.674-9.049-39.433-10-53.065-2.133h0zm-189.5 210.456l-48.879-28.221c-3.918-2.261-9.858-2.5-13.266-.533l-42.513 24.547c-3.407 1.968-2.994 5.4.925 7.659l48.878 28.22c3.918 2.263 9.859 2.5 13.266.534l42.512-24.544c3.408-1.968 2.994-5.4-.924-7.659h0zm-45.89-58.165l111.946 64.632 15.768 9.1 3.153 1.82c15.674 9.05 17.33 22.767 3.7 30.638l-69.935 40.379a3.271 3.271 0 01-2.949-.119c-16.544-9.552-18.292-24.031-3.9-32.339l42.512-24.544-15.768-9.1-57.6 33.254c-13.632 7.871-37.39 6.915-53.064-2.134l-69.376-40.054c-15.674-9.05-17.329-22.767-3.7-30.638l72.681-41.962c6.818-3.936 18.7-3.459 26.534 1.067h0zm544.6-185.164l-15.09 8.71c-3.4 1.968-9.34 1.729-13.26-.533l-111.95-64.633c-3.92-2.262-4.33-5.691-.92-7.659l15.08-8.709c3.41-1.968 9.35-1.729 13.27.534l111.95 64.632c3.91 2.263 4.33 5.691.92 7.658h0z" style="animation:flicker 3s alternate infinite"/><path stroke="#dbdbdb" d="M1094.469 166.792c-13.5-7.794-33.95-8.616-45.69-1.838l-.69.4c-3.03 1.749-2.66 4.8.82 6.809l18.13 10.468c3.92 2.262 9.86 2.5 13.27.534l15.08-8.71c3.41-1.967 3-5.4-.92-7.659h0zm-72.87 90.709c-14.92-4.684-32.059-3.727-42.631 2.376l-8.526 4.924c-1.916 1.1-1.042 3.14 1.692 3.941l155.525 45.625c3.67 1.078 7.81.807 10.38-.677l18.87-10.9c2.57-1.484 3.04-3.874 1.18-5.994l-79.03-89.79c-1.39-1.579-4.91-2.083-6.82-.977l-21.72 12.536c-2.68 1.548-3.06 4.067-.95 6.235l55.34 58.86-83.31-26.159zm244.07-118.546c-3.92-2.261-9.86-2.5-13.27-.532l-42.51 24.543c-3.41 1.968-2.99 5.4.93 7.66l48.88 28.22c3.91 2.262 9.85 2.5 13.26.534l42.51-24.545c3.41-1.968 3-5.4-.92-7.659l-48.88-28.221zm-30.12-49.061l18.92 10.924 111.94 64.632c7.84 4.525 8.67 11.383 1.85 15.319l-72.68 41.963c-13.63 7.87-37.39 6.915-53.06-2.134l-69.38-40.054c-15.67-9.05-17.33-22.766-3.7-30.637l57.6-33.254-44.15-25.49c-1.74-1-1.92-2.53-.41-3.4 13.63-7.871 37.39-6.916 53.07 2.134h0zm-461.989 335c3.919 2.263 9.859 2.5 13.266.534l42.512-24.544c3.408-1.968 2.994-5.4-.924-7.66l-1.577-.91c-3.918-2.262-9.858-2.5-13.266-.534l-42.512 24.546c-3.408 1.967-2.994 5.4.925 7.658l1.576.911h0zm96.227-10.951l-57.6 33.254 1.577.91c7.837 4.526 19.716 5 26.533 1.067l67.2-38.8a6.557 6.557 0 015.9.236c15.674 9.051 17.328 22.767 3.7 30.637l-60.34 34.838c-13.633 7.871-37.39 6.915-53.064-2.134l-69.385-40.05c-15.674-9.05-17.329-22.767-3.7-30.638l60.34-34.837c13.632-7.87 37.391-6.915 53.065 2.135l22.074 12.74c15.675 9.05 17.33 22.767 3.7 30.637h0zm58.3-124.69l-72.682 41.962c-6.816 3.936-5.99 10.794 1.848 15.319l83.566 48.247c15.675 9.05 39.433 10.005 53.066 2.133 1.513-.874 1.329-2.4-.411-3.4l-84.355-48.7c-3.918-2.262-4.331-5.692-.923-7.659l42.511-24.545c3.408-1.967 9.348-1.728 13.267.534l59.126 34.137c15.68 9.049 39.43 10 53.07 2.134 1.51-.874 1.33-2.4-.41-3.4l-94.608-54.614c-15.674-9.05-39.433-10-53.065-2.134h0zm-189.5 210.456l-48.879-28.22c-3.918-2.263-9.858-2.5-13.266-.534l-42.513 24.546c-3.407 1.968-2.994 5.4.925 7.66l48.875 28.22c3.918 2.262 9.859 2.5 13.266.533l42.512-24.544c3.408-1.968 2.994-5.4-.924-7.659h0zm-45.89-58.165l111.946 64.632 15.768 9.1 3.153 1.82c15.674 9.05 17.33 22.767 3.7 30.638l-69.935 40.379a3.271 3.271 0 01-2.949-.119c-16.544-9.552-18.292-24.032-3.9-32.339l42.509-24.544-15.768-9.1-57.6 33.254c-13.632 7.87-37.39 6.915-53.064-2.135l-69.376-40.054c-15.674-9.049-17.329-22.766-3.7-30.636l72.681-41.963c6.818-3.936 18.7-3.459 26.534 1.067h0zm544.6-185.164l-15.09 8.71c-3.4 1.967-9.34 1.728-13.26-.534l-111.95-64.632c-3.92-2.263-4.33-5.692-.92-7.66l15.08-8.709c3.41-1.968 9.35-1.729 13.27.533l111.95 64.633c3.91 2.262 4.33 5.691.92 7.659z"/><path stroke="#e1e1e1" d="M.251 762.432l466.54-270.967L841.97 710.132l460.549-267.343-83.124-48.676 644.021-373.681"/><path stroke="#d5d5d5" d="M.251 742.432l466.54-270.967L841.97 690.132l460.549-267.343-83.124-48.676L1863.416.432"/><path stroke="#e1e1e1" d="M.251 606.393l587.226-339.174L483.7 206.471 803.891 20.432"/><path stroke="#d5d5d5" d="M.251 588.408l587.226-339.174L483.7 188.486 803.891 2.447"/></g></svg>