<svg xmlns="http://www.w3.org/2000/svg" viewBox="0 0 145.11 81.26"><path fill="#0a0a0a" fill-rule="evenodd" d="M116.09 45.13a4.49 4.49 0 00-4.5-4.5h-.14a1.16 1.16 0 00-1.17 1.16v3.34a1.31 1.31 0 001.31 1.31h3.19a1.31 1.31 0 001.31-1.31zm-24.34 7.75a5.22 5.22 0 00-4.94-3.54H85a.58.58 0 00-.54.78l8.09 21.59a1.31 1.31 0 001.23.85h4a1.3 1.3 0 001.22-.85l8.1-21.59a.58.58 0 00-.55-.78H102a1.29 1.29 0 00-1.24.9l-4.99 14.48-4-11.84zm47.56 3.57a1.31 1.31 0 00-1.31-1.31h-9a1.31 1.31 0 00-1.3 1.31v9a1.3 1.3 0 001.3 1.31h9a1.31 1.31 0 001.31-1.31v-9zm5.8-10.6v24.09a2.61 2.61 0 01-2.61 2.62h-15.38a5.23 5.23 0 01-5.23-5.23V54.56a5.23 5.23 0 015.23-5.22h12.19v-8.13a.58.58 0 01.58-.58 5.22 5.22 0 015.22 5.22zM34.83 56.74a1.3 1.3 0 001.3 1.3h9a1.31 1.31 0 001.31-1.3v-.29a1.31 1.31 0 00-1.31-1.31h-9a1.31 1.31 0 00-1.3 1.31v.29zM47 63.85H34.83v.29a2.61 2.61 0 002.61 2.61h14.22a.58.58 0 01.58.58A5.23 5.23 0 0147 72.56H34.25A5.23 5.23 0 0129 67.33V54.56a5.23 5.23 0 015.23-5.22H47a5.22 5.22 0 015.22 5.22v4.06A5.23 5.23 0 0147 63.85zm29-14.51H60.66A2.61 2.61 0 0058 52v15.33a5.23 5.23 0 005.23 5.23.58.58 0 00.58-.59V56.45a1.31 1.31 0 011.31-1.31h9a1.31 1.31 0 011.31 1.31v10.88a5.23 5.23 0 005.22 5.23.58.58 0 00.58-.59V54.56A5.22 5.22 0 0076 49.34zm-58.59 16.1v-9a1.31 1.31 0 00-1.3-1.31h-9a1.31 1.31 0 00-1.31 1.32v9a1.31 1.31 0 001.31 1.31h9a1.3 1.3 0 001.3-1.31zM23.22 52v24A5.23 5.23 0 0118 81.26H3.19A.29.29 0 012.9 81a5.52 5.52 0 015.52-5.51h9v-2.9H5.22A5.23 5.23 0 010 67.33V54.56a5.22 5.22 0 015.22-5.22h15.39A2.61 2.61 0 0123.22 52zm91.56 20.61h-3.19a1.31 1.31 0 01-1.31-1.31V50.64a1.31 1.31 0 011.31-1.3h3.19a1.31 1.31 0 011.31 1.3v20.61a1.31 1.31 0 01-1.31 1.31z"/><path fill="#f26b3f" d="M77.8 20.32h-5.24l-2.63-2.63H54.19l5.25-5.24-2.62-2.63-5.25 5.25-5.25 5.25 5.25 5.24 5.25 5.25 2.62-2.63-5.25-5.24h10.5l4.1 4.1a1.62 1.62 0 010 2.29l-1.48 1.48-5.25 5.24L58 40.16a1.62 1.62 0 01-2.29 0l-4.1-4.11-5.25-5.24-5.24-5.25-4.12-4.1a1.62 1.62 0 010-2.29l4.11-4.1 5.24-5.25 5.25-5.24L55.67.47a1.62 1.62 0 012.33 0l4.1 4.11 10.5 10.49 2.62 2.62zm-2.62 2.62l-2.62-2.62h-5.25l2.62 2.62 2.63 2.62m0 0l10.49 10.49 4.1 4.11a1.62 1.62 0 002.29 0l4.1-4.11 5.25-5.24 5.21-5.25 4.11-4.1a1.62 1.62 0 000-2.29l-4.11-4.1-5.21-5.25-5.25-5.24-4.1-4.11a1.62 1.62 0 00-2.29 0l-4.1 4.11-5.25 5.24-1.48 1.48a1.62 1.62 0 000 2.29l4.11 4.1h10.49l-5.25-5.24 2.62-2.63 5.25 5.25 5.25 5.25-5.25 5.24-5.25 5.25-2.62-2.63 5.25-5.24H75.18"/></svg>