<svg xmlns="http://www.w3.org/2000/svg" viewBox="0 0 111.13 113.46"><path d="M55.1 1.67l3.7 6.26H60V0h-1.1v6.26L55.19 0H54v7.93h1.1zm3.63 107.85c-.89-.4-1.7-.76-2.41-1.06a2.41 2.41 0 01-.83-.47.83.83 0 01-.18-.6 1 1 0 01.32-.74 1.87 1.87 0 011.34-.37 1.81 1.81 0 011.3.41 1.26 1.26 0 01.37.93h1.07a2.1 2.1 0 00-.65-1.53 3 3 0 00-2.18-.74 2.71 2.71 0 00-2 .65 2.06 2.06 0 00-.65 1.53 1.5 1.5 0 00.42 1.11 1.92 1.92 0 00.65.42l1.34.6c.49.22.9.4 1.2.55a3 3 0 01.75.47 1 1 0 01.27.7 1.07 1.07 0 01-.37.74 2 2 0 01-1.44.46 2.15 2.15 0 01-1.57-.51 1.65 1.65 0 01-.37-1.21h-1.06a2.36 2.36 0 00.61 1.77 3.2 3.2 0 002.36.83 3.13 3.13 0 002.27-.69 2.17 2.17 0 00.65-1.58 1.68 1.68 0 00-.51-1.21 2 2 0 00-.7-.46zM6.35 58.61l-1.53-5.89h-1l-1.55 5.89L1 52.72H0l1.76 8h.93l1.62-6.42 1.62 6.44h.93l1.76-8h-1zm100.52 1.2V57h3.75v-.9h-3.75v-2.45h4v-.88h-5.1v7.92h5.33v-.88zM67.25 36.56L57 9.22 46.67 36.76A22.68 22.68 0 0037 46.52L9.83 56.73 37 66.94a22.71 22.71 0 009.68 9.79L57 104.14l10.2-27.22a22.66 22.66 0 0010-9.93l27.36-10.26-27.33-10.26a22.76 22.76 0 00-9.98-9.91zM57 11.23v22.94a22.4 22.4 0 00-9.4 2.12zm-45.16 45.5h22.75a22.46 22.46 0 002 9.28zM57 102.13V79.29h.15a22.35 22.35 0 009.14-1.94zm45.58-45.4H79.71a22.44 22.44 0 00-2-9.34zm-25 0a20.49 20.49 0 01-9.23 17.09c-.32.21-.64.41-1 .61A20.82 20.82 0 0163 76.32a20.82 20.82 0 01-5.88.86 20.31 20.31 0 01-11.63-3.64 20.62 20.62 0 01-5.35-5.43c-.22-.32-.42-.65-.62-1a20.13 20.13 0 01-2.67-7.74 19.6 19.6 0 010-5.3 20.26 20.26 0 013.29-8.73A20.58 20.58 0 0145.47 40a20.15 20.15 0 018.18-3.37 19.23 19.23 0 013.5-.31 20.48 20.48 0 0111.27 3.4 20.56 20.56 0 015.66 5.61c.27.39.53.8.77 1.21A20.56 20.56 0 0176.47 50a20.83 20.83 0 01.9 3.66 20.33 20.33 0 01.22 3.07z" fill="#0d3531"/></svg>