<?xml version="1.0" encoding="utf-8"?>
<!-- Generator: Adobe Illustrator 26.4.1, SVG Export Plug-In . SVG Version: 6.00 Build 0)  -->
<svg version="1.1" id="Layer_1" xmlns="http://www.w3.org/2000/svg" xmlns:xlink="http://www.w3.org/1999/xlink" x="0px" y="0px"
	 viewBox="0 0 80.5 41" style="enable-background:new 0 0 80.5 41;" xml:space="preserve">
<style type="text/css">
	.st0{fill:#EAE1D1;}
</style>
<g>
	<path class="st0" d="M27.3,0v2.1H0v4.4l27.6,11.3c1,0.8,1.8,1.7,2.6,2.8c1.9,2.9,2.5,5.5,1.7,7.7c-0.9,2.6-3.6,4.7-8,6.2l-0.5,0.2
		V41h14.7l0.1-0.7c0.5-2.7,3.1-4.5,5.9-4c2,0.4,3.6,2,4,4l0.1,0.7h14.6v-6.3l-0.5-0.2c-4.5-1.5-7.2-3.6-8-6.2
		c-0.8-2.2-0.2-4.8,1.7-7.7c4.9-7.4,22.3-11.2,22.5-11.3l0.6-0.1V0H27.3z M1.5,3.6h25.8v12.5L1.5,5.5V3.6z M77.4,8
		c-3.2,0.8-18,4.5-22.8,11.8c-2.2,3.3-2.8,6.3-1.9,9c1,2.9,3.9,5.3,8.5,7v3.7H49.4c-0.8-3.5-4.3-5.6-7.8-4.8
		c-2.4,0.6-4.3,2.4-4.8,4.8H24.9v-3.7c4.6-1.7,7.5-4,8.5-7c0.9-2.7,0.3-5.7-1.9-9c-0.7-1.1-1.6-2.1-2.6-2.9V1.5h48.6L77.4,8L77.4,8z
		"/>
	<path class="st0" d="M18,25.8c-0.5,1.7-2.1,2.8-3.9,2.7h-1.7c-2.4,0-2.4-0.4-2.4-2v-5.1c0-0.5,0-0.9,0.2-1.4
		c0.2-0.3,0.6-0.5,0.9-0.6V19c-0.8,0-1.5,0-2.3,0s-1.5,0-2.3,0v0.4c0.4,0.1,0.7,0.3,0.9,0.6c0.2,0.4,0.3,0.9,0.2,1.4V27
		c0.1,0.8-0.4,1.6-1.1,1.9v0.4c0.8,0,1.6,0,2.4,0s2,0,2.8,0h4.7c0.9,0,1-0.3,1.2-1.1l0.6-2.3C18.3,25.6,18.1,25.6,18,25.8z"/>
	<path class="st0" d="M74.3,19h-3.7c-0.8,0-1.5,0-2.3,0v0.4c0.6,0.1,1.1,0.5,1.1,1.7V27c0,1.5-0.5,1.9-1.1,2v0.4h2.4
		c0.7,0,1.4,0,2.2,0V29c-0.6-0.1-1.1-0.6-1.1-2v-1.6c0-0.1,0-0.2,0.2-0.2h2.5c2.2,0,6-0.3,6-3.1S76.7,19,74.3,19z M74.5,24.3H72
		c-0.1,0-0.2,0-0.2-0.2V21c0-1.3,0.1-1.3,1.5-1.3h1.2c2.1,0,3.5,0.5,3.5,2.3S76.6,24.3,74.5,24.3z"/>
</g>
</svg>
