<?xml version="1.0" encoding="utf-8"?>
<!-- Generator: Adobe Illustrator 26.4.1, SVG Export Plug-In . SVG Version: 6.00 Build 0)  -->
<svg version="1.1" id="Warstwa_1" xmlns="http://www.w3.org/2000/svg" xmlns:xlink="http://www.w3.org/1999/xlink" x="0px" y="0px"
	 viewBox="0 0 290.9 102.5" style="enable-background:new 0 0 290.9 102.5;" xml:space="preserve">
<style type="text/css">
	.st0{fill:#FFFFFF;}
</style>
<g>
	<path class="st0" d="M28.5,94.5c-2.7,5.8-5.9,6.1-10.9,6.1h-4.9c-4.5,0-4.6-1.1-4.6-4.5V82.6c0-2.2,0.1-3.2,0.5-3.9
		c0.9-1,2.3-1.6,3.6-1.5c0.5,0,1,0,1-0.3s-0.3-0.3-0.9-0.3c-2.2,0-4.1,0.1-6,0.1s-3.6-0.1-5.5-0.1c-0.5,0-0.9,0-0.9,0.3
		s0.5,0.3,1.1,0.3c1.3,0,2.6,0.5,3.5,1.5c0.4,0.7,0.6,1.8,0.6,3.9v13.6c0,2.5-0.8,5.1-4.2,5.1c-0.2,0-0.3,0.1-0.4,0.3
		c0,0.2,0.2,0.3,0.4,0.3c1.8,0,3.5-0.1,5.3-0.1c2.4,0,2.9,0.1,5.5,0.1h13c1.7,0,2-0.2,2.6-2.2l1.6-5.2
		C29.1,94.3,28.6,94.2,28.5,94.5z"/>
	<path class="st0" d="M42.8,78.7c0.7-1,1.9-1.6,3.1-1.6c0.5,0,1,0,1-0.3s-0.4-0.2-0.8-0.2c-1.9,0-3.7,0.1-5.1,0.1s-3.2-0.1-5-0.1
		c-0.5,0-0.8,0-0.8,0.2s0.5,0.3,1,0.3c1.2,0,2.4,0.6,3.1,1.6c0.3,0.7,0.4,1.4,0.4,2.1v16c0.1,1,0,2-0.4,3c-0.7,1-1.9,1.6-3.1,1.6
		c-0.5,0-1,0-1,0.3s0.4,0.2,0.8,0.2c2,0,3.7-0.1,5.1-0.1s3.2,0.1,5,0.1c0.5,0,0.8,0,0.8-0.2s-0.5-0.3-1-0.3c-1.2,0-2.4-0.6-3.1-1.6
		c-0.4-1-0.5-2-0.4-3v-16C42.4,80,42.5,79.3,42.8,78.7z"/>
	<path class="st0" d="M103.5,101.4c-3.2,0-3.9-2.5-4.6-4.6l-5.1-15.3c-0.3-0.8-0.6-1.7-0.7-2.5c0-1.9,2.3-1.9,3.4-1.9
		c0.4,0,0.5-0.5,0.1-0.5h-4.4c-1.6,0-2.4,0.3-3,1.6L77.8,99.3L67.2,78.1c-0.4-1-1.4-1.6-2.4-1.5h-4.7c-0.6,0-0.5,0.5,0,0.5
		c2.2,0,2.9,0.3,2.9,1.3c-0.1,0.7-0.2,1.4-0.5,2l-5.2,15.5c-1.3,3.9-2.1,5.5-5.3,5.5c-0.8,0-0.7,0.5-0.2,0.5c1.4,0,2.9-0.1,4.5-0.1
		c2.1,0,2.3,0.1,4.5,0.1c0.6,0,0.8-0.5,0-0.5c-2.3,0-3.1-0.5-3.1-1.9c0.1-1.1,0.4-2.2,0.8-3.3l5.7-17.5l11.1,22
		c0.6,1.3,1,1.9,1.3,1.9s0.8-0.6,1.9-2.8l11.3-20.8l6.1,18.6c0.2,0.5,0.3,1,0.3,1.6c0,1.5-1.1,2.3-3,2.3c-0.9,0-0.7,0.5-0.1,0.5
		c3.3,0,4.4-0.1,5.8-0.1c1.6,0,2.4,0.1,4.5,0.1C104.3,101.9,104.4,101.4,103.5,101.4z"/>
	<path class="st0" d="M161.6,76.6c-1.3,0-7.2,0.1-11,0.1c-1.9,0-3.4-0.1-5.8-0.1c-0.5,0-0.9,0-0.9,0.3s0.6,0.3,1.1,0.3
		c2.3,0,4.1,0.6,4.1,4.1v14.6c0,5.1-1.8,5.5-4.1,5.5c-0.5,0-1.1,0-1.1,0.3s0.4,0.3,0.9,0.3c2.4,0,4-0.1,5.9-0.1s3.4,0.1,5.7,0.1
		c0.5,0,0.9,0,0.9-0.3s-0.6-0.3-1.1-0.3c-2.3,0-4.1-0.4-4.1-5.5v-4.6c0,0,0-0.1,0.1-0.1h9.6c4.6,0,12-1,12-7.3
		S166.2,76.6,161.6,76.6z M161.6,89.9h-9.6c0,0-0.1,0-0.1-0.1v-8.3c0-3.5,0.2-3.6,4.5-3.6h5.1c5.6,0,8.6,1.5,8.6,5.9
		S167.3,89.9,161.6,89.9L161.6,89.9z"/>
	<path class="st0" d="M251.2,101.5c-3.3,0.2-4.4-0.1-9.5-7.6c-1.2-1.7-2-3-3-3.4c4.2-0.6,7.7-2.4,7.7-6.8c0-6.2-6.2-7-11.8-7
		c-1.5,0-7,0.1-9.9,0.1s-3.6-0.1-6.2-0.1c-0.5,0-0.9,0-0.9,0.3s0.6,0.3,1.1,0.3c2.3,0,4.1,0.8,4.1,5.9v12.9c0,5.1-1.8,5.5-4.1,5.5
		c-0.5,0-1.1,0-1.1,0.3s0.4,0.3,0.9,0.3c2.4,0,3.9-0.1,5.9-0.1s3.4,0.1,5.8,0.1c0.5,0,0.9,0,0.9-0.3s-0.6-0.3-1.1-0.3
		c-2.3,0-4.1-0.4-4.1-5.5v-5.1c0-0.1,0-0.1,0.1-0.1h9c1.2,0,1.7,0.5,2.4,1.6c6.6,9.7,6.9,9.8,12.7,9.8c0.5,0,1,0,1.5-0.1
		C251.6,101.9,251.4,101.5,251.2,101.5z M235.4,89.4h-9.8c0,0-0.1,0-0.1-0.1v-6.4c0-5,0-5.1,5.5-5.1h4.4c4.1,0,7.6,1.3,7.6,5.8
		C243.1,87.7,239.5,89.4,235.4,89.4z"/>
	<path class="st0" d="M290.3,101.4c-0.5,0.1-1.1,0.1-1.6,0.1c-3.2,0-5.8-2-15.5-14.7l5.5-4.8c5.3-4.6,6.9-4.7,9.5-5
		c0.1,0,0.3-0.1,0.3-0.2c0-0.2-0.1-0.2-0.3-0.2c-1.7,0-3.6,0.1-5.3,0.1s-3.6-0.1-5.3-0.1c-0.3,0-0.4,0.1-0.4,0.3s0.1,0.2,0.4,0.2
		c1.6,0,2.6,0.2,2.6,1s-0.8,1.6-2.5,3.2l-13.7,11.8v-10c0-2.1,0.1-3.2,0.5-3.9c0.8-1.2,2.2-2,3.6-2.1c0.5,0,1,0,1-0.2
		s-0.3-0.2-0.9-0.2c-2.2,0-3.8,0.1-5.8,0.1s-3.9-0.1-5.7-0.1c-0.5,0-0.9,0-0.9,0.2s0.5,0.2,1.1,0.2c1.4,0.1,2.8,0.9,3.5,2.1
		c0.4,0.7,0.6,1.8,0.6,3.9v12.4c0,2.1-0.2,3.2-0.6,3.9c-0.8,1.2-2.1,2-3.5,2c-0.5,0-1.1,0-1.1,0.3s0.3,0.3,0.9,0.3
		c2.3,0,3.8-0.1,5.7-0.1s3.9,0.1,5.8,0.1c0.6,0,0.9,0,0.9-0.3s-0.5-0.3-1-0.3c-1.5,0-2.8-0.8-3.6-2c-0.4-1.2-0.6-2.6-0.5-3.9v-0.5
		l7.2-6.2c10.2,13,11.4,13.4,16,13.4c1.2,0,2.3-0.1,3.4-0.3C291.1,101.7,290.9,101.3,290.3,101.4z"/>
	<path class="st0" d="M212.8,101.4c-2.6,0-3.9-1.3-5.8-4.4l-10.5-17.1c-2-3.2-2.1-3.2-4.7-3.2h-3.4c-0.3,0-0.5,0-0.5,0.2
		s0.2,0.3,0.5,0.3c2.2,0,3.3,0.6,3.9,1.4l-6,9.7c-1-0.4-2-0.6-3-0.7c-2.6-0.1-5.1,0.7-7.2,2.3v1.5c2.7-2,5-2.6,7.1-2.4
		c0.8,0.1,1.6,0.2,2.3,0.5l-2.4,3.8c-3.3,5.3-5.2,8.1-8.8,8.1c-0.6,0-0.6,0.2-0.6,0.3s0,0.2,0.6,0.2c1.8,0,3.5-0.1,5.4-0.1
		s3.6,0.1,5.4,0.1c0.6,0,0.6-0.1,0.6-0.2s0-0.3-0.6-0.3c-3.4,0-3.6-1.1-3.6-2.1c0-0.6,2.5-5,5.2-9.4c2.5,1,4.9,2.6,7.7,2.8
		c2,0.1,4-0.4,5.8-1.4l3,4.8c0.6,1,1.7,2.8,1.7,3.8c0,0.7-0.5,1.6-2.6,1.6c-0.4,0-0.5,0.1-0.5,0.2s0.1,0.2,0.5,0.2
		c1.9,0,3.7-0.1,5.6-0.1s3.3,0.1,5.1,0.1c0.5,0,0.6-0.1,0.6-0.2S213.4,101.4,212.8,101.4z M194.5,91.2c-2.6-0.2-4.8-1.5-7.1-2.5
		c2.8-4.7,5.6-9.1,5.6-9.1l6.5,10.5C197.9,90.9,196.2,91.3,194.5,91.2z"/>
	<path class="st0" d="M136.8,95.2c-2.3,5-4.9,5.4-9.9,5.4h-5.3c-5.2,0-5.3-0.6-5.3-4.5v-5.6c1.9,1.1,4,1.8,6.2,2.1
		c2,0.1,4.4-0.4,7.2-2.3v-1.6c-2.8,2-5,2.6-7,2.4c-2.3-0.2-4.3-1.2-6.4-2.2v-7.4c0-3.4,0.7-3.9,3.6-3.9h7.7c4.6,0,7,0.1,7.3,4.7
		c0,0.4,0.5,0.4,0.5,0l0.6-6c0-0.3-0.1-0.4-0.3-0.4c-0.9,0.3-1.9,0.5-2.9,0.5h-13c-1.7,0-3.3,0.1-5.2,0.1c-1.2,0-2.9-0.1-4.7-0.1
		c-0.8,0-1,0-1,0.2s0.2,0.3,0.9,0.3c1.3,0,2.4,0.5,3.2,1.5c0.3,1,0.5,2,0.4,3.1v6.2c-0.7-0.2-1.4-0.3-2.1-0.4
		c-2.1-0.2-4.4,0.4-7.2,2.3v1.5c2.7-2,5-2.6,7.1-2.4c0.8,0.1,1.5,0.2,2.2,0.4v8.3c0,0.7-0.1,1.5-0.4,2.1c-0.8,1-2,1.6-3.2,1.5
		c-0.7,0-0.9,0-0.9,0.3s0.2,0.2,1,0.2c1.9,0,3.7-0.1,5-0.1c1.1,0,2.2,0.1,6.6,0.1h10.5c3,0,3.4-0.4,4.1-2.9l1.1-3.8
		C137.3,95,137,94.8,136.8,95.2z"/>
	<path class="st0" d="M129.2,0v2.1h-27.3v4.4l27.6,11.3c1,0.8,1.8,1.7,2.6,2.8c1.9,2.9,2.5,5.5,1.7,7.7c-0.9,2.6-3.6,4.7-8,6.2
		l-0.5,0.2V41H140l0.1-0.7c0.5-2.7,3.1-4.5,5.9-4c2,0.4,3.6,2,4,4l0.1,0.7h14.6v-6.3l-0.5-0.2c-4.5-1.5-7.2-3.6-8-6.2
		c-0.8-2.2-0.2-4.8,1.7-7.7c4.9-7.4,22.3-11.2,22.5-11.3l0.6-0.1V0L129.2,0z M103.4,3.6h25.8v12.5L103.4,5.5V3.6z M179.3,8
		c-3.2,0.8-18,4.5-22.8,11.8c-2.2,3.3-2.8,6.3-1.9,9c1,2.9,3.9,5.3,8.5,7v3.7h-11.8c-0.8-3.5-4.3-5.6-7.8-4.8
		c-2.4,0.6-4.3,2.4-4.8,4.8h-11.9v-3.7c4.6-1.7,7.5-4,8.5-7c0.9-2.7,0.3-5.7-1.9-9c-0.7-1.1-1.6-2.1-2.6-2.9V1.5h48.6V8z"/>
	<path class="st0" d="M119.9,25.8c-0.5,1.7-2.1,2.8-3.9,2.7h-1.7c-2.4,0-2.4-0.4-2.4-2v-5.1c0-0.5,0-0.9,0.2-1.4
		c0.2-0.3,0.6-0.5,0.9-0.6V19c-0.8,0-1.5,0-2.3,0s-1.5,0-2.3,0v0.4c0.4,0.1,0.7,0.3,0.9,0.6c0.2,0.4,0.3,0.9,0.2,1.4V27
		c0.1,0.8-0.4,1.6-1.1,1.9v0.4c0.8,0,1.6,0,2.4,0s2,0,2.8,0h4.7c0.9,0,1-0.3,1.2-1.1l0.6-2.3C120.2,25.6,120,25.6,119.9,25.8z"/>
	<path class="st0" d="M176.2,19h-3.7c-0.8,0-1.5,0-2.3,0v0.4c0.6,0.1,1.1,0.5,1.1,1.7v5.9c0,1.5-0.5,1.9-1.1,2v0.4h2.4
		c0.7,0,1.4,0,2.2,0v-0.4c-0.6-0.1-1.1-0.6-1.1-2v-1.6c0-0.1,0-0.2,0.2-0.2h2.5c2.2,0,6-0.3,6-3.1S178.6,19,176.2,19z M176.4,24.3
		h-2.5c-0.1,0-0.2,0-0.2-0.2V21c0-1.3,0.1-1.3,1.5-1.3h1.2c2.1,0,3.5,0.5,3.5,2.3S178.5,24.3,176.4,24.3z"/>
</g>
</svg>
