<?xml version="1.0" encoding="utf-8"?>
<!-- Generator: Adobe Illustrator 26.4.1, SVG Export Plug-In . SVG Version: 6.00 Build 0)  -->
<svg version="1.1" id="Warstwa_1" xmlns="http://www.w3.org/2000/svg" xmlns:xlink="http://www.w3.org/1999/xlink" x="0px" y="0px"
	 viewBox="0 0 291 26.7" style="enable-background:new 0 0 291 26.7;" xml:space="preserve">
<style type="text/css">
	.st0{fill:#EAE1D1;}
</style>
<g>
	<path class="st0" d="M28.6,18.6c-2.7,5.8-5.9,6.1-10.9,6.1h-4.9c-4.5,0-4.6-1.1-4.6-4.5V6.7c0-2.2,0.1-3.2,0.5-3.9
		c0.9-1,2.3-1.6,3.6-1.5c0.5,0,1,0,1-0.3S13,0.7,12.4,0.7c-2.2,0-4.1,0.1-6,0.1S2.8,0.7,0.9,0.7C0.4,0.7,0,0.7,0,1s0.5,0.3,1.1,0.3
		c1.3,0,2.6,0.5,3.5,1.5C5,3.5,5.2,4.6,5.2,6.7v13.6c0,2.5-0.8,5.1-4.2,5.1c-0.2,0-0.3,0.1-0.4,0.3C0.6,25.9,0.8,26,1,26
		c1.8,0,3.5-0.1,5.3-0.1c2.4,0,2.9,0.1,5.5,0.1h13c1.7,0,2-0.2,2.6-2.2l1.6-5.2C29.2,18.4,28.7,18.3,28.6,18.6z"/>
	<path class="st0" d="M42.9,2.8c0.7-1,1.9-1.6,3.1-1.6c0.5,0,1,0,1-0.3s-0.4-0.2-0.8-0.2c-1.9,0-3.7,0.1-5.1,0.1s-3.2-0.1-5-0.1
		c-0.5,0-0.8,0-0.8,0.2s0.5,0.3,1,0.3c1.2,0,2.4,0.6,3.1,1.6c0.3,0.7,0.4,1.4,0.4,2.1v16c0.1,1,0,2-0.4,3c-0.7,1-1.9,1.6-3.1,1.6
		c-0.5,0-1,0-1,0.3s0.4,0.2,0.8,0.2c2,0,3.7-0.1,5.1-0.1s3.2,0.1,5,0.1c0.5,0,0.8,0,0.8-0.2s-0.5-0.3-1-0.3c-1.2,0-2.4-0.6-3.1-1.6
		c-0.4-1-0.5-2-0.4-3v-16C42.5,4.1,42.6,3.4,42.9,2.8z"/>
	<path class="st0" d="M103.6,25.5c-3.2,0-3.9-2.5-4.6-4.6L93.9,5.6c-0.3-0.8-0.6-1.7-0.7-2.5c0-1.9,2.3-1.9,3.4-1.9
		c0.4,0,0.5-0.5,0.1-0.5h-4.4c-1.6,0-2.4,0.3-3,1.6L77.9,23.4L67.3,2.2c-0.4-1-1.4-1.6-2.4-1.5h-4.7c-0.6,0-0.5,0.5,0,0.5
		c2.2,0,2.9,0.3,2.9,1.3c-0.1,0.7-0.2,1.4-0.5,2L57.4,20c-1.3,3.9-2.1,5.5-5.3,5.5c-0.8,0-0.7,0.5-0.2,0.5c1.4,0,2.9-0.1,4.5-0.1
		c2.1,0,2.3,0.1,4.5,0.1c0.6,0,0.8-0.5,0-0.5c-2.3,0-3.1-0.5-3.1-1.9c0.1-1.1,0.4-2.2,0.8-3.3l5.7-17.5l11.1,22
		c0.6,1.3,1,1.9,1.3,1.9s0.8-0.6,1.9-2.8L89.9,3.1L96,21.7c0.2,0.5,0.3,1,0.3,1.6c0,1.5-1.1,2.3-3,2.3c-0.9,0-0.7,0.5-0.1,0.5
		c3.3,0,4.4-0.1,5.8-0.1c1.6,0,2.4,0.1,4.5,0.1C104.4,26,104.5,25.5,103.6,25.5z"/>
	<path class="st0" d="M161.7,0.7c-1.3,0-7.2,0.1-11,0.1c-1.9,0-3.4-0.1-5.8-0.1c-0.5,0-0.9,0-0.9,0.3s0.6,0.3,1.1,0.3
		c2.3,0,4.1,0.6,4.1,4.1V20c0,5.1-1.8,5.5-4.1,5.5c-0.5,0-1.1,0-1.1,0.3s0.4,0.3,0.9,0.3c2.4,0,4-0.1,5.9-0.1s3.4,0.1,5.7,0.1
		c0.5,0,0.9,0,0.9-0.3s-0.6-0.3-1.1-0.3c-2.3,0-4.1-0.4-4.1-5.5v-4.6c0,0,0-0.1,0.1-0.1h9.6c4.6,0,12-1,12-7.3S166.3,0.7,161.7,0.7z
		 M161.7,14h-9.6c0,0-0.1,0-0.1-0.1V5.6c0-3.5,0.2-3.6,4.5-3.6h5.1c5.6,0,8.6,1.5,8.6,5.9S167.4,14,161.7,14L161.7,14z"/>
	<path class="st0" d="M251.3,25.6c-3.3,0.2-4.4-0.1-9.5-7.6c-1.2-1.7-2-3-3-3.4c4.2-0.6,7.7-2.4,7.7-6.8c0-6.2-6.2-7-11.8-7
		c-1.5,0-7,0.1-9.9,0.1s-3.6-0.1-6.2-0.1c-0.5,0-0.9,0-0.9,0.3s0.6,0.3,1.1,0.3c2.3,0,4.1,0.8,4.1,5.9v12.9c0,5.1-1.8,5.5-4.1,5.5
		c-0.5,0-1.1,0-1.1,0.3s0.4,0.3,0.9,0.3c2.4,0,3.9-0.1,5.9-0.1s3.4,0.1,5.8,0.1c0.5,0,0.9,0,0.9-0.3s-0.6-0.3-1.1-0.3
		c-2.3,0-4.1-0.4-4.1-5.5v-5.1c0-0.1,0-0.1,0.1-0.1h9c1.2,0,1.7,0.5,2.4,1.6c6.6,9.7,6.9,9.8,12.7,9.8c0.5,0,1,0,1.5-0.1
		C251.7,26,251.5,25.6,251.3,25.6z M235.5,13.5h-9.8c0,0-0.1,0-0.1-0.1V7c0-5,0-5.1,5.5-5.1h4.4c4.1,0,7.6,1.3,7.6,5.8
		C243.2,11.8,239.6,13.5,235.5,13.5z"/>
	<path class="st0" d="M290.4,25.5c-0.5,0.1-1.1,0.1-1.6,0.1c-3.2,0-5.8-2-15.5-14.7l5.5-4.8c5.3-4.6,6.9-4.7,9.5-5
		c0.1,0,0.3-0.1,0.3-0.2c0-0.2-0.1-0.2-0.3-0.2c-1.7,0-3.6,0.1-5.3,0.1s-3.6-0.1-5.3-0.1c-0.3,0-0.4,0.1-0.4,0.3s0.1,0.2,0.4,0.2
		c1.6,0,2.6,0.2,2.6,1s-0.8,1.6-2.5,3.2l-13.7,11.8v-10c0-2.1,0.1-3.2,0.5-3.9c0.8-1.2,2.2-2,3.6-2.1c0.5,0,1,0,1-0.2
		s-0.3-0.2-0.9-0.2c-2.2,0-3.8,0.1-5.8,0.1s-3.9-0.1-5.7-0.1c-0.5,0-0.9,0-0.9,0.2s0.5,0.2,1.1,0.2c1.4,0.1,2.8,0.9,3.5,2.1
		c0.4,0.7,0.6,1.8,0.6,3.9v12.4c0,2.1-0.2,3.2-0.6,3.9c-0.8,1.2-2.1,2-3.5,2c-0.5,0-1.1,0-1.1,0.3s0.3,0.3,0.9,0.3
		c2.3,0,3.8-0.1,5.7-0.1s3.9,0.1,5.8,0.1c0.6,0,0.9,0,0.9-0.3s-0.5-0.3-1-0.3c-1.5,0-2.8-0.8-3.6-2c-0.4-1.2-0.6-2.6-0.5-3.9v-0.5
		l7.2-6.2c10.2,13,11.4,13.4,16,13.4c1.2,0,2.3-0.1,3.4-0.3C291.2,25.8,291,25.4,290.4,25.5z"/>
	<path class="st0" d="M212.9,25.5c-2.6,0-3.9-1.3-5.8-4.4L196.6,4c-2-3.2-2.1-3.2-4.7-3.2h-3.4c-0.3,0-0.5,0-0.5,0.2
		s0.2,0.3,0.5,0.3c2.2,0,3.3,0.6,3.9,1.4l-6,9.7c-1-0.4-2-0.6-3-0.7c-2.6-0.1-5.1,0.7-7.2,2.3v1.5c2.7-2,5-2.6,7.1-2.4
		c0.8,0.1,1.6,0.2,2.3,0.5l-2.4,3.8c-3.3,5.3-5.2,8.1-8.8,8.1c-0.6,0-0.6,0.2-0.6,0.3s0,0.2,0.6,0.2c1.8,0,3.5-0.1,5.4-0.1
		s3.6,0.1,5.4,0.1c0.6,0,0.6-0.1,0.6-0.2s0-0.3-0.6-0.3c-3.4,0-3.6-1.1-3.6-2.1c0-0.6,2.5-5,5.2-9.4c2.5,1,4.9,2.6,7.7,2.8
		c2,0.1,4-0.4,5.8-1.4l3,4.8c0.6,1,1.7,2.8,1.7,3.8c0,0.7-0.5,1.6-2.6,1.6c-0.4,0-0.5,0.1-0.5,0.2s0.1,0.2,0.5,0.2
		c1.9,0,3.7-0.1,5.6-0.1s3.3,0.1,5.1,0.1c0.5,0,0.6-0.1,0.6-0.2S213.5,25.5,212.9,25.5z M194.6,15.3c-2.6-0.2-4.8-1.5-7.1-2.5
		c2.8-4.7,5.6-9.1,5.6-9.1l6.5,10.5C198,15,196.3,15.4,194.6,15.3z"/>
	<path class="st0" d="M136.9,19.3c-2.3,5-4.9,5.4-9.9,5.4h-5.3c-5.2,0-5.3-0.6-5.3-4.5v-5.6c1.9,1.1,4,1.8,6.2,2.1
		c2,0.1,4.4-0.4,7.2-2.3v-1.6c-2.8,2-5,2.6-7,2.4c-2.3-0.2-4.3-1.2-6.4-2.2V5.6c0-3.4,0.7-3.9,3.6-3.9h7.7c4.6,0,7,0.1,7.3,4.7
		c0,0.4,0.5,0.4,0.5,0l0.6-6c0-0.3-0.1-0.4-0.3-0.4c-0.9,0.3-1.9,0.5-2.9,0.5h-13c-1.7,0-3.3,0.1-5.2,0.1c-1.2,0-2.9-0.1-4.7-0.1
		c-0.8,0-1,0-1,0.2s0.2,0.3,0.9,0.3c1.3,0,2.4,0.5,3.2,1.5c0.3,1,0.5,2,0.4,3.1v6.2c-0.7-0.2-1.4-0.3-2.1-0.4
		c-2.1-0.2-4.4,0.4-7.2,2.3v1.5c2.7-2,5-2.6,7.1-2.4c0.8,0.1,1.5,0.2,2.2,0.4v8.3c0,0.7-0.1,1.5-0.4,2.1c-0.8,1-2,1.6-3.2,1.5
		c-0.7,0-0.9,0-0.9,0.3s0.2,0.2,1,0.2c1.9,0,3.7-0.1,5-0.1c1.1,0,2.2,0.1,6.6,0.1h10.5c3,0,3.4-0.4,4.1-2.9l1.1-3.8
		C137.4,19.1,137.1,18.9,136.9,19.3z"/>
</g>
</svg>
