<?xml version="1.0" encoding="UTF-8"?> <svg xmlns="http://www.w3.org/2000/svg" fill="none" viewBox="0 0 175 80"><path fill="#f2f2f2" stroke="#00000010" stroke-width="1px" d="M44.6421 37.9525c1.8211 3.0265 3.8883 7.8346 3.8883 7.8346h.123s-.5168-4.9546-.5168-7.8346V24.0651c-1.0582-1.3668-2.0179-2.7824-2.8793-4.2712C41.7382 13.7898 39.9171 6.95593 39.9171 0c0 5.19864-1.0336 10.3485-3.027 15.1566-.7629 1.8305-1.6734 3.6122-2.707 5.2963l10.459 17.4996Zm-24.2894-3.9051c-1.6242.9518-3.3223 1.8061-5.0695 2.5139-4.8481 1.9769-10.04067 3.002-15.28246758 3.002C5.24253 39.5633 10.4351 40.5884 15.2832 42.5653c1.7472.7322 3.4453 1.5621 5.0695 2.5139V34.0474Zm39.5225.2196c-.1231-.0732-.2707-.1464-.3938-.2441v11.0563c1.6243-.9518 3.3223-1.8061 5.0696-2.5139 4.848-1.9769 10.0406-3.002 15.2824-3.002-7.0137.0244-13.9043-1.8061-19.9582-5.2963ZM35.192 41.0277c-1.8211-3.0264-3.8883-7.8346-3.8883-7.8346h-.123s.5168 4.9546.5168 7.8346V55.086c2.1164 2.7336 3.8636 5.7356 5.1925 8.9329 1.9934 4.8081 3.027 9.9579 3.027 15.1566 0-5.1987 1.0336-10.3485 3.0269-15.1566.7875-1.9037 1.7227-3.7099 2.8055-5.4671L35.192 41.0277Zm90.046-20.526v38.1234h-8.22l-12.772-20.1112c-1.28-2.0013-2.682-4.4176-4.208-7.2h-.0494v27.3356h-7.1121V20.5017h8.3175l12.65 20.1112c1.279 2.0014 2.682 4.442 4.208 7.2976h.049V20.5017h7.137Zm15.11 38.1234h-7.112V20.5017h7.112v38.1234Zm34.232-31.0698h-19.122v8.7864h17.202v6.9804h-17.202v15.303h-7.087V20.5017h26.209v7.0536Z"></path></svg> 