<svg width="89" height="93" viewBox="0 0 89 93" fill="none" xmlns="http://www.w3.org/2000/svg">
<path d="M51.6479 13.6395C50.5333 13.3732 49.3967 13.1699 48.2444 13.0203C48.2504 12.8213 48.2692 12.6247 48.2692 12.4244C48.2692 7.90442 46.7552 3.6663 44.1181 3.8147e-06C41.4811 3.6663 39.967 7.90442 39.967 12.4244C39.967 12.6247 39.9859 12.8213 39.9919 13.0203C38.8396 13.1699 37.703 13.3732 36.5884 13.6395C40.5426 19.0094 43.0533 25.6015 43.5743 32.7833C43.5751 32.7837 43.5763 32.7845 43.5771 32.7849L44.1181 33.3551L44.6608 32.7833C45.1798 25.596 47.6913 19.0128 51.6479 13.6395Z" fill="#005151"/>
<path d="M36.5884 79.339C37.703 79.6053 38.8396 79.8086 39.9919 79.9577C39.9859 80.1572 39.967 80.3537 39.967 80.5536C39.967 85.0741 41.4811 89.3122 44.1181 92.9785C46.7552 89.3122 48.2692 85.0741 48.2692 80.5536C48.2692 80.3537 48.2504 80.1572 48.2444 79.9577C49.3967 79.8086 50.5333 79.6053 51.6479 79.339C47.6937 73.9691 45.183 67.377 44.662 60.1952C44.6612 60.1948 44.66 60.194 44.6592 60.1935L44.1181 59.6234L43.5755 60.1952C43.0565 67.3824 40.545 73.9657 36.5884 79.339Z" fill="#005151"/>
<path d="M75.2926 54.4237C75.5453 53.2492 75.7382 52.0515 75.8802 50.8373C76.0691 50.8436 76.2556 50.8635 76.4457 50.8635C80.7351 50.8635 84.7571 49.2681 88.2364 46.4893C84.7571 43.7105 80.7351 42.1151 76.4457 42.1151C76.2556 42.1151 76.0691 42.135 75.8802 42.1413C75.7382 40.9271 75.5453 39.7294 75.2926 38.5549C70.1965 42.7216 63.9406 45.3672 57.1252 45.9162C57.1248 45.9171 57.124 45.9183 57.1236 45.9192L56.5825 46.4893L57.1252 47.0611C63.9458 47.608 70.1933 50.2545 75.2926 54.4237Z" fill="#005151"/>
<path d="M12.9438 38.5548C12.6912 39.7293 12.4982 40.9271 12.3567 42.1413C12.1674 42.1349 11.9809 42.1151 11.7912 42.1151C7.50127 42.1151 3.47931 43.7105 0 46.4893C3.47931 49.268 7.50127 50.8635 11.7912 50.8635C11.9809 50.8635 12.1674 50.8436 12.3567 50.8373C12.4982 52.0515 12.6912 53.2492 12.9438 54.4237C18.0399 50.257 24.2958 47.6113 31.1112 47.0623C31.1117 47.0615 31.1125 47.0602 31.1129 47.0594L31.6539 46.4893L31.1112 45.9174C24.2906 45.3706 18.0431 42.7241 12.9438 38.5548Z" fill="#005151"/>
<path d="M60.8376 75.328C61.8042 74.6857 62.7443 73.9824 63.6595 73.2297C63.7891 73.3751 63.9074 73.5281 64.0418 73.6697C67.0751 76.866 70.9896 78.7349 75.3143 79.362C74.7191 74.8048 72.9456 70.68 69.9123 67.4836C69.7783 67.3421 69.6327 67.217 69.4952 67.0809C70.2095 66.1164 70.8769 65.1258 71.4861 64.1073C65.0866 63.2565 58.888 60.4655 53.7001 55.7756C53.6993 55.776 53.6981 55.7764 53.6969 55.7764H52.932V56.5849L52.9316 56.5853C57.3876 62.0541 60.0298 68.5804 60.8376 75.328Z" fill="#005151"/>
<path d="M27.3991 17.6505C26.4325 18.2929 25.4924 18.9962 24.5772 19.7489C24.4476 19.6035 24.3293 19.4505 24.1949 19.3089C21.1616 16.1126 17.2471 14.2437 12.9224 13.6165C13.5176 18.1737 15.2911 22.2986 18.3244 25.4949C18.4584 25.6365 18.604 25.7616 18.7415 25.8977C18.0272 26.8621 17.3598 27.8528 16.7506 28.8713C23.1501 29.722 29.3487 32.5131 34.5366 37.203C34.5374 37.2025 34.5386 37.2021 34.5398 37.2021H35.3047V36.3936L35.3051 36.3932C30.8491 30.9244 28.2069 24.3982 27.3991 17.6505Z" fill="#005151"/>
<path d="M84.3536 15.3124C83.744 14.2938 83.0766 13.3032 82.3623 12.3388C82.5002 12.2023 82.6454 12.0776 82.7798 11.936C85.8131 8.73967 87.5866 4.61482 88.1818 0.057621C83.8571 0.684801 79.9426 2.55366 76.9093 5.75C76.7749 5.89116 76.6562 6.04457 76.527 6.18953C75.6118 5.43683 74.6717 4.73358 73.7051 4.0916C72.8977 10.8351 70.249 17.3668 65.7983 22.8335C65.7987 22.8343 65.7991 22.8356 65.7991 22.8368V23.6428H66.5664L66.5668 23.6432C71.7567 18.9478 77.9501 16.1635 84.3536 15.3124Z" fill="#005151"/>
<path d="M16.7501 64.1071C17.3597 65.1256 18.0271 66.1162 18.7414 67.0807C18.6035 67.2172 18.4583 67.3419 18.3239 67.4834C15.2906 70.6798 13.5171 74.8046 12.9219 79.3618C17.2466 78.7346 21.1611 76.8658 24.1944 73.6694C24.3288 73.5283 24.4475 73.3749 24.5767 73.2299C25.4919 73.9826 26.432 74.6859 27.3986 75.3278C28.206 68.5844 30.8547 62.0527 35.3054 56.586C35.305 56.5851 35.3046 56.5839 35.3046 56.5826V55.7766H34.5373L34.5369 55.7762C29.347 60.4716 23.1537 63.2559 16.7501 64.1071Z" fill="#005151"/>
</svg>
