<svg width="179" height="11" viewBox="0 0 179 11" fill="none" xmlns="http://www.w3.org/2000/svg">
<path d="M0.00244141 10.4743V1.23058H1.65005V8.89706H5.31706V10.4743H0.00244141Z" fill="#005151"/>
<path d="M7.82324 1.23051H9.47084V10.4869H7.82324V1.23051Z" fill="#005151"/>
<path d="M11.5938 1.23053H13.4387L16.0609 7.36878L18.5792 1.23053H20.4242L16.026 11L11.5938 1.23053Z" fill="#005151"/>
<path d="M22.5591 1.23051H24.2067V10.4869H22.5591V1.23051Z" fill="#005151"/>
<path d="M29.0911 4.83747L29.1148 10.4867H27.4668L27.4901 0.973808L33.9421 7.12389L33.9301 1.23034H35.5781L35.5548 10.8291L29.0911 4.83747Z" fill="#005151"/>
<path d="M43.561 6.9776V5.46121H47.506C47.506 9.39841 45.3478 10.6946 43.2706 10.6946C40.5674 10.6946 38.3623 8.59161 38.3623 5.91342C38.3623 3.07674 40.4046 1.02235 43.1086 1.02235C45.2551 1.02235 46.4387 2.15964 46.5085 2.23318L45.6963 3.54163C45.6382 3.45626 44.7213 2.58776 43.1319 2.58776C41.2869 2.58776 40.1146 4.0061 40.1146 5.88933C40.1146 7.6014 41.4028 9.12962 43.2827 9.12962C44.617 9.12962 45.6843 8.17575 45.7773 6.9776H43.561Z" fill="#005151"/>
<path d="M62.5675 10.4867L62.1151 5.79134L59.1094 10.8536L56.1158 5.84037L55.6867 10.4867H53.9111L55.1059 0.985641L59.1215 7.68683L63.1246 0.998321L64.3314 10.4867H62.5675Z" fill="#005151"/>
<path d="M67.1855 10.4743V1.24242H72.4071V2.80741H68.8332V4.80052H71.7109V6.37819H68.8332V8.89706H72.7669V10.4743H67.1855Z" fill="#005151"/>
<path d="M83.7902 10.4867L83.3377 5.79134L80.3321 10.8536L77.3385 5.84037L76.9093 10.4867H75.1338L76.3294 0.985641L80.3441 7.68683L84.3472 0.998321L85.5541 10.4867H83.7902Z" fill="#005151"/>
<path d="M92.655 2.58761C90.9725 2.58761 89.5803 4.00638 89.5803 5.81565C89.5803 7.55222 90.938 9.14173 92.5739 9.14173C94.3146 9.14173 95.6835 7.69845 95.6835 5.88918C95.6835 4.00638 94.2913 2.58761 92.655 2.58761ZM92.655 10.6949C89.9746 10.6949 87.8276 8.50609 87.8276 5.86467C87.8276 3.21141 89.9746 1.02262 92.655 1.02262C95.3008 1.02262 97.4478 3.11336 97.4478 5.90144C97.4478 8.53018 95.2431 10.6949 92.655 10.6949Z" fill="#005151"/>
<path d="M102.437 5.46113C103.678 5.46113 104.259 5.00892 104.259 4.09182C104.259 3.32137 103.736 2.80745 102.483 2.80745H101.88V5.46113H102.437ZM105.349 10.4866L102.054 7.0388H101.88V10.4866H100.232V1.23063H102.042C103.736 1.23063 105.999 1.58521 105.999 4.07956C105.999 5.82798 105.036 6.57391 103.887 6.8799L107.624 10.4866H105.349Z" fill="#005151"/>
<path d="M109.387 1.23051H111.035V10.4869H109.387V1.23051Z" fill="#005151"/>
<path d="M117.764 4.39753L116.453 7.33226H119.098L117.764 4.39753ZM120.526 10.4868L119.76 8.78695H115.78L115.014 10.4868H113.181L117.775 0.826752L122.371 10.4868H120.526Z" fill="#005151"/>
<path d="M124.518 10.4743V1.23058H126.165V8.89706H129.832V10.4743H124.518Z" fill="#005151"/>
<path d="M138.744 5.70592C139.95 5.70592 140.542 5.13073 140.542 4.21362C140.542 3.37006 140.031 2.80754 138.929 2.80754H138.163V5.70592H138.744ZM136.516 10.4867V1.23071H138.476C140.681 1.23071 142.283 1.92763 142.283 4.21362C142.283 6.06051 141.168 7.28317 138.778 7.28317H138.163V10.4867H136.516Z" fill="#005151"/>
<path d="M147.748 4.39753L146.437 7.33226H149.082L147.748 4.39753ZM150.51 10.4868L149.744 8.78695H145.764L144.998 10.4868H143.165L147.76 0.826752L152.355 10.4868H150.51Z" fill="#005151"/>
<path d="M156.706 5.46113C157.947 5.46113 158.527 5.00892 158.527 4.09182C158.527 3.32137 158.005 2.80745 156.752 2.80745H156.149V5.46113H156.706ZM159.618 10.4866L156.323 7.0388H156.149V10.4866H154.501V1.23063H156.312C158.005 1.23063 160.268 1.58521 160.268 4.07956C160.268 5.82798 159.305 6.57391 158.156 6.8799L161.893 10.4866H159.618Z" fill="#005151"/>
<path d="M169.029 10.4868L165.303 6.94091V10.4868H163.656V1.23036H165.303V4.80072L168.472 1.23036H170.607L166.372 5.73008L171.454 10.4868H169.029Z" fill="#005151"/>
<path d="M173.507 8.12661C173.96 8.56698 174.784 9.1295 175.77 9.1295C176.664 9.1295 177.139 8.68912 177.139 8.01672C177.139 6.06038 173.24 6.36594 173.24 3.54152C173.24 1.89073 174.644 1.0104 176.106 1.0104C177.464 1.0104 178.427 1.89073 178.601 2.08641L177.801 3.38261C177.348 2.90588 176.71 2.56313 176.118 2.56313C175.526 2.56313 174.957 2.83235 174.957 3.46798C174.957 5.09425 178.892 4.72783 178.892 7.99263C178.892 9.42323 177.696 10.6949 175.642 10.6949C174.377 10.6949 173.124 9.89995 172.648 9.37378L173.507 8.12661Z" fill="#005151"/>
</svg>
