<svg width="250" height="39" viewBox="0 0 250 39" fill="none" xmlns="http://www.w3.org/2000/svg">
<path d="M19.5145 38.2706C8.15127 38.2706 0.830078 30.1549 0.830078 19.3847C0.830078 8.61186 8.1986 0.0950623 20.7033 0.0950623C25.981 0.0950623 29.8794 1.39887 32.6845 2.25047L33.6828 11.318L32.9701 11.5187C28.2158 4.55506 24.9827 1.69978 20.1333 1.69978C11.8604 1.69978 8.38911 9.26271 8.38911 19.3847C8.38911 29.5531 11.6222 36.668 19.5622 36.668C24.2696 36.668 27.7397 34.2628 27.8351 29.3549C27.8825 25.6459 27.122 23.6933 25.4099 20.8381V20.7375H35.9653V20.8381C34.4444 24.1434 34.0161 26.2963 34.0161 30.5074V32.8094C32.0191 34.4146 27.5019 38.2706 19.5145 38.2706Z" fill="#005151"/>
<path d="M40.0124 37.4192C40.9156 34.664 41.2477 32.3104 41.2477 27.7498V22.0883C41.2477 18.3815 40.2967 16.2772 38.7759 14.4743V14.3737L47.1916 11.5674V17.8798H47.2858C49.3301 15.1762 51.9459 11.4673 55.7966 11.8193L55.2267 19.3848H54.8461C53.6569 18.3815 51.3748 17.5299 50.2345 17.5299C49.4256 17.5299 48.3318 18.2813 47.4286 19.534V27.7008C47.4286 32.2103 47.6665 34.664 48.5697 37.4192V37.5193H40.0124V37.4192Z" fill="#005151"/>
<path d="M63.9768 21.3371L72.9163 21.1363V19.9352C72.9163 15.3256 71.5844 13.2729 69.1595 13.2729C66.1165 13.2729 64.2624 16.8276 63.9768 21.3371ZM78.5735 30.4071L79.0495 30.8056C77.6702 35.0653 74.2467 38.2705 68.9702 38.2705C62.1227 38.2705 57.6543 32.9099 57.6543 25.4966C57.6543 17.2291 63.1213 11.8195 69.2545 11.8195C75.626 11.8195 79.3816 17.481 79.0495 22.8416H63.9303C64.0245 30.1062 67.4481 33.1618 72.202 33.1618C75.0083 33.1618 77.1003 32.1099 78.5735 30.4071Z" fill="#005151"/>
<path d="M88.2756 21.3371L97.2152 21.1363V19.9352C97.2152 15.3256 95.8832 13.2729 93.4583 13.2729C90.4154 13.2729 88.5612 16.8276 88.2756 21.3371ZM102.872 30.4071L103.348 30.8056C101.969 35.0653 98.5455 38.2705 93.269 38.2705C86.4215 38.2705 81.9531 32.9099 81.9531 25.4966C81.9531 17.2291 87.4202 11.8195 93.5534 11.8195C99.9248 11.8195 103.68 17.481 103.348 22.8416H88.2291C88.3234 30.1062 91.7469 33.1618 96.5008 33.1618C99.3072 33.1618 101.399 32.1099 102.872 30.4071Z" fill="#005151"/>
<path d="M107.109 37.4192C108.012 34.664 108.344 32.3104 108.344 27.7498V22.0883C108.296 18.3815 107.393 16.2772 105.872 14.4743V14.3737L114.288 11.5674V16.6297L114.525 16.6787C116.237 14.1243 118.804 11.8193 122.655 11.8193C127.077 11.8193 129.786 14.6746 129.786 19.184V27.7008C129.786 32.3104 130.025 34.664 130.976 37.4192V37.5193H122.418V37.4192C123.321 34.664 123.606 32.1097 123.606 27.7498V20.2359C123.606 17.7306 122.418 15.6754 119.564 15.6754C117.568 15.6754 115.761 16.6787 114.525 18.3324V27.7008C114.525 32.2103 114.763 34.664 115.666 37.4192V37.5193H107.109V37.4192Z" fill="#005151"/>
<path d="M151.852 22.4405L146.907 8.01243L141.867 22.4405H151.852ZM133.358 37.5195V37.4193C135.498 35.1143 136.733 32.4107 138.112 28.452L147.906 0.54755H151.186L161.076 28.8535C162.55 33.01 163.787 35.4668 165.497 37.4193V37.5195H153.802V37.4193C155.038 35.5669 155.275 32.3106 153.896 28.3028L152.423 24.0431H141.298L140.489 26.3477C138.445 32.1098 139.68 35.616 141.345 37.4193V37.5195H133.358Z" fill="#005151"/>
<path d="M186.137 31.207C184.758 35.315 181.383 38.2708 176.248 38.2708C169.591 38.2708 165.123 33.2623 165.123 25.5455C165.123 17.53 170.97 11.8194 178.149 11.8194C181.383 11.8194 183.475 12.5193 184.71 13.0721L185.424 19.6854L184.853 19.8836C182.808 16.5782 180.004 13.3218 177.341 13.3218C173.87 13.3218 171.351 16.8791 171.351 22.8906C171.351 29.9053 174.821 33.2107 179.528 33.2107C181.905 33.2107 184.235 32.4107 185.661 30.806L186.137 31.207Z" fill="#005151"/>
<path d="M189.897 37.4192C190.8 34.664 191.132 32.3104 191.132 27.7498V22.0883C191.132 18.3815 190.182 16.2772 188.661 14.4743V14.3737L197.076 11.5674V17.8798H197.171C199.215 15.1762 201.831 11.4673 205.681 11.8193L205.111 19.3848H204.73C203.542 18.3815 201.26 17.5299 200.119 17.5299C199.31 17.5299 198.217 18.2813 197.313 19.534V27.7008C197.313 32.2103 197.551 34.664 198.454 37.4192V37.5193H189.897V37.4192Z" fill="#005151"/>
<path d="M213.862 21.3371L222.801 21.1363V19.9352C222.801 15.3256 221.469 13.2729 219.044 13.2729C216.001 13.2729 214.147 16.8276 213.862 21.3371ZM228.458 30.4071L228.934 30.8056C227.555 35.0653 224.131 38.2705 218.855 38.2705C212.007 38.2705 207.539 32.9099 207.539 25.4966C207.539 17.2291 213.006 11.8195 219.139 11.8195C225.511 11.8195 229.266 17.481 228.934 22.8416H213.814C213.909 30.1062 217.333 33.1618 222.087 33.1618C224.893 33.1618 226.985 32.1099 228.458 30.4071Z" fill="#005151"/>
<path d="M248.478 18.932L247.956 19.0837C245.244 14.824 242.821 13.3216 240.443 13.3216C238.161 13.3216 236.783 14.6233 236.783 16.5293C236.783 19.3846 239.873 20.3854 243.154 21.8388C246.576 23.3924 250 25.3449 250 30.4072C250 35.917 245.673 38.2706 240.348 38.2706C237.59 38.2706 234.833 37.6713 232.694 36.8197L232.123 29.7538L232.646 29.5531C235.356 34.4145 238.019 36.7686 241.251 36.7686C244.152 36.7686 245.198 35.0143 245.198 33.1619C245.198 30.4558 242.868 29.3037 239.921 27.9504C236.497 26.3478 232.503 24.6451 232.503 19.2845C232.503 13.7721 236.925 11.8196 241.822 11.8196C244.152 11.8196 246.481 12.2697 247.908 12.7713L248.478 18.932Z" fill="#005151"/>
</svg>
