<svg width="16" height="34" viewBox="0 0 16 34" fill="none" xmlns="http://www.w3.org/2000/svg">
<path d="M15.6479 13.6395C14.5333 13.3732 13.3967 13.1699 12.2444 13.0203C12.2504 12.8213 12.2692 12.6247 12.2692 12.4244C12.2692 7.90442 10.7552 3.6663 8.11813 3.8147e-06C5.48107 3.6663 3.96702 7.90442 3.96702 12.4244C3.96702 12.6247 3.98587 12.8213 3.99189 13.0203C2.8396 13.1699 1.70296 13.3732 0.588379 13.6395C4.54256 19.0094 7.05328 25.6015 7.57427 32.7833C7.57507 32.7837 7.57628 32.7845 7.57708 32.7849L8.11813 33.3551L8.66078 32.7833C9.17977 25.596 11.6913 19.0128 15.6479 13.6395Z" fill="#005151"/>
</svg>
