<svg xmlns="http://www.w3.org/2000/svg" viewBox="0 0 972.78 291.351">
  <g data-name="Group 3">
    <g data-name="Group 2">
      <g data-name="Group 1">
        <path fill="#eefcf7" fill-rule="evenodd" stroke="#229e6d" stroke-width=".7" d="M970.839 128.717c-1.076 1.681-2.677 2.944-4.265 5.226-6.94 4.258-13.872 9.349-21.336 14.191.342 2.21 2.585 3.708 5.875 3.92 1.123.215 3.29-.553 6.4-1.309a14.141 14.141 0 0 1 3.9-1.786c1.659-.526 3.14-1.033 4.456-.22 1.723 1.063 1.631 3.658 2.011 5.545a8.443 8.443 0 0 0-3.085 6.889c.041-.219.36.775-.035 1.612a2.639 2.639 0 0 1-1.477 1.36c-5.83 4.122-11.661 7.127-17.491 10.692-2.635 1.612-5.32 4.312-7.31 5.643a28.9 28.9 0 0 0-3.167 5.076q-2.832 5.333-5.667 10.664c-3.748 7.041-13.757 11.134-14.387 19.1-.316 3.97 2.012 7.753 1.914 11.733a17.6 17.6 0 0 1-3.786 9.482c-4.645 8.362-9.291 14.912-13.937 22.364-3.489 5.592-7.022 11.25-11.814 15.74a37.792 37.792 0 0 1-29.257 9.928c-7.978-.808-16.428-4.108-23.649-.371-1.979.743-3.71 2.171-5.711 3.084a24.193 24.193 0 0 1-9.137 1.608 113.891 113.891 0 0 1-22.733-.474c-18.727-2.517-36.743-13.025-55.4-9.993-8.37 1.362-16.054 5.383-24.115 8.046-21.079 6.965-43.926 4.471-65.957 1.9-9.011-1.053-18.534-1.249-27.6-1.662-10.288-.518-22.463-3.6-33.809-4.136-9.213-.462-19.836 1.025-29.669-.112-15.369-1.778-30.27-9.909-45.527-7.332-4.81.967-11.151 3.426-16.881 4.452-7.321 1.31-14.829.232-22.186-.845-20.137-2.949-39.895-5.923-59.267-12.178-16.208-5.069-33.161-2.473-50.529-.859a3.629 3.629 0 0 0-3.877-.363 6.2 6.2 0 0 0-3.031 4.16c-7.075 7.691-16.22 12.324-25.612 15.562a232 232 0 0 1-28.79 1.361c-13.339.079-26.68.563-40.02 1.339a166.065 166.065 0 0 0-35.075.479 122.652 122.652 0 0 1-16.27 1.591 63.009 63.009 0 0 1-15.927-2.514c-15.508-2.886-29.881-7.275-44.051-11.86a68.628 68.628 0 0 1-26.57-12.352c-7.09-5.39-15.508-10.257-21.936-16.433-3.679-3.535-9.08-4.291-13.873-5.979a35.031 35.031 0 0 1-19.578-17.5c-1.025-2.095-1.026-5 .129-6.47 2.4-1.657 6.127-.387 6.917-2.917a104.151 104.151 0 0 0-18.739-1.063c-2.836-1.44-5.9-2.224-6.41-4.7-.217-1.052.089-2.275-.566-3.121-.687-.885-2.008-.823-3.111-.678l-4.161.549c-.571.074-1.234.216-1.477.745-.323.7.335 1.421.843 2 3.231 3.649 1.809 10.414.2 13.956a30.442 30.442 0 0 0-13.241 1.336c-3.182 1.059-6.366 2.67-9.692 2.295a1.994 1.994 0 0 1-1.12-.4 7.763 7.763 0 0 1-.543-1.315c-.362-4.6.973-8.973 1.25-13.4a10.423 10.423 0 0 0-4.708-11.689 27.73 27.73 0 0 0-5.535-1.86 8.158 8.158 0 0 1-4.411-3.553 10.917 10.917 0 0 1-.43-2.075c-1.384-1.937-4.564-1.446-5.964-3.2-.916-1.146-.258-2.8-.47-4.255.517-3.059 1.446-6.119 1.559-8.342 7.445-.341 15.1.685 22.539 1.18 1.314.088 3 .225 3.7 1.14 1.177 1.128 1.194 2.983 1.128 5.687-.173 3.246-.345 7.551-.517 12.846a6.383 6.383 0 0 0 .479 3.271 3.482 3.482 0 0 0 3.445 1.075c1.331-.549 1.292-2.22 1.74-3.565 1.362-4.093 5.548-6.539 10.5-7.707 3.275-1.163 7.637-1.439 11.6-3.064.9-.371 2.972-.838 2.427-1.612.54-.687.8-1.551 1.224-1.448 1.637-3.788 5.465-4.651 8.763-4.289s6.473 1.626 9.789 1.741c2.914.1 5.787-.69 8.7-.839 2.912.013 6.134.518 7.928 2.838a254.753 254.753 0 0 1 5.237-42.56c.88 3.266 2.161 6.99 5.314 8.127 2.373.855 5.04-.13 7.092-1.6a16.253 16.253 0 0 0 6.333-17.1 3.452 3.452 0 0 0-.788-1.856 4.971 4.971 0 0 0-2.008-1.328c-4.734-1.6-9.753-.647-14.54-.154a4.374 4.374 0 0 1-1.939.022c-1.809-.54-2.13-2.957-2.1-4.866a2.616 2.616 0 0 1 .692-2.128c.354-.023.815-.328 1.256-.38 8.089-.951 16.176-1.9 24.706-2.854a10.356 10.356 0 0 0 5.186-3.206 2.045 2.045 0 0 0 .693-1.292 2.684 2.684 0 0 0-.928-1.65c-3.6-4.145-1.762-10.837 1.717-15.084a24.753 24.753 0 0 1 11.453-7.83c4.135-1.338 9.019-1.2 12.665-3.046 4.085-1.486 8.012-4.807 8.271-9.188 5.345 1.96 7.273 9.8 12.69 11.137 5.557 1.792 10.992-3.4 16.817-3.606a22 22 0 0 1 8.234 1.976 124.656 124.656 0 0 0 29.308 6.936 12.845 12.845 0 0 0 2.481.058 5.451 5.451 0 0 0 .359-2.4c-.272-3.633-2.029-6.9-3.776-10.158a73.672 73.672 0 0 1-7.979-29.174c1.617-.729 3.44.345 4.831 1.452 7.835 6.229 14.086 15.178 23.617 18.124a16.394 16.394 0 0 0 7.383.629c6.054-.625 10.35-7.069 14.991-12.559.693 3.4 4.237 3.453 6.99 2.221s4.42-4.542 3.785-6.75a56.99 56.99 0 0 1 17.175-7.6c1.185 3.863 1.079 7.991.96 13.1a16.417 16.417 0 0 1-.867 4.982 5.368 5.368 0 0 1-4.293 3.969c-1.252 1.361-2.528-.13-3.8-.121a2.973 2.973 0 0 0-3.131 2.79c-.186-.519-.129.075-.071.645a33.692 33.692 0 0 0 1.884 8.5 3.566 3.566 0 0 0 .806 2.8 6.516 6.516 0 0 0 3.117 1.738c8.478 2.739 17.822 3.428 26.234.5a7.106 7.106 0 0 0 6.319-6.369c.035-2.326-1.692-4.368-1.741-6.687-.056-2.643 2.161-4.892 4.642-5.727a18.431 18.431 0 0 1 7.774-.307l7.5.776a6.747 6.747 0 0 1 3.306.935 17.463 17.463 0 0 1 2.005 2.16c2.653 2.7 7.041 2.067 10.97 2.147 24.121-6.334 50.325-3.4 72.351-15.282 5.707-3.077 11.127-6.795 17.224-8.978a74.908 74.908 0 0 1 11.915-2.836c6.614-1.2 13.23-2.392 19.845-3.275a125.407 125.407 0 0 1 14.769-2.689c7.225-.874 14.51-1.132 21.783-1.39l34.984-1.235c10-.344 19.214-7.133 28.948-6.712a26.119 26.119 0 0 0 5.229.357c1.722-.583 3.462-1.688 3.855-3.411a8.062 8.062 0 0 0-.6-3.937c-1.422-4.936-.582-10.209.267-15.275 3.472 2.235 7.847 2.325 11.962 2.187a150.417 150.417 0 0 0 17.851-1.7 10.654 10.654 0 0 1 3.7-.156 18.723 18.723 0 0 1 3.691 1.549c7.127 2.639 12.9.786 19.475-.386 8-.173 15.508 3.756 23.437 4.843 4.625.6 9.757.872 11.729 4.874.941 1.907.775 4.216 2.059 6.146 1.125 2.813 4.088 4.118 6.436 6.127 4.357 3.731 5.8 9.807 6.994 15.452 7.139.388 15.053 1.431 22.192 1.819 2.344.128 6.095 1.463 5.9 3.359-.142 1.654-2.038 3.748-.646 4.619a2.338 2.338 0 0 0 1.2.252l12.864.389a10.007 10.007 0 0 0 2.316-.175c1.238-.787.813-3.675 1.718-5.577 1.058-2.223 3.924-2.859 6.354-2.649s4.873.991 7.268.518c1.714-.341 3.554-1.312 5.04-1.376 3.682-.13 6.155 3.559 8.886 6.059 3.688 4.353 8.648 4.87 13.427 6.265a24.48 24.48 0 0 0 6.742 1.138c4.463-.278 7.552-3.053 11.288-4.791a1.78 1.78 0 0 1 1.357-.217c.3.116.942.377.691.647 2.921 4.35-1.034 10.556.928 15.425 1.132.59.574 1.163 1.094 1.522 1.974 1.363 4.561-1.068 6.245-1.4 3.768-3.5 9.474-2.271 12.5-5.649 2.5-2.792 6.5-3.645 11.2-2.844 2.585.8 6.025 2.547 9.74 2.8 4.192.288 8.259-1.346 13.16-1.889a19.8 19.8 0 0 1 7.077.259c2.147.425 4.37 2.049 6.472.527 2.1-.615 3.73-2.585 2.358-5.08-.729-.917-2.042-1.229-2.714-2.2-1.442-2.095 1.194-4.585 1.818-7.058.66-2.617-1.074-5.2-2.625-7.193-2.068-1.987-4.161-4.041-4.447-6.728l14.344-12.866a10.021 10.021 0 0 0 3.25-3.845 5.9 5.9 0 0 0-1.857-7.2c-.2-2.26 2.1-4.282 3.788-5.31s3.692-.4 5.648-1.587c2.585-.27 4.726-.415 6.786.634a8.305 8.305 0 0 1 3.115 2.959c2.245 3.492 2.455 7.861 3.074 11.974 2.455 16.295 12.316 30.635 24.615 41.9a53.019 53.019 0 0 1 7.495 8.1c11.3 10.451 19 24.743 26.534 38.8 1.711 3.2 3.925 5.754 5.161 9.165a12.1 12.1 0 0 1-.6 10.5Z" data-name="Path 2" opacity=".988"/>
      </g>
    </g>
    <g data-name="Group 23">
      <g data-name="Tryb izolacji">
        <g data-name="Group 7">
          <g data-name="Group 4">
            <path fill="#229e6d" d="m105.719 143.599 4.088-.01-7.455-13.133-7.455 13.132 4.089.01-6.685 12.226h20.1Z" data-name="Path 8"/>
            <path d="M112.403 156.263h-20.1a.438.438 0 0 1-.385-.645l6.331-11.583-3.351-.008a.438.438 0 0 1-.38-.655l7.455-13.132a.439.439 0 0 1 .762 0l7.455 13.132a.438.438 0 0 1-.38.655l-3.351.008 6.329 11.583a.438.438 0 0 1-.384.648Zm-19.363-.877h18.623l-6.326-11.577a.438.438 0 0 1 .384-.648l3.337-.008-6.7-11.808-6.7 11.808 3.337.008a.438.438 0 0 1 .384.648Z" data-name="Path 9"/>
          </g>
          <g data-name="Group 6">
            <g data-name="Group 5">
              <path d="M102.363 164.094a.438.438 0 0 1-.438-.438v-18.4a.439.439 0 0 1 .877 0v18.4a.438.438 0 0 1-.438.438Z" data-name="Path 10"/>
              <path d="M104.802 164.097h-4.879a.4385.4385 0 1 1 0-.877h4.879a.4385.4385 0 1 1 0 .877Z" data-name="Path 11"/>
            </g>
            <path d="M102.088 150.801h-2.17a.4385.4385 0 1 1 0-.877h2.17a.4385.4385 0 1 1 0 .877Z" data-name="Path 12"/>
            <path d="M105.635 153.729h-3.057a.4385.4385 0 0 1 0-.877h3.058a.4385.4385 0 1 1 0 .877Z" data-name="Path 13"/>
            <path d="M104.802 148.849h-2.224a.4385.4385 0 0 1 0-.877h2.226a.4385.4385 0 1 1 0 .877Z" data-name="Path 14"/>
          </g>
        </g>
      </g>
      <g data-name="Tryb izolacji">
        <g data-name="Group 7">
          <g data-name="Group 4">
            <path fill="#229e6d" d="m520.719 92.543 4.088-.01-7.455-13.132-7.455 13.132 4.089.01-6.685 12.226h20.1Z" data-name="Path 8"/>
            <path d="M527.403 105.207h-20.1a.438.438 0 0 1-.385-.645l6.331-11.583-3.351-.008a.438.438 0 0 1-.38-.655l7.455-13.132a.439.439 0 0 1 .762 0l7.455 13.132a.438.438 0 0 1-.38.655l-3.351.008 6.331 11.583a.438.438 0 0 1-.384.648Zm-19.363-.877h18.623l-6.326-11.577a.438.438 0 0 1 .384-.648l3.337-.008-6.7-11.808-6.7 11.808 3.337.008a.438.438 0 0 1 .384.648l-6.336 11.577Z" data-name="Path 9"/>
          </g>
          <g data-name="Group 6">
            <g data-name="Group 5">
              <path d="M517.363 113.038a.438.438 0 0 1-.438-.438V94.201a.439.439 0 1 1 .877 0v18.4a.438.438 0 0 1-.438.438Z" data-name="Path 10"/>
              <path d="M519.802 113.041h-4.879a.439.439 0 0 1 0-.877h4.879a.4385.4385 0 1 1 0 .877Z" data-name="Path 11"/>
            </g>
            <path d="M517.088 99.745h-2.17a.4385.4385 0 0 1 0-.877h2.17a.439.439 0 0 1 0 .877Z" data-name="Path 12"/>
            <path d="M520.635 102.673h-3.057a.4385.4385 0 0 1 0-.877h3.058a.439.439 0 0 1 0 .877Z" data-name="Path 13"/>
            <path d="M519.802 97.793h-2.224a.4385.4385 0 0 1 0-.877h2.226a.439.439 0 0 1 0 .877Z" data-name="Path 14"/>
          </g>
        </g>
      </g>
      <g data-name="Tryb izolacji">
        <g data-name="Group 11">
          <g data-name="Group 8">
            <path fill="#229e6d" d="M176.994 256.349a19.969 19.969 0 0 1-10.682 0 6.16 6.16 0 0 1-4.288-4.287 19.969 19.969 0 0 1 0-10.682 6.161 6.161 0 0 1 4.288-4.288 19.969 19.969 0 0 1 10.682 0 6.158 6.158 0 0 1 4.288 4.287 19.969 19.969 0 0 1 0 10.682 6.16 6.16 0 0 1-4.288 4.288Z" data-name="Path 15"/>
            <path d="M171.654 257.506a20.416 20.416 0 0 1-5.456-.743 6.626 6.626 0 0 1-4.591-4.59 20.406 20.406 0 0 1 0-10.914 6.628 6.628 0 0 1 4.59-4.589 20.406 20.406 0 0 1 10.914 0 6.626 6.626 0 0 1 4.59 4.59 20.405 20.405 0 0 1 0 10.914 6.626 6.626 0 0 1-4.59 4.59 20.41 20.41 0 0 1-5.457.743Zm0-20.711a19.546 19.546 0 0 0-5.226.711 5.755 5.755 0 0 0-3.985 3.986 19.532 19.532 0 0 0 0 10.45 5.753 5.753 0 0 0 3.986 3.987 19.539 19.539 0 0 0 10.447 0 5.754 5.754 0 0 0 3.987-3.986 19.532 19.532 0 0 0 0-10.45 5.754 5.754 0 0 0-3.986-3.987 19.539 19.539 0 0 0-5.222-.711Z" data-name="Path 16"/>
          </g>
          <g data-name="Group 10">
            <g data-name="Group 9">
              <path d="M171.426 266.949a.433.433 0 0 1-.434-.434v-19.9a.434.434 0 1 1 .867 0v19.9a.433.433 0 0 1-.433.437Z" data-name="Path 17"/>
              <path d="M173.839 266.949h-4.827a.434.434 0 1 1 0-.867h4.827a.434.434 0 1 1 0 .867Z" data-name="Path 18"/>
            </g>
            <path d="M171.153 252.106a.433.433 0 0 1-.284-.106l-2.142-1.858a.434.434 0 1 1 .568-.656l2.142 1.857a.434.434 0 0 1-.284.761Z" data-name="Path 19"/>
            <path d="M171.636 255.002a.434.434 0 0 1-.254-.785l2.659-1.918a.434.434 0 0 1 .507.7l-2.659 1.918a.433.433 0 0 1-.253.085Z" data-name="Path 20"/>
          </g>
        </g>
      </g>
      <g data-name="Tryb izolacji">
        <g data-name="Group 11">
          <g data-name="Group 8">
            <path fill="#229e6d" d="M740.993 156.833a19.969 19.969 0 0 1-10.682 0 6.16 6.16 0 0 1-4.288-4.287 19.968 19.968 0 0 1 0-10.682 6.161 6.161 0 0 1 4.288-4.288 19.969 19.969 0 0 1 10.682 0 6.158 6.158 0 0 1 4.288 4.287 19.968 19.968 0 0 1 0 10.682 6.16 6.16 0 0 1-4.288 4.288Z" data-name="Path 15"/>
            <path d="M735.653 157.994a20.418 20.418 0 0 1-5.456-.743 6.626 6.626 0 0 1-4.591-4.59 20.406 20.406 0 0 1 0-10.914 6.628 6.628 0 0 1 4.59-4.589 20.406 20.406 0 0 1 10.914 0 6.626 6.626 0 0 1 4.59 4.59 20.4 20.4 0 0 1 0 10.914 6.626 6.626 0 0 1-4.59 4.59 20.412 20.412 0 0 1-5.457.743Zm0-20.711a19.546 19.546 0 0 0-5.226.711 5.755 5.755 0 0 0-3.985 3.986 19.531 19.531 0 0 0 0 10.45 5.753 5.753 0 0 0 3.986 3.987 19.538 19.538 0 0 0 10.447 0 5.754 5.754 0 0 0 3.988-3.986 19.531 19.531 0 0 0 0-10.45 5.754 5.754 0 0 0-3.986-3.987 19.54 19.54 0 0 0-5.222-.711Z" data-name="Path 16"/>
          </g>
          <g data-name="Group 10">
            <g data-name="Group 9">
              <path d="M735.425 167.438a.433.433 0 0 1-.434-.434v-19.9a.434.434 0 1 1 .867 0v19.9a.433.433 0 0 1-.433.437Z" data-name="Path 17"/>
              <path d="M737.838 167.437h-4.827a.434.434 0 1 1 0-.867h4.827a.434.434 0 1 1 0 .867Z" data-name="Path 18"/>
            </g>
            <path d="M735.152 152.594a.433.433 0 0 1-.284-.106l-2.142-1.858a.434.434 0 1 1 .568-.656l2.142 1.857a.434.434 0 0 1-.284.761Z" data-name="Path 19"/>
            <path d="M735.635 155.49a.434.434 0 0 1-.254-.785l2.659-1.918a.434.434 0 0 1 .507.7l-2.659 1.918a.434.434 0 0 1-.253.085Z" data-name="Path 20"/>
          </g>
        </g>
      </g>
      <g data-name="Tryb izolacji">
        <g data-name="Group 18">
          <g data-name="Group 15">
            <g data-name="Group 12" transform="translate(214.168 76.23)">
              <circle cx="4.578" cy="4.578" r="4.578" fill="#229e6d" data-name="Ellipse 1" transform="rotate(-87.42 5.02615917 4.56754016)"/>
              <path d="M5.02 10.033a5.017 5.017 0 1 1 5.017-5.017 5.017 5.017 0 0 1-5.017 5.017Zm0-9.156a4.139 4.139 0 1 0 4.139 4.139A4.139 4.139 0 0 0 5.02.877Z" data-name="Path 21"/>
            </g>
            <g data-name="Group 13" transform="translate(204.358 65.439)">
              <circle cx="5.886" cy="5.886" r="5.886" fill="#229e6d" data-name="Ellipse 2" transform="translate(.439 .439)"/>
              <path d="M6.325 12.649a6.325 6.325 0 1 1 6.325-6.325 6.325 6.325 0 0 1-6.325 6.325Zm0-11.772a5.447 5.447 0 1 0 5.447 5.447A5.447 5.447 0 0 0 6.325.877Z" data-name="Path 22"/>
            </g>
            <g data-name="Group 14" transform="translate(196.863 73.916)">
              <circle cx="3.45" cy="3.45" r="3.45" fill="#229e6d" data-name="Ellipse 3" transform="rotate(-45 5.8906811 2.44)"/>
              <path d="M4.879 8.769a3.889 3.889 0 1 1 3.89-3.889 3.889 3.889 0 0 1-3.89 3.889Zm0-6.9A3.012 3.012 0 1 0 7.89 4.88a3.012 3.012 0 0 0-3.011-3.011Z" data-name="Path 23"/>
            </g>
          </g>
          <g data-name="Group 17">
            <g data-name="Group 16">
              <path d="M210.83 98.474a.438.438 0 0 1-.439-.439V77.942a.439.439 0 0 1 .877 0v20.093a.438.438 0 0 1-.438.439Z" data-name="Path 24"/>
              <path d="M212.934 98.473h-4.21a.439.439 0 0 1 0-.877h4.21a.439.439 0 1 1 0 .877Z" data-name="Path 25"/>
            </g>
            <path d="M210.592 84.895a.436.436 0 0 1-.251-.08l-5.8-4.054a.439.439 0 1 1 .5-.72l5.8 4.054a.439.439 0 0 1-.251.8Z" data-name="Path 26"/>
            <path d="M211.013 88.052a.439.439 0 0 1-.257-.8l4.7-3.388a.439.439 0 0 1 .513.712l-4.7 3.388a.439.439 0 0 1-.257.083Z" data-name="Path 27"/>
          </g>
        </g>
      </g>
      <g data-name="Tryb izolacji">
        <g data-name="Group 18">
          <g data-name="Group 15">
            <g data-name="Group 12" transform="translate(654.168 10.792)">
              <circle cx="4.578" cy="4.578" r="4.578" fill="#229e6d" data-name="Ellipse 1" transform="rotate(-87.42 5.02615917 4.56754016)"/>
              <path d="M5.02 10.033a5.017 5.017 0 1 1 5.017-5.017 5.017 5.017 0 0 1-5.017 5.017Zm0-9.156a4.139 4.139 0 1 0 4.139 4.139A4.139 4.139 0 0 0 5.02.877Z" data-name="Path 21"/>
            </g>
            <g data-name="Group 13" transform="translate(644.358 .001)">
              <circle cx="5.886" cy="5.886" r="5.886" fill="#229e6d" data-name="Ellipse 2" transform="translate(.439 .439)"/>
              <path d="M6.325 12.649a6.325 6.325 0 1 1 6.325-6.325 6.325 6.325 0 0 1-6.325 6.325Zm0-11.772a5.447 5.447 0 1 0 5.447 5.447A5.447 5.447 0 0 0 6.325.877Z" data-name="Path 22"/>
            </g>
            <g data-name="Group 14" transform="translate(636.863 8.478)">
              <circle cx="3.45" cy="3.45" r="3.45" fill="#229e6d" data-name="Ellipse 3" transform="rotate(-45 5.8906811 2.44)"/>
              <path d="M4.879 8.769a3.889 3.889 0 1 1 3.89-3.889 3.889 3.889 0 0 1-3.89 3.889Zm0-6.9A3.012 3.012 0 1 0 7.89 4.88a3.012 3.012 0 0 0-3.011-3.011Z" data-name="Path 23"/>
            </g>
          </g>
          <g data-name="Group 17">
            <g data-name="Group 16">
              <path d="M650.83 33.036a.438.438 0 0 1-.439-.439V12.501a.439.439 0 0 1 .877 0v20.1a.438.438 0 0 1-.438.439Z" data-name="Path 24"/>
              <path d="M652.934 33.035h-4.21a.439.439 0 0 1 0-.877h4.21a.439.439 0 1 1 0 .877Z" data-name="Path 25"/>
            </g>
            <path d="M650.592 19.457a.436.436 0 0 1-.251-.08l-5.795-4.054a.439.439 0 1 1 .5-.72l5.795 4.054a.439.439 0 0 1-.251.8Z" data-name="Path 26"/>
            <path d="M651.013 22.615a.439.439 0 0 1-.257-.8l4.7-3.388a.439.439 0 0 1 .513.712l-4.7 3.388a.439.439 0 0 1-.257.083Z" data-name="Path 27"/>
          </g>
        </g>
      </g>
      <g data-name="Tryb izolacji">
        <g data-name="Group 22">
          <g data-name="Group 19">
            <path fill="#229e6d" d="M327.914 142.229a6.756 6.756 0 0 0 4.071-3.11 6.251 6.251 0 0 0 4.767-10.988 6.252 6.252 0 0 0-7.873-6.462c-.157.043-.309.092-.46.146a6.251 6.251 0 0 0-10.447 5.761 6.252 6.252 0 0 0 2.71 12.125 6.778 6.778 0 0 0 7.232 2.523Z" data-name="Path 28"/>
            <path d="M326.117 142.901a7.16 7.16 0 0 1-5.634-2.744 6.688 6.688 0 0 1-3-12.867 6.688 6.688 0 0 1 11.041-5.975c.083-.027.163-.05.241-.071a6.687 6.687 0 0 1 8.432 6.688 6.688 6.688 0 0 1-4.987 11.642 7.168 7.168 0 0 1-4.185 3.071 7.3 7.3 0 0 1-1.911.256Zm1.8-.672Zm-7.234-2.959a.436.436 0 0 1 .351.177 6.341 6.341 0 0 0 10.576-.549.435.435 0 0 1 .427-.212 5.815 5.815 0 0 0 4.434-10.222.435.435 0 0 1-.154-.363 5.815 5.815 0 0 0-7.324-6.012c-.131.036-.267.078-.429.136a.435.435 0 0 1-.446-.1 5.816 5.816 0 0 0-9.719 5.365.435.435 0 0 1-.287.5 5.816 5.816 0 0 0 2.523 11.283h.049Z" data-name="Path 29"/>
          </g>
          <g data-name="Group 21">
            <g data-name="Group 20">
              <path d="M325.558 151.926a.435.435 0 0 1-.436-.436v-19.982a.436.436 0 0 1 .871 0v19.987a.435.435 0 0 1-.435.431Z" data-name="Path 30"/>
              <path d="M327.982 151.926h-4.848a.436.436 0 1 1 0-.871h4.848a.436.436 0 1 1 0 .871Z" data-name="Path 31"/>
            </g>
            <path d="M325.285 137.017a.435.435 0 0 1-.285-.106l-2.152-1.866a.436.436 0 1 1 .571-.658l2.152 1.866a.436.436 0 0 1-.285.765Z" data-name="Path 32"/>
            <path d="M325.771 139.926a.436.436 0 0 1-.255-.789l2.671-1.926a.436.436 0 0 1 .509.707l-2.671 1.926a.435.435 0 0 1-.255.082Z" data-name="Path 33"/>
          </g>
        </g>
      </g>
      <g data-name="Tryb izolacji">
        <g data-name="Group 22">
          <g data-name="Group 19">
            <path fill="#229e6d" d="M472.125 210.09a6.756 6.756 0 0 0 4.071-3.11 6.251 6.251 0 0 0 4.767-10.988 6.252 6.252 0 0 0-7.873-6.462c-.157.043-.309.092-.46.146a6.251 6.251 0 0 0-10.447 5.761 6.252 6.252 0 0 0 2.71 12.125 6.778 6.778 0 0 0 7.232 2.523Z" data-name="Path 28"/>
            <path d="M470.328 210.762a7.16 7.16 0 0 1-5.634-2.744 6.688 6.688 0 0 1-3-12.867 6.688 6.688 0 0 1 11.041-5.975c.083-.027.163-.05.241-.071a6.687 6.687 0 0 1 8.432 6.688 6.688 6.688 0 0 1-4.987 11.642 7.168 7.168 0 0 1-4.185 3.071 7.294 7.294 0 0 1-1.911.256Zm1.8-.672Zm-7.234-2.959a.436.436 0 0 1 .351.177 6.341 6.341 0 0 0 10.576-.549.435.435 0 0 1 .427-.212 5.815 5.815 0 0 0 4.434-10.222.435.435 0 0 1-.154-.363 5.815 5.815 0 0 0-7.324-6.012c-.131.036-.267.078-.429.136a.435.435 0 0 1-.446-.1 5.816 5.816 0 0 0-9.719 5.365.435.435 0 0 1-.287.5 5.816 5.816 0 0 0 2.523 11.283h.049Z" data-name="Path 29"/>
          </g>
          <g data-name="Group 21">
            <g data-name="Group 20">
              <path d="M469.769 219.787a.435.435 0 0 1-.436-.436v-19.982a.436.436 0 0 1 .871 0v19.987a.435.435 0 0 1-.435.431Z" data-name="Path 30"/>
              <path d="M472.193 219.787h-4.848a.436.436 0 1 1 0-.871h4.848a.436.436 0 1 1 0 .871Z" data-name="Path 31"/>
            </g>
            <path d="M469.496 204.878a.435.435 0 0 1-.285-.106l-2.152-1.866a.436.436 0 1 1 .571-.658l2.152 1.866a.436.436 0 0 1-.285.765Z" data-name="Path 32"/>
            <path d="M469.982 207.787a.436.436 0 0 1-.255-.789l2.671-1.926a.436.436 0 0 1 .509.707l-2.671 1.926a.435.435 0 0 1-.255.082Z" data-name="Path 33"/>
          </g>
        </g>
      </g>
      <g data-name="Tryb izolacji">
        <g data-name="Group 22">
          <g data-name="Group 19">
            <path fill="#229e6d" d="M933.123 77.139a6.756 6.756 0 0 0 4.071-3.11 6.251 6.251 0 0 0 4.769-10.988 6.252 6.252 0 0 0-7.873-6.462c-.157.043-.309.092-.46.146a6.251 6.251 0 0 0-10.447 5.761 6.252 6.252 0 0 0 2.711 12.129 6.778 6.778 0 0 0 7.232 2.523Z" data-name="Path 28"/>
            <path d="M931.323 77.811a7.16 7.16 0 0 1-5.634-2.744 6.688 6.688 0 0 1-3-12.867 6.688 6.688 0 0 1 11.041-5.975c.083-.027.163-.05.241-.071a6.687 6.687 0 0 1 8.432 6.688 6.688 6.688 0 0 1-4.987 11.642 7.168 7.168 0 0 1-4.185 3.071 7.3 7.3 0 0 1-1.911.256Zm1.8-.672Zm-7.234-2.959a.436.436 0 0 1 .351.177 6.341 6.341 0 0 0 10.576-.549.435.435 0 0 1 .427-.212 5.815 5.815 0 0 0 4.434-10.222.435.435 0 0 1-.154-.363 5.815 5.815 0 0 0-7.324-6.012c-.131.036-.267.078-.429.136a.435.435 0 0 1-.446-.1 5.816 5.816 0 0 0-9.719 5.365.435.435 0 0 1-.287.5 5.816 5.816 0 0 0 2.523 11.283h.049Z" data-name="Path 29"/>
          </g>
          <g data-name="Group 21">
            <g data-name="Group 20">
              <path d="M930.773 86.836a.435.435 0 0 1-.436-.436V66.418a.436.436 0 0 1 .871 0v19.987a.435.435 0 0 1-.435.431Z" data-name="Path 30"/>
              <path d="M933.193 86.836h-4.848a.436.436 0 1 1 0-.871h4.848a.436.436 0 1 1 0 .871Z" data-name="Path 31"/>
            </g>
            <path d="M930.493 71.927a.435.435 0 0 1-.285-.106l-2.152-1.866a.436.436 0 1 1 .571-.658l2.152 1.866a.436.436 0 0 1-.285.765Z" data-name="Path 32"/>
            <path d="M930.983 74.836a.436.436 0 0 1-.255-.789l2.671-1.926a.436.436 0 0 1 .509.707l-2.671 1.926a.435.435 0 0 1-.255.082Z" data-name="Path 33"/>
          </g>
        </g>
      </g>
      <g data-name="Tryb izolacji">
        <g data-name="Group 22">
          <g data-name="Group 19">
            <path fill="#229e6d" d="M842.363 245.368a6.756 6.756 0 0 0 4.071-3.11 6.251 6.251 0 0 0 4.766-10.988 6.252 6.252 0 0 0-7.873-6.462c-.157.043-.309.092-.46.146a6.251 6.251 0 0 0-10.447 5.761 6.252 6.252 0 0 0 2.711 12.129 6.778 6.778 0 0 0 7.232 2.523Z" data-name="Path 28"/>
            <path d="M840.563 246.04a7.16 7.16 0 0 1-5.634-2.744 6.688 6.688 0 0 1-3-12.867 6.688 6.688 0 0 1 11.041-5.975c.083-.027.163-.05.241-.071a6.687 6.687 0 0 1 8.432 6.688 6.688 6.688 0 0 1-4.987 11.642 7.168 7.168 0 0 1-4.185 3.071 7.291 7.291 0 0 1-1.911.256Zm1.8-.672Zm-7.234-2.959a.436.436 0 0 1 .351.177 6.341 6.341 0 0 0 10.576-.549.435.435 0 0 1 .427-.212 5.815 5.815 0 0 0 4.434-10.222.435.435 0 0 1-.154-.363 5.815 5.815 0 0 0-7.324-6.012c-.131.036-.267.078-.429.136a.435.435 0 0 1-.446-.1 5.816 5.816 0 0 0-9.719 5.365.435.435 0 0 1-.287.5 5.816 5.816 0 0 0 2.523 11.283h.049Z" data-name="Path 29"/>
          </g>
          <g data-name="Group 21">
            <g data-name="Group 20">
              <path d="M840.013 255.065a.435.435 0 0 1-.436-.436v-19.982a.436.436 0 0 1 .871 0v19.987a.435.435 0 0 1-.435.431Z" data-name="Path 30"/>
              <path d="M842.433 255.065h-4.848a.436.436 0 1 1 0-.871h4.848a.436.436 0 1 1 0 .871Z" data-name="Path 31"/>
            </g>
            <path d="M839.733 240.156a.435.435 0 0 1-.285-.106l-2.152-1.866a.436.436 0 1 1 .571-.658l2.152 1.866a.436.436 0 0 1-.285.765Z" data-name="Path 32"/>
            <path d="M840.223 243.065a.436.436 0 0 1-.255-.789l2.671-1.926a.436.436 0 0 1 .509.707l-2.671 1.926a.435.435 0 0 1-.255.082Z" data-name="Path 33"/>
          </g>
        </g>
      </g>
    </g>
  </g>
</svg>
