<?xml version="1.0" encoding="UTF-8"?> <svg xmlns="http://www.w3.org/2000/svg" xmlns:xlink="http://www.w3.org/1999/xlink" width="77.018" height="77" viewBox="0 0 77.018 77"><defs><clipPath id="a"><path d="M0,0H77.018V77H0Z" fill="none"></path></clipPath></defs><path d="M0,0H77.018V77H0Z" fill="none"></path><g clip-path="url(#a)"><path d="M77.018,38.509A38.509,38.509,0,1,1,38.509,0,38.508,38.508,0,0,1,77.018,38.509" fill="#1a1919"></path></g><path d="M2.933,1.955H0V0H7.986V1.955H5.053V9.639H2.933V1.955" transform="translate(7.667 29.033)" fill="#fffffe"></path><path d="M0,5.6V0H1.088V5.536c0,2.079,1.115,3.25,2.947,3.25C5.811,8.785,6.94,7.711,6.94,5.6V0H8.028V5.522c0,2.809-1.611,4.269-4.021,4.269C1.625,9.79,0,8.331,0,5.6" transform="translate(18.021 29.033)" fill="#fffffe"></path><path d="M1.088,9.639H0V0H4.145a3.823,3.823,0,0,1,2.74.964,2.653,2.653,0,0,1,.744,1.9v.028a2.6,2.6,0,0,1-.74,1.9A3.49,3.49,0,0,1,5.012,5.7l2.96,3.938H6.637l-2.8-3.745H1.088V9.639Zm0-8.634v3.91H4.048A2.876,2.876,0,0,0,5.83,4.389a1.777,1.777,0,0,0,.7-1.456V2.905c0-1.19-.921-1.9-2.465-1.9Z" transform="translate(29.311 29.033)" fill="#fffffe"></path><path d="M3.236,1.005H0V0H7.573V1.005H4.337V9.639h-1.1V1.005" transform="translate(39.169 29.033)" fill="#fffffe"></path><path d="M0,0H1.019L7.091,7.725V0h1.06V9.639H7.284L1.06,1.735v7.9H0V0" transform="translate(61.199 29.033)" fill="#fffffe"></path><path d="M4.585,9.639H0V0H4.475A3.476,3.476,0,0,1,7,.854a2.205,2.205,0,0,1,.661,1.639V2.52A2.24,2.24,0,0,1,6.389,4.6a3.048,3.048,0,0,1,1.32.859,2.271,2.271,0,0,1,.484,1.509V7C8.193,8.675,6.878,9.639,4.585,9.639ZM2.066,5.66V7.78h2.52c.982,0,1.5-.362,1.5-1.047V6.706c0-.684-.543-1.046-1.569-1.046Zm0-3.8V3.9H4.021a2.132,2.132,0,0,0,1.115-.241.859.859,0,0,0,.413-.778V2.85a.851.851,0,0,0-.36-.733,1.763,1.763,0,0,0-1.031-.258Z" transform="translate(16.878 41.497)" fill="#fffffe"></path><path d="M0,0H1.019L7.091,7.725V0h1.06V9.639H7.284L1.06,1.735v7.9H0V0" transform="translate(40.106 41.497)" fill="#fffffe"></path><path d="M3.346,9.639H0V0H3.346A5.81,5.81,0,0,1,5.424.367,4.821,4.821,0,0,1,7.043,1.379,4.654,4.654,0,0,1,8.468,4.792V4.82A4.693,4.693,0,0,1,7.043,8.246,4.829,4.829,0,0,1,5.424,9.267,5.755,5.755,0,0,1,3.346,9.639ZM1.088,1.005V8.634H3.346A4.58,4.58,0,0,0,5,8.342a3.666,3.666,0,0,0,1.259-.8A3.724,3.724,0,0,0,7.339,4.847V4.82A3.764,3.764,0,0,0,6.257,2.112,3.675,3.675,0,0,0,5,1.3a4.524,4.524,0,0,0-1.652-.3Z" transform="translate(51.671 41.497)" fill="#fffffe"></path><path d="M2.138,1.069A1.069,1.069,0,1,1,1.069,0,1.069,1.069,0,0,1,2.138,1.069" transform="translate(60.625 48.811)" fill="#eb8f4f"></path><path d="M1.82,7.306a4.162,4.162,0,0,1-.691-2.322V4.957A3.786,3.786,0,0,1,4.9,1.005a3.689,3.689,0,0,1,2.375.844l.767-.767A4.841,4.841,0,0,0,4.929,0,4.883,4.883,0,0,0,0,4.984v.028A5.081,5.081,0,0,0,1.025,8.1l.8-.8" transform="translate(48.381 28.868)" fill="#fffffe"></path><path d="M7.019,0l-.8.8a4.16,4.16,0,0,1,.691,2.321v.028A3.787,3.787,0,0,1,3.142,7.1,3.689,3.689,0,0,1,.767,6.252L0,7.019A4.842,4.842,0,0,0,3.115,8.1a4.884,4.884,0,0,0,4.93-4.985V3.089A5.079,5.079,0,0,0,7.019,0" transform="translate(50.168 30.736)" fill="#fffffe"></path><path d="M1.82,7.306a4.16,4.16,0,0,1-.691-2.321V4.957A3.786,3.786,0,0,1,4.9,1.005a3.687,3.687,0,0,1,2.375.844l.767-.767A4.842,4.842,0,0,0,4.93,0,4.884,4.884,0,0,0,0,4.985v.027A5.082,5.082,0,0,0,1.025,8.1l.8-.8" transform="translate(27.287 41.332)" fill="#fffffe"></path><path d="M7.019,0l-.8.8a4.161,4.161,0,0,1,.691,2.322v.027A3.786,3.786,0,0,1,3.142,7.1,3.688,3.688,0,0,1,.767,6.252L0,7.019A4.841,4.841,0,0,0,3.115,8.1,4.884,4.884,0,0,0,8.044,3.117V3.089A5.079,5.079,0,0,0,7.019,0" transform="translate(29.074 43.199)" fill="#fffffe"></path></svg> 