<?xml version="1.0" encoding="UTF-8"?>
<svg width="218px" height="74px" viewBox="0 0 218 74" version="1.1" xmlns="http://www.w3.org/2000/svg" xmlns:xlink="http://www.w3.org/1999/xlink">
    <title>logo-inverted</title>
    <g id="Symbols" stroke="none" stroke-width="1" fill="none" fill-rule="evenodd">
        <g id="logo-inverted" fill="#FFFFFF" transform="translate(-0.000000, 0.000000)">
            <g id="Logo-/-Emblem" transform="translate(149.680002, 0.000000)">
                <path d="M59.827998,38.493 L59.681998,38.493 C60.534998,37.198 61.063998,35.754 61.149998,34.133 C61.230998,31.443 60.065998,29.174 60.366998,26.494 L59.827998,27.937 C58.376998,32.238 59.529998,37.605 57.174998,41.511 L57.174998,41.659 C58.712998,40.47 60.335998,39.501 61.927998,38.455 C65.804998,35.81 68.424998,31.719 67.716998,27.049 C67.439998,29.847 65.315998,31.914 63.222998,33.928 C61.878998,35.371 60.977998,36.981 59.827998,38.493 L59.827998,38.493 Z M56.825998,45.717 C60.825998,44.447 65.064998,40.448 65.592998,36.187 C65.100998,37.446 64.076998,38.61 62.963998,39.501 C60.178998,41.589 56.810998,42.306 54.235998,44.878 C53.957998,45.06 53.681998,45.333 53.368998,45.343 C54.334998,44.506 55.205998,43.469 55.817998,42.404 C57.402998,39.716 56.799998,36.124 58.185998,33.354 C57.342998,34.278 56.743998,35.298 56.021998,36.27 C53.753998,39.705 53.944998,44.215 50.543998,47.132 C52.552998,46.45 54.759998,46.268 56.825998,45.717 L56.825998,45.717 Z M54.578998,49.834 C56.933998,49.008 59.518998,47.038 60.552998,44.686 C57.769998,48.064 53.236998,47.426 49.272998,48.047 C48.206998,48.156 47.219998,48.539 46.146998,48.515 C46.900998,48.156 47.823998,48.068 48.555998,47.591 C51.510998,46.115 51.698998,42.847 53.489998,40.555 C51.078998,42.202 49.142998,44.35 46.969998,46.439 C45.494998,47.77 43.695998,48.326 41.842998,48.769 L42.589998,48.862 C46.467998,49.488 50.534998,51.363 54.578998,49.834 L54.578998,49.834 Z M12.944998,50.818 C14.085998,52.247 15.613998,53.129 17.184998,53.723 C20.113998,54.89 23.595998,54.097 26.018998,52.408 C28.095998,51.239 29.885998,48.946 32.624998,49.813 C29.835998,51.108 27.288998,52.922 24.982998,55.251 L26.428998,56.442 C28.106998,54.193 30.342998,52.357 32.596998,50.928 C33.088998,50.665 33.605998,50.343 34.149998,50.269 C36.923998,51.624 39.403998,53.946 41.639998,56.354 C42.115998,55.97 42.623998,55.554 43.015998,55.105 C40.692998,52.861 38.155998,51.108 35.421998,49.835 C35.877998,49.705 36.389998,49.68 36.923998,49.689 C38.398998,49.597 39.403998,50.64 40.539998,51.363 C43.355998,53.497 47.115998,54.905 50.720998,53.559 C52.333998,52.981 53.897998,51.958 55.041998,50.535 C52.812998,52.117 49.456998,52.381 46.857998,51.42 L44.064998,50.301 C41.349998,48.861 37.788998,48.297 34.635998,49.117 C34.012998,49.68 33.365998,49.02 32.708998,49.008 C28.467998,48.083 24.815998,50.019 21.300998,51.543 C18.682998,52.572 15.248998,52.408 12.944998,50.818 L12.944998,50.818 Z M7.32299801,45.084 C8.53799801,47.457 11.024998,49.366 13.438998,50.126 C17.144998,51.382 21.033998,49.979 24.530998,49.116 C25.035998,48.987 25.645998,49.03 26.114998,48.861 C24.168998,48.466 22.319998,47.844 20.784998,46.499 C18.648998,44.491 16.700998,42.418 14.387998,40.879 C16.197998,43.319 16.686998,46.931 20.026998,48.107 C20.579998,48.397 21.286998,48.359 21.792998,48.683 C21.157998,48.78 20.606998,48.539 20.005998,48.46 C15.744998,47.508 10.518998,48.718 7.32299801,45.084 L7.32299801,45.084 Z M2.19899801,36.669 C2.73999801,39.981 5.32299801,42.994 8.20899801,44.772 C10.859998,46.617 14.374998,46.34 17.374998,47.328 C14.601998,45.093 14.144998,41.755 12.944998,38.801 C12.139998,36.989 10.927998,35.332 9.59599801,33.736 C11.060998,36.669 10.373998,40.485 12.332998,43.21 C12.870998,44.111 13.762998,44.899 14.492998,45.634 C13.794998,45.308 13.150998,44.84 12.534998,44.298 C9.18599801,41.551 4.19199801,41.178 2.19899801,36.669 L2.19899801,36.669 Z M0.0629980109,27.541 C-0.0840019891,29.311 -0.00800198911,31.216 0.661998011,32.752 C2.24599801,37.218 7.12499801,39.534 10.700998,41.972 C10.364998,41.12 9.84799801,40.326 9.59599801,39.438 C8.62199801,35.371 9.14999801,30.687 7.40799801,26.935 C7.73399801,29.066 6.88299801,30.952 6.68999801,32.981 C6.52399801,34.65 6.77499801,36.294 7.46799801,37.674 C7.61399801,38.108 8.01099801,38.463 8.10699801,38.885 C7.48099801,38.325 7.07099801,37.576 6.60499801,36.904 C4.62599801,33.617 0.351998011,31.515 0.0629980109,27.541 L0.0629980109,27.541 Z M0.927998011,17.596 C0.542998011,18.413 0.383998011,19.331 0.181998011,20.22 C-0.249001989,22.509 0.171998011,24.947 0.803998011,27.049 C1.57499801,29.691 4.16799801,31.574 5.47899801,33.987 L5.65699801,34.133 C5.46599801,32.82 5.36999801,31.409 5.73999801,30.159 C6.30499801,28.155 6.95199801,26.197 7.38599801,24.131 C7.61399801,22.509 8.00999801,20.709 7.81999801,19.151 C7.60199801,19.99 7.35299801,20.804 6.91699801,21.538 C5.13299801,24.241 3.35299801,27.45 4.47199801,30.964 C3.97499801,29.823 3.89299801,28.515 3.54699801,27.301 C2.71999801,24.049 0.193998011,21.345 0.927998011,17.596 L0.927998011,17.596 Z M4.47099801,8.859 L4.32699801,8.921 C2.66699801,11.034 1.49199801,13.351 1.56299801,16.184 C1.33999801,19.674 3.57799801,22.135 3.83199801,25.427 C4.34799801,21.995 7.19299801,19.532 8.73099801,16.53 C9.26799801,15.333 9.67699801,14.024 9.83499801,12.727 C9.62199801,13.281 9.24699801,13.757 8.82499801,14.227 C6.84999801,16.03 4.58299801,17.878 4.15399801,20.483 C4.08299801,20.853 4.05799801,21.239 3.95199801,21.596 C3.86699801,21.633 3.86699801,21.538 3.83199801,21.515 L4.07099801,18.286 C4.15399801,15.13 2.64399801,11.637 4.47099801,8.859 L4.47099801,8.859 Z M9.54999801,4.491 C8.32199801,4.803 7.23399801,5.547 6.37799801,6.614 C4.39499801,8.692 4.59999801,11.886 4.87599801,14.683 C4.93499801,15.55 4.75999801,16.362 4.81599801,17.171 C5.39599801,15.981 6.41399801,14.923 7.46899801,13.999 C10.029998,12.199 12.701998,9.676 12.740998,6.469 C11.912998,8.776 9.41399801,9.751 7.72599801,11.31 C6.85499801,12.162 6.15999801,13.147 5.70299801,14.142 C5.91299801,13.217 6.32799801,12.386 6.57199801,11.49 C7.32299801,9.052 7.16799801,6.127 9.54999801,4.491 L9.54999801,4.491 Z M16.030998,1.225 C13.627998,2.161 10.937998,3.051 9.48699801,5.582 C8.46899801,6.947 8.44199801,8.73 7.72499801,10.219 C9.05699801,8.968 10.556998,8.006 11.730998,6.554 C13.038998,4.731 14.263998,2.772 16.030998,1.225 L16.030998,1.225 Z M53.044998,30.838 C52.872998,30.92 52.804998,31.127 52.904998,31.246 C53.005998,31.368 53.092998,31.297 53.128998,31.16 C53.165998,31.026 53.266998,30.938 53.231998,30.839 C53.198998,30.735 53.147998,30.787 53.044998,30.838 L53.044998,30.838 Z M52.405998,27.841 C52.251998,27.878 52.283998,28.046 52.457998,27.996 C52.626998,27.947 52.609998,27.791 52.405998,27.841 L52.405998,27.841 Z M46.105998,15.7 C46.200998,15.71 46.216998,15.558 46.115998,15.539 C46.030998,15.526 46.010998,15.692 46.105998,15.7 L46.105998,15.7 Z M36.779998,7.778 C36.685998,7.661 36.541998,7.554 36.473998,7.52 C36.406998,7.486 36.330998,7.57 36.406998,7.607 C36.473998,7.635 36.652998,7.788 36.691998,7.846 C36.734998,7.908 36.839998,7.856 36.779998,7.778 L36.779998,7.778 Z M37.029998,7.5 C37.099998,7.441 36.988998,7.295 36.894998,7.353 C36.770998,7.431 36.958998,7.558 37.029998,7.5 L37.029998,7.5 Z M37.202998,8.381 C37.143998,8.235 37.022998,8.218 36.981998,8.294 C36.924998,8.397 36.977998,8.566 37.070998,8.577 C37.164998,8.587 37.260998,8.526 37.202998,8.381 L37.202998,8.381 Z M37.993998,7.968 C38.118998,7.869 38.039998,7.771 37.928998,7.645 C37.739998,7.438 37.578998,7.479 37.484998,7.393 C37.391998,7.304 37.271998,7.322 37.319998,7.466 C37.365998,7.607 37.465998,7.717 37.550998,7.776 C37.633998,7.838 37.863998,8.072 37.993998,7.968 L37.993998,7.968 Z M38.148998,9.592 C38.217998,9.594 38.250998,9.514 38.192998,9.447 C38.133998,9.381 38.046998,9.319 38.039998,9.398 C38.030998,9.465 38.080998,9.591 38.148998,9.592 L38.148998,9.592 Z M40.375998,18.645 C40.449998,18.786 40.580998,18.784 40.657998,18.732 C40.737998,18.681 40.737998,18.554 40.583998,18.488 C40.501998,18.452 40.298998,18.505 40.375998,18.645 L40.375998,18.645 Z M37.639998,18.348 C37.652998,18.424 37.689998,18.472 37.832998,18.453 C37.971998,18.428 38.202998,18.328 38.244998,18.24 C38.282998,18.15 38.331998,18.046 38.410998,18.046 C38.489998,18.048 38.592998,17.933 38.705998,17.933 C38.821998,17.935 38.845998,18.038 38.973998,18.027 C39.103998,18.014 39.305998,18.171 39.409998,18.25 C39.509998,18.326 39.688998,18.314 39.740998,18.277 C39.792998,18.24 40.036998,18.19 40.126998,18.255 C40.214998,18.321 40.404998,18.069 40.176998,18.024 C39.944998,17.979 39.825998,17.764 39.828998,17.672 C39.828998,17.577 39.693998,17.472 39.592998,17.465 C39.486998,17.456 39.307998,17.468 39.157998,17.425 C38.999998,17.383 38.975998,17.313 38.994998,17.244 C39.011998,17.175 38.747998,17.227 38.669998,17.336 C38.592998,17.447 38.460998,17.592 38.342998,17.633 C38.220998,17.674 38.171998,17.784 38.134998,17.893 C38.100998,18.006 37.959998,18.073 37.886998,17.979 C37.812998,17.883 37.818998,17.825 37.622998,17.83 C37.426998,17.837 37.414998,18.008 37.512998,18.078 C37.607998,18.138 37.626998,18.271 37.639998,18.348 L37.639998,18.348 Z M36.811998,19.236 C36.770998,19.518 36.912998,19.418 36.964998,19.277 C37.015998,19.138 37.251998,18.92 37.492998,18.806 C37.739998,18.694 37.661998,18.481 37.588998,18.454 C37.509998,18.428 37.418998,18.499 37.356998,18.576 C37.292998,18.653 37.227998,18.691 37.161998,18.716 C37.098998,18.741 36.980998,18.802 36.980998,18.907 C36.980998,19.007 36.829998,19.111 36.811998,19.236 L36.811998,19.236 Z M36.635998,17.98 C36.567998,18.024 36.621998,18.105 36.708998,18.103 C36.821998,18.096 36.803998,18.041 36.916998,18.041 C37.032998,18.041 37.070998,18.049 37.116998,18.082 C37.162998,18.113 37.245998,18.073 37.239998,17.991 C37.233998,17.908 37.099998,17.88 37.003998,17.946 C36.906998,18.008 36.842998,18.015 36.810998,17.975 L36.635998,17.98 Z M36.298998,18.036 L36.092998,18.14 L36.130998,18.206 C36.155998,18.18 36.233998,18.18 36.340998,18.158 C36.448998,18.133 36.363998,18.036 36.298998,18.036 L36.298998,18.036 Z M45.426998,25.945 C45.604998,26.049 45.905998,26.035 46.051998,25.975 C46.196998,25.918 46.214998,25.789 46.101998,25.667 C45.993998,25.548 45.858998,25.426 45.463998,25.627 C45.304998,25.709 45.249998,25.838 45.426998,25.945 L45.426998,25.945 Z M43.176998,30.288 C43.083998,30.342 43.080998,30.561 43.154998,30.633 C43.230998,30.702 43.345998,30.657 43.407998,30.48 C43.467998,30.299 43.331998,30.197 43.176998,30.288 L43.176998,30.288 Z M44.365998,17.197 L44.291998,17.298 C44.343998,17.351 44.458998,17.351 44.537998,17.241 C44.424998,17.254 44.393998,17.215 44.365998,17.197 L44.365998,17.197 Z M44.227998,18.027 C44.168998,18.042 44.053998,18.051 43.907998,18.093 C43.979998,18.152 44.207998,18.196 44.264998,18.157 L44.227998,18.027 Z M43.353998,20.076 C43.326998,20.257 43.337998,20.424 43.582998,20.386 C43.822998,20.347 43.747998,20.257 43.619998,20.127 C43.493998,20 43.362998,19.988 43.353998,20.076 L43.353998,20.076 Z M43.166998,17.159 L43.184998,16.935 L42.985998,16.947 C42.922998,17.015 42.911998,17.107 42.972998,17.172 C43.037998,17.236 43.125998,17.223 43.166998,17.159 L43.166998,17.159 Z M43.303998,17.505 C43.243998,17.564 43.162998,17.521 43.141998,17.447 C43.123998,17.377 43.048998,17.367 43.013998,17.472 C43.005998,17.517 43.009998,17.576 43.028998,17.685 C43.043998,17.793 42.883998,17.874 42.728998,17.919 C42.577998,17.963 42.541998,18.133 42.574998,18.271 C42.601998,18.403 42.751998,18.417 42.794998,18.38 C42.844998,18.341 42.963998,18.341 43.104998,18.363 C43.243998,18.382 43.259998,18.257 43.278998,18.167 C43.299998,18.076 43.418998,18.046 43.510998,18.042 C43.638998,18.031 43.666998,17.914 43.659998,17.867 C43.648998,17.793 43.522998,17.755 43.449998,17.746 C43.373998,17.739 43.443998,17.657 43.508998,17.636 C43.570998,17.62 43.720998,17.453 43.727998,17.364 C43.733998,17.273 43.654998,17.28 43.600998,17.284 L43.303998,17.505 Z M43.356998,17.213 C43.444998,17.233 43.465998,17.097 43.377998,17.091 C43.300998,17.084 43.266998,17.193 43.356998,17.213 L43.356998,17.213 Z M43.714998,16.108 C43.826998,16.115 43.802998,15.966 43.720998,15.966 C43.635998,15.964 43.596998,16.101 43.714998,16.108 L43.714998,16.108 Z M43.962998,16.271 C43.943998,16.366 43.891998,16.334 43.813998,16.33 C43.730998,16.33 43.620998,16.318 43.558998,16.318 C43.494998,16.318 43.473998,16.285 43.405998,16.36 C43.332998,16.439 43.267998,16.507 43.242998,16.576 C43.214998,16.647 43.189998,16.692 43.291998,16.737 C43.394998,16.783 43.546998,16.9 43.603998,17.05 L43.717998,17.172 C43.703998,17.228 43.727998,17.268 43.829998,17.26 C43.932998,17.255 44.168998,17.171 44.071998,17.056 C43.967998,16.949 43.886998,16.814 43.937998,16.737 C43.989998,16.659 43.960998,16.495 43.985998,16.32 C44.084998,16.356 44.150998,16.28 44.100998,16.207 C44.051998,16.137 43.983998,16.174 43.962998,16.271 L43.962998,16.271 Z M44.115998,15.56 C44.005998,15.576 43.901998,15.764 44.048998,15.81 C44.193998,15.857 44.408998,15.82 44.422998,15.716 C44.434998,15.613 44.449998,15.511 44.491998,15.487 C44.540998,15.462 44.491998,15.344 44.417998,15.427 C44.369998,15.478 44.223998,15.542 44.115998,15.56 L44.115998,15.56 Z M44.538998,15.118 C44.450998,15.065 44.272998,14.843 44.230998,14.754 C44.187998,14.664 44.064998,14.644 44.001998,14.649 C43.937998,14.653 44.005998,14.787 44.089998,14.843 C44.174998,14.903 44.234998,15.068 44.272998,15.181 C44.310998,15.299 44.335998,15.28 44.417998,15.268 C44.482998,15.26 44.616998,15.168 44.538998,15.118 L44.538998,15.118 Z M46.649998,18.985 C46.710998,18.901 46.566998,18.704 46.583998,18.594 C46.601998,18.482 46.444998,18.353 46.469998,18.198 C46.496998,18.044 46.326998,17.875 46.284998,17.795 C46.239998,17.717 46.150998,17.496 45.928998,17.509 C45.703998,17.527 45.578998,17.592 45.476998,17.505 C45.371998,17.42 45.225998,17.596 45.149998,17.487 C45.075998,17.374 45.021998,17.494 44.912998,17.423 C44.789998,17.351 44.689998,17.422 44.696998,17.527 C44.703998,17.628 44.730998,17.685 44.644998,17.764 C44.558998,17.841 44.523998,18.061 44.643998,18.106 C44.760998,18.15 44.834998,18.202 44.972998,18.185 C45.108998,18.171 45.380998,18.359 45.432998,18.497 C45.480998,18.634 45.636998,18.716 45.701998,18.779 C45.760998,18.84 45.864998,18.969 45.886998,19.089 C45.912998,19.21 45.946998,19.389 46.046998,19.375 C46.150998,19.357 46.263998,19.283 46.375998,19.326 C46.483998,19.369 46.679998,19.38 46.639998,19.25 C46.596998,19.122 46.587998,19.07 46.649998,18.985 L46.649998,18.985 Z M47.335998,33.334 C47.472998,33.316 47.489998,33.129 47.319998,33.112 C47.165998,33.092 47.197998,33.347 47.335998,33.334 L47.335998,33.334 Z M47.645998,32.771 C47.717998,32.582 47.478998,32.496 47.475998,32.666 C47.475998,32.787 47.576998,32.958 47.645998,32.771 L47.645998,32.771 Z M32.708998,29.123 C32.657998,29.174 32.660998,29.327 32.767998,29.362 C32.869998,29.393 32.943998,29.371 33.009998,29.261 C33.074998,29.153 33.119998,29.071 33.075998,29.03 C32.998998,28.959 33.053998,28.878 32.994998,28.825 C32.937998,28.773 32.797998,28.803 32.787998,28.906 C32.784998,28.976 32.758998,29.074 32.708998,29.123 L32.708998,29.123 Z M38.064998,30.637 C38.089998,30.721 38.181998,30.748 38.267998,30.704 C38.380998,30.646 38.289998,30.545 38.345998,30.505 C38.404998,30.467 38.316998,30.39 38.239998,30.421 C38.154998,30.456 38.039998,30.554 38.064998,30.637 L38.064998,30.637 Z M36.927998,31.139 C36.870998,31.139 36.811998,31.216 36.898998,31.275 C36.987998,31.332 37.231998,31.306 37.342998,31.189 C37.451998,31.068 37.304998,30.995 37.219998,31.041 C37.137998,31.085 37.014998,31.139 36.927998,31.139 L36.927998,31.139 Z M35.414998,31.23 C35.362998,31.283 35.349998,31.401 35.416998,31.449 C35.487998,31.49 35.621998,31.472 35.666998,31.422 C35.714998,31.373 35.644998,31.296 35.668998,31.225 C35.696998,31.155 35.505998,31.132 35.414998,31.23 L35.414998,31.23 Z M34.801998,30.987 L34.798998,31.205 L34.934998,31.14 L34.953998,30.979 L34.801998,30.987 Z M24.301998,25.86 C24.221998,25.898 24.287998,25.975 24.369998,25.964 C24.453998,25.95 24.495998,25.765 24.301998,25.86 L24.301998,25.86 Z M23.605998,29.083 C23.505998,29.08 23.413998,29.178 23.490998,29.324 C23.533998,29.255 23.620998,29.195 23.605998,29.083 L23.605998,29.083 Z M23.313998,26.135 C23.388998,26.171 23.405998,26.102 23.372998,26.025 C23.307998,25.882 23.303998,25.789 23.282998,25.759 C23.215998,25.66 23.127998,25.69 23.136998,25.802 C23.142998,25.911 23.233998,26.101 23.313998,26.135 L23.313998,26.135 Z M23.546998,26.527 C23.490998,26.448 23.411998,26.506 23.423998,26.571 L23.498998,26.936 C23.546998,27.16 23.609998,27.309 23.794998,27.467 C23.977998,27.631 23.973998,27.497 23.967998,27.422 C23.963998,27.344 23.982998,27.253 24.013998,27.183 C24.049998,27.112 23.990998,26.977 23.965998,26.914 C23.940998,26.852 23.901998,26.753 23.806998,26.729 C23.712998,26.701 23.634998,26.648 23.546998,26.527 L23.546998,26.527 Z M23.960998,25.389 C24.133998,25.025 23.944998,24.763 23.658998,24.553 C23.583998,24.497 23.446998,24.555 23.555998,24.763 C23.665998,24.967 23.632998,25.269 23.583998,25.522 C23.537998,25.779 23.468998,25.934 23.628998,26.317 C23.680998,26.445 23.780998,26.362 23.880998,26.482 C23.944998,26.556 23.994998,26.447 23.924998,26.407 C23.858998,26.364 23.840998,26.269 23.858998,26.208 L23.849998,26.027 L23.860998,25.867 C23.896998,25.817 23.904998,25.772 23.888998,25.697 C23.873998,25.619 23.900998,25.514 23.960998,25.389 L23.960998,25.389 Z M24.043998,27.806 C23.923998,27.651 23.798998,27.79 23.891998,27.906 C23.977998,28.008 24.159998,27.961 24.043998,27.806 L24.043998,27.806 Z M24.306998,25.535 C24.220998,25.54 24.157998,25.583 24.168998,25.642 C24.180998,25.701 24.231998,25.745 24.333998,25.679 C24.437998,25.619 24.446998,25.522 24.306998,25.535 L24.306998,25.535 Z M30.451998,37.706 C30.385998,37.617 30.232998,37.706 30.320998,37.847 C30.387998,37.956 30.512998,37.797 30.451998,37.706 L30.451998,37.706 Z M32.344998,39.375 C32.271998,39.207 32.228998,39.297 32.204998,39.401 C32.168998,39.54 32.418998,39.543 32.344998,39.375 L32.344998,39.375 Z M28.524998,20.032 C28.439998,20.09 28.453998,20.221 28.558998,20.183 C28.661998,20.154 28.796998,20.086 28.849998,19.976 C28.747998,19.95 28.609998,19.973 28.524998,20.032 L28.524998,20.032 Z M28.264998,26.888 C28.314998,27.036 28.204998,27.074 28.256998,27.132 C28.344998,27.233 28.260998,27.285 28.342998,27.371 C28.427998,27.453 28.474998,27.5 28.444998,27.606 C28.413998,27.714 28.599998,27.784 28.637998,27.644 C28.659998,27.574 28.695998,27.493 28.739998,27.463 C28.788998,27.428 28.810998,27.334 28.801998,27.258 C28.788998,27.18 28.806998,27.109 28.890998,27.068 C28.973998,27.023 28.960998,26.924 28.834998,26.938 C28.706998,26.952 28.680998,26.952 28.565998,26.844 C28.428998,26.725 28.217998,26.74 28.264998,26.888 L28.264998,26.888 Z M21.178998,40.838 C20.998998,40.595 20.767998,40.458 20.675998,40.438 C20.589998,40.42 20.505998,40.54 20.605998,40.631 C20.735998,40.745 20.945998,41.013 21.041998,41.094 C21.136998,41.178 21.362998,41.073 21.178998,40.838 L21.178998,40.838 Z M15.938998,34.345 C15.842998,34.285 15.693998,34.431 15.801998,34.522 C15.950998,34.645 15.870998,34.794 16.024998,34.865 C16.178998,34.937 16.276998,34.788 16.173998,34.674 C16.028998,34.51 16.032998,34.403 15.938998,34.345 L15.938998,34.345 Z M15.449998,33.745 C15.374998,33.731 15.335998,33.761 15.345998,33.855 C15.361998,33.956 15.471998,34.097 15.581998,34.105 C15.691998,34.113 15.760998,34.044 15.684998,33.938 C15.609998,33.836 15.526998,33.757 15.449998,33.745 L15.449998,33.745 Z M14.294998,32.755 C14.299998,32.862 14.349998,32.969 14.407998,33.031 C14.464998,33.095 14.609998,33.083 14.572998,32.95 C14.536998,32.814 14.467998,32.732 14.294998,32.755 L14.294998,32.755 Z M13.368998,30.159 C13.280998,30.093 13.198998,30.093 13.258998,30.248 C13.305998,30.369 13.519998,30.275 13.368998,30.159 L13.368998,30.159 Z M13.319998,29.927 C13.392998,30.001 13.530998,29.91 13.440998,29.834 C13.353998,29.755 13.248998,29.858 13.319998,29.927 L13.319998,29.927 Z M13.475998,29.493 C13.382998,29.446 13.257998,29.465 13.279998,29.562 C13.296998,29.659 13.358998,29.647 13.475998,29.493 L13.475998,29.493 Z M13.595998,30.674 C13.588998,30.603 13.470998,30.481 13.370998,30.55 C13.276998,30.619 13.278998,30.754 13.368998,30.839 C13.457998,30.924 13.490998,30.979 13.490998,31.045 C13.487998,31.11 13.531998,31.155 13.571998,31.197 C13.607998,31.246 13.657998,31.34 13.645998,31.411 C13.630998,31.481 13.660998,31.522 13.753998,31.574 C13.968998,31.688 14.026998,31.79 13.985998,31.914 C13.950998,32.037 13.944998,32.104 13.997998,32.151 C14.090998,32.235 14.026998,32.323 14.111998,32.395 C14.190998,32.466 14.301998,32.537 14.331998,32.373 C14.355998,32.204 14.262998,32.019 14.244998,31.839 C14.223998,31.66 14.144998,31.576 14.048998,31.472 C13.952998,31.37 13.804998,31.246 13.724998,31.214 C13.642998,31.18 13.603998,31.091 13.648998,31.031 L13.655998,30.871 C13.604998,30.821 13.601998,30.745 13.595998,30.674 L13.595998,30.674 Z M13.576998,29.047 C13.709998,29.139 13.794998,29.061 13.665998,28.958 C13.539998,28.854 13.455998,28.961 13.576998,29.047 L13.576998,29.047 Z M14.442998,28.931 C14.442998,28.856 14.374998,28.765 14.297998,28.731 C14.218998,28.699 14.174998,28.71 14.154998,28.796 C14.135998,28.877 14.044998,28.877 13.927998,28.96 C13.999998,29.007 14.044998,29.011 14.101998,28.973 L14.281998,28.964 C14.345998,29.04 14.442998,29.01 14.442998,28.931 L14.442998,28.931 Z M14.896998,28.993 C14.966998,28.949 14.936998,28.89 14.839998,28.839 C14.744998,28.788 14.642998,28.813 14.665998,28.897 C14.691998,28.985 14.826998,29.04 14.896998,28.993 L14.896998,28.993 Z M31.467998,8.472 C31.513998,8.564 31.721998,8.541 31.655998,8.406 C31.584998,8.27 31.402998,8.352 31.467998,8.472 L31.467998,8.472 Z M30.907998,8.18 L30.924998,8.251 L31.111998,8.315 C31.147998,8.382 31.198998,8.357 31.255998,8.305 C31.315998,8.256 31.260998,8.189 31.188998,8.171 C31.117998,8.151 30.979998,8.151 30.907998,8.18 L30.907998,8.18 Z M25.502998,9.749 C25.364998,9.831 25.530998,9.954 25.605998,9.902 C25.683998,9.852 25.634998,9.672 25.502998,9.749 L25.502998,9.749 Z M29.774998,14.056 C29.644998,13.972 29.540998,14.108 29.636998,14.173 C29.708998,14.219 29.898998,14.143 29.774998,14.056 L29.774998,14.056 Z M29.139998,13.996 C29.049998,14.091 29.033998,14.258 29.245998,14.271 C29.456998,14.286 29.464998,14.231 29.408998,14.074 C29.350998,13.919 29.253998,13.867 29.139998,13.996 L29.139998,13.996 Z M33.265998,17.954 L33.292998,18.048 C33.331998,18.042 33.464998,17.965 33.265998,17.954 L33.265998,17.954 Z M32.814998,18.063 C32.819998,18.113 32.888998,18.113 32.981998,18.014 C32.915998,17.968 32.804998,18.01 32.814998,18.063 L32.814998,18.063 Z M35.426998,24.944 C35.374998,24.984 35.383998,25.011 35.400998,25.08 C35.421998,25.162 35.575998,25.301 35.678998,25.297 C35.783998,25.289 35.852998,25.154 35.750998,25.049 C35.648998,24.944 35.479998,24.902 35.426998,24.944 L35.426998,24.944 Z M35.182998,24.497 C35.136998,24.587 35.154998,24.769 35.215998,24.815 L35.359998,24.703 L35.182998,24.497 Z M33.977998,25.255 C33.996998,25.35 34.027998,25.461 34.113998,25.521 C34.199998,25.581 34.243998,25.489 34.243998,25.41 C34.243998,25.333 34.150998,25.199 33.977998,25.255 L33.977998,25.255 Z M32.905998,27.041 C32.797998,26.883 32.695998,27.083 32.375998,26.872 C32.206998,26.761 32.137998,26.921 32.195998,27.033 C32.244998,27.124 32.311998,27.169 32.253998,27.264 C32.192998,27.358 32.310998,27.562 32.568998,27.48 C32.823998,27.398 33.089998,27.299 32.905998,27.041 L32.905998,27.041 Z M29.864998,23.99 C29.831998,23.911 29.892998,23.847 29.858998,23.787 L29.703998,23.791 C29.634998,23.889 29.557998,24.055 29.667998,24.107 C29.775998,24.16 29.898998,24.065 29.864998,23.99 L29.864998,23.99 Z M31.409998,23.267 C31.483998,23.344 31.588998,23.365 31.654998,23.339 C31.721998,23.317 31.726998,23.203 31.579998,23.166 C31.435998,23.13 31.330998,23.193 31.409998,23.267 L31.409998,23.267 Z M31.416998,22.526 C31.499998,22.475 31.673998,22.57 31.696998,22.434 C31.721998,22.299 31.546998,22.16 31.425998,22.149 C31.306998,22.142 31.263998,22.234 31.340998,22.311 C31.416998,22.388 31.451998,22.464 31.364998,22.5 C31.278998,22.532 31.261998,22.566 31.180998,22.505 C31.097998,22.447 31.022998,22.514 31.057998,22.59 C31.090998,22.668 31.100998,22.744 31.035998,22.814 C30.975998,22.881 30.985998,22.929 31.053998,22.94 C31.120998,22.951 31.147998,23.035 31.128998,23.086 C31.111998,23.135 31.281998,23.242 31.263998,23.062 C31.249998,22.881 31.214998,22.776 31.301998,22.729 C31.451998,22.653 31.329998,22.575 31.416998,22.526 L31.416998,22.526 Z M31.665998,23.03 C31.742998,23.003 31.872998,23.001 32.060998,22.908 C32.001998,22.855 31.944998,22.77 31.968998,22.675 C31.994998,22.582 31.826998,22.496 31.757998,22.578 C31.645998,22.716 31.499998,22.655 31.489998,22.79 C31.479998,22.926 31.530998,23.082 31.665998,23.03 L31.665998,23.03 Z M32.107998,23.464 C32.210998,23.438 32.152998,23.37 32.083998,23.275 C32.014998,23.179 31.880998,23.162 31.877998,23.297 C31.877998,23.394 32.005998,23.486 32.107998,23.464 L32.107998,23.464 Z M32.650998,23.82 C32.566998,23.671 32.429998,23.586 32.225998,23.668 C32.259998,23.737 32.222998,23.806 32.123998,23.788 C31.969998,23.758 31.883998,23.847 31.854998,23.93 C31.828998,24.013 31.862998,24.107 32.009998,24.076 C32.151998,24.044 32.359998,24.038 32.477998,24.047 C32.596998,24.058 32.734998,23.963 32.650998,23.82 L32.650998,23.82 Z M37.548998,2.795 C37.609998,2.716 37.175998,2.47 37.214998,2.74 C37.228998,2.861 37.476998,2.87 37.548998,2.795 L37.548998,2.795 Z M37.995998,3.874 C37.906998,3.834 37.934998,3.759 38.009998,3.696 C38.089998,3.634 37.870998,3.501 37.757998,3.603 C37.638998,3.705 37.398998,3.572 37.243998,3.508 C37.092998,3.444 36.835998,3.492 36.678998,3.607 C36.526998,3.717 36.423998,3.717 36.230998,3.756 C36.036998,3.793 35.868998,3.828 35.804998,3.92 C35.738998,4.007 35.630998,4.045 35.536998,4.007 L35.495998,4.084 C35.534998,4.121 35.573998,4.149 35.596998,4.261 C35.621998,4.378 35.738998,4.33 35.839998,4.407 C35.941998,4.483 36.007998,4.471 36.107998,4.397 C36.212998,4.318 36.467998,4.321 36.598998,4.246 C36.726998,4.168 36.890998,4.158 37.071998,4.199 C37.251998,4.24 37.339998,4.24 37.470998,4.164 C37.598998,4.088 37.778998,4.04 37.944998,4.015 C38.110998,3.988 38.087998,3.913 37.995998,3.874 L37.995998,3.874 Z M38.705998,3.302 C38.705998,3.227 38.579998,3.149 38.451998,3.186 C38.325998,3.219 38.323998,3.337 38.460998,3.392 C38.602998,3.444 38.704998,3.38 38.705998,3.302 L38.705998,3.302 Z M44.809998,7.635 C44.898998,7.485 44.829998,7.277 44.573998,7.003 C44.320998,6.728 44.064998,6.707 43.942998,6.826 C43.826998,6.81 43.671998,6.808 43.686998,6.978 C43.703998,7.13 43.807998,7.269 43.976998,7.303 C44.146998,7.34 44.382998,7.529 44.516998,7.666 C44.652998,7.805 44.723998,7.79 44.809998,7.635 L44.809998,7.635 Z M56.905998,23.215 L52.798998,23.215 C52.727998,18.215 50.709998,13.686 47.468998,10.352 L50.374998,7.447 C54.358998,11.525 56.835998,17.079 56.905998,23.215 L56.905998,23.215 Z M49.995998,7.069 L47.090998,9.973 C46.496998,9.397 45.861998,8.852 45.196998,8.356 C45.126998,8.199 44.926998,8.052 44.733998,8.027 C42.075998,6.17 38.921998,4.971 35.505998,4.696 C35.556998,4.594 35.543998,4.555 35.417998,4.454 C35.288998,4.351 35.265998,4.246 35.215998,4.131 C35.162998,4.015 35.064998,3.988 34.883998,4.04 C34.700998,4.088 34.573998,4.1 34.444998,4.201 C34.378998,4.253 34.302998,4.272 34.228998,4.296 L34.228998,0.537 C40.362998,0.607 45.917998,3.084 49.995998,7.069 L49.995998,7.069 Z M33.962998,19.111 C34.258998,19.111 34.549998,19.139 34.827998,19.197 C34.783998,19.242 34.726998,19.272 34.645998,19.283 C34.406998,19.315 34.423998,19.572 34.165998,19.534 C33.908998,19.499 33.806998,19.651 33.889998,19.77 C33.973998,19.892 33.839998,20.06 33.702998,19.973 C33.567998,19.889 33.396998,19.802 33.292998,19.834 C33.188998,19.87 33.092998,19.832 33.105998,19.762 C33.112998,19.693 33.019998,19.634 32.951998,19.668 C32.883998,19.701 32.883998,19.78 32.968998,19.816 C33.052998,19.847 33.087998,19.9 33.035998,19.967 C32.981998,20.037 32.937998,20.189 33.107998,20.319 C33.278998,20.451 33.516998,20.581 33.549998,20.7 C33.583998,20.819 33.657998,20.871 33.769998,20.839 C33.882998,20.804 34.000998,20.79 34.070998,20.841 C34.137998,20.892 34.214998,20.911 34.324998,20.902 C34.435998,20.895 34.564998,20.914 34.606998,21.065 C34.645998,21.221 34.725998,21.214 34.825998,21.29 C34.927998,21.369 35.010998,21.505 35.047998,21.575 C35.078998,21.643 35.113998,21.633 35.110998,21.809 C35.180998,21.763 35.299998,21.719 35.421998,21.748 C35.538998,21.776 35.616998,21.776 35.562998,21.92 C35.509998,22.067 35.508998,22.346 35.601998,22.417 C35.694998,22.487 35.770998,22.674 35.608998,22.76 C35.444998,22.84 35.462998,22.895 35.458998,22.964 C35.458998,23.031 35.435998,23.082 35.383998,23.13 L35.312998,23.268 L35.270998,23.404 C35.208998,23.438 35.165998,23.515 35.302998,23.456 C35.437998,23.396 35.636998,23.287 35.694998,23.536 C35.752998,23.787 35.852998,24.015 35.955998,24.034 C36.054998,24.052 36.141998,24.105 36.072998,24.172 C36.001998,24.24 36.063998,24.361 36.207998,24.343 C36.351998,24.327 36.447998,24.285 36.560998,24.216 C36.668998,24.152 36.764998,24.117 36.815998,24.152 L36.842998,24.29 C36.780998,24.341 36.839998,24.375 36.923998,24.418 C37.012998,24.464 37.130998,24.634 37.040998,24.685 C36.949998,24.736 36.858998,24.721 36.798998,24.6 C36.732998,24.476 36.639998,24.449 36.530998,24.469 C36.421998,24.485 36.253998,24.465 36.133998,24.46 C36.011998,24.451 35.910998,24.505 35.969998,24.672 C35.988998,24.728 36.052998,24.834 36.153998,24.881 C36.258998,24.927 36.304998,25.011 36.242998,25.081 C36.177998,25.152 36.202998,25.228 36.217998,25.324 C36.227998,25.419 36.172998,25.594 36.102998,25.669 C36.029998,25.745 35.989998,25.841 35.965998,25.951 C35.939998,26.056 35.866998,26.134 35.694998,26.12 C35.521998,26.106 35.289998,26.202 35.093998,26.101 C34.896998,26.004 34.705998,26.158 34.636998,26.368 C34.523998,26.693 34.380998,26.707 34.373998,26.961 C34.365998,27.216 34.266998,27.408 34.202998,27.459 C34.139998,27.509 34.027998,27.748 34.276998,27.839 C34.173998,27.846 34.066998,27.851 33.962998,27.851 C32.856998,27.851 31.848998,27.441 31.098998,26.759 C31.226998,26.73 31.439998,26.556 31.593998,26.617 C31.849998,26.719 31.926998,26.467 32.284998,26.539 C32.593998,26.601 32.773998,26.296 32.773998,26.218 C32.773998,26.142 32.828998,26.072 32.905998,26.042 C32.981998,26.006 33.015998,25.826 32.959998,25.756 C32.902998,25.691 32.944998,25.622 33.056998,25.555 C33.166998,25.489 33.107998,25.315 33.255998,25.179 C33.400998,25.047 33.355998,24.909 33.265998,24.843 C33.176998,24.781 33.191998,24.672 33.268998,24.611 C33.344998,24.549 33.283998,24.484 33.218998,24.421 C33.153998,24.355 33.023998,24.29 32.927998,24.252 C32.821998,24.212 32.682998,24.184 32.566998,24.221 C32.450998,24.258 31.950998,24.32 31.775998,24.318 C31.591998,24.317 31.513998,24.419 31.575998,24.549 C31.638998,24.672 31.472998,24.892 31.484998,25.056 C31.494998,25.226 31.184998,25.223 31.032998,25.272 C30.878998,25.324 30.967998,25.54 30.811998,25.643 C30.656998,25.744 30.630998,25.934 30.642998,26.065 C30.646998,26.118 30.651998,26.218 30.648998,26.331 C30.403998,26.045 30.193998,25.728 30.126998,25.333 C30.238998,25.255 30.386998,25.229 30.441998,25.395 C30.497998,25.561 30.715998,25.406 30.733998,25.244 C30.750998,25.08 30.786998,24.861 30.927998,24.752 C31.062998,24.642 31.057998,24.497 31.179998,24.395 C31.298998,24.292 31.298998,24.196 31.130998,24.144 C30.957998,24.092 31.165998,23.901 31.293998,23.993 C31.421998,24.088 31.421998,24.062 31.435998,23.987 C31.456998,23.911 31.438998,23.833 31.429998,23.738 C31.424998,23.642 31.328998,23.628 31.260998,23.71 C31.189998,23.795 31.105998,23.805 31.001998,23.777 C30.901998,23.75 30.824998,23.733 30.736998,23.843 C30.652998,23.953 30.600998,24.02 30.633998,24.165 C30.664998,24.313 30.613998,24.354 30.493998,24.491 C30.371998,24.627 30.287998,24.608 30.220998,24.464 C30.154998,24.318 29.971998,24.435 29.965998,24.546 C29.955998,24.642 29.874998,24.717 29.792998,24.799 L29.683998,24.561 C29.666998,24.45 29.529998,24.404 29.355998,24.464 C29.117998,24.549 28.989998,24.476 28.913998,24.528 C28.833998,24.577 28.731998,24.526 28.697998,24.484 C28.663998,24.441 28.579998,24.465 28.510998,24.542 C28.440998,24.618 28.219998,24.686 28.127998,24.59 C28.034998,24.494 28.088998,24.247 28.271998,24.235 C28.464998,24.215 28.548998,24.157 28.568998,23.969 C28.587998,23.78 28.759998,23.45 28.915998,23.382 C29.069998,23.316 29.280998,23.285 29.360998,23.38 C29.435998,23.476 29.546998,23.518 29.640998,23.434 C29.732998,23.346 29.861998,23.316 29.877998,23.424 C29.893998,23.536 30.038998,23.564 30.027998,23.693 C30.022998,23.82 30.121998,23.881 30.121998,24 C30.121998,24.119 30.444998,24.33 30.446998,24.031 C30.446998,23.805 30.542998,23.72 30.559998,23.627 C30.576998,23.534 30.697998,23.502 30.774998,23.551 C30.851998,23.605 31.079998,23.6 31.066998,23.454 C31.049998,23.308 30.915998,23.263 30.811998,23.331 C30.705998,23.4 30.552998,23.396 30.555998,23.244 C30.555998,23.15 30.555998,23.054 30.634998,22.996 C30.714998,22.936 30.730998,22.801 30.669998,22.716 C30.612998,22.63 30.559998,22.48 30.632998,22.433 C30.759998,22.351 30.759998,22.214 30.839998,22.145 C30.915998,22.077 30.976998,21.923 31.105998,21.95 C31.232998,21.977 31.343998,21.903 31.380998,21.781 C31.413998,21.662 31.483998,21.433 31.636998,21.433 C31.792998,21.433 31.980998,21.385 32.084998,21.299 C32.186998,21.214 32.434998,21.261 32.572998,21.09 C32.710998,20.922 32.764998,20.832 32.882998,20.761 C33.001998,20.694 32.969998,20.591 32.928998,20.515 C32.885998,20.438 32.817998,20.402 32.682998,20.418 C32.542998,20.433 32.484998,20.364 32.528998,20.315 C32.569998,20.264 32.649998,20.186 32.716998,20.179 C32.785998,20.172 32.759998,19.95 32.640998,19.914 C32.521998,19.878 32.368998,19.792 32.430998,19.679 C32.472998,19.606 32.478998,19.469 32.431998,19.385 C32.907998,19.208 33.424998,19.111 33.962998,19.111 L33.962998,19.111 Z M33.693998,18.584 C33.072998,18.617 32.482998,18.765 32.018998,18.908 C32.100998,18.856 32.037998,18.756 32.177998,18.663 C32.263998,18.604 32.236998,18.52 32.399998,18.476 C32.495998,18.453 32.484998,18.392 32.307998,18.348 C32.304998,18.407 32.243998,18.457 32.152998,18.484 C32.056998,18.508 32.133998,18.601 32.029998,18.636 C31.936998,18.665 31.760998,18.91 31.655998,19.151 L31.464998,19.258 L31.342998,19.19 C31.310998,19.229 31.306998,19.294 31.326998,19.342 C31.100998,19.487 30.886998,19.649 30.687998,19.828 L27.778998,16.92 C29.333998,15.455 31.405998,14.537 33.693998,14.469 L33.693998,18.584 Z M33.693998,13.935 C31.258998,14.002 29.050998,14.981 27.400998,16.542 L24.494998,13.636 C26.889998,11.331 30.122998,9.893 33.693998,9.825 L33.693998,13.935 Z M33.693998,9.289 C29.975998,9.358 26.607998,10.857 24.115998,13.257 L21.208998,10.352 C24.446998,7.208 28.840998,5.251 33.693998,5.18 L33.676998,7.503 C33.505998,7.634 33.589998,7.769 33.693998,7.799 L33.693998,9.289 Z M33.693998,4.646 C28.693998,4.716 24.163998,6.733 20.829998,9.973 L17.924998,7.069 C22.002998,3.084 27.558998,0.607 33.693998,0.537 L33.693998,4.46 C33.621998,4.489 33.637998,4.58 33.693998,4.646 L33.693998,4.646 Z M17.546998,7.448 L20.451998,10.352 C17.210998,13.686 15.192998,18.215 15.122998,23.215 L11.015998,23.215 C11.085998,17.079 13.561998,11.526 17.546998,7.448 L17.546998,7.448 Z M11.015998,23.75 L15.122998,23.75 C15.148998,25.624 15.448998,27.431 15.983998,29.134 C15.921998,29.115 15.859998,29.07 15.792998,28.982 C15.602998,28.738 15.488998,28.738 15.309998,28.797 C15.130998,28.863 15.025998,28.912 15.088998,28.99 C15.153998,29.066 15.049998,29.145 14.931998,29.194 C14.817998,29.243 14.714998,29.255 14.662998,29.292 L14.446998,29.252 C14.383998,29.202 14.268998,29.188 14.048998,29.237 C13.830998,29.287 13.728998,29.375 13.739998,29.513 C13.751998,29.655 13.737998,29.785 13.671998,29.9 C13.605998,30.015 13.614998,30.336 13.794998,30.475 C13.792998,30.798 13.799998,30.994 14.032998,31.184 C14.173998,31.301 14.195998,31.311 14.289998,31.289 C14.479998,31.239 14.479998,31.355 14.605998,31.443 C14.732998,31.536 14.758998,31.754 15.037998,31.873 C15.320998,31.99 15.357998,31.886 15.374998,31.747 C15.385998,31.604 15.565998,31.621 15.592998,31.738 C15.614998,31.853 15.679998,31.941 15.752998,31.981 C15.829998,32.021 15.870998,32.008 15.894998,32.134 C15.916998,32.263 16.187998,32.354 16.136998,32.201 C16.085998,32.047 16.075998,31.958 16.178998,31.946 C16.279998,31.934 16.383998,31.996 16.431998,32.115 C16.480998,32.228 16.519998,32.334 16.467998,32.422 C16.414998,32.51 16.387998,32.639 16.617998,32.617 C16.851998,32.592 16.929998,32.62 16.924998,32.771 C16.924998,32.924 17.050998,33.171 17.215998,33.312 C17.380998,33.455 17.483998,33.546 17.583998,33.688 C17.684998,33.826 17.967998,33.905 18.101998,33.655 L18.326998,33.997 L18.424998,34.138 C19.029998,35.02 19.707998,35.846 20.450998,36.611 L17.546998,39.513 C13.561998,35.437 11.085998,29.883 11.015998,23.75 L11.015998,23.75 Z M17.924998,39.892 L20.828998,36.989 C24.162998,40.229 28.692998,42.247 33.693998,42.317 L33.693998,46.424 C27.558998,46.355 22.002998,43.877 17.924998,39.892 L17.924998,39.892 Z M28.063998,26.469 C28.286998,26.576 28.248998,26.421 28.357998,26.448 C28.516998,26.487 28.577998,26.494 28.663998,26.598 C28.751998,26.7 28.833998,26.714 28.898998,26.719 C28.964998,26.728 29.014998,26.751 29.059998,26.79 C29.106998,26.828 29.147998,26.802 29.167998,26.693 C29.195998,26.556 29.269998,26.308 29.371998,26.238 C29.457998,26.18 29.436998,25.982 29.535998,25.951 C29.579998,25.936 29.630998,25.899 29.671998,25.857 C29.849998,26.18 30.065998,26.483 30.310998,26.755 L27.401998,29.664 C26.233998,28.426 25.412998,26.86 25.127998,25.158 C25.165998,25.241 25.350998,25.229 25.401998,25.364 C25.450998,25.501 25.553998,25.57 25.637998,25.627 C25.717998,25.687 25.963998,25.72 26.038998,25.647 C26.116998,25.57 26.253998,25.441 26.354998,25.447 C26.457998,25.457 26.515998,25.535 26.437998,25.606 C26.358998,25.674 26.378998,25.705 26.494998,25.731 C26.609998,25.757 26.688998,25.811 26.696998,25.914 C26.702998,26.001 26.702998,26.069 26.786998,26.106 C26.867998,26.143 26.912998,26.133 26.954998,26.055 C26.989998,25.979 27.087998,25.905 27.153998,25.987 C27.215998,26.072 27.298998,26.143 27.389998,26.171 C27.477998,26.197 27.596998,26.308 27.654998,26.369 C27.713998,26.434 27.741998,26.538 27.658998,26.543 C27.576998,26.547 27.491998,26.534 27.417998,26.49 C27.339998,26.444 27.255998,26.514 27.345998,26.598 C27.433998,26.683 27.482998,26.732 27.514998,26.787 C27.548998,26.837 27.605998,26.89 27.681998,26.89 C27.759998,26.89 27.818998,26.922 27.851998,27.001 C27.890998,27.078 27.927998,27.102 27.999998,27.078 C28.069998,27.052 28.090998,26.99 28.051998,26.951 L28.021998,26.79 L28.010998,26.654 C27.946998,26.61 27.967998,26.424 28.063998,26.469 L28.063998,26.469 Z M27.400998,17.298 L30.243998,20.139 C30.147998,20.14 30.042998,20.133 29.949998,20.128 C29.761998,20.12 29.640998,20.264 29.499998,20.326 C29.360998,20.387 28.974998,20.373 28.769998,20.332 C28.565998,20.293 28.435998,20.43 28.269998,20.38 C28.174998,20.351 28.063998,20.403 28.001998,20.312 C27.937998,20.222 28.041998,20.122 28.222998,20.02 C28.403998,19.919 28.158998,19.878 28.041998,19.878 C27.927998,19.876 27.814998,19.737 27.582998,19.607 C27.458998,19.534 27.303998,19.448 27.111998,19.41 C26.918998,19.369 26.842998,19.495 26.664998,19.431 C26.484998,19.366 26.343998,19.477 26.213998,19.567 C26.126998,19.627 25.941998,19.669 25.782998,19.68 C26.193998,18.799 26.741998,17.997 27.400998,17.298 L27.400998,17.298 Z M24.116998,14.014 L27.021998,16.92 C26.255998,17.73 25.628998,18.675 25.181998,19.716 C25.093998,19.747 25.005998,19.795 24.928998,19.865 C24.725998,20.053 24.635998,19.847 24.430998,20.114 C24.220998,20.383 24.491998,20.451 24.707998,20.336 C24.785998,20.295 24.880998,20.252 24.983998,20.216 L24.880998,20.517 C24.800998,20.467 24.721998,20.485 24.632998,20.54 C24.527998,20.606 24.399998,20.511 24.231998,20.652 C24.112998,20.751 23.884998,20.841 23.793998,20.816 C23.703998,20.789 23.630998,20.761 23.499998,20.865 C23.372998,20.964 23.328998,21.208 23.252998,21.311 C23.176998,21.412 23.030998,21.565 23.017998,21.677 C23.003998,21.795 22.938998,21.869 22.860998,21.947 C22.784998,22.024 22.730998,22.237 22.765998,22.475 C22.796998,22.715 22.675998,22.902 22.588998,22.987 C22.527998,23.048 22.473998,23.126 22.398998,23.215 L20.307998,23.215 C20.375998,19.644 21.812998,16.411 24.116998,14.014 L24.116998,14.014 Z M15.657998,23.215 C15.727998,18.362 17.684998,13.967 20.829998,10.73 L23.737998,13.636 C21.338998,16.13 19.841998,19.498 19.771998,23.215 L15.657998,23.215 Z M20.829998,36.232 C20.514998,35.908 20.212998,35.573 19.922998,35.226 C20.099998,35.337 20.375998,35.397 20.723998,35.214 C21.178998,34.97 21.445998,35.165 21.688998,35.373 L20.829998,36.232 Z M33.693998,37.67 L33.693998,41.781 C28.840998,41.712 24.445998,39.755 21.207998,36.611 L22.106998,35.712 C22.200998,35.792 22.276998,35.87 22.316998,35.96 C22.406998,36.151 22.842998,36.309 23.225998,36.172 C23.609998,36.034 23.904998,35.997 24.112998,35.857 C24.442998,35.633 24.517998,35.847 24.664998,35.772 C24.809998,35.697 24.945998,35.75 25.022998,35.785 C25.098998,35.82 25.312998,35.832 25.535998,35.616 C25.759998,35.405 25.827998,35.342 25.701998,35.098 L25.636998,34.977 C27.907998,36.624 30.685998,37.615 33.693998,37.67 L33.693998,37.67 Z M21.626998,25.704 C21.809998,25.893 21.827998,25.975 21.622998,26.076 C21.415998,26.173 21.314998,26.2 21.148998,26.083 C21.014998,25.987 20.755998,25.841 20.490998,25.74 C20.383998,25.091 20.320998,24.426 20.307998,23.75 L22.100998,23.75 C22.091998,23.805 22.085998,23.859 22.085998,23.905 C22.082998,24.076 22.031998,24.194 21.918998,24.321 C21.634998,24.647 21.865998,24.631 21.592998,25.1 C21.500998,25.259 21.460998,25.535 21.626998,25.704 L21.626998,25.704 Z M24.269998,25.33 C24.358998,25.36 24.491998,25.291 24.582998,25.297 C24.932998,27.115 25.799998,28.75 27.022998,30.043 L24.302998,32.76 C24.142998,32.596 23.942998,32.526 23.746998,32.547 L23.502998,32.263 C23.536998,32.229 23.579998,32.196 23.633998,32.165 C23.928998,31.985 23.941998,31.962 23.904998,31.63 C23.870998,31.295 23.884998,31.129 23.617998,30.796 C23.352998,30.459 23.339998,30.111 23.342998,29.969 C23.359998,29.521 23.204998,29.508 23.245998,29.302 C23.285998,29.098 23.212998,29.008 23.299998,28.895 C23.391998,28.782 23.290998,28.755 23.199998,28.649 C23.110998,28.548 23.010998,28.38 23.088998,28.328 C23.168998,28.278 23.140998,28.213 23.038998,28.126 C22.935998,28.032 22.964998,27.928 22.990998,27.803 C23.018998,27.674 22.988998,27.444 22.739998,27.546 C22.362998,27.695 22.299998,27.644 22.342998,27.464 C22.380998,27.286 22.456998,27.261 22.622998,27.299 C22.788998,27.34 22.943998,27.264 22.688998,27.005 C22.435998,26.747 22.450998,26.62 22.232998,26.464 C22.016998,26.308 21.991998,26.19 22.057998,26.051 C22.123998,25.912 22.150998,25.837 21.997998,25.643 C21.845998,25.447 21.838998,25.011 22.298998,24.991 C22.759998,24.97 22.765998,24.881 22.800998,24.521 C22.829998,24.239 22.855998,24.163 23.098998,24.165 C23.342998,24.168 23.369998,24.194 23.469998,24.272 C23.585998,24.361 23.829998,24.184 23.692998,23.994 C23.550998,23.798 23.697998,23.669 23.476998,23.592 C23.398998,23.565 23.417998,23.462 23.281998,23.438 C23.208998,23.424 23.234998,23.129 23.236998,22.991 C23.240998,22.705 23.418998,22.578 23.600998,22.517 C23.779998,22.454 23.983998,22.417 24.177998,22.472 C24.275998,22.499 24.376998,22.536 24.451998,22.584 C24.424998,22.88 24.410998,23.179 24.410998,23.483 C24.410998,23.928 24.440998,24.369 24.500998,24.799 C24.378998,24.874 24.242998,24.947 24.231998,25.051 C24.217998,25.194 24.114998,25.277 24.269998,25.33 L24.269998,25.33 Z M30.348998,34.58 C30.474998,34.747 30.549998,35.071 30.727998,35.187 C30.907998,35.3 30.878998,35.508 31.057998,35.626 C31.234998,35.739 31.172998,35.88 31.452998,35.97 C31.733998,36.065 31.499998,36.23 32.053998,36.235 C32.562998,36.24 32.946998,36.294 33.178998,36.359 C33.301998,36.393 33.505998,36.393 33.693998,36.374 L33.693998,37.134 C30.175998,37.068 26.986998,35.671 24.602998,33.427 L24.565998,33.254 L27.400998,30.421 C28.526998,31.484 29.911998,32.277 31.450998,32.695 C31.337998,32.79 31.217998,32.89 31.093998,32.95 C30.818998,33.087 30.698998,33.24 30.680998,33.339 C30.661998,33.442 30.729998,33.558 30.628998,33.624 C30.521998,33.686 30.637998,33.969 30.394998,34.043 C30.148998,34.115 30.221998,34.412 30.348998,34.58 L30.348998,34.58 Z M18.528998,28.199 C18.578998,28.278 18.602998,28.38 18.551998,28.584 C18.497998,28.79 18.444998,29.021 18.215998,29.013 C17.983998,29.012 17.713998,29.205 17.367998,29.16 C17.104998,29.131 16.767998,29.091 16.530998,29.09 C15.988998,27.404 15.684998,25.611 15.657998,23.75 L19.771998,23.75 C19.783998,24.383 19.837998,25.006 19.929998,25.617 C19.742998,25.62 19.579998,25.692 19.495998,25.902 C19.431998,26.069 19.340998,26.169 19.222998,26.247 C19.107998,26.32 18.953998,26.576 18.913998,26.716 C18.872998,26.856 18.783998,27.048 18.704998,27.138 C18.630998,27.227 18.562998,27.433 18.587998,27.535 C18.610998,27.634 18.648998,27.752 18.556998,27.854 C18.466998,27.955 18.481998,28.123 18.528998,28.199 L18.528998,28.199 Z M35.538998,27.764 C35.577998,27.875 35.627998,27.938 35.724998,27.909 C35.818998,27.878 35.889998,27.864 35.948998,27.98 C35.831998,28.031 35.811998,28.088 35.720998,28.112 C35.631998,28.137 35.534998,28.277 35.509998,28.386 C35.482998,28.495 35.467998,28.591 35.390998,28.622 C35.314998,28.654 35.236998,28.715 35.174998,28.768 C35.109998,28.818 34.868998,28.831 34.774998,28.751 C34.635998,28.635 34.725998,28.565 34.674998,28.525 C34.633998,28.495 34.608998,28.4 34.569998,28.348 L34.755998,28.322 L34.763998,28.372 C34.753998,28.464 34.790998,28.517 34.899998,28.561 C35.005998,28.606 35.072998,28.575 35.136998,28.486 C35.201998,28.397 35.124998,28.276 35.189998,28.2 C35.257998,28.12 35.257998,28.021 35.165998,27.927 C35.078998,27.838 35.029998,27.518 35.065998,27.387 C35.093998,27.26 35.165998,27.153 35.332998,27.162 C35.498998,27.169 35.608998,27.193 35.542998,27.315 C35.479998,27.44 35.501998,27.657 35.538998,27.764 L35.538998,27.764 Z M33.665998,31.795 C33.525998,31.983 33.014998,32.03 32.862998,31.941 C32.708998,31.854 32.500998,32.007 32.363998,32.143 C32.306998,32.199 32.240998,32.26 32.168998,32.315 C30.489998,31.977 28.979998,31.173 27.779998,30.042 L30.689998,27.133 C31.436998,27.803 32.389998,28.251 33.443998,28.362 C33.416998,28.454 33.291998,28.502 33.200998,28.57 C33.141998,28.615 33.277998,28.718 33.351998,28.747 C33.429998,28.771 33.403998,28.904 33.344998,28.945 C33.286998,28.982 33.232998,29.083 33.266998,29.172 C33.298998,29.262 33.239998,29.371 33.141998,29.435 C33.044998,29.501 33.092998,29.624 33.178998,29.647 C33.230998,29.661 33.367998,29.661 33.409998,29.572 C33.438998,29.513 33.525998,29.417 33.647998,29.408 C33.769998,29.397 33.747998,29.255 33.843998,29.212 C33.938998,29.167 33.933998,29.056 33.869998,29.021 L33.775998,28.799 L33.680998,28.607 C33.623998,28.565 33.578998,28.563 33.620998,28.378 C33.732998,28.384 33.846998,28.385 33.962998,28.385 C34.119998,28.385 34.276998,28.378 34.432998,28.364 C34.381998,28.413 34.335998,28.493 34.335998,28.565 C34.332998,28.675 34.327998,28.803 34.362998,28.864 C34.404998,28.921 34.482998,29.121 34.380998,29.178 C34.276998,29.234 34.017998,29.422 33.973998,29.461 C33.931998,29.502 33.897998,29.524 33.808998,29.53 C33.717998,29.538 33.627998,29.6 33.575998,29.644 C33.522998,29.688 33.389998,29.714 33.294998,29.699 C33.197998,29.685 33.183998,29.774 33.171998,29.857 C33.157998,29.941 33.193998,30.011 33.292998,30.04 C33.384998,30.067 33.464998,30.207 33.423998,30.316 C33.382998,30.423 33.311998,30.463 33.190998,30.448 C33.070998,30.435 32.947998,30.431 32.839998,30.429 C32.730998,30.429 32.633998,30.507 32.588998,30.68 C32.540998,30.853 32.515998,30.994 32.532998,31.076 C32.550998,31.16 32.580998,31.276 32.542998,31.357 C32.500998,31.442 32.509998,31.576 32.657998,31.608 C32.749998,31.63 32.800998,31.7 32.820998,31.752 C32.840998,31.803 32.895998,31.866 32.967998,31.791 C33.039998,31.714 33.161998,31.736 33.245998,31.639 C33.328998,31.547 33.438998,31.502 33.525998,31.507 C33.617998,31.514 33.720998,31.514 33.753998,31.395 C33.786998,31.274 33.875998,31.254 33.889998,31.184 C33.903998,31.112 33.948998,31.063 34.024998,31.031 C34.101998,31.001 34.115998,30.949 34.130998,30.879 C34.142998,30.809 34.233998,30.732 34.290998,30.739 L34.523998,30.658 L34.733998,30.538 C34.779998,30.507 34.892998,30.488 34.945998,30.554 C34.997998,30.617 35.078998,30.752 35.187998,30.755 C35.297998,30.755 35.560998,30.809 35.639998,30.912 C35.720998,31.014 35.784998,31.118 35.939998,31.047 C35.921998,30.977 35.924998,30.859 35.980998,30.817 C36.038998,30.779 35.994998,30.662 35.837998,30.637 C35.674998,30.613 35.458998,30.488 35.401998,30.421 C35.345998,30.356 35.353998,30.209 35.484998,30.217 C35.619998,30.227 35.857998,30.272 36.009998,30.393 C36.160998,30.515 36.301998,30.602 36.290998,30.688 C36.276998,30.769 36.296998,30.879 36.340998,30.899 L36.458998,31.031 C36.480998,31.098 36.588998,31.118 36.639998,31.085 C36.689998,31.056 36.717998,31.004 36.811998,31.025 C36.908998,31.045 37.040998,30.841 36.923998,30.761 C36.807998,30.684 36.741998,30.569 36.784998,30.515 L36.954998,30.167 L36.988998,29.989 L37.040998,29.783 C37.088998,29.741 37.132998,29.585 37.101998,29.489 C37.071998,29.392 37.084998,29.249 37.217998,29.265 C37.269998,29.273 37.280998,29.387 37.376998,29.388 C37.471998,29.388 37.535998,29.337 37.613998,29.263 C37.693998,29.187 37.923998,29.087 38.148998,29.126 C38.371998,29.167 38.496998,29.3 38.299998,29.434 C38.040998,29.611 37.763998,29.505 37.308998,29.862 C37.244998,29.914 37.165998,29.983 37.158998,30.052 C37.152998,30.124 37.093998,30.256 37.029998,30.295 C36.964998,30.331 36.893998,30.405 36.974998,30.463 C37.058998,30.521 37.174998,30.603 37.214998,30.68 C37.251998,30.758 37.582998,30.924 37.778998,30.544 C37.839998,30.421 37.917998,30.379 38.087998,30.329 C38.252998,30.281 38.279998,30.151 38.496998,30.167 C38.637998,30.176 38.636998,30.322 38.611998,30.4 C38.585998,30.476 38.530998,30.695 38.530998,30.795 C38.530998,30.899 38.502998,31.011 38.400998,31.025 C38.299998,31.036 38.093998,31.152 38.027998,31.226 C37.959998,31.302 37.539998,31.442 37.204998,31.464 C36.872998,31.487 36.702998,31.636 36.574998,31.831 C36.444998,32.022 36.161998,31.978 36.033998,31.938 C35.905998,31.899 35.830998,31.886 35.726998,31.91 C35.624998,31.937 35.484998,31.909 35.395998,31.819 C35.307998,31.729 35.127998,31.765 35.078998,31.561 C35.042998,31.419 34.924998,31.417 34.810998,31.466 C34.693998,31.515 34.574998,31.531 34.317998,31.507 C34.059998,31.491 33.805998,31.608 33.665998,31.795 L33.665998,31.795 Z M34.228998,36.246 C34.380998,36.214 34.557998,36.218 34.650998,36.256 C34.779998,36.311 34.958998,36.362 35.087998,36.3 C35.215998,36.237 35.521998,36.342 35.637998,36.431 C35.752998,36.524 35.788998,36.638 35.673998,36.755 C35.612998,36.812 35.552998,36.933 35.559998,37.045 C35.121998,37.095 34.677998,37.127 34.228998,37.134 L34.228998,36.246 Z M34.228998,37.67 C34.976998,37.656 35.712998,37.585 36.426998,37.459 C36.522998,37.512 36.582998,37.572 36.585998,37.633 C36.597998,37.787 36.829998,37.865 36.825998,38.019 C36.824998,38.172 37.095998,38.253 36.950998,38.584 C36.804998,38.916 36.815998,39.212 37.032998,39.379 C37.250998,39.547 37.132998,39.74 37.413998,39.819 C37.697998,39.897 37.989998,40.091 38.100998,40.286 C38.215998,40.477 38.546998,40.723 38.763998,40.789 C38.957998,40.85 39.194998,40.832 39.302998,40.991 C39.305998,40.99 39.309998,40.989 39.312998,40.988 C39.315998,40.997 39.319998,41.004 39.322998,41.012 C39.322998,41.012 39.323998,41.012 39.323998,41.013 C39.342998,41.059 39.359998,41.102 39.378998,41.142 C39.359998,41.103 39.342998,41.058 39.322998,41.012 C39.317998,41.003 39.308998,41 39.302998,40.991 C37.693998,41.481 35.991998,41.755 34.228998,41.781 L34.228998,37.67 Z M34.228998,42.317 C39.228998,42.247 43.756998,40.231 47.090998,36.99 L49.994998,39.895 C45.916998,43.877 40.361998,46.355 34.228998,46.424 L34.228998,42.317 Z M52.262998,23.75 C52.192998,28.604 50.235998,32.996 47.090998,36.233 L46.294998,35.437 C46.306998,35.364 46.302998,35.297 46.275998,35.251 C46.177998,35.081 46.042998,34.549 46.079998,34.43 C46.111998,34.314 46.065998,34.174 45.979998,34.124 C45.895998,34.072 45.860998,33.986 45.860998,33.868 C45.860998,33.744 45.760998,33.693 45.537998,33.64 C45.316998,33.587 45.231998,33.604 45.180998,33.691 C45.098998,33.82 45.141998,34.066 45.092998,34.234 L44.183998,33.326 C46.584998,30.834 48.083998,27.466 48.152998,23.75 L52.262998,23.75 Z M34.228998,13.935 L34.228998,9.825 C36.205998,9.863 38.079998,10.321 39.764998,11.153 C39.775998,11.257 39.686998,11.258 39.634998,11.343 C39.507998,11.56 39.826998,11.718 39.928998,11.628 C40.028998,11.542 39.983998,11.336 39.898998,11.176 C40.458998,11.448 40.997998,11.755 41.511998,12.097 C41.587998,12.206 41.636998,12.328 41.624998,12.424 C41.603998,12.581 41.724998,12.854 41.928998,12.941 C42.132998,13.028 42.280998,13.352 42.487998,13.422 C42.688998,13.494 42.790998,13.785 43.013998,13.837 L43.185998,13.877 L40.520998,16.542 C38.869998,14.981 36.662998,14.002 34.228998,13.935 L34.228998,13.935 Z M38.925998,28.067 C38.974998,28.102 39.059998,28.104 39.298998,28.07 C39.561998,28.028 39.694998,28.126 39.829998,28.201 C39.965998,28.281 39.950998,28.45 39.813998,28.565 C39.632998,28.718 39.541998,28.55 39.488998,28.457 C39.437998,28.362 39.348998,28.318 39.077998,28.341 C38.797998,28.364 38.702998,28.269 38.655998,28.097 C38.602998,27.898 38.723998,27.764 38.978998,27.783 C39.209998,27.799 39.118998,27.95 38.962998,27.947 C38.857998,27.943 38.872998,28.031 38.925998,28.067 L38.925998,28.067 Z M46.364998,22.486 C46.455998,22.561 46.571998,22.653 46.620998,22.423 C46.677998,22.193 46.972998,22.003 46.987998,21.81 C47.002998,21.621 47.260998,21.339 47.250998,21.198 C47.244998,21.121 47.311998,20.996 47.368998,20.876 C47.516998,21.634 47.602998,22.416 47.617998,23.215 L44.102998,23.215 C44.168998,23.133 44.257998,23.059 44.377998,23.004 C44.761998,22.828 44.761998,22.728 44.688998,22.521 C44.612998,22.316 44.667998,22.15 45.166998,22.104 C45.667998,22.055 45.869998,22.11 45.936998,21.853 C46.005998,21.597 46.427998,21.372 46.469998,21.115 C46.509998,20.86 46.611998,20.743 46.665998,20.643 C46.714998,20.54 46.793998,20.386 46.409998,20.526 C46.023998,20.664 45.789998,21.019 45.760998,21.162 C45.737998,21.299 45.540998,21.62 45.220998,21.63 C44.900998,21.639 44.850998,21.382 45.032998,21.179 C45.217998,20.977 45.228998,20.861 45.203998,20.77 C45.175998,20.683 45.231998,20.606 45.281998,20.54 C45.334998,20.478 45.271998,20.36 45.142998,20.311 C45.016998,20.257 44.902998,20 44.596998,19.968 C44.286998,19.943 44.094998,20.058 44.030998,20.184 C43.962998,20.313 43.822998,20.347 43.784998,20.503 C43.744998,20.654 43.653998,20.694 43.549998,20.642 C43.448998,20.588 43.339998,20.702 43.258998,20.637 C43.155998,20.561 43.209998,20.52 43.149998,20.466 C43.093998,20.413 43.162998,20.287 43.060998,20.194 C42.959998,20.097 42.940998,20.013 43.005998,19.98 L43.030998,19.791 C42.963998,19.75 42.894998,19.628 42.886998,19.507 C42.880998,19.413 42.677998,19.194 42.434998,19.075 L42.269998,18.772 C42.357998,18.717 42.423998,18.631 42.365998,18.554 C42.299998,18.47 42.172998,18.428 42.076998,18.448 C41.735998,17.899 41.341998,17.386 40.898998,16.92 L43.432998,14.386 C43.474998,14.449 43.550998,14.492 43.654998,14.494 C43.859998,14.498 44.015998,14.309 43.884998,14.153 C43.851998,14.118 43.832998,14.064 43.805998,14.013 C44.453998,14.687 45.032998,15.426 45.454998,16.256 L45.375998,16.429 C45.340998,16.327 45.223998,16.222 45.154998,16.158 L44.950998,15.997 C44.898998,16.003 44.885998,16.112 45.081998,16.222 C45.145998,16.258 45.303998,16.437 45.316998,16.507 C45.329998,16.576 45.418998,16.75 45.500998,16.75 C45.583998,16.755 45.655998,16.712 45.641998,16.63 C45.628998,16.547 45.598998,16.45 45.637998,16.384 L45.714998,16.708 C45.652998,16.82 45.562998,16.906 45.476998,16.904 C45.384998,16.904 45.334998,16.845 45.309998,16.728 C45.284998,16.616 45.193998,16.691 45.124998,16.518 C45.055998,16.343 44.863998,16.112 44.697998,16.163 C44.794998,16.273 45.101998,16.716 45.141998,16.825 C45.180998,16.934 45.190998,16.997 45.273998,17.031 C45.357998,17.062 45.473998,17.121 45.509998,17.169 C45.548998,17.213 45.676998,17.219 45.708998,17.117 C45.743998,17.015 45.805998,16.884 45.905998,16.844 C46.467998,17.856 46.902998,18.949 47.194998,20.097 C46.999998,20.273 47.013998,20.544 46.908998,20.657 C46.802998,20.771 46.802998,21.079 46.673998,21.167 C46.543998,21.254 46.568998,21.448 46.579998,21.551 C46.592998,21.655 46.614998,21.719 46.474998,21.833 C46.364998,21.921 46.319998,22.01 46.343998,22.114 C46.368998,22.215 46.278998,22.408 46.364998,22.486 L46.364998,22.486 Z M41.642998,32.308 C41.541998,32.268 41.375998,32.268 41.311998,32.318 C41.244998,32.37 41.178998,32.42 40.873998,32.326 C40.565998,32.236 39.937998,32.257 39.789998,32.074 C39.596998,31.842 39.200998,31.941 39.073998,31.747 C38.944998,31.555 38.805998,31.552 38.664998,31.563 C38.522998,31.576 38.421998,31.331 38.640998,31.345 C38.859998,31.363 38.884998,31.287 38.859998,31.17 C38.834998,31.053 38.872998,30.966 38.993998,30.927 C39.107998,30.89 39.141998,30.994 39.133998,31.072 C39.178998,31.186 39.258998,31.327 39.370998,31.429 C39.589998,31.42 39.702998,31.498 39.779998,31.563 C39.857998,31.625 40.126998,31.731 40.251998,31.72 C40.380998,31.706 40.687998,31.725 40.930998,31.841 C41.173998,31.957 41.360998,32.047 41.593998,32.037 C41.851998,32.03 42.052998,31.937 42.036998,31.808 C42.019998,31.678 42.025998,31.552 42.159998,31.484 C42.374998,31.375 42.228998,31.17 42.359998,31.031 C42.449998,30.937 42.467998,30.755 42.467998,30.586 C42.467998,30.411 42.502998,30.232 42.589998,30.132 C42.673998,30.03 42.738998,29.893 42.693998,29.79 C42.652998,29.688 42.645998,29.48 42.673998,29.387 C42.699998,29.297 42.673998,29.214 42.614998,29.174 L42.494998,28.985 L42.414998,28.822 L42.199998,28.846 C42.147998,28.887 41.939998,28.904 41.856998,28.895 C41.772998,28.884 41.658998,28.935 41.634998,29.071 C41.603998,29.208 41.500998,29.446 41.449998,29.521 C41.400998,29.6 41.302998,29.745 41.155998,29.699 C41.013998,29.655 40.842998,29.679 40.755998,29.695 C40.672998,29.714 40.432998,29.709 40.380998,29.572 C40.332998,29.437 40.383998,29.197 40.784998,29.278 C41.185998,29.358 41.236998,29.29 41.299998,29.128 C41.360998,28.966 41.474998,28.89 41.524998,28.763 C41.576998,28.635 41.696998,28.661 41.799998,28.672 C41.900998,28.68 42.036998,28.666 42.123998,28.478 C42.213998,28.292 42.237998,28.172 42.315998,28.102 C42.394998,28.037 42.422998,27.822 42.524998,27.739 C42.626998,27.653 42.679998,27.562 42.717998,27.414 C42.752998,27.273 42.808998,27.126 42.938998,27.282 C43.062998,27.436 43.397998,27.464 43.465998,27.215 C43.540998,26.97 43.675998,26.987 43.829998,27.068 C43.983998,27.144 44.218998,27.149 44.377998,27.019 C44.583998,26.852 44.857998,26.897 45.026998,26.795 C45.195998,26.693 45.377998,26.688 45.529998,26.697 C45.682998,26.706 45.777998,26.538 45.687998,26.475 C45.592998,26.416 45.637998,26.304 45.458998,26.26 C45.278998,26.216 45.102998,26.108 45.000998,25.753 C44.967998,25.624 44.863998,25.598 44.723998,25.584 C44.583998,25.571 44.546998,25.415 44.565998,25.259 C44.573998,25.108 44.320998,24.94 44.272998,24.709 C44.219998,24.478 44.095998,24.324 43.993998,24.235 C43.900998,24.149 43.817998,23.908 43.860998,23.75 L47.617998,23.75 C47.549998,27.321 46.111998,30.551 43.805998,32.948 L43.297998,32.508 C43.303998,32.286 43.277998,32.044 43.233998,31.978 C43.159998,31.86 43.095998,31.617 43.084998,31.502 C43.075998,31.384 43.000998,31.139 42.898998,31.077 C42.790998,31.011 42.757998,31.037 42.778998,31.175 C42.805998,31.322 42.636998,31.306 42.574998,31.522 C42.548998,31.611 42.429998,31.688 42.324998,31.739 C42.223998,31.787 42.159998,31.864 42.171998,31.954 C42.182998,32.044 42.182998,32.147 42.081998,32.172 C41.977998,32.196 41.951998,32.22 41.901998,32.272 C41.848998,32.324 41.747998,32.347 41.642998,32.308 L41.642998,32.308 Z M42.860998,33.841 C42.894998,33.757 42.935998,33.681 42.975998,33.615 C43.062998,33.476 43.100998,33.233 43.154998,33.053 L43.427998,33.326 C43.243998,33.503 43.053998,33.674 42.860998,33.841 L42.860998,33.841 Z M44.771998,35.359 C44.926998,35.481 44.992998,35.602 45.008998,35.789 C45.023998,35.976 45.314998,36.149 45.464998,36.102 C45.619998,36.05 45.808998,35.864 45.979998,35.883 L46.712998,36.611 C45.474998,37.813 44.067998,38.84 42.526998,39.672 C42.422998,39.988 42.010998,40.01 41.855998,40.241 C42.010998,40.01 42.422998,39.988 42.531998,39.656 C42.634998,39.342 42.741998,39.144 42.903998,39.045 C43.070998,38.943 43.319998,38.588 43.291998,38.42 C43.271998,38.254 43.246998,38.024 43.362998,37.907 C43.479998,37.797 43.596998,37.54 43.431998,37.345 C43.265998,37.152 43.102998,36.971 43.305998,36.82 C43.514998,36.67 43.514998,36.423 43.696998,36.324 C43.877998,36.223 43.813998,36.081 43.942998,35.966 C44.071998,35.854 44.034998,35.751 43.855998,35.53 C43.677998,35.311 43.537998,35.077 43.286998,35.012 C43.157998,34.981 42.907998,34.835 42.813998,34.575 C43.157998,34.299 43.488998,34.009 43.805998,33.704 L44.877998,34.78 C44.924998,34.595 44.921998,34.438 45.019998,34.355 C44.896998,34.459 44.956998,34.663 44.909998,34.812 L44.877998,34.78 C44.866998,34.827 44.866998,34.865 44.843998,34.917 C44.689998,35.05 44.621998,35.24 44.771998,35.359 L44.771998,35.359 Z M35.950998,18.423 C36.007998,18.27 35.733998,18.078 35.609998,18.267 C35.511998,18.423 35.195998,18.529 35.053998,18.699 C34.785998,18.636 34.509998,18.597 34.228998,18.583 L34.228998,14.469 C36.515998,14.537 38.588998,15.456 40.142998,16.921 L39.656998,17.406 L40.034998,17.784 L40.520998,17.299 C40.693998,17.482 40.858998,17.673 41.097998,17.975 C41.344998,18.295 41.575998,18.627 41.778998,18.978 C41.693998,19.054 41.422998,18.965 41.328998,18.938 C41.234998,18.914 40.988998,18.921 40.858998,19.07 C40.726998,19.223 40.631998,19.463 40.463998,19.445 C40.288998,19.426 40.239998,19.46 40.239998,19.603 C40.237998,19.75 40.269998,19.817 40.339998,19.878 C40.407998,19.939 40.342998,20.152 40.261998,20.09 C40.174998,20.032 40.114998,19.989 40.052998,19.968 C39.993998,19.953 39.978998,19.85 40.058998,19.805 C40.130998,19.767 40.196998,19.689 40.117998,19.654 C40.038998,19.621 39.792998,19.422 39.934998,19.328 C40.162998,19.176 40.036998,19.04 40.142998,18.963 C40.244998,18.886 40.323998,18.795 40.221998,18.674 C40.117998,18.554 39.983998,18.472 39.857998,18.49 C39.727998,18.508 39.589998,18.633 39.519998,18.77 C39.449998,18.908 39.348998,18.938 39.165998,18.938 C38.986998,18.936 38.630998,19.003 38.530998,18.856 C38.427998,18.707 38.281998,18.614 38.202998,18.7 C38.128998,18.784 38.008998,18.654 37.852998,18.806 C37.697998,18.96 37.569998,19.128 37.459998,19.163 C37.344998,19.194 37.234998,19.398 37.062998,19.44 C37.003998,19.456 36.991998,19.525 37.012998,19.592 C37.025998,19.662 36.974998,19.762 36.863998,19.791 C36.749998,19.814 36.603998,19.889 36.496998,19.871 C36.384998,19.85 36.291998,19.776 36.233998,19.689 C36.172998,19.603 35.976998,19.559 35.884998,19.456 C35.791998,19.353 35.589998,19.283 35.465998,19.374 C35.345998,19.466 35.189998,19.586 35.063998,19.559 C34.933998,19.532 34.850998,19.41 34.977998,19.364 C35.107998,19.314 35.167998,19.158 35.383998,19.092 C35.596998,19.026 35.861998,18.873 35.880998,18.755 C35.900998,18.636 35.924998,18.505 35.950998,18.423 L35.950998,18.423 Z M42.566998,11.654 C42.580998,11.717 42.708998,11.841 42.860998,11.806 C43.090998,11.758 43.155998,11.594 43.322998,11.558 C43.489998,11.517 43.720998,11.444 43.886998,11.676 C44.051998,11.909 44.240998,12.025 44.266998,12.178 C44.288998,12.332 44.353998,12.397 44.238998,12.461 C44.121998,12.523 44.042998,12.626 44.199998,12.865 L43.805998,13.256 C43.662998,13.119 43.515998,12.984 43.365998,12.851 C43.401998,12.777 43.352998,12.676 43.216998,12.719 L42.938998,12.488 C42.932998,12.298 42.868998,12.003 42.757998,11.888 C42.639998,11.769 42.365998,11.663 42.261998,11.747 C42.159998,11.831 41.989998,11.78 41.872998,11.558 C41.755998,11.334 41.263998,10.798 41.110998,10.625 C40.957998,10.455 40.784998,10.609 40.954998,10.797 C41.123998,10.986 41.208998,11.172 41.302998,11.332 C40.660998,10.943 39.985998,10.604 39.261998,10.279 C39.209998,10.201 39.068998,10.135 39.068998,10.225 L38.852998,10.069 C38.781998,10.009 38.656998,9.993 38.525998,10.037 C38.594998,10.008 38.603998,9.933 38.548998,9.896 C38.479998,9.853 38.342998,9.774 38.206998,9.791 C38.205998,9.854 38.230998,9.91 38.269998,9.953 C36.991998,9.546 35.634998,9.315 34.228998,9.289 L34.228998,7.636 C34.280998,7.61 34.275998,7.549 34.228998,7.502 L34.228998,5.18 C34.614998,5.187 34.997998,5.204 35.376998,5.233 C35.534998,5.358 35.813998,5.397 35.948998,5.286 C38.322998,5.542 40.559998,6.252 42.572998,7.328 C42.495998,7.339 42.418998,7.358 42.366998,7.41 C42.248998,7.53 42.049998,7.536 41.771998,7.585 C41.487998,7.631 41.203998,7.817 41.176998,8.052 C41.163998,8.18 40.968998,8.204 40.968998,8.294 C40.968998,8.383 40.978998,8.423 41.159998,8.463 C41.338998,8.502 41.451998,8.774 41.553998,8.799 C41.657998,8.824 41.743998,9.045 41.832998,9.122 C41.921998,9.201 41.980998,9.508 41.993998,9.688 C42.005998,9.867 42.107998,9.996 42.234998,10.036 C42.361998,10.076 42.475998,10.331 42.358998,10.612 C42.240998,10.894 42.353998,11.008 42.430998,11.061 C42.506998,11.114 42.584998,11.204 42.558998,11.32 C42.530998,11.435 42.553998,11.588 42.566998,11.654 L42.566998,11.654 Z M47.039998,11.423 C46.964998,11.404 46.808998,11.276 46.709998,11.111 L47.089998,10.73 C50.234998,13.967 52.192998,18.362 52.262998,23.215 L48.152998,23.215 C48.127998,21.847 47.908998,20.527 47.522998,19.281 C47.539998,19.221 47.563998,19.169 47.594998,19.132 C47.707998,18.994 47.579998,18.9 47.411998,18.937 L47.387998,18.745 C47.453998,18.687 47.387998,18.567 47.309998,18.488 C47.235998,18.41 47.093998,18.059 46.991998,17.844 L46.905998,17.651 C46.998998,17.609 46.987998,17.549 46.842998,17.512 L46.874998,17.36 C46.897998,17.303 46.824998,17.19 46.722998,17.26 L46.700998,17.08 C46.760998,17.031 46.742998,16.955 46.700998,16.876 C46.660998,16.798 46.566998,16.713 46.551998,16.654 C46.530998,16.593 46.440998,16.559 46.399998,16.638 L46.290998,16.446 C46.342998,16.421 46.393998,16.382 46.439998,16.38 C46.509998,16.375 46.502998,16.194 46.384998,16.149 C46.263998,16.106 46.173998,16.058 46.146998,15.993 C46.122998,15.928 46.080998,15.867 45.917998,15.83 L45.699998,15.501 C45.808998,15.534 45.916998,15.471 45.819998,15.366 C45.650998,15.184 45.667998,15.056 45.549998,14.962 C45.451998,14.882 45.316998,14.84 45.282998,14.92 C44.941998,14.469 44.574998,14.041 44.184998,13.635 L44.498998,13.361 C44.549998,13.552 44.585998,13.643 44.751998,13.696 C44.921998,13.748 44.977998,13.856 44.898998,13.914 C44.821998,13.972 44.880998,14.041 44.965998,14.076 C45.051998,14.113 45.154998,14.08 45.173998,14.002 C45.190998,13.924 45.300998,13.877 45.427998,13.919 C45.557998,13.962 45.610998,14.013 45.614998,14.134 C45.622998,14.253 45.696998,14.374 45.808998,14.512 C45.917998,14.65 45.969998,14.734 46.139998,14.779 C46.309998,14.823 46.649998,15.005 46.751998,15.128 C46.852998,15.247 46.945998,15.325 47.090998,15.317 C47.235998,15.311 47.407998,15.362 47.483998,15.482 C47.559998,15.601 47.644998,15.723 47.753998,15.785 C47.865998,15.845 48.017998,16.007 48.076998,16.147 C48.133998,16.281 48.233998,16.453 48.378998,16.543 C48.523998,16.628 48.581998,16.706 48.598998,16.84 C48.613998,16.979 48.902998,17.117 49.025998,17.007 C49.142998,16.9 49.203998,16.839 49.306998,16.839 C49.406998,16.839 49.494998,16.792 49.538998,16.729 C49.581998,16.671 49.721998,16.442 49.902998,16.385 C49.980998,16.357 50.038998,16.094 50.229998,16.027 C50.415998,15.963 50.403998,15.601 50.266998,15.48 C50.130998,15.36 50.202998,15.277 50.089998,15.146 C49.980998,15.017 49.853998,14.787 49.736998,14.7 C49.617998,14.614 49.489998,14.374 49.467998,14.271 C49.441998,14.167 49.277998,14.03 49.272998,13.943 C49.265998,13.859 48.942998,13.583 48.924998,13.48 C48.912998,13.377 48.613998,13.227 48.519998,13.066 C48.427998,12.903 48.119998,12.748 48.046998,12.558 C47.973998,12.372 47.810998,12.137 47.666998,12.059 C47.524998,11.981 47.085998,11.679 47.089998,11.594 C47.090998,11.507 47.115998,11.44 47.039998,11.423 L47.039998,11.423 Z M50.372998,39.515 L47.468998,36.612 C50.709998,33.279 52.727998,28.75 52.798998,23.75 L56.905998,23.75 C56.835998,29.885 54.358998,35.439 50.372998,39.515 L50.372998,39.515 Z M57.441998,23.483 C57.441998,10.511 46.927998,0.001 33.962998,0 C20.993998,0.001 10.478998,10.511 10.478998,23.483 C10.478998,36.45 20.993998,46.961 33.962998,46.961 C46.927998,46.961 57.441998,36.45 57.441998,23.483 L57.441998,23.483 Z M59.438998,9.148 C58.926998,7.035 58.130998,4.997 56.369998,3.423 C54.871998,2.077 52.983998,1.632 51.233998,0.89 L53.226998,2.906 C54.857998,5.513 57.174998,7.983 59.732998,9.82 L59.438998,9.148 Z M62.871998,16.737 C62.360998,14.189 63.175998,11.731 62.617998,9.211 C62.134998,6.978 60.104998,4.538 57.769998,4.06 C58.722998,4.697 59.430998,5.688 59.789998,6.698 C60.503998,9.031 60.848998,11.49 61.807998,13.734 C61.422998,13.124 61.230998,12.38 60.635998,11.842 C58.854998,9.508 55.752998,8.897 54.603998,6.127 C54.895998,7.78 55.398998,9.342 56.563998,10.625 C58.567998,12.785 61.481998,14.06 62.871998,16.737 L62.871998,16.737 Z M65.158998,20.534 C66.706998,17.23 66.240998,12.643 64.118998,9.762 C63.743998,9.295 63.498998,8.694 62.962998,8.381 C63.800998,9.548 63.947998,11.009 63.971998,12.52 C63.585998,15.305 63.466998,18.26 63.766998,21.167 C63.539998,20.424 63.560998,19.554 63.190998,18.864 C62.287998,16.126 58.973998,14.841 57.631998,12.356 C57.820998,13.438 58.162998,14.467 58.558998,15.464 C59.814998,18.514 62.872998,20.817 63.719998,24.05 C63.814998,24.347 63.841998,24.709 63.947998,24.975 C64.174998,23.424 64.584998,21.933 65.158998,20.534 L65.158998,20.534 Z M66.106998,28.454 C67.870998,25.213 68.358998,20.577 66.747998,17.108 C67.284998,20.052 65.958998,22.509 64.897998,24.948 C64.152998,26.64 63.909998,28.549 63.431998,30.365 L63.222998,30.47 C63.393998,29.677 63.672998,28.921 63.598998,28.021 C63.800998,24.321 60.559998,22.054 59.827998,18.757 L59.789998,19.991 C60.066998,23.22 60.919998,26.208 61.896998,29.15 C62.458998,30.515 62.286998,32.295 62.154998,33.736 C63.321998,31.914 64.845998,30.246 66.106998,28.454 L66.106998,28.454 Z" id="Fill-1"></path>
            </g>
            <path d="M144.749,6.884 C141.839,12.396 140.186,18.672 140.186,25.338 C140.186,37.416 145.599,48.222 154.126,55.485 L21,55.485 C0.63,55.485 0.0189,35.7261 0.000567,34.540566 L0,6.884 Z M68.791,22.792 L65.012,22.792 L65.012,36.651 C65.012,39.13 65.768,43.246 70.388,43.246 C74.461,43.246 76.1,40.179 76.729,38.5 L76.814,38.5 L76.814,42.783 L80.593,42.783 L80.593,22.792 L76.814,22.792 L76.814,31.275 C76.814,35.265 74.629,39.466 71.521,39.466 C68.986,39.466 68.8049286,37.726852 68.7919949,34.4863509 L68.791,22.792 Z M114.823,22.33 C109.237,22.33 107.347,25.143 107.347,28.336 L111.338,28.336 C111.338,26.739 112.262,25.269 114.529,25.269 C115.957,25.269 117.26,25.899 117.596,27.832 L117.596,31.317 C112.514,31.317 106.675,32.577 106.675,37.869 C106.675,40.977 108.607,43.246 112.346,43.246 C115.411,43.246 117.008,41.397 117.512,40.305 L117.596,40.305 L117.596,42.783 L121.375,42.783 L121.375,29.049 L121.374971,28.9577107 L121.374221,28.7609502 C121.359153,26.7716372 121.05277,22.33 114.823,22.33 Z M23.976,22.792 L20.322,22.792 L24.942,42.783 L28.932,42.783 L32.964,28.923 L33.048,28.923 L37.206,42.783 L41.196,42.783 L45.69,22.792 L42.036,22.792 L38.886,37.281 L38.802,37.281 L34.434,22.792 L31.578,22.792 L27.21,37.281 L27.126,37.281 L23.976,22.792 Z M59.636,13.341 C54.512,13.341 51.992,15.777 51.992,20.481 L51.992,22.792 L48.38,22.792 L48.38,25.731 L51.992,25.731 L51.992,42.783 L55.772,42.783 L55.772,25.731 L61.736,25.731 L61.736,22.792 L55.772,22.792 L55.772,20.733 C55.772,18.717 56.654,16.281 59.678,16.281 C61.316,16.281 62.492,16.533 63.668,16.869 L63.668,13.719 C62.408,13.425 60.896,13.341 59.636,13.341 Z M97.226,22.33 C93.151,22.33 91.555,25.395 90.883,27.075 L90.799,27.075 L90.799,22.792 L87.02,22.792 L87.02,42.783 L90.799,42.783 L90.799,34.299 C90.799,30.309 92.983,26.109 96.091,26.109 C98.626,26.109 98.8070714,27.8843622 98.8200051,31.0964093 L98.8209632,31.6018595 C98.821,31.6879751 98.821,31.7750238 98.821,31.863 L98.821,42.783 L102.602,42.783 L102.602,28.923 C102.602,26.445 101.845,22.33 97.226,22.33 Z M117.596,33.838 L117.596,34.971 C117.596,37.323 115.663,40.305 113.059,40.305 C111.926,40.305 110.875,39.297 110.875,37.743 C110.875,35.181 113.857,33.838 116.84,33.838 L117.596,33.838 Z" id="Combined-Shape"></path>
            <path d="M214.069,70.173 C213.613,69.932 213.037,69.74 213.037,69.272 C213.037,68.864 213.493,68.528 214.19,68.528 C214.767,68.528 215.33,68.72 215.522,68.792 L215.522,68.037 C215.259,67.977 214.79,67.846 214.179,67.846 C212.905,67.846 212.223,68.432 212.223,69.356 C212.223,70.293 212.989,70.605 213.518,70.905 L214.033,71.181 C214.37,71.373 215.066,71.625 215.066,72.213 C215.066,72.873 214.467,73.138 213.674,73.138 C213.025,73.138 212.343,72.885 212.198,72.837 L212.198,73.581 C212.427,73.652 213.014,73.82 213.758,73.82 C215.091,73.82 215.882,73.233 215.882,72.093 C215.882,71.109 215.15,70.773 214.551,70.461 L214.069,70.173 Z M206.954,73.688 L207.77,73.688 L207.77,71.336 C207.77,70.304 208.31,68.66 209.391,68.66 C210.23,68.66 210.23,69.536 210.23,70.52 L210.23,73.688 L211.046,73.688 L211.046,69.608 C211.046,68.66 210.555,67.846 209.582,67.846 C208.31,67.846 207.949,68.828 207.794,69.296 L207.77,69.296 L207.77,67.978 L206.954,67.978 L206.954,73.688 Z M201.949,70.833 C201.949,69.404 202.418,68.528 203.343,68.528 C204.278,68.528 204.759,69.404 204.759,70.833 C204.759,72.273 204.278,73.138 203.343,73.138 C202.418,73.138 201.949,72.273 201.949,70.833 L201.949,70.833 Z M203.343,73.82 C205.034,73.82 205.693,72.513 205.693,70.845 C205.693,69.176 205.034,67.846 203.343,67.846 C201.661,67.846 201.015,69.176 201.015,70.845 C201.015,72.513 201.661,73.82 203.343,73.82 L203.343,73.82 Z M198.711,66.488 L199.788,66.488 L199.788,65.409 L198.711,65.409 L198.711,66.488 Z M198.843,73.688 L199.657,73.688 L199.657,67.978 L198.843,67.978 L198.843,73.688 Z M197.714,73.029 C197.533,73.089 197.426,73.138 197.161,73.138 C196.321,73.138 196.226,72.549 196.226,72.177 L196.226,68.66 L197.762,68.66 L197.762,67.978 L196.226,67.978 L196.226,66.129 L195.411,66.646 L195.411,67.978 L194.476,67.978 L194.476,68.66 L195.411,68.66 L195.411,72.345 C195.411,73.365 195.843,73.82 196.993,73.82 C197.233,73.82 197.474,73.796 197.714,73.76 L197.714,73.029 Z M192.771,71.096 C192.771,71.781 192.699,71.913 192.555,72.249 C192.315,72.801 191.738,73.138 191.223,73.138 C190.802,73.138 190.418,72.849 190.418,72.309 C190.418,71.336 191.69,71.096 192.29,71.096 L192.771,71.096 Z M192.796,73.688 L193.586,73.688 L193.586,69.681 C193.586,68.96 193.441,67.846 191.666,67.846 C190.106,67.846 189.628,68.72 189.615,69.441 L190.525,69.441 C190.586,68.996 190.766,68.528 191.69,68.528 C192.122,68.528 192.603,68.684 192.735,69.321 C192.771,69.513 192.771,70.137 192.771,70.413 C192.578,70.45 192.41,70.45 192.206,70.45 C191.211,70.45 189.483,70.892 189.483,72.225 C189.483,73.245 190.082,73.82 191.018,73.82 C192.063,73.82 192.627,73.209 192.771,72.933 L192.796,72.933 L192.796,73.688 Z M187.228,66.488 L188.306,66.488 L188.306,65.409 L187.228,65.409 L187.228,66.488 Z M187.359,73.688 L188.173,73.688 L188.173,67.978 L187.359,67.978 L187.359,73.688 Z M186.134,73.017 C185.822,73.125 185.414,73.138 185.212,73.138 C183.314,73.138 182.941,71.613 182.941,70.521 C182.941,69.656 183.266,68.528 184.299,68.528 C185.066,68.528 185.319,69.104 185.319,69.716 L186.289,69.716 C186.289,68.804 185.858,67.846 184.335,67.846 C182.69,67.846 182.008,68.984 182.008,70.701 C182.008,72.765 183.121,73.82 184.946,73.82 C185.475,73.82 185.774,73.772 186.134,73.664 L186.134,73.017 Z M177.409,70.833 C177.409,69.404 177.879,68.528 178.803,68.528 C179.739,68.528 180.22,69.404 180.22,70.833 C180.22,72.273 179.739,73.138 178.803,73.138 C177.879,73.138 177.409,72.273 177.409,70.833 L177.409,70.833 Z M178.803,73.82 C180.494,73.82 181.153,72.513 181.153,70.845 C181.153,69.176 180.494,67.846 178.803,67.846 C177.122,67.846 176.476,69.176 176.476,70.845 C176.476,72.513 177.122,73.82 178.803,73.82 L178.803,73.82 Z M174.038,70.173 C173.582,69.932 173.006,69.74 173.006,69.272 C173.006,68.864 173.463,68.528 174.158,68.528 C174.735,68.528 175.299,68.72 175.49,68.792 L175.49,68.037 C175.227,67.977 174.76,67.846 174.147,67.846 C172.874,67.846 172.191,68.432 172.191,69.356 C172.191,70.293 172.957,70.605 173.486,70.905 L174.003,71.181 C174.339,71.373 175.035,71.625 175.035,72.213 C175.035,72.873 174.435,73.138 173.643,73.138 C172.993,73.138 172.311,72.885 172.168,72.837 L172.168,73.581 C172.395,73.652 172.981,73.82 173.727,73.82 C175.06,73.82 175.85,73.233 175.85,72.093 C175.85,71.109 175.119,70.773 174.519,70.461 L174.038,70.173 Z M169.599,70.173 C169.143,69.932 168.565,69.74 168.565,69.272 C168.565,68.864 169.023,68.528 169.719,68.528 C170.296,68.528 170.858,68.72 171.051,68.792 L171.051,68.037 C170.787,67.977 170.319,67.846 169.706,67.846 C168.435,67.846 167.752,68.432 167.752,69.356 C167.752,70.293 168.518,70.605 169.047,70.905 L169.562,71.181 C169.898,71.373 170.596,71.625 170.596,72.213 C170.596,72.873 169.994,73.138 169.202,73.138 C168.554,73.138 167.871,72.885 167.728,72.837 L167.728,73.581 C167.955,73.652 168.541,73.82 169.286,73.82 C170.619,73.82 171.409,73.233 171.409,72.093 C171.409,71.109 170.68,70.773 170.079,70.461 L169.599,70.173 Z M164.162,66.26 L164.186,66.26 L165.398,70.354 L162.95,70.354 L164.162,66.26 Z M160.96,73.688 L161.895,73.688 L162.699,71.131 L165.65,71.131 L166.479,73.688 L167.413,73.688 L164.738,65.41 L163.599,65.41 L160.96,73.688 Z M156.099,70.173 C155.643,69.932 155.066,69.74 155.066,69.272 C155.066,68.864 155.523,68.528 156.219,68.528 C156.796,68.528 157.359,68.72 157.551,68.792 L157.551,68.037 C157.287,67.977 156.819,67.846 156.206,67.846 C154.935,67.846 154.252,68.432 154.252,69.356 C154.252,70.293 155.019,70.605 155.547,70.905 L156.063,71.181 C156.399,71.373 157.096,71.625 157.096,72.213 C157.096,72.873 156.495,73.138 155.702,73.138 C155.055,73.138 154.371,72.885 154.228,72.837 L154.228,73.581 C154.455,73.652 155.043,73.82 155.786,73.82 C157.119,73.82 157.91,73.233 157.91,72.093 C157.91,71.109 157.18,70.773 156.579,70.461 L156.099,70.173 Z M148.983,73.688 L149.799,73.688 L149.799,71.336 C149.799,70.304 150.339,68.66 151.42,68.66 C152.26,68.66 152.26,69.536 152.26,70.52 L152.26,73.688 L153.074,73.688 L153.074,69.608 C153.074,68.66 152.584,67.846 151.611,67.846 C150.339,67.846 149.979,68.828 149.822,69.296 L149.799,69.296 L149.799,67.978 L148.983,67.978 L148.983,73.688 Z M143.979,70.833 C143.979,69.404 144.446,68.528 145.371,68.528 C146.308,68.528 146.787,69.404 146.787,70.833 C146.787,72.273 146.308,73.138 145.371,73.138 C144.446,73.138 143.979,72.273 143.979,70.833 L143.979,70.833 Z M145.371,73.82 C147.064,73.82 147.723,72.513 147.723,70.845 C147.723,69.176 147.064,67.846 145.371,67.846 C143.69,67.846 143.043,69.176 143.043,70.845 C143.043,72.513 143.69,73.82 145.371,73.82 L145.371,73.82 Z M140.739,66.488 L141.817,66.488 L141.817,65.409 L140.739,65.409 L140.739,66.488 Z M140.871,73.688 L141.685,73.688 L141.685,67.978 L140.871,67.978 L140.871,73.688 Z M139.742,73.029 C139.563,73.089 139.455,73.138 139.19,73.138 C138.351,73.138 138.254,72.549 138.254,72.177 L138.254,68.66 L139.791,68.66 L139.791,67.978 L138.254,67.978 L138.254,66.129 L137.439,66.646 L137.439,67.978 L136.504,67.978 L136.504,68.66 L137.439,68.66 L137.439,72.345 C137.439,73.365 137.871,73.82 139.023,73.82 C139.263,73.82 139.502,73.796 139.742,73.76 L139.742,73.029 Z M134.799,71.096 C134.799,71.781 134.728,71.913 134.584,72.249 C134.344,72.801 133.768,73.138 133.25,73.138 C132.83,73.138 132.446,72.849 132.446,72.309 C132.446,71.336 133.72,71.096 134.319,71.096 L134.799,71.096 Z M134.823,73.688 L135.614,73.688 L135.614,69.681 C135.614,68.96 135.471,67.846 133.695,67.846 C132.135,67.846 131.655,68.72 131.644,69.441 L132.555,69.441 C132.614,68.996 132.795,68.528 133.72,68.528 C134.151,68.528 134.631,68.684 134.764,69.321 C134.799,69.513 134.799,70.137 134.799,70.413 C134.607,70.45 134.439,70.45 134.235,70.45 C133.238,70.45 131.512,70.892 131.512,72.225 C131.512,73.245 132.11,73.82 133.047,73.82 C134.092,73.82 134.655,73.209 134.799,72.933 L134.823,72.933 L134.823,73.688 Z M124.709,73.688 L125.595,73.688 L125.595,66.716 L125.619,66.716 L129.027,73.688 L130.227,73.688 L130.227,65.41 L129.34,65.41 L129.34,72.405 L129.316,72.405 L125.906,65.41 L124.709,65.41 L124.709,73.688 Z M116.763,71.037 C116.763,69.824 117.004,68.528 117.976,68.528 C118.84,68.528 119.297,69.584 119.297,70.857 C119.297,71.841 118.889,73.138 117.951,73.138 C116.871,73.138 116.763,71.769 116.763,71.037 L116.763,71.037 Z M119.297,73.688 L120.11,73.688 L120.11,65.41 L119.297,65.41 L119.297,68.912 L119.273,68.912 C119.129,68.504 118.769,67.846 117.772,67.846 C116.367,67.846 115.828,69.344 115.828,70.88 C115.828,72.693 116.403,73.82 117.783,73.82 C118.696,73.82 119.152,73.125 119.273,72.717 L119.297,72.717 L119.297,73.688 Z M111.772,69.61 C111.844,69.225 112.119,68.528 112.972,68.528 C113.801,68.528 114.064,69.225 114.064,69.61 L111.772,69.61 Z M114.867,72.981 C114.604,73.041 114.377,73.138 113.74,73.138 C112.096,73.138 111.711,71.493 111.711,70.628 L111.711,70.292 L115,70.292 L115,70.017 C115,68.768 114.352,67.846 113.008,67.846 C111.483,67.846 110.776,68.937 110.776,70.64 C110.776,72.753 111.795,73.82 113.561,73.82 C114.088,73.82 114.52,73.76 114.867,73.652 L114.867,72.981 Z M110.104,73.029 C109.923,73.089 109.815,73.138 109.551,73.138 C108.711,73.138 108.616,72.549 108.616,72.177 L108.616,68.66 L110.151,68.66 L110.151,67.978 L108.616,67.978 L108.616,66.129 L107.8,66.646 L107.8,67.978 L106.864,67.978 L106.864,68.66 L107.8,68.66 L107.8,72.345 C107.8,73.365 108.231,73.82 109.383,73.82 C109.624,73.82 109.863,73.796 110.104,73.76 L110.104,73.029 Z M104.692,66.488 L105.771,66.488 L105.771,65.409 L104.692,65.409 L104.692,66.488 Z M104.825,73.688 L105.639,73.688 L105.639,67.978 L104.825,67.978 L104.825,73.688 Z M98.993,73.688 L99.808,73.688 L99.808,71.336 C99.808,70.304 100.348,68.66 101.429,68.66 C102.269,68.66 102.269,69.536 102.269,70.52 L102.269,73.688 L103.084,73.688 L103.084,69.608 C103.084,68.66 102.592,67.846 101.621,67.846 C100.348,67.846 99.987,68.828 99.832,69.296 L99.808,69.296 L99.808,67.978 L98.993,67.978 L98.993,73.688 Z M97.324,65.41 L96.389,65.41 L96.389,70.846 C96.389,71.782 96.389,73.042 94.672,73.042 C93.1,73.042 93.04,71.782 93.04,70.846 L93.04,65.41 L92.104,65.41 L92.104,71.026 C92.104,72.106 92.38,73.82 94.637,73.82 C97.167,73.82 97.324,72.106 97.324,71.026 L97.324,65.41 Z M85.806,73.688 L86.62,73.688 L86.62,68.66 L88.264,68.66 L88.264,67.978 L86.62,67.978 L86.62,67.353 C86.62,66.584 86.872,66.056 87.819,66.056 C88.168,66.056 88.432,66.14 88.647,66.212 L88.647,65.481 C88.383,65.421 88.084,65.374 87.675,65.374 C86.249,65.374 85.806,66.248 85.806,67.185 L85.806,67.978 L84.846,67.978 L84.846,68.66 L85.806,68.66 L85.806,73.688 Z M80.463,70.833 C80.463,69.404 80.933,68.528 81.856,68.528 C82.794,68.528 83.273,69.404 83.273,70.833 C83.273,72.273 82.794,73.138 81.856,73.138 C80.933,73.138 80.463,72.273 80.463,70.833 L80.463,70.833 Z M81.856,73.82 C83.548,73.82 84.207,72.513 84.207,70.845 C84.207,69.176 83.548,67.846 81.856,67.846 C80.176,67.846 79.529,69.176 79.529,70.845 C79.529,72.513 80.176,73.82 81.856,73.82 L81.856,73.82 Z M71.31,73.688 L72.124,73.688 L72.124,71.336 C72.124,70.304 72.665,68.66 73.745,68.66 C74.585,68.66 74.585,69.536 74.585,70.52 L74.585,73.688 L75.399,73.688 L75.399,69.608 C75.399,68.66 74.909,67.846 73.937,67.846 C72.665,67.846 72.305,68.828 72.148,69.296 L72.124,69.296 L72.124,67.978 L71.31,67.978 L71.31,73.688 Z M66.305,70.833 C66.305,69.404 66.773,68.528 67.696,68.528 C68.633,68.528 69.113,69.404 69.113,70.833 C69.113,72.273 68.633,73.138 67.696,73.138 C66.773,73.138 66.305,72.273 66.305,70.833 L66.305,70.833 Z M67.696,73.82 C69.39,73.82 70.048,72.513 70.048,70.845 C70.048,69.176 69.39,67.846 67.696,67.846 C66.017,67.846 65.37,69.176 65.37,70.845 C65.37,72.513 66.017,73.82 67.696,73.82 L67.696,73.82 Z M63.065,66.488 L64.144,66.488 L64.144,65.409 L63.065,65.409 L63.065,66.488 Z M63.197,73.688 L64.011,73.688 L64.011,67.978 L63.197,67.978 L63.197,73.688 Z M62.068,73.029 C61.889,73.089 61.78,73.138 61.517,73.138 C60.676,73.138 60.581,72.549 60.581,72.177 L60.581,68.66 L62.117,68.66 L62.117,67.978 L60.581,67.978 L60.581,66.129 L59.766,66.646 L59.766,67.978 L58.83,67.978 L58.83,68.66 L59.766,68.66 L59.766,72.345 C59.766,73.365 60.196,73.82 61.349,73.82 C61.588,73.82 61.829,73.796 62.068,73.76 L62.068,73.029 Z M57.126,71.096 C57.126,71.781 57.054,71.913 56.91,72.249 C56.669,72.801 56.093,73.138 55.577,73.138 C55.157,73.138 54.773,72.849 54.773,72.309 C54.773,71.336 56.045,71.096 56.646,71.096 L57.126,71.096 Z M57.149,73.688 L57.94,73.688 L57.94,69.681 C57.94,68.96 57.796,67.846 56.021,67.846 C54.46,67.846 53.981,68.72 53.97,69.441 L54.88,69.441 C54.94,68.996 55.121,68.528 56.044,68.528 C56.478,68.528 56.958,68.684 57.089,69.321 C57.126,69.513 57.126,70.137 57.126,70.413 C56.934,70.45 56.766,70.45 56.562,70.45 C55.564,70.45 53.837,70.892 53.837,72.225 C53.837,73.245 54.437,73.82 55.373,73.82 C56.418,73.82 56.981,73.209 57.126,72.933 L57.149,72.933 L57.149,73.688 Z M50.753,73.688 L51.568,73.688 L51.568,71.324 C51.568,69.788 52.205,68.72 53.501,68.72 L53.501,67.846 C52.192,67.846 51.761,68.696 51.592,69.08 L51.568,69.08 L51.568,67.978 L50.753,67.978 L50.753,73.688 Z M46.276,69.61 C46.349,69.225 46.625,68.528 47.478,68.528 C48.306,68.528 48.57,69.225 48.57,69.61 L46.276,69.61 Z M49.373,72.981 C49.109,73.041 48.881,73.138 48.246,73.138 C46.601,73.138 46.216,71.493 46.216,70.628 L46.216,70.292 L49.504,70.292 L49.504,70.017 C49.504,68.768 48.857,67.846 47.514,67.846 C45.988,67.846 45.283,68.937 45.283,70.64 C45.283,72.753 46.3,73.82 48.065,73.82 C48.595,73.82 49.025,73.76 49.373,73.652 L49.373,72.981 Z M40.648,71.037 C40.648,69.824 40.889,68.528 41.861,68.528 C42.726,68.528 43.183,69.584 43.183,70.857 C43.183,71.841 42.773,73.138 41.837,73.138 C40.756,73.138 40.648,71.769 40.648,71.037 L40.648,71.037 Z M43.183,73.688 L43.997,73.688 L43.997,65.41 L43.183,65.41 L43.183,68.912 L43.159,68.912 C43.015,68.504 42.653,67.846 41.658,67.846 C40.253,67.846 39.714,69.344 39.714,70.88 C39.714,72.693 40.29,73.82 41.669,73.82 C42.581,73.82 43.039,73.125 43.159,72.717 L43.183,72.717 L43.183,73.688 Z M35.657,69.61 C35.729,69.225 36.005,68.528 36.857,68.528 C37.687,68.528 37.951,69.225 37.951,69.61 L35.657,69.61 Z M38.753,72.981 C38.489,73.041 38.262,73.138 37.627,73.138 C35.981,73.138 35.597,71.493 35.597,70.628 L35.597,70.292 L38.884,70.292 L38.884,70.017 C38.884,68.768 38.237,67.846 36.894,67.846 C35.37,67.846 34.663,68.937 34.663,70.64 C34.663,72.753 35.681,73.82 37.446,73.82 C37.975,73.82 38.405,73.76 38.753,73.652 L38.753,72.981 Z M30.234,73.688 L31.169,73.688 L31.169,69.74 L34.097,69.74 L34.097,68.961 L31.169,68.961 L31.169,66.188 L34.241,66.188 L34.241,65.41 L30.234,65.41 L30.234,73.688 Z M22.29,71.037 C22.29,69.824 22.529,68.528 23.502,68.528 C24.367,68.528 24.822,69.584 24.822,70.857 C24.822,71.841 24.415,73.138 23.478,73.138 C22.398,73.138 22.29,71.769 22.29,71.037 L22.29,71.037 Z M24.822,73.688 L25.638,73.688 L25.638,65.41 L24.822,65.41 L24.822,68.912 L24.798,68.912 C24.654,68.504 24.294,67.846 23.297,67.846 C21.894,67.846 21.355,69.344 21.355,70.88 C21.355,72.693 21.93,73.82 23.31,73.82 C24.223,73.82 24.679,73.125 24.798,72.717 L24.822,72.717 L24.822,73.688 Z M19.194,73.688 L20.008,73.688 L20.008,65.409 L19.194,65.409 L19.194,73.688 Z M15.583,73.688 L16.398,73.688 L16.398,71.324 C16.398,69.788 17.034,68.72 18.33,68.72 L18.33,67.846 C17.021,67.846 16.589,68.696 16.421,69.08 L16.398,69.08 L16.398,67.978 L15.583,67.978 L15.583,73.688 Z M10.578,70.833 C10.578,69.404 11.045,68.528 11.971,68.528 C12.907,68.528 13.388,69.404 13.388,70.833 C13.388,72.273 12.907,73.138 11.971,73.138 C11.045,73.138 10.578,72.273 10.578,70.833 L10.578,70.833 Z M11.971,73.82 C13.663,73.82 14.321,72.513 14.321,70.845 C14.321,69.176 13.663,67.846 11.971,67.846 C10.291,67.846 9.644,69.176 9.644,70.845 C9.644,72.513 10.291,73.82 11.971,73.82 L11.971,73.82 Z M1.721,73.688 L2.86,73.688 L4.804,66.656 L4.828,66.656 L6.748,73.688 L7.899,73.688 L9.363,65.41 L8.523,65.41 L7.252,72.514 L7.228,72.514 L5.295,65.41 L4.312,65.41 L2.369,72.514 L2.345,72.514 L1.085,65.41 L0.245,65.41 L1.721,73.688 L1.721,73.688 Z" id="Fill-2"></path>
        </g>
    </g>
</svg>